%TF.GenerationSoftware,KiCad,Pcbnew,8.0.6*%
%TF.CreationDate,2025-05-10T04:30:44+07:00*%
%TF.ProjectId,FCU32 2 LAYER,46435533-3220-4322-904c-415945522e6b,rev?*%
%TF.SameCoordinates,Original*%
%TF.FileFunction,Copper,L2,Bot*%
%TF.FilePolarity,Positive*%
%FSLAX46Y46*%
G04 Gerber Fmt 4.6, Leading zero omitted, Abs format (unit mm)*
G04 Created by KiCad (PCBNEW 8.0.6) date 2025-05-10 04:30:44*
%MOMM*%
%LPD*%
G01*
G04 APERTURE LIST*
G04 Aperture macros list*
%AMRoundRect*
0 Rectangle with rounded corners*
0 $1 Rounding radius*
0 $2 $3 $4 $5 $6 $7 $8 $9 X,Y pos of 4 corners*
0 Add a 4 corners polygon primitive as box body*
4,1,4,$2,$3,$4,$5,$6,$7,$8,$9,$2,$3,0*
0 Add four circle primitives for the rounded corners*
1,1,$1+$1,$2,$3*
1,1,$1+$1,$4,$5*
1,1,$1+$1,$6,$7*
1,1,$1+$1,$8,$9*
0 Add four rect primitives between the rounded corners*
20,1,$1+$1,$2,$3,$4,$5,0*
20,1,$1+$1,$4,$5,$6,$7,0*
20,1,$1+$1,$6,$7,$8,$9,0*
20,1,$1+$1,$8,$9,$2,$3,0*%
G04 Aperture macros list end*
%TA.AperFunction,Conductor*%
%ADD10C,0.200000*%
%TD*%
%TA.AperFunction,ComponentPad*%
%ADD11O,1.600000X1.600000*%
%TD*%
%TA.AperFunction,ComponentPad*%
%ADD12R,1.600000X1.600000*%
%TD*%
%TA.AperFunction,ComponentPad*%
%ADD13C,2.000000*%
%TD*%
%TA.AperFunction,SMDPad,CuDef*%
%ADD14RoundRect,0.250000X-0.625000X0.400000X-0.625000X-0.400000X0.625000X-0.400000X0.625000X0.400000X0*%
%TD*%
%TA.AperFunction,ComponentPad*%
%ADD15R,1.700000X1.700000*%
%TD*%
%TA.AperFunction,ComponentPad*%
%ADD16O,1.700000X1.700000*%
%TD*%
%TA.AperFunction,ComponentPad*%
%ADD17C,1.400000*%
%TD*%
%TA.AperFunction,ComponentPad*%
%ADD18RoundRect,0.770000X0.980000X0.980000X-0.980000X0.980000X-0.980000X-0.980000X0.980000X-0.980000X0*%
%TD*%
%TA.AperFunction,ComponentPad*%
%ADD19C,3.500000*%
%TD*%
%TA.AperFunction,SMDPad,CuDef*%
%ADD20RoundRect,0.250000X1.000000X0.650000X-1.000000X0.650000X-1.000000X-0.650000X1.000000X-0.650000X0*%
%TD*%
%TA.AperFunction,HeatsinkPad*%
%ADD21C,0.600000*%
%TD*%
%TA.AperFunction,ViaPad*%
%ADD22C,1.000000*%
%TD*%
%TA.AperFunction,ViaPad*%
%ADD23C,0.600000*%
%TD*%
%TA.AperFunction,Conductor*%
%ADD24C,1.000000*%
%TD*%
%TA.AperFunction,Conductor*%
%ADD25C,0.500000*%
%TD*%
%TA.AperFunction,Conductor*%
%ADD26C,0.300000*%
%TD*%
%TA.AperFunction,Conductor*%
%ADD27C,0.100000*%
%TD*%
%TA.AperFunction,Conductor*%
%ADD28C,2.000000*%
%TD*%
G04 APERTURE END LIST*
%TO.N,ACCU.SRC*%
D10*
X35200000Y-93550000D02*
X39100000Y-93550000D01*
X39100000Y-101450000D01*
X35200000Y-101450000D01*
X35200000Y-93550000D01*
%TA.AperFunction,Conductor*%
G36*
X35200000Y-93550000D02*
G01*
X39100000Y-93550000D01*
X39100000Y-101450000D01*
X35200000Y-101450000D01*
X35200000Y-93550000D01*
G37*
%TD.AperFunction*%
%TO.N,FUEL.PUMP(-)*%
X30300000Y-93550000D02*
X34000000Y-93550000D01*
X34000000Y-101450000D01*
X30300000Y-101450000D01*
X30300000Y-93550000D01*
%TA.AperFunction,Conductor*%
G36*
X30300000Y-93550000D02*
G01*
X34000000Y-93550000D01*
X34000000Y-101450000D01*
X30300000Y-101450000D01*
X30300000Y-93550000D01*
G37*
%TD.AperFunction*%
%TO.N,INJECTOR(-)*%
X44600000Y-93750000D02*
X48200000Y-93750000D01*
X48200000Y-101650000D01*
X44600000Y-101650000D01*
X44600000Y-93750000D01*
%TA.AperFunction,Conductor*%
G36*
X44600000Y-93750000D02*
G01*
X48200000Y-93750000D01*
X48200000Y-101650000D01*
X44600000Y-101650000D01*
X44600000Y-93750000D01*
G37*
%TD.AperFunction*%
%TO.N,ACCU.SRC*%
X63500000Y-93600000D02*
X67900000Y-93600000D01*
X67900000Y-98300000D01*
X63500000Y-98300000D01*
X63500000Y-93600000D01*
%TA.AperFunction,Conductor*%
G36*
X63500000Y-93600000D02*
G01*
X67900000Y-93600000D01*
X67900000Y-98300000D01*
X63500000Y-98300000D01*
X63500000Y-93600000D01*
G37*
%TD.AperFunction*%
X49700000Y-93700000D02*
X53300000Y-93700000D01*
X53300000Y-101600000D01*
X49700000Y-101600000D01*
X49700000Y-93700000D01*
%TA.AperFunction,Conductor*%
G36*
X49700000Y-93700000D02*
G01*
X53300000Y-93700000D01*
X53300000Y-101600000D01*
X49700000Y-101600000D01*
X49700000Y-93700000D01*
G37*
%TD.AperFunction*%
%TD*%
D11*
%TO.P,U8,6*%
%TO.N,ACCU.SRC*%
X38820000Y-72475001D03*
%TO.P,U8,5*%
%TO.N,GND*%
X38820000Y-75015001D03*
%TO.P,U8,4*%
%TO.N,Net-(Q4-G)*%
X38820000Y-77555001D03*
%TO.P,U8,3*%
%TO.N,unconnected-(U8-Pad3)*%
X31200000Y-77555000D03*
%TO.P,U8,2*%
%TO.N,Net-(R16-Pad2)*%
X31200000Y-75015001D03*
D12*
%TO.P,U8,1*%
%TO.N,PUMP.PIN*%
X31200000Y-72475001D03*
%TD*%
D11*
%TO.P,U2,6*%
%TO.N,ACCU.SRC*%
X53820000Y-72475001D03*
%TO.P,U2,5*%
%TO.N,GND*%
X53820000Y-75015001D03*
%TO.P,U2,4*%
%TO.N,Net-(Q1-G)*%
X53820000Y-77555001D03*
%TO.P,U2,3*%
%TO.N,unconnected-(U2-Pad3)*%
X46200000Y-77555000D03*
%TO.P,U2,2*%
%TO.N,Net-(R8-Pad2)*%
X46200000Y-75015001D03*
D12*
%TO.P,U2,1*%
%TO.N,INJEC.PIN*%
X46200000Y-72475001D03*
%TD*%
%TO.P,U13,1*%
%TO.N,EROR*%
X48975000Y-45200000D03*
D11*
%TO.P,U13,2*%
%TO.N,Net-(R2-Pad2)*%
X46435000Y-45200000D03*
%TO.P,U13,3*%
%TO.N,Net-(Q2-G)*%
X46435000Y-52820000D03*
%TO.P,U13,4*%
%TO.N,ACCU.SRC*%
X48975000Y-52820000D03*
%TD*%
D12*
%TO.P,U9,1*%
%TO.N,+5V*%
X38100000Y-64725000D03*
D11*
%TO.P,U9,2*%
%TO.N,Net-(Q3-C)*%
X38100000Y-62185000D03*
%TO.P,U9,3*%
%TO.N,unconnected-(U9-Pad3)*%
X38100000Y-59645001D03*
%TO.P,U9,4*%
%TO.N,RPM*%
X30480000Y-59645000D03*
%TO.P,U9,5*%
%TO.N,GND1*%
X30480000Y-62185000D03*
%TO.P,U9,6*%
%TO.N,+3V3*%
X30480000Y-64725000D03*
%TD*%
D12*
%TO.P,U7,1*%
%TO.N,St.Out*%
X46925001Y-32400000D03*
D11*
%TO.P,U7,2*%
%TO.N,Net-(R14-Pad2)*%
X49465001Y-32400000D03*
%TO.P,U7,3*%
%TO.N,Net-(Q7-G)*%
X49465001Y-24780000D03*
%TO.P,U7,4*%
%TO.N,ACCU.SRC*%
X46925001Y-24780000D03*
%TD*%
D13*
%TO.P,SW2,1,1*%
%TO.N,IO0*%
X20066000Y-82282000D03*
X26566000Y-82282000D03*
%TO.P,SW2,2,2*%
%TO.N,GND1*%
X20066000Y-86782000D03*
X26566000Y-86782000D03*
%TD*%
%TO.P,SW1,1,1*%
%TO.N,en*%
X20066000Y-73732000D03*
X26566000Y-73732000D03*
%TO.P,SW1,2,2*%
%TO.N,GND1*%
X20066000Y-78232000D03*
X26566000Y-78232000D03*
%TD*%
D14*
%TO.P,R19,2*%
%TO.N,Net-(Q4-G)*%
X36300000Y-78050001D03*
%TO.P,R19,1*%
%TO.N,GND*%
X36300000Y-74949999D03*
%TD*%
%TO.P,R16,1*%
%TO.N,GND1*%
X33900000Y-71749999D03*
%TO.P,R16,2*%
%TO.N,Net-(R16-Pad2)*%
X33900000Y-74850001D03*
%TD*%
%TO.P,R8,1*%
%TO.N,GND1*%
X48800000Y-71899999D03*
%TO.P,R8,2*%
%TO.N,Net-(R8-Pad2)*%
X48800000Y-75000001D03*
%TD*%
%TO.P,R7,1*%
%TO.N,GND*%
X51500000Y-75449999D03*
%TO.P,R7,2*%
%TO.N,Net-(Q1-G)*%
X51500000Y-78550001D03*
%TD*%
D15*
%TO.P,JP1,1,A*%
%TO.N,GND*%
X50975000Y-68300000D03*
D16*
%TO.P,JP1,2,B*%
%TO.N,GND1*%
X48435000Y-68300000D03*
%TD*%
D17*
%TO.P,J5,*%
%TO.N,*%
X54400000Y-105900000D03*
X43400000Y-105900000D03*
D18*
%TO.P,J5,1,Pin_1*%
%TO.N,INJECTOR(-)*%
X46400000Y-95900000D03*
D19*
%TO.P,J5,2,Pin_2*%
%TO.N,ACCU.SRC*%
X51400000Y-95900000D03*
%TD*%
D17*
%TO.P,J4,*%
%TO.N,*%
X40100000Y-105900000D03*
X29100000Y-105900000D03*
D18*
%TO.P,J4,1,Pin_1*%
%TO.N,FUEL.PUMP(-)*%
X32100000Y-95900000D03*
D19*
%TO.P,J4,2,Pin_2*%
%TO.N,ACCU.SRC*%
X37100000Y-95900000D03*
%TD*%
D17*
%TO.P,J3,*%
%TO.N,*%
X68700000Y-105900000D03*
X57700000Y-105900000D03*
D18*
%TO.P,J3,1,Pin_1*%
%TO.N,GND*%
X60700000Y-95900000D03*
D19*
%TO.P,J3,2,Pin_2*%
%TO.N,ACCU.SRC*%
X65700000Y-95900000D03*
%TD*%
D15*
%TO.P,J2,1,Pin_1*%
%TO.N,+3V3*%
X30200000Y-25375000D03*
D16*
%TO.P,J2,2,Pin_2*%
%TO.N,GND1*%
X32740000Y-25375000D03*
%TO.P,J2,3,Pin_3*%
%TO.N,TX*%
X35279999Y-25375000D03*
%TO.P,J2,4,Pin_4*%
%TO.N,RX*%
X37820000Y-25375000D03*
%TD*%
D20*
%TO.P,D5,1,K*%
%TO.N,ACCU.SRC*%
X50900000Y-100000000D03*
%TO.P,D5,2,A*%
%TO.N,INJECTOR(-)*%
X46900000Y-100000000D03*
%TD*%
%TO.P,D4,1,K*%
%TO.N,ACCU.SRC*%
X36600000Y-100000000D03*
%TO.P,D4,2,A*%
%TO.N,FUEL.PUMP(-)*%
X32600000Y-100000000D03*
%TD*%
%TO.P,D1,1,K*%
%TO.N,toams*%
X70100001Y-74200000D03*
%TO.P,D1,2,A*%
%TO.N,ACCU.SRC*%
X66099999Y-74200000D03*
%TD*%
D16*
%TO.P,J1,16,Pin_16*%
%TO.N,BATTERY*%
X83000000Y-40280000D03*
%TO.P,J1,15,Pin_15*%
%TO.N,Dinamo.bt*%
X80460000Y-40280001D03*
%TO.P,J1,14,Pin_14*%
%TO.N,COIL*%
X83000000Y-37740000D03*
%TO.P,J1,13,Pin_13*%
%TO.N,ERROR_LAMP*%
X80460000Y-37740000D03*
%TO.P,J1,12,Pin_12*%
%TO.N,unconnected-(J1-Pin_12-Pad12)*%
X83000000Y-35200000D03*
%TO.P,J1,11,Pin_11*%
%TO.N,T.UDARA*%
X80460000Y-35200000D03*
%TO.P,J1,10,Pin_10*%
%TO.N,+3V3*%
X83000000Y-32660000D03*
%TO.P,J1,9,Pin_9*%
%TO.N,SENSOR PRESSURE*%
X80460000Y-32660000D03*
%TO.P,J1,8,Pin_8*%
%TO.N,STEPDOWN ACCU*%
X83000000Y-30120000D03*
%TO.P,J1,7,Pin_7*%
%TO.N,TPS*%
X80460000Y-30120000D03*
%TO.P,J1,6,Pin_6*%
%TO.N,unconnected-(J1-Pin_6-Pad6)*%
X83000000Y-27580000D03*
%TO.P,J1,5,Pin_5*%
%TO.N,Dinamo(-)*%
X80460000Y-27579999D03*
%TO.P,J1,4,Pin_4*%
%TO.N,unconnected-(J1-Pin_4-Pad4)*%
X83000000Y-25040000D03*
%TO.P,J1,3,Pin_3*%
%TO.N,GND1*%
X80460000Y-25040000D03*
%TO.P,J1,2,Pin_2*%
%TO.N,unconnected-(J1-Pin_2-Pad2)*%
X83000000Y-22500000D03*
D15*
%TO.P,J1,1,Pin_1*%
%TO.N,KEY*%
X80460000Y-22500000D03*
%TD*%
D21*
%TO.P,U12,41,GND*%
%TO.N,GND1*%
X27800000Y-49600000D03*
X29200000Y-49600000D03*
X27100000Y-48900000D03*
X28500000Y-48900000D03*
X29900000Y-48900000D03*
X27800000Y-48200000D03*
X29200000Y-48200000D03*
X27100000Y-47500000D03*
X28500000Y-47500000D03*
X29900000Y-47500000D03*
X27800000Y-46800000D03*
X29200000Y-46800000D03*
%TD*%
D22*
%TO.N,GND1*%
X23450000Y-51850000D03*
X26430000Y-51810000D03*
D23*
X40185333Y-52631333D03*
X35765985Y-52631333D03*
X76200000Y-28702000D03*
X76200000Y-26162000D03*
%TO.N,IO0*%
X26924000Y-57404000D03*
X43688000Y-71628000D03*
X25273000Y-53721000D03*
%TO.N,GND1*%
X34750000Y-70780000D03*
%TO.N,RPM*%
X51308000Y-56642000D03*
X51308000Y-53340000D03*
X56896000Y-52324000D03*
X67564000Y-48006000D03*
%TO.N,GND1*%
X64516000Y-49530000D03*
X67310000Y-49530000D03*
X62000000Y-43000000D03*
X64000000Y-45000000D03*
%TO.N,+3V3*%
X71000000Y-22000000D03*
X78000000Y-26000000D03*
X78500000Y-64900000D03*
X79000000Y-60500000D03*
%TO.N,BATT ENABLE*%
X76000000Y-55500000D03*
X59100000Y-53100000D03*
X76300000Y-60800000D03*
%TO.N,KEY.PIN*%
X73800000Y-22300000D03*
X72500000Y-28900000D03*
X69800000Y-37900000D03*
X67000000Y-44600000D03*
%TO.N,ACCU EN*%
X68050000Y-57250000D03*
%TO.N,BATT ENABLE*%
X74100000Y-60800000D03*
%TO.N,Net-(R2-Pad2)*%
X59200000Y-46200000D03*
X72700000Y-50600000D03*
%TO.N,STEPDOWN ACCU*%
X82900000Y-65600000D03*
%TO.N,ACCU EN*%
X79000000Y-63400000D03*
X65200000Y-57900000D03*
X54100000Y-55200000D03*
X47100000Y-55200000D03*
X36788328Y-53754358D03*
%TO.N,toams*%
X66000000Y-69200000D03*
%TO.N,+3V3*%
X76274999Y-44574999D03*
D22*
%TO.N,Net-(Q7-G)*%
X55725000Y-28545000D03*
X59075000Y-28545000D03*
X57399999Y-27020000D03*
X59075000Y-25495000D03*
X55725000Y-25495000D03*
D23*
%TO.N,GND*%
X59400000Y-69400000D03*
%TO.N,+3V3*%
X22200000Y-57600000D03*
%TO.N,St.Out*%
X46925001Y-39574999D03*
X41500000Y-45000000D03*
%TO.N,T.UDARA*%
X48300000Y-35200000D03*
X51800000Y-35200000D03*
%TO.N,Net-(Q3-C)*%
X62500000Y-56414760D03*
X78900000Y-51774999D03*
%TO.N,GND*%
X65400000Y-40800000D03*
%TO.N,Net-(Q2-G)*%
X65100000Y-39000000D03*
%TO.N,TPS*%
X40200000Y-48700000D03*
%TO.N,SENSOR PRESSURE*%
X33900000Y-50800000D03*
%TO.N,T.UDARA*%
X34800000Y-48200000D03*
%TO.N,GND1*%
X20780000Y-56680000D03*
D22*
%TO.N,Net-(Q4-G)*%
X32800000Y-82300000D03*
X36005000Y-82325000D03*
X34480000Y-83999999D03*
X36005000Y-85675000D03*
X32955000Y-85675000D03*
%TO.N,Net-(Q1-G)*%
X50627500Y-82325000D03*
X47577500Y-82325000D03*
X50627500Y-85675000D03*
X47577500Y-85675000D03*
X49102500Y-83999999D03*
%TD*%
D24*
%TO.N,GND1*%
X23490000Y-51810000D02*
X23450000Y-51850000D01*
X26430000Y-51810000D02*
X23490000Y-51810000D01*
D25*
X25165000Y-62185000D02*
X30480000Y-62185000D01*
X24785000Y-61805000D02*
X20780000Y-57800000D01*
X24785000Y-61805000D02*
X25165000Y-62185000D01*
X33580000Y-70600000D02*
X24785000Y-61805000D01*
X20780000Y-57800000D02*
X20780000Y-56680000D01*
X35049999Y-70600000D02*
X33580000Y-70600000D01*
D26*
%TO.N,ACCU.SRC*%
X20010000Y-31946023D02*
X20010000Y-62428000D01*
X20010000Y-62428000D02*
X29464000Y-71882000D01*
X30926023Y-21030000D02*
X20010000Y-31946023D01*
X46925001Y-24780000D02*
X43175001Y-21030000D01*
X43175001Y-21030000D02*
X30926023Y-21030000D01*
D24*
%TO.N,GND1*%
X40185333Y-52631333D02*
X35765985Y-52631333D01*
X76200000Y-26162000D02*
X76200000Y-28702000D01*
D26*
%TO.N,IO0*%
X25273000Y-53721000D02*
X26924000Y-55372000D01*
X26924000Y-55372000D02*
X26924000Y-57404000D01*
X43688000Y-76962000D02*
X43688000Y-71628000D01*
X40132000Y-80518000D02*
X43688000Y-76962000D01*
X31951545Y-80518000D02*
X40132000Y-80518000D01*
X27566000Y-81282000D02*
X31187545Y-81282000D01*
X31187545Y-81282000D02*
X31951545Y-80518000D01*
X26566000Y-82282000D02*
X27566000Y-81282000D01*
%TO.N,RPM*%
X51308000Y-56642000D02*
X51308000Y-53340000D01*
X56896000Y-49508894D02*
X58398894Y-48006000D01*
X56896000Y-52324000D02*
X56896000Y-49508894D01*
X58398894Y-48006000D02*
X67564000Y-48006000D01*
D24*
%TO.N,GND1*%
X67310000Y-49530000D02*
X64516000Y-49530000D01*
D26*
X64000000Y-45000000D02*
X62000000Y-43000000D01*
%TO.N,BATT ENABLE*%
X59100000Y-53100000D02*
X61500000Y-55500000D01*
X61500000Y-55500000D02*
X76000000Y-55500000D01*
%TO.N,Net-(Q3-C)*%
X78900000Y-54600000D02*
X78900000Y-51774999D01*
X77085240Y-56414760D02*
X78900000Y-54600000D01*
X62500000Y-56414760D02*
X77085240Y-56414760D01*
%TO.N,BATT ENABLE*%
X76300000Y-60800000D02*
X74100000Y-60800000D01*
%TO.N,ACCU EN*%
X65200000Y-58000000D02*
X65200000Y-57900000D01*
X70600000Y-63400000D02*
X65200000Y-58000000D01*
X79000000Y-63400000D02*
X70600000Y-63400000D01*
%TO.N,KEY.PIN*%
X73800000Y-27600000D02*
X73800000Y-22300000D01*
X72500000Y-28900000D02*
X73800000Y-27600000D01*
X69800000Y-41800000D02*
X69800000Y-37900000D01*
X67000000Y-44600000D02*
X69800000Y-41800000D01*
%TO.N,ACCU EN*%
X68050000Y-60850000D02*
X68200000Y-61000000D01*
X68050000Y-57250000D02*
X68050000Y-60850000D01*
%TO.N,Net-(R2-Pad2)*%
X68200000Y-46100000D02*
X72700000Y-50600000D01*
X59300000Y-46100000D02*
X68200000Y-46100000D01*
X59200000Y-46200000D02*
X59300000Y-46100000D01*
%TO.N,STEPDOWN ACCU*%
X84800000Y-38600000D02*
X84800000Y-63700000D01*
X84800000Y-38600000D02*
X84800000Y-39400000D01*
X84800000Y-63700000D02*
X82900000Y-65600000D01*
X84800000Y-35200000D02*
X84800000Y-38600000D01*
%TO.N,BATTERY*%
X83000000Y-40280000D02*
X82800000Y-40480000D01*
%TO.N,STEPDOWN ACCU*%
X83000000Y-30120000D02*
X84800000Y-31920000D01*
X84800000Y-31920000D02*
X84800000Y-35200000D01*
%TO.N,GND*%
X60100000Y-40800000D02*
X65400000Y-40800000D01*
X55500000Y-45400000D02*
X60100000Y-40800000D01*
X55500000Y-67300000D02*
X55500000Y-45400000D01*
X57600000Y-69400000D02*
X55500000Y-67300000D01*
X59400000Y-69400000D02*
X57600000Y-69400000D01*
%TO.N,ACCU EN*%
X38233970Y-55200000D02*
X47100000Y-55200000D01*
X36788328Y-53754358D02*
X38233970Y-55200000D01*
D10*
%TO.N,SENSOR PRESSURE*%
X79310000Y-33810000D02*
X80460000Y-32660000D01*
X33900000Y-47400000D02*
X47490000Y-33810000D01*
X47490000Y-33810000D02*
X79310000Y-33810000D01*
X33900000Y-50800000D02*
X33900000Y-47400000D01*
%TO.N,T.UDARA*%
X34800000Y-47700000D02*
X47300000Y-35200000D01*
X47300000Y-35200000D02*
X48300000Y-35200000D01*
X34800000Y-48200000D02*
X34800000Y-47700000D01*
D26*
%TO.N,IO0*%
X20066000Y-82282000D02*
X26566000Y-82282000D01*
D27*
%TO.N,GND1*%
X20066000Y-78232000D02*
X26566000Y-78232000D01*
D26*
%TO.N,toams*%
X70100001Y-73300001D02*
X66000000Y-69200000D01*
X70100001Y-74200000D02*
X70100001Y-73300001D01*
%TO.N,ACCU.SRC*%
X53820000Y-67320000D02*
X53820000Y-72475001D01*
X48975000Y-62475000D02*
X53820000Y-67320000D01*
X48975000Y-52820000D02*
X48975000Y-62475000D01*
%TO.N,Net-(Q4-G)*%
X36300000Y-78050001D02*
X38325000Y-78050001D01*
X38325000Y-78050001D02*
X38820000Y-77555001D01*
%TO.N,GND*%
X38754998Y-74949999D02*
X38820000Y-75015001D01*
X36300000Y-74949999D02*
X38754998Y-74949999D01*
%TO.N,Net-(Q1-G)*%
X52825000Y-78550001D02*
X53820000Y-77555001D01*
X51700000Y-78550001D02*
X52825000Y-78550001D01*
%TO.N,GND*%
X53385002Y-75449999D02*
X53820000Y-75015001D01*
X51700000Y-75449999D02*
X53385002Y-75449999D01*
%TO.N,St.Out*%
X41500000Y-45000000D02*
X46925001Y-39574999D01*
D10*
%TO.N,TPS*%
X40200000Y-44600000D02*
X40200000Y-48700000D01*
X48210000Y-36590000D02*
X40200000Y-44600000D01*
X81610000Y-35916346D02*
X80936346Y-36590000D01*
X80936346Y-36590000D02*
X48210000Y-36590000D01*
X81610000Y-31270000D02*
X81610000Y-35916346D01*
X80460000Y-30120000D02*
X81610000Y-31270000D01*
%TO.N,T.UDARA*%
X48300000Y-35200000D02*
X51800000Y-35200000D01*
X51800000Y-35200000D02*
X80460000Y-35200000D01*
D25*
%TO.N,GND1*%
X48250000Y-70749999D02*
X48250000Y-68485000D01*
X49400000Y-71899999D02*
X48250000Y-70749999D01*
X48250000Y-68485000D02*
X48435000Y-68300000D01*
D26*
%TO.N,Net-(Q2-G)*%
X60255000Y-39000000D02*
X46435000Y-52820000D01*
X65100000Y-39000000D02*
X60255000Y-39000000D01*
D25*
%TO.N,GND1*%
X35049999Y-70600000D02*
X48100001Y-70600000D01*
X48100001Y-70600000D02*
X49400000Y-71899999D01*
X33900000Y-71749999D02*
X35049999Y-70600000D01*
%TO.N,Net-(R16-Pad2)*%
X31200000Y-75015001D02*
X33240002Y-75015001D01*
D28*
%TO.N,ACCU.SRC*%
X51400000Y-96550000D02*
X51900000Y-96050000D01*
D25*
%TO.N,Net-(R8-Pad2)*%
X46215000Y-75000001D02*
X46200000Y-75015001D01*
X49400000Y-75000001D02*
X46215000Y-75000001D01*
%TD*%
%TA.AperFunction,Conductor*%
%TO.N,ACCU.SRC*%
G36*
X58976028Y-70079009D02*
G01*
X59050477Y-70125789D01*
X59050481Y-70125790D01*
X59220737Y-70185366D01*
X59220743Y-70185367D01*
X59220745Y-70185368D01*
X59220746Y-70185368D01*
X59220750Y-70185369D01*
X59399996Y-70205565D01*
X59400000Y-70205565D01*
X59400004Y-70205565D01*
X59579249Y-70185369D01*
X59579251Y-70185368D01*
X59579255Y-70185368D01*
X59579258Y-70185366D01*
X59579262Y-70185366D01*
X59706997Y-70140669D01*
X59749522Y-70125789D01*
X59796418Y-70096322D01*
X59823972Y-70079009D01*
X59889944Y-70060003D01*
X65888695Y-70060003D01*
X65955734Y-70079688D01*
X65976376Y-70096322D01*
X68647863Y-72767809D01*
X68681348Y-72829132D01*
X68676364Y-72898824D01*
X68636467Y-72952118D01*
X68637012Y-72952807D01*
X68631344Y-72957288D01*
X68507290Y-73081342D01*
X68415188Y-73230663D01*
X68415186Y-73230668D01*
X68415116Y-73230880D01*
X68360002Y-73397203D01*
X68360002Y-73397204D01*
X68360001Y-73397204D01*
X68349501Y-73499983D01*
X68349501Y-74900001D01*
X68349502Y-74900018D01*
X68360001Y-75002796D01*
X68360002Y-75002799D01*
X68364046Y-75015002D01*
X68415187Y-75169334D01*
X68507289Y-75318656D01*
X68631345Y-75442712D01*
X68780667Y-75534814D01*
X68947204Y-75589999D01*
X69049992Y-75600500D01*
X70226001Y-75600499D01*
X70293039Y-75620184D01*
X70338794Y-75672987D01*
X70350000Y-75724499D01*
X70350000Y-101451000D01*
X70330315Y-101518039D01*
X70277511Y-101563794D01*
X70226000Y-101575000D01*
X52261336Y-101575000D01*
X52194297Y-101555315D01*
X52148542Y-101502511D01*
X52138598Y-101433353D01*
X52167623Y-101369797D01*
X52213429Y-101339232D01*
X52212579Y-101337408D01*
X52219124Y-101334356D01*
X52368345Y-101242315D01*
X52492315Y-101118345D01*
X52584356Y-100969124D01*
X52584358Y-100969119D01*
X52639505Y-100802697D01*
X52639506Y-100802690D01*
X52649999Y-100699986D01*
X52650000Y-100699973D01*
X52650000Y-100250000D01*
X49150001Y-100250000D01*
X49150001Y-100699986D01*
X49160494Y-100802697D01*
X49215641Y-100969119D01*
X49215643Y-100969124D01*
X49307684Y-101118345D01*
X49431654Y-101242315D01*
X49580875Y-101334356D01*
X49587421Y-101337408D01*
X49586490Y-101339402D01*
X49635111Y-101373063D01*
X49661936Y-101437577D01*
X49649624Y-101506354D01*
X49602083Y-101557556D01*
X49538665Y-101575000D01*
X48924500Y-101575000D01*
X48857461Y-101555315D01*
X48811706Y-101502511D01*
X48800500Y-101451000D01*
X48800500Y-99300013D01*
X49150000Y-99300013D01*
X49150000Y-99750000D01*
X50650000Y-99750000D01*
X51150000Y-99750000D01*
X52649999Y-99750000D01*
X52649999Y-99300028D01*
X52649998Y-99300013D01*
X52639505Y-99197302D01*
X52584358Y-99030880D01*
X52584356Y-99030875D01*
X52492315Y-98881654D01*
X52368345Y-98757684D01*
X52219124Y-98665643D01*
X52219119Y-98665641D01*
X52052697Y-98610494D01*
X52052690Y-98610493D01*
X51949986Y-98600000D01*
X51150000Y-98600000D01*
X51150000Y-99750000D01*
X50650000Y-99750000D01*
X50650000Y-98600000D01*
X49850028Y-98600000D01*
X49850012Y-98600001D01*
X49747302Y-98610494D01*
X49580880Y-98665641D01*
X49580875Y-98665643D01*
X49431654Y-98757684D01*
X49307684Y-98881654D01*
X49215643Y-99030875D01*
X49215641Y-99030880D01*
X49160494Y-99197302D01*
X49160493Y-99197309D01*
X49150000Y-99300013D01*
X48800500Y-99300013D01*
X48800500Y-95900000D01*
X49145172Y-95900000D01*
X49164462Y-96194312D01*
X49164464Y-96194324D01*
X49222001Y-96483584D01*
X49222005Y-96483599D01*
X49316812Y-96762888D01*
X49447258Y-97027406D01*
X49447265Y-97027419D01*
X49611123Y-97272649D01*
X49640405Y-97306040D01*
X50573474Y-96372971D01*
X50662087Y-96505590D01*
X50794410Y-96637913D01*
X50927027Y-96726525D01*
X49993958Y-97659593D01*
X50027350Y-97688876D01*
X50272580Y-97852734D01*
X50272593Y-97852741D01*
X50537111Y-97983187D01*
X50816400Y-98077994D01*
X50816415Y-98077998D01*
X51105675Y-98135535D01*
X51105687Y-98135537D01*
X51400000Y-98154827D01*
X51694312Y-98135537D01*
X51694324Y-98135535D01*
X51983584Y-98077998D01*
X51983599Y-98077994D01*
X52262888Y-97983187D01*
X52527406Y-97852741D01*
X52527419Y-97852734D01*
X52772648Y-97688877D01*
X52806039Y-97659593D01*
X51872972Y-96726525D01*
X52005590Y-96637913D01*
X52137913Y-96505590D01*
X52226525Y-96372972D01*
X53159593Y-97306039D01*
X53188877Y-97272648D01*
X53352734Y-97027419D01*
X53352741Y-97027406D01*
X53483187Y-96762888D01*
X53577994Y-96483599D01*
X53577998Y-96483584D01*
X53635535Y-96194324D01*
X53635537Y-96194312D01*
X53654827Y-95900000D01*
X53635537Y-95605687D01*
X53635535Y-95605675D01*
X53577998Y-95316415D01*
X53577994Y-95316400D01*
X53483187Y-95037111D01*
X53393255Y-94854747D01*
X58449500Y-94854747D01*
X58449500Y-96945238D01*
X58449501Y-96945253D01*
X58455966Y-97027406D01*
X58460070Y-97079553D01*
X58515949Y-97301316D01*
X58518095Y-97306040D01*
X58610528Y-97509537D01*
X58610531Y-97509543D01*
X58740759Y-97697514D01*
X58740763Y-97697519D01*
X58740766Y-97697523D01*
X58902477Y-97859234D01*
X58902481Y-97859237D01*
X58902485Y-97859240D01*
X59090456Y-97989468D01*
X59090462Y-97989471D01*
X59090463Y-97989471D01*
X59090464Y-97989472D01*
X59298684Y-98084051D01*
X59520447Y-98139930D01*
X59654753Y-98150500D01*
X61745246Y-98150499D01*
X61879553Y-98139930D01*
X62101316Y-98084051D01*
X62309536Y-97989472D01*
X62309538Y-97989470D01*
X62309543Y-97989468D01*
X62497514Y-97859240D01*
X62497523Y-97859234D01*
X62659234Y-97697523D01*
X62687477Y-97656756D01*
X62789468Y-97509543D01*
X62789471Y-97509537D01*
X62789472Y-97509536D01*
X62884051Y-97301316D01*
X62939930Y-97079553D01*
X62950500Y-96945247D01*
X62950499Y-95900000D01*
X63445172Y-95900000D01*
X63464462Y-96194312D01*
X63464464Y-96194324D01*
X63522001Y-96483584D01*
X63522005Y-96483599D01*
X63616812Y-96762888D01*
X63747258Y-97027406D01*
X63747265Y-97027419D01*
X63911123Y-97272649D01*
X63940405Y-97306040D01*
X64873474Y-96372971D01*
X64962087Y-96505590D01*
X65094410Y-96637913D01*
X65227027Y-96726525D01*
X64293958Y-97659593D01*
X64327350Y-97688876D01*
X64572580Y-97852734D01*
X64572593Y-97852741D01*
X64837111Y-97983187D01*
X65116400Y-98077994D01*
X65116415Y-98077998D01*
X65405675Y-98135535D01*
X65405687Y-98135537D01*
X65700000Y-98154827D01*
X65994312Y-98135537D01*
X65994324Y-98135535D01*
X66283584Y-98077998D01*
X66283599Y-98077994D01*
X66562888Y-97983187D01*
X66827406Y-97852741D01*
X66827419Y-97852734D01*
X67072648Y-97688877D01*
X67106039Y-97659593D01*
X66172972Y-96726525D01*
X66305590Y-96637913D01*
X66437913Y-96505590D01*
X66526525Y-96372972D01*
X67459593Y-97306039D01*
X67488877Y-97272648D01*
X67652734Y-97027419D01*
X67652741Y-97027406D01*
X67783187Y-96762888D01*
X67877994Y-96483599D01*
X67877998Y-96483584D01*
X67935535Y-96194324D01*
X67935537Y-96194312D01*
X67954827Y-95900000D01*
X67935537Y-95605687D01*
X67935535Y-95605675D01*
X67877998Y-95316415D01*
X67877994Y-95316400D01*
X67783187Y-95037111D01*
X67652741Y-94772593D01*
X67652734Y-94772580D01*
X67488876Y-94527350D01*
X67459593Y-94493958D01*
X66526524Y-95427026D01*
X66437913Y-95294410D01*
X66305590Y-95162087D01*
X66172971Y-95073474D01*
X67106040Y-94140405D01*
X67072649Y-94111123D01*
X66827419Y-93947265D01*
X66827406Y-93947258D01*
X66562888Y-93816812D01*
X66283599Y-93722005D01*
X66283584Y-93722001D01*
X65994324Y-93664464D01*
X65994312Y-93664462D01*
X65700000Y-93645172D01*
X65405687Y-93664462D01*
X65405675Y-93664464D01*
X65116415Y-93722001D01*
X65116400Y-93722005D01*
X64837111Y-93816812D01*
X64572593Y-93947258D01*
X64572580Y-93947265D01*
X64327346Y-94111126D01*
X64327339Y-94111131D01*
X64293959Y-94140403D01*
X64293959Y-94140405D01*
X65227028Y-95073474D01*
X65094410Y-95162087D01*
X64962087Y-95294410D01*
X64873474Y-95427028D01*
X63940405Y-94493959D01*
X63940403Y-94493959D01*
X63911131Y-94527339D01*
X63911126Y-94527346D01*
X63747265Y-94772580D01*
X63747258Y-94772593D01*
X63616812Y-95037111D01*
X63522005Y-95316400D01*
X63522001Y-95316415D01*
X63464464Y-95605675D01*
X63464462Y-95605687D01*
X63445172Y-95900000D01*
X62950499Y-95900000D01*
X62950499Y-94854754D01*
X62939930Y-94720447D01*
X62884051Y-94498684D01*
X62789472Y-94290464D01*
X62789471Y-94290462D01*
X62789468Y-94290456D01*
X62659240Y-94102485D01*
X62659237Y-94102481D01*
X62659234Y-94102477D01*
X62497523Y-93940766D01*
X62497519Y-93940763D01*
X62497514Y-93940759D01*
X62309543Y-93810531D01*
X62309537Y-93810528D01*
X62205426Y-93763238D01*
X62101316Y-93715949D01*
X61879553Y-93660070D01*
X61745247Y-93649500D01*
X61745245Y-93649500D01*
X59654761Y-93649500D01*
X59654746Y-93649501D01*
X59520447Y-93660070D01*
X59298684Y-93715949D01*
X59090462Y-93810528D01*
X59090456Y-93810531D01*
X58902485Y-93940759D01*
X58902473Y-93940769D01*
X58740769Y-94102473D01*
X58740759Y-94102485D01*
X58610531Y-94290456D01*
X58610528Y-94290462D01*
X58515949Y-94498684D01*
X58460070Y-94720447D01*
X58449500Y-94854747D01*
X53393255Y-94854747D01*
X53352741Y-94772593D01*
X53352734Y-94772580D01*
X53188876Y-94527350D01*
X53159593Y-94493958D01*
X52226524Y-95427026D01*
X52137913Y-95294410D01*
X52005590Y-95162087D01*
X51872971Y-95073474D01*
X52806040Y-94140405D01*
X52772649Y-94111123D01*
X52527419Y-93947265D01*
X52527406Y-93947258D01*
X52262888Y-93816812D01*
X51983599Y-93722005D01*
X51983584Y-93722001D01*
X51694324Y-93664464D01*
X51694312Y-93664462D01*
X51400000Y-93645172D01*
X51105687Y-93664462D01*
X51105675Y-93664464D01*
X50816415Y-93722001D01*
X50816400Y-93722005D01*
X50537111Y-93816812D01*
X50272593Y-93947258D01*
X50272580Y-93947265D01*
X50027346Y-94111126D01*
X50027339Y-94111131D01*
X49993959Y-94140403D01*
X49993959Y-94140405D01*
X50927028Y-95073474D01*
X50794410Y-95162087D01*
X50662087Y-95294410D01*
X50573474Y-95427027D01*
X49640405Y-94493959D01*
X49640403Y-94493959D01*
X49611131Y-94527339D01*
X49611126Y-94527346D01*
X49447265Y-94772580D01*
X49447258Y-94772593D01*
X49316812Y-95037111D01*
X49222005Y-95316400D01*
X49222001Y-95316415D01*
X49164464Y-95605675D01*
X49164462Y-95605687D01*
X49145172Y-95900000D01*
X48800500Y-95900000D01*
X48800500Y-93670945D01*
X48800500Y-93670943D01*
X48759577Y-93518216D01*
X48759573Y-93518209D01*
X48680524Y-93381290D01*
X48680518Y-93381282D01*
X48568717Y-93269481D01*
X48568709Y-93269475D01*
X48431790Y-93190426D01*
X48431786Y-93190424D01*
X48431784Y-93190423D01*
X48279057Y-93149500D01*
X44679057Y-93149500D01*
X44520943Y-93149500D01*
X44368216Y-93190423D01*
X44368209Y-93190426D01*
X44231290Y-93269475D01*
X44231282Y-93269481D01*
X44119481Y-93381282D01*
X44119475Y-93381290D01*
X44040426Y-93518209D01*
X44040423Y-93518216D01*
X43999500Y-93670943D01*
X43999500Y-101451000D01*
X43979815Y-101518039D01*
X43927011Y-101563794D01*
X43875500Y-101575000D01*
X37961336Y-101575000D01*
X37894297Y-101555315D01*
X37848542Y-101502511D01*
X37838598Y-101433353D01*
X37867623Y-101369797D01*
X37913429Y-101339232D01*
X37912579Y-101337408D01*
X37919124Y-101334356D01*
X38068345Y-101242315D01*
X38192315Y-101118345D01*
X38284356Y-100969124D01*
X38284358Y-100969119D01*
X38339505Y-100802697D01*
X38339506Y-100802690D01*
X38349999Y-100699986D01*
X38350000Y-100699973D01*
X38350000Y-100250000D01*
X34850001Y-100250000D01*
X34850001Y-100699986D01*
X34860494Y-100802697D01*
X34915641Y-100969119D01*
X34915643Y-100969124D01*
X35007684Y-101118345D01*
X35131654Y-101242315D01*
X35280875Y-101334356D01*
X35287421Y-101337408D01*
X35286490Y-101339402D01*
X35335111Y-101373063D01*
X35361936Y-101437577D01*
X35349624Y-101506354D01*
X35302083Y-101557556D01*
X35238665Y-101575000D01*
X34724500Y-101575000D01*
X34657461Y-101555315D01*
X34611706Y-101502511D01*
X34600500Y-101451000D01*
X34600500Y-99300013D01*
X34850000Y-99300013D01*
X34850000Y-99750000D01*
X36350000Y-99750000D01*
X36850000Y-99750000D01*
X38349999Y-99750000D01*
X38349999Y-99300028D01*
X38349998Y-99300013D01*
X38339505Y-99197302D01*
X38284358Y-99030880D01*
X38284356Y-99030875D01*
X38192315Y-98881654D01*
X38068345Y-98757684D01*
X37919124Y-98665643D01*
X37919119Y-98665641D01*
X37752697Y-98610494D01*
X37752690Y-98610493D01*
X37649986Y-98600000D01*
X36850000Y-98600000D01*
X36850000Y-99750000D01*
X36350000Y-99750000D01*
X36350000Y-98600000D01*
X35550028Y-98600000D01*
X35550012Y-98600001D01*
X35447302Y-98610494D01*
X35280880Y-98665641D01*
X35280875Y-98665643D01*
X35131654Y-98757684D01*
X35007684Y-98881654D01*
X34915643Y-99030875D01*
X34915641Y-99030880D01*
X34860494Y-99197302D01*
X34860493Y-99197309D01*
X34850000Y-99300013D01*
X34600500Y-99300013D01*
X34600500Y-95954835D01*
X34616474Y-95900430D01*
X34830965Y-95900430D01*
X34843477Y-95919900D01*
X34848235Y-95946725D01*
X34864462Y-96194312D01*
X34864464Y-96194324D01*
X34922001Y-96483584D01*
X34922005Y-96483599D01*
X35016812Y-96762888D01*
X35147258Y-97027406D01*
X35147265Y-97027419D01*
X35311123Y-97272649D01*
X35340405Y-97306040D01*
X36273474Y-96372971D01*
X36362087Y-96505590D01*
X36494410Y-96637913D01*
X36627027Y-96726525D01*
X35693958Y-97659593D01*
X35727350Y-97688876D01*
X35972580Y-97852734D01*
X35972593Y-97852741D01*
X36237111Y-97983187D01*
X36516400Y-98077994D01*
X36516415Y-98077998D01*
X36805675Y-98135535D01*
X36805687Y-98135537D01*
X37100000Y-98154827D01*
X37394312Y-98135537D01*
X37394324Y-98135535D01*
X37683584Y-98077998D01*
X37683599Y-98077994D01*
X37962888Y-97983187D01*
X38227406Y-97852741D01*
X38227419Y-97852734D01*
X38472648Y-97688877D01*
X38506039Y-97659593D01*
X37572972Y-96726525D01*
X37705590Y-96637913D01*
X37837913Y-96505590D01*
X37926525Y-96372971D01*
X38859593Y-97306039D01*
X38888877Y-97272648D01*
X39052734Y-97027419D01*
X39052741Y-97027406D01*
X39183187Y-96762888D01*
X39277994Y-96483599D01*
X39277998Y-96483584D01*
X39335535Y-96194324D01*
X39335537Y-96194312D01*
X39354827Y-95900000D01*
X39335537Y-95605687D01*
X39335535Y-95605675D01*
X39277998Y-95316415D01*
X39277994Y-95316400D01*
X39183187Y-95037111D01*
X39052741Y-94772593D01*
X39052734Y-94772580D01*
X38888876Y-94527350D01*
X38859593Y-94493958D01*
X37926524Y-95427026D01*
X37837913Y-95294410D01*
X37705590Y-95162087D01*
X37572971Y-95073474D01*
X38506040Y-94140405D01*
X38472649Y-94111123D01*
X38227419Y-93947265D01*
X38227406Y-93947258D01*
X37962888Y-93816812D01*
X37683599Y-93722005D01*
X37683584Y-93722001D01*
X37394324Y-93664464D01*
X37394312Y-93664462D01*
X37100000Y-93645172D01*
X36805687Y-93664462D01*
X36805675Y-93664464D01*
X36516415Y-93722001D01*
X36516400Y-93722005D01*
X36237111Y-93816812D01*
X35972593Y-93947258D01*
X35972580Y-93947265D01*
X35727346Y-94111126D01*
X35727339Y-94111131D01*
X35693959Y-94140403D01*
X35693959Y-94140405D01*
X36627028Y-95073474D01*
X36494410Y-95162087D01*
X36362087Y-95294410D01*
X36273474Y-95427028D01*
X35340405Y-94493959D01*
X35340403Y-94493959D01*
X35311131Y-94527339D01*
X35311126Y-94527346D01*
X35147265Y-94772580D01*
X35147258Y-94772593D01*
X35016812Y-95037111D01*
X34922005Y-95316400D01*
X34922001Y-95316415D01*
X34864464Y-95605675D01*
X34864462Y-95605687D01*
X34848235Y-95853274D01*
X34830965Y-95900430D01*
X34616474Y-95900430D01*
X34617385Y-95897329D01*
X34603493Y-95872243D01*
X34600500Y-95845164D01*
X34600500Y-93470945D01*
X34600500Y-93470943D01*
X34559577Y-93318216D01*
X34531437Y-93269475D01*
X34480524Y-93181290D01*
X34480518Y-93181282D01*
X34368717Y-93069481D01*
X34368709Y-93069475D01*
X34231790Y-92990426D01*
X34231786Y-92990424D01*
X34231784Y-92990423D01*
X34079057Y-92949500D01*
X30379057Y-92949500D01*
X30220943Y-92949500D01*
X30068216Y-92990423D01*
X30068209Y-92990426D01*
X29931290Y-93069475D01*
X29931282Y-93069481D01*
X29819481Y-93181282D01*
X29819475Y-93181290D01*
X29740426Y-93318209D01*
X29740423Y-93318216D01*
X29699500Y-93470943D01*
X29699500Y-101451000D01*
X29679815Y-101518039D01*
X29627011Y-101563794D01*
X29575500Y-101575000D01*
X27574000Y-101575000D01*
X27506961Y-101555315D01*
X27461206Y-101502511D01*
X27450000Y-101451000D01*
X27450000Y-88056011D01*
X27469685Y-87988972D01*
X27497834Y-87958160D01*
X27585744Y-87889738D01*
X27754164Y-87706785D01*
X27890173Y-87498607D01*
X27990063Y-87270881D01*
X28051108Y-87029821D01*
X28071643Y-86782000D01*
X28063219Y-86680341D01*
X28051109Y-86534187D01*
X28051107Y-86534175D01*
X27990063Y-86293118D01*
X27890173Y-86065393D01*
X27754166Y-85857217D01*
X27733860Y-85835159D01*
X27586423Y-85675000D01*
X31949659Y-85675000D01*
X31968975Y-85871129D01*
X32026188Y-86059733D01*
X32119086Y-86233532D01*
X32119090Y-86233539D01*
X32244116Y-86385883D01*
X32396460Y-86510909D01*
X32396467Y-86510913D01*
X32570266Y-86603811D01*
X32570269Y-86603811D01*
X32570273Y-86603814D01*
X32758868Y-86661024D01*
X32955000Y-86680341D01*
X33151132Y-86661024D01*
X33339727Y-86603814D01*
X33513538Y-86510910D01*
X33665883Y-86385883D01*
X33790910Y-86233538D01*
X33837362Y-86146632D01*
X33883811Y-86059733D01*
X33883811Y-86059732D01*
X33883814Y-86059727D01*
X33941024Y-85871132D01*
X33960341Y-85675000D01*
X34999659Y-85675000D01*
X35018975Y-85871129D01*
X35076188Y-86059733D01*
X35169086Y-86233532D01*
X35169090Y-86233539D01*
X35294116Y-86385883D01*
X35446460Y-86510909D01*
X35446467Y-86510913D01*
X35620266Y-86603811D01*
X35620269Y-86603811D01*
X35620273Y-86603814D01*
X35808868Y-86661024D01*
X36005000Y-86680341D01*
X36201132Y-86661024D01*
X36389727Y-86603814D01*
X36563538Y-86510910D01*
X36715883Y-86385883D01*
X36840910Y-86233538D01*
X36887362Y-86146632D01*
X36933811Y-86059733D01*
X36933811Y-86059732D01*
X36933814Y-86059727D01*
X36991024Y-85871132D01*
X37010341Y-85675000D01*
X46572159Y-85675000D01*
X46591475Y-85871129D01*
X46648688Y-86059733D01*
X46741586Y-86233532D01*
X46741590Y-86233539D01*
X46866616Y-86385883D01*
X47018960Y-86510909D01*
X47018967Y-86510913D01*
X47192766Y-86603811D01*
X47192769Y-86603811D01*
X47192773Y-86603814D01*
X47381368Y-86661024D01*
X47577500Y-86680341D01*
X47773632Y-86661024D01*
X47962227Y-86603814D01*
X48136038Y-86510910D01*
X48288383Y-86385883D01*
X48413410Y-86233538D01*
X48459862Y-86146632D01*
X48506311Y-86059733D01*
X48506311Y-86059732D01*
X48506314Y-86059727D01*
X48563524Y-85871132D01*
X48582841Y-85675000D01*
X49622159Y-85675000D01*
X49641475Y-85871129D01*
X49698688Y-86059733D01*
X49791586Y-86233532D01*
X49791590Y-86233539D01*
X49916616Y-86385883D01*
X50068960Y-86510909D01*
X50068967Y-86510913D01*
X50242766Y-86603811D01*
X50242769Y-86603811D01*
X50242773Y-86603814D01*
X50431368Y-86661024D01*
X50627500Y-86680341D01*
X50823632Y-86661024D01*
X51012227Y-86603814D01*
X51186038Y-86510910D01*
X51338383Y-86385883D01*
X51463410Y-86233538D01*
X51509862Y-86146632D01*
X51556311Y-86059733D01*
X51556311Y-86059732D01*
X51556314Y-86059727D01*
X51613524Y-85871132D01*
X51632841Y-85675000D01*
X51613524Y-85478868D01*
X51556314Y-85290273D01*
X51556311Y-85290269D01*
X51556311Y-85290266D01*
X51463413Y-85116467D01*
X51463409Y-85116460D01*
X51338383Y-84964116D01*
X51186039Y-84839090D01*
X51186032Y-84839086D01*
X51012233Y-84746188D01*
X51012227Y-84746186D01*
X50823632Y-84688976D01*
X50823629Y-84688975D01*
X50627500Y-84669659D01*
X50431370Y-84688975D01*
X50242766Y-84746188D01*
X50068967Y-84839086D01*
X50068960Y-84839090D01*
X49916616Y-84964116D01*
X49791590Y-85116460D01*
X49791586Y-85116467D01*
X49698688Y-85290266D01*
X49641475Y-85478870D01*
X49622159Y-85675000D01*
X48582841Y-85675000D01*
X48563524Y-85478868D01*
X48506314Y-85290273D01*
X48506311Y-85290269D01*
X48506311Y-85290266D01*
X48413413Y-85116467D01*
X48413409Y-85116460D01*
X48288383Y-84964116D01*
X48136039Y-84839090D01*
X48136032Y-84839086D01*
X47962233Y-84746188D01*
X47962227Y-84746186D01*
X47773632Y-84688976D01*
X47773629Y-84688975D01*
X47577500Y-84669659D01*
X47381370Y-84688975D01*
X47192766Y-84746188D01*
X47018967Y-84839086D01*
X47018960Y-84839090D01*
X46866616Y-84964116D01*
X46741590Y-85116460D01*
X46741586Y-85116467D01*
X46648688Y-85290266D01*
X46591475Y-85478870D01*
X46572159Y-85675000D01*
X37010341Y-85675000D01*
X36991024Y-85478868D01*
X36933814Y-85290273D01*
X36933811Y-85290269D01*
X36933811Y-85290266D01*
X36840913Y-85116467D01*
X36840909Y-85116460D01*
X36715883Y-84964116D01*
X36563539Y-84839090D01*
X36563532Y-84839086D01*
X36389733Y-84746188D01*
X36389727Y-84746186D01*
X36201132Y-84688976D01*
X36201129Y-84688975D01*
X36005000Y-84669659D01*
X35808870Y-84688975D01*
X35620266Y-84746188D01*
X35446467Y-84839086D01*
X35446460Y-84839090D01*
X35294116Y-84964116D01*
X35169090Y-85116460D01*
X35169086Y-85116467D01*
X35076188Y-85290266D01*
X35018975Y-85478870D01*
X34999659Y-85675000D01*
X33960341Y-85675000D01*
X33941024Y-85478868D01*
X33883814Y-85290273D01*
X33883811Y-85290269D01*
X33883811Y-85290266D01*
X33790913Y-85116467D01*
X33790909Y-85116460D01*
X33665883Y-84964116D01*
X33513539Y-84839090D01*
X33513532Y-84839086D01*
X33339733Y-84746188D01*
X33339727Y-84746186D01*
X33151132Y-84688976D01*
X33151129Y-84688975D01*
X32955000Y-84669659D01*
X32758870Y-84688975D01*
X32570266Y-84746188D01*
X32396467Y-84839086D01*
X32396460Y-84839090D01*
X32244116Y-84964116D01*
X32119090Y-85116460D01*
X32119086Y-85116467D01*
X32026188Y-85290266D01*
X31968975Y-85478870D01*
X31949659Y-85675000D01*
X27586423Y-85675000D01*
X27585744Y-85674262D01*
X27497837Y-85605841D01*
X27457024Y-85549131D01*
X27450000Y-85507988D01*
X27450000Y-83999999D01*
X33474659Y-83999999D01*
X33493975Y-84196128D01*
X33551188Y-84384732D01*
X33644086Y-84558531D01*
X33644090Y-84558538D01*
X33769116Y-84710882D01*
X33921460Y-84835908D01*
X33921467Y-84835912D01*
X34095266Y-84928810D01*
X34095269Y-84928810D01*
X34095273Y-84928813D01*
X34283868Y-84986023D01*
X34480000Y-85005340D01*
X34676132Y-84986023D01*
X34864727Y-84928813D01*
X35038538Y-84835909D01*
X35190883Y-84710882D01*
X35315910Y-84558537D01*
X35408814Y-84384726D01*
X35466024Y-84196131D01*
X35485341Y-83999999D01*
X48097159Y-83999999D01*
X48116475Y-84196128D01*
X48173688Y-84384732D01*
X48266586Y-84558531D01*
X48266590Y-84558538D01*
X48391616Y-84710882D01*
X48543960Y-84835908D01*
X48543967Y-84835912D01*
X48717766Y-84928810D01*
X48717769Y-84928810D01*
X48717773Y-84928813D01*
X48906368Y-84986023D01*
X49102500Y-85005340D01*
X49298632Y-84986023D01*
X49487227Y-84928813D01*
X49661038Y-84835909D01*
X49813383Y-84710882D01*
X49938410Y-84558537D01*
X50031314Y-84384726D01*
X50088524Y-84196131D01*
X50107841Y-83999999D01*
X50088524Y-83803867D01*
X50031314Y-83615272D01*
X50031311Y-83615268D01*
X50031311Y-83615265D01*
X49938413Y-83441466D01*
X49938409Y-83441459D01*
X49813383Y-83289115D01*
X49661039Y-83164089D01*
X49661032Y-83164085D01*
X49487233Y-83071187D01*
X49487227Y-83071185D01*
X49298632Y-83013975D01*
X49298629Y-83013974D01*
X49102500Y-82994658D01*
X48906370Y-83013974D01*
X48717766Y-83071187D01*
X48543967Y-83164085D01*
X48543960Y-83164089D01*
X48391616Y-83289115D01*
X48266590Y-83441459D01*
X48266586Y-83441466D01*
X48173688Y-83615265D01*
X48116475Y-83803869D01*
X48097159Y-83999999D01*
X35485341Y-83999999D01*
X35466024Y-83803867D01*
X35408814Y-83615272D01*
X35408811Y-83615268D01*
X35408811Y-83615265D01*
X35315913Y-83441466D01*
X35315909Y-83441459D01*
X35190883Y-83289115D01*
X35038539Y-83164089D01*
X35038532Y-83164085D01*
X34864733Y-83071187D01*
X34864727Y-83071185D01*
X34676132Y-83013975D01*
X34676129Y-83013974D01*
X34480000Y-82994658D01*
X34283870Y-83013974D01*
X34095266Y-83071187D01*
X33921467Y-83164085D01*
X33921460Y-83164089D01*
X33769116Y-83289115D01*
X33644090Y-83441459D01*
X33644086Y-83441466D01*
X33551188Y-83615265D01*
X33493975Y-83803869D01*
X33474659Y-83999999D01*
X27450000Y-83999999D01*
X27450000Y-83556011D01*
X27469685Y-83488972D01*
X27497834Y-83458160D01*
X27585744Y-83389738D01*
X27754164Y-83206785D01*
X27890173Y-82998607D01*
X27990063Y-82770881D01*
X28051108Y-82529821D01*
X28068080Y-82325000D01*
X28071643Y-82282005D01*
X28071643Y-82281993D01*
X28053807Y-82066740D01*
X28067888Y-81998304D01*
X28116733Y-81948345D01*
X28177383Y-81932500D01*
X31251616Y-81932500D01*
X31338253Y-81915266D01*
X31377289Y-81907501D01*
X31495672Y-81858465D01*
X31602214Y-81787277D01*
X31735916Y-81653574D01*
X31797238Y-81620090D01*
X31866930Y-81625074D01*
X31922864Y-81666945D01*
X31947281Y-81732409D01*
X31932955Y-81799709D01*
X31871188Y-81915266D01*
X31813975Y-82103870D01*
X31794659Y-82300000D01*
X31813975Y-82496129D01*
X31871188Y-82684733D01*
X31964086Y-82858532D01*
X31964090Y-82858539D01*
X32089116Y-83010883D01*
X32241460Y-83135909D01*
X32241467Y-83135913D01*
X32415266Y-83228811D01*
X32415269Y-83228811D01*
X32415273Y-83228814D01*
X32603868Y-83286024D01*
X32800000Y-83305341D01*
X32996132Y-83286024D01*
X33184727Y-83228814D01*
X33225941Y-83206785D01*
X33358532Y-83135913D01*
X33358538Y-83135910D01*
X33510883Y-83010883D01*
X33635910Y-82858538D01*
X33728814Y-82684727D01*
X33786024Y-82496132D01*
X33805341Y-82300000D01*
X33786024Y-82103868D01*
X33728814Y-81915273D01*
X33728811Y-81915269D01*
X33728811Y-81915266D01*
X33635913Y-81741467D01*
X33635909Y-81741460D01*
X33510883Y-81589116D01*
X33358539Y-81464090D01*
X33358532Y-81464085D01*
X33242112Y-81401858D01*
X33192267Y-81352896D01*
X33176807Y-81284758D01*
X33200639Y-81219078D01*
X33256196Y-81176710D01*
X33300565Y-81168500D01*
X35551207Y-81168500D01*
X35618246Y-81188185D01*
X35664001Y-81240989D01*
X35673945Y-81310147D01*
X35644920Y-81373703D01*
X35609660Y-81401858D01*
X35446467Y-81489086D01*
X35446460Y-81489090D01*
X35294116Y-81614116D01*
X35169090Y-81766460D01*
X35169086Y-81766467D01*
X35076188Y-81940266D01*
X35018975Y-82128870D01*
X34999659Y-82325000D01*
X35018975Y-82521129D01*
X35076188Y-82709733D01*
X35169086Y-82883532D01*
X35169090Y-82883539D01*
X35294116Y-83035883D01*
X35446460Y-83160909D01*
X35446467Y-83160913D01*
X35620266Y-83253811D01*
X35620269Y-83253811D01*
X35620273Y-83253814D01*
X35808868Y-83311024D01*
X36005000Y-83330341D01*
X36201132Y-83311024D01*
X36389727Y-83253814D01*
X36563538Y-83160910D01*
X36715883Y-83035883D01*
X36840910Y-82883538D01*
X36887362Y-82796632D01*
X36933811Y-82709733D01*
X36933811Y-82709732D01*
X36933814Y-82709727D01*
X36991024Y-82521132D01*
X37010341Y-82325000D01*
X46572159Y-82325000D01*
X46591475Y-82521129D01*
X46648688Y-82709733D01*
X46741586Y-82883532D01*
X46741590Y-82883539D01*
X46866616Y-83035883D01*
X47018960Y-83160909D01*
X47018967Y-83160913D01*
X47192766Y-83253811D01*
X47192769Y-83253811D01*
X47192773Y-83253814D01*
X47381368Y-83311024D01*
X47577500Y-83330341D01*
X47773632Y-83311024D01*
X47962227Y-83253814D01*
X48136038Y-83160910D01*
X48288383Y-83035883D01*
X48413410Y-82883538D01*
X48459862Y-82796632D01*
X48506311Y-82709733D01*
X48506311Y-82709732D01*
X48506314Y-82709727D01*
X48563524Y-82521132D01*
X48582841Y-82325000D01*
X49622159Y-82325000D01*
X49641475Y-82521129D01*
X49698688Y-82709733D01*
X49791586Y-82883532D01*
X49791590Y-82883539D01*
X49916616Y-83035883D01*
X50068960Y-83160909D01*
X50068967Y-83160913D01*
X50242766Y-83253811D01*
X50242769Y-83253811D01*
X50242773Y-83253814D01*
X50431368Y-83311024D01*
X50627500Y-83330341D01*
X50823632Y-83311024D01*
X51012227Y-83253814D01*
X51186038Y-83160910D01*
X51338383Y-83035883D01*
X51463410Y-82883538D01*
X51509862Y-82796632D01*
X51556311Y-82709733D01*
X51556311Y-82709732D01*
X51556314Y-82709727D01*
X51613524Y-82521132D01*
X51632841Y-82325000D01*
X51613524Y-82128868D01*
X51556314Y-81940273D01*
X51556311Y-81940269D01*
X51556311Y-81940266D01*
X51463413Y-81766467D01*
X51463409Y-81766460D01*
X51338383Y-81614116D01*
X51186039Y-81489090D01*
X51186032Y-81489086D01*
X51012233Y-81396188D01*
X51012227Y-81396186D01*
X50823632Y-81338976D01*
X50823629Y-81338975D01*
X50627500Y-81319659D01*
X50431370Y-81338975D01*
X50242766Y-81396188D01*
X50068967Y-81489086D01*
X50068960Y-81489090D01*
X49916616Y-81614116D01*
X49791590Y-81766460D01*
X49791586Y-81766467D01*
X49698688Y-81940266D01*
X49641475Y-82128870D01*
X49622159Y-82325000D01*
X48582841Y-82325000D01*
X48563524Y-82128868D01*
X48506314Y-81940273D01*
X48506311Y-81940269D01*
X48506311Y-81940266D01*
X48413413Y-81766467D01*
X48413409Y-81766460D01*
X48288383Y-81614116D01*
X48136039Y-81489090D01*
X48136032Y-81489086D01*
X47962233Y-81396188D01*
X47962227Y-81396186D01*
X47773632Y-81338976D01*
X47773629Y-81338975D01*
X47577500Y-81319659D01*
X47381370Y-81338975D01*
X47192766Y-81396188D01*
X47018967Y-81489086D01*
X47018960Y-81489090D01*
X46866616Y-81614116D01*
X46741590Y-81766460D01*
X46741586Y-81766467D01*
X46648688Y-81940266D01*
X46591475Y-82128870D01*
X46572159Y-82325000D01*
X37010341Y-82325000D01*
X36991024Y-82128868D01*
X36933814Y-81940273D01*
X36933811Y-81940269D01*
X36933811Y-81940266D01*
X36840913Y-81766467D01*
X36840909Y-81766460D01*
X36715883Y-81614116D01*
X36563539Y-81489090D01*
X36563532Y-81489086D01*
X36400340Y-81401858D01*
X36350496Y-81352896D01*
X36335035Y-81284758D01*
X36358867Y-81219079D01*
X36414424Y-81176710D01*
X36458793Y-81168500D01*
X40196071Y-81168500D01*
X40280615Y-81151682D01*
X40321744Y-81143501D01*
X40440127Y-81094465D01*
X40443429Y-81092259D01*
X40443433Y-81092257D01*
X40520684Y-81040639D01*
X40546669Y-81023277D01*
X44193276Y-77376670D01*
X44264465Y-77270127D01*
X44313501Y-77151744D01*
X44318134Y-77128453D01*
X44332578Y-77055841D01*
X44338500Y-77026071D01*
X44338500Y-72133067D01*
X44357507Y-72067094D01*
X44413788Y-71977524D01*
X44473368Y-71807254D01*
X44473369Y-71807249D01*
X44493565Y-71628003D01*
X44493565Y-71627996D01*
X44477835Y-71488383D01*
X44489890Y-71419561D01*
X44537239Y-71368182D01*
X44601055Y-71350500D01*
X44808258Y-71350500D01*
X44875297Y-71370185D01*
X44921052Y-71422989D01*
X44930996Y-71492147D01*
X44924440Y-71517833D01*
X44905908Y-71567518D01*
X44899501Y-71627117D01*
X44899500Y-71627136D01*
X44899500Y-73322871D01*
X44899501Y-73322877D01*
X44905908Y-73382484D01*
X44956202Y-73517329D01*
X44956206Y-73517336D01*
X45042452Y-73632545D01*
X45042455Y-73632548D01*
X45157664Y-73718794D01*
X45157671Y-73718798D01*
X45202618Y-73735562D01*
X45292517Y-73769092D01*
X45327596Y-73772863D01*
X45392144Y-73799600D01*
X45431993Y-73856992D01*
X45434488Y-73926817D01*
X45398836Y-73986906D01*
X45385464Y-73997726D01*
X45360858Y-74014955D01*
X45199954Y-74175859D01*
X45069432Y-74362266D01*
X45069431Y-74362268D01*
X44973261Y-74568503D01*
X44973258Y-74568512D01*
X44914366Y-74788303D01*
X44914364Y-74788314D01*
X44894532Y-75014999D01*
X44894532Y-75015002D01*
X44914364Y-75241687D01*
X44914366Y-75241698D01*
X44973258Y-75461489D01*
X44973261Y-75461498D01*
X45069431Y-75667733D01*
X45069432Y-75667735D01*
X45199954Y-75854142D01*
X45360858Y-76015046D01*
X45360861Y-76015048D01*
X45547266Y-76145569D01*
X45605273Y-76172618D01*
X45657712Y-76218790D01*
X45676864Y-76285984D01*
X45656648Y-76352865D01*
X45605274Y-76397381D01*
X45547272Y-76424428D01*
X45547265Y-76424432D01*
X45360858Y-76554954D01*
X45199954Y-76715858D01*
X45069432Y-76902265D01*
X45069431Y-76902267D01*
X44973261Y-77108502D01*
X44973258Y-77108511D01*
X44914366Y-77328302D01*
X44914364Y-77328313D01*
X44894532Y-77554998D01*
X44894532Y-77555001D01*
X44914364Y-77781686D01*
X44914366Y-77781697D01*
X44973258Y-78001488D01*
X44973261Y-78001497D01*
X45069431Y-78207732D01*
X45069432Y-78207734D01*
X45199954Y-78394141D01*
X45360858Y-78555045D01*
X45360861Y-78555047D01*
X45547266Y-78685568D01*
X45753504Y-78781739D01*
X45973308Y-78840635D01*
X46135230Y-78854801D01*
X46199998Y-78860468D01*
X46200000Y-78860468D01*
X46200002Y-78860468D01*
X46256673Y-78855509D01*
X46426692Y-78840635D01*
X46646496Y-78781739D01*
X46852734Y-78685568D01*
X47039139Y-78555047D01*
X47200047Y-78394139D01*
X47330568Y-78207734D01*
X47426739Y-78001496D01*
X47485635Y-77781692D01*
X47505468Y-77555000D01*
X47485635Y-77328308D01*
X47426739Y-77108504D01*
X47330568Y-76902266D01*
X47232839Y-76762693D01*
X47200045Y-76715858D01*
X47039141Y-76554954D01*
X46878836Y-76442709D01*
X46852734Y-76424432D01*
X46794724Y-76397381D01*
X46742286Y-76351209D01*
X46723135Y-76284015D01*
X46743351Y-76217134D01*
X46794726Y-76172618D01*
X46852734Y-76145569D01*
X47039139Y-76015048D01*
X47200047Y-75854140D01*
X47235591Y-75803378D01*
X47290168Y-75759753D01*
X47337166Y-75750501D01*
X47440202Y-75750501D01*
X47507241Y-75770186D01*
X47545739Y-75809402D01*
X47582288Y-75868657D01*
X47706344Y-75992713D01*
X47855666Y-76084815D01*
X48022203Y-76140000D01*
X48124991Y-76150501D01*
X49475008Y-76150500D01*
X49577797Y-76140000D01*
X49744334Y-76084815D01*
X49893656Y-75992713D01*
X49930270Y-75956098D01*
X49991590Y-75922614D01*
X50061282Y-75927598D01*
X50117216Y-75969468D01*
X50135656Y-76004775D01*
X50173727Y-76119662D01*
X50190186Y-76169333D01*
X50282288Y-76318655D01*
X50406344Y-76442711D01*
X50555666Y-76534813D01*
X50722203Y-76589998D01*
X50824991Y-76600499D01*
X52175008Y-76600498D01*
X52277797Y-76589998D01*
X52444334Y-76534813D01*
X52593656Y-76442711D01*
X52717712Y-76318655D01*
X52809814Y-76169333D01*
X52809814Y-76169331D01*
X52813605Y-76163186D01*
X52815399Y-76164292D01*
X52854687Y-76119662D01*
X52920908Y-76100499D01*
X53063803Y-76100499D01*
X53130842Y-76120184D01*
X53134911Y-76122914D01*
X53167266Y-76145569D01*
X53167267Y-76145569D01*
X53167268Y-76145570D01*
X53225274Y-76172619D01*
X53277713Y-76218792D01*
X53296865Y-76285985D01*
X53276649Y-76352866D01*
X53225275Y-76397382D01*
X53167268Y-76424432D01*
X53167264Y-76424434D01*
X52980858Y-76554955D01*
X52819954Y-76715859D01*
X52689432Y-76902266D01*
X52689431Y-76902268D01*
X52593261Y-77108503D01*
X52593258Y-77108512D01*
X52534366Y-77328303D01*
X52534363Y-77328321D01*
X52533857Y-77334105D01*
X52508400Y-77399172D01*
X52451807Y-77440147D01*
X52382044Y-77444020D01*
X52371336Y-77440997D01*
X52277797Y-77410002D01*
X52277795Y-77410001D01*
X52175010Y-77399501D01*
X50824998Y-77399501D01*
X50824981Y-77399502D01*
X50722203Y-77410001D01*
X50722200Y-77410002D01*
X50555668Y-77465186D01*
X50555663Y-77465188D01*
X50406342Y-77557290D01*
X50282289Y-77681343D01*
X50190187Y-77830664D01*
X50190186Y-77830667D01*
X50135001Y-77997204D01*
X50135001Y-77997205D01*
X50135000Y-77997205D01*
X50124500Y-78099984D01*
X50124500Y-79000002D01*
X50124501Y-79000020D01*
X50135000Y-79102797D01*
X50135001Y-79102798D01*
X50190186Y-79269335D01*
X50282288Y-79418657D01*
X50406344Y-79542713D01*
X50555666Y-79634815D01*
X50722203Y-79690000D01*
X50824991Y-79700501D01*
X52175008Y-79700500D01*
X52277797Y-79690000D01*
X52444334Y-79634815D01*
X52593656Y-79542713D01*
X52717712Y-79418657D01*
X52809814Y-79269335D01*
X52809818Y-79269322D01*
X52810526Y-79267805D01*
X52811298Y-79266927D01*
X52813605Y-79263188D01*
X52814243Y-79263581D01*
X52856693Y-79215361D01*
X52898722Y-79198581D01*
X52950124Y-79188355D01*
X53014744Y-79175502D01*
X53133127Y-79126466D01*
X53168549Y-79102798D01*
X53239669Y-79055278D01*
X53433062Y-78861883D01*
X53494383Y-78828400D01*
X53552834Y-78829790D01*
X53593308Y-78840636D01*
X53755230Y-78854802D01*
X53819998Y-78860469D01*
X53820000Y-78860469D01*
X53820002Y-78860469D01*
X53876673Y-78855510D01*
X54046692Y-78840636D01*
X54266496Y-78781740D01*
X54472734Y-78685569D01*
X54659139Y-78555048D01*
X54820047Y-78394140D01*
X54950568Y-78207735D01*
X55046739Y-78001497D01*
X55105635Y-77781693D01*
X55125468Y-77555001D01*
X55105635Y-77328309D01*
X55046739Y-77108505D01*
X54950568Y-76902267D01*
X54820047Y-76715862D01*
X54820046Y-76715861D01*
X54820045Y-76715859D01*
X54659141Y-76554955D01*
X54472734Y-76424433D01*
X54472728Y-76424430D01*
X54414725Y-76397383D01*
X54362285Y-76351211D01*
X54343133Y-76284018D01*
X54363348Y-76217136D01*
X54414725Y-76172619D01*
X54472734Y-76145569D01*
X54659139Y-76015048D01*
X54820047Y-75854140D01*
X54950568Y-75667735D01*
X55046739Y-75461497D01*
X55105635Y-75241693D01*
X55125468Y-75015001D01*
X55124681Y-75006011D01*
X55115405Y-74899986D01*
X64350000Y-74899986D01*
X64360493Y-75002697D01*
X64415640Y-75169119D01*
X64415642Y-75169124D01*
X64507683Y-75318345D01*
X64631653Y-75442315D01*
X64780874Y-75534356D01*
X64780879Y-75534358D01*
X64947301Y-75589505D01*
X64947308Y-75589506D01*
X65050018Y-75599999D01*
X65849998Y-75599999D01*
X66349999Y-75599999D01*
X67149971Y-75599999D01*
X67149985Y-75599998D01*
X67252696Y-75589505D01*
X67419118Y-75534358D01*
X67419123Y-75534356D01*
X67568344Y-75442315D01*
X67692314Y-75318345D01*
X67784355Y-75169124D01*
X67784357Y-75169119D01*
X67839504Y-75002697D01*
X67839505Y-75002690D01*
X67849998Y-74899986D01*
X67849999Y-74899973D01*
X67849999Y-74450000D01*
X66349999Y-74450000D01*
X66349999Y-75599999D01*
X65849998Y-75599999D01*
X65849999Y-75599998D01*
X65849999Y-74450000D01*
X64350000Y-74450000D01*
X64350000Y-74899986D01*
X55115405Y-74899986D01*
X55115404Y-74899973D01*
X55105635Y-74788309D01*
X55046739Y-74568505D01*
X54950568Y-74362267D01*
X54820047Y-74175862D01*
X54820045Y-74175859D01*
X54659141Y-74014955D01*
X54472734Y-73884433D01*
X54472732Y-73884432D01*
X54431459Y-73865186D01*
X54414132Y-73857106D01*
X54361694Y-73810935D01*
X54342542Y-73743741D01*
X54362758Y-73676860D01*
X54414134Y-73632342D01*
X54472484Y-73605133D01*
X54622610Y-73500013D01*
X64349999Y-73500013D01*
X64349999Y-73950000D01*
X65849999Y-73950000D01*
X66349999Y-73950000D01*
X67849998Y-73950000D01*
X67849998Y-73500028D01*
X67849997Y-73500013D01*
X67839504Y-73397302D01*
X67784357Y-73230880D01*
X67784355Y-73230875D01*
X67692314Y-73081654D01*
X67568344Y-72957684D01*
X67419123Y-72865643D01*
X67419118Y-72865641D01*
X67252696Y-72810494D01*
X67252689Y-72810493D01*
X67149985Y-72800000D01*
X66349999Y-72800000D01*
X66349999Y-73950000D01*
X65849999Y-73950000D01*
X65849999Y-72800000D01*
X65050027Y-72800000D01*
X65050011Y-72800001D01*
X64947301Y-72810494D01*
X64780879Y-72865641D01*
X64780874Y-72865643D01*
X64631653Y-72957684D01*
X64507683Y-73081654D01*
X64415642Y-73230875D01*
X64415640Y-73230880D01*
X64360493Y-73397302D01*
X64360492Y-73397309D01*
X64349999Y-73500013D01*
X54622610Y-73500013D01*
X54658820Y-73474658D01*
X54819657Y-73313821D01*
X54950134Y-73127483D01*
X55046265Y-72921327D01*
X55046269Y-72921318D01*
X55098872Y-72725001D01*
X54135686Y-72725001D01*
X54140080Y-72720607D01*
X54192741Y-72629395D01*
X54220000Y-72527662D01*
X54220000Y-72422340D01*
X54192741Y-72320607D01*
X54140080Y-72229395D01*
X54135686Y-72225001D01*
X55098872Y-72225001D01*
X55098872Y-72225000D01*
X55046269Y-72028683D01*
X55046265Y-72028674D01*
X54950134Y-71822518D01*
X54819657Y-71636180D01*
X54658820Y-71475343D01*
X54472482Y-71344866D01*
X54266328Y-71248735D01*
X54070000Y-71196128D01*
X54070000Y-72159315D01*
X54065606Y-72154921D01*
X53974394Y-72102260D01*
X53872661Y-72075001D01*
X53767339Y-72075001D01*
X53665606Y-72102260D01*
X53574394Y-72154921D01*
X53570000Y-72159315D01*
X53570000Y-71196128D01*
X53373671Y-71248735D01*
X53167517Y-71344866D01*
X52981179Y-71475343D01*
X52820342Y-71636180D01*
X52689865Y-71822518D01*
X52593734Y-72028674D01*
X52593730Y-72028683D01*
X52541127Y-72225000D01*
X52541128Y-72225001D01*
X53504314Y-72225001D01*
X53499920Y-72229395D01*
X53447259Y-72320607D01*
X53420000Y-72422340D01*
X53420000Y-72527662D01*
X53447259Y-72629395D01*
X53499920Y-72720607D01*
X53504314Y-72725001D01*
X52541128Y-72725001D01*
X52593730Y-72921318D01*
X52593734Y-72921327D01*
X52689865Y-73127483D01*
X52820342Y-73313821D01*
X52981179Y-73474658D01*
X53167518Y-73605135D01*
X53167520Y-73605136D01*
X53225865Y-73632343D01*
X53278305Y-73678515D01*
X53297457Y-73745708D01*
X53277242Y-73812590D01*
X53225867Y-73857106D01*
X53190388Y-73873651D01*
X53167264Y-73884434D01*
X52980858Y-74014955D01*
X52819954Y-74175859D01*
X52689432Y-74362265D01*
X52687654Y-74365346D01*
X52686516Y-74366430D01*
X52686327Y-74366701D01*
X52686272Y-74366662D01*
X52637084Y-74413559D01*
X52568476Y-74426778D01*
X52515174Y-74408879D01*
X52444340Y-74365188D01*
X52444335Y-74365186D01*
X52444334Y-74365185D01*
X52277797Y-74310000D01*
X52277795Y-74309999D01*
X52175010Y-74299499D01*
X50824998Y-74299499D01*
X50824981Y-74299500D01*
X50722203Y-74309999D01*
X50722200Y-74310000D01*
X50555668Y-74365184D01*
X50555663Y-74365186D01*
X50406342Y-74457288D01*
X50369729Y-74493901D01*
X50308406Y-74527386D01*
X50238714Y-74522400D01*
X50182781Y-74480528D01*
X50164343Y-74445224D01*
X50152299Y-74408879D01*
X50109814Y-74280667D01*
X50017712Y-74131345D01*
X49893656Y-74007289D01*
X49789670Y-73943150D01*
X49744336Y-73915188D01*
X49744331Y-73915186D01*
X49742862Y-73914699D01*
X49577797Y-73860002D01*
X49577795Y-73860001D01*
X49475010Y-73849501D01*
X48124998Y-73849501D01*
X48124981Y-73849502D01*
X48022203Y-73860001D01*
X48022200Y-73860002D01*
X47855668Y-73915186D01*
X47855663Y-73915188D01*
X47706342Y-74007290D01*
X47582289Y-74131343D01*
X47545741Y-74190598D01*
X47493793Y-74237322D01*
X47440202Y-74249501D01*
X47316160Y-74249501D01*
X47249121Y-74229816D01*
X47214585Y-74196624D01*
X47200045Y-74175859D01*
X47039143Y-74014957D01*
X47028193Y-74007290D01*
X47014535Y-73997726D01*
X46970912Y-73943150D01*
X46963719Y-73873651D01*
X46995241Y-73811297D01*
X47055471Y-73775883D01*
X47072404Y-73772862D01*
X47107483Y-73769092D01*
X47242331Y-73718797D01*
X47357546Y-73632547D01*
X47443796Y-73517332D01*
X47494091Y-73382484D01*
X47500500Y-73322874D01*
X47500499Y-72986073D01*
X47520183Y-72919036D01*
X47572987Y-72873281D01*
X47642146Y-72863337D01*
X47701413Y-72888811D01*
X47706344Y-72892711D01*
X47855666Y-72984813D01*
X48022203Y-73039998D01*
X48124991Y-73050499D01*
X49475008Y-73050498D01*
X49577797Y-73039998D01*
X49744334Y-72984813D01*
X49893656Y-72892711D01*
X50017712Y-72768655D01*
X50109814Y-72619333D01*
X50164999Y-72452796D01*
X50175500Y-72350008D01*
X50175499Y-71449991D01*
X50164999Y-71347202D01*
X50109814Y-71180665D01*
X50017712Y-71031343D01*
X49893656Y-70907287D01*
X49744334Y-70815185D01*
X49577797Y-70760000D01*
X49577795Y-70759999D01*
X49475016Y-70749499D01*
X49475009Y-70749499D01*
X49362229Y-70749499D01*
X49295190Y-70729814D01*
X49274548Y-70713180D01*
X49036819Y-70475450D01*
X49003334Y-70414127D01*
X49000500Y-70387769D01*
X49000500Y-70184003D01*
X49020185Y-70116964D01*
X49072989Y-70071209D01*
X49124500Y-70060003D01*
X58910056Y-70060003D01*
X58976028Y-70079009D01*
G37*
%TD.AperFunction*%
%TA.AperFunction,Conductor*%
G36*
X31994312Y-70079688D02*
G01*
X32014954Y-70096322D01*
X32657856Y-70739224D01*
X32691341Y-70800547D01*
X32686357Y-70870239D01*
X32675714Y-70892001D01*
X32590189Y-71030658D01*
X32590186Y-71030665D01*
X32535001Y-71197202D01*
X32535001Y-71197203D01*
X32535000Y-71197203D01*
X32533249Y-71214349D01*
X32506852Y-71279041D01*
X32449670Y-71319191D01*
X32379859Y-71322053D01*
X32335580Y-71301011D01*
X32242335Y-71231207D01*
X32242328Y-71231203D01*
X32107482Y-71180909D01*
X32107483Y-71180909D01*
X32047883Y-71174502D01*
X32047881Y-71174501D01*
X32047873Y-71174501D01*
X32047864Y-71174501D01*
X30352129Y-71174501D01*
X30352123Y-71174502D01*
X30292516Y-71180909D01*
X30157671Y-71231203D01*
X30157664Y-71231207D01*
X30042455Y-71317453D01*
X30042452Y-71317456D01*
X29956206Y-71432665D01*
X29956202Y-71432672D01*
X29905908Y-71567518D01*
X29899501Y-71627117D01*
X29899500Y-71627136D01*
X29899500Y-73322871D01*
X29899501Y-73322877D01*
X29905908Y-73382484D01*
X29956202Y-73517329D01*
X29956206Y-73517336D01*
X30042452Y-73632545D01*
X30042455Y-73632548D01*
X30157664Y-73718794D01*
X30157671Y-73718798D01*
X30202618Y-73735562D01*
X30292517Y-73769092D01*
X30327596Y-73772863D01*
X30392144Y-73799600D01*
X30431993Y-73856992D01*
X30434488Y-73926817D01*
X30398836Y-73986906D01*
X30385464Y-73997726D01*
X30360858Y-74014955D01*
X30199954Y-74175859D01*
X30069432Y-74362266D01*
X30069431Y-74362268D01*
X29973261Y-74568503D01*
X29973258Y-74568512D01*
X29914366Y-74788303D01*
X29914364Y-74788314D01*
X29894532Y-75014999D01*
X29894532Y-75015002D01*
X29914364Y-75241687D01*
X29914366Y-75241698D01*
X29973258Y-75461489D01*
X29973261Y-75461498D01*
X30069431Y-75667733D01*
X30069432Y-75667735D01*
X30199954Y-75854142D01*
X30360858Y-76015046D01*
X30360861Y-76015048D01*
X30547266Y-76145569D01*
X30605273Y-76172618D01*
X30657712Y-76218790D01*
X30676864Y-76285984D01*
X30656648Y-76352865D01*
X30605274Y-76397381D01*
X30547272Y-76424428D01*
X30547265Y-76424432D01*
X30360858Y-76554954D01*
X30199954Y-76715858D01*
X30069432Y-76902265D01*
X30069431Y-76902267D01*
X29973261Y-77108502D01*
X29973258Y-77108511D01*
X29914366Y-77328302D01*
X29914364Y-77328313D01*
X29894532Y-77554998D01*
X29894532Y-77555001D01*
X29914364Y-77781686D01*
X29914366Y-77781697D01*
X29973258Y-78001488D01*
X29973261Y-78001497D01*
X30069431Y-78207732D01*
X30069432Y-78207734D01*
X30199954Y-78394141D01*
X30360858Y-78555045D01*
X30360861Y-78555047D01*
X30547266Y-78685568D01*
X30753504Y-78781739D01*
X30973308Y-78840635D01*
X31135230Y-78854801D01*
X31199998Y-78860468D01*
X31200000Y-78860468D01*
X31200002Y-78860468D01*
X31256673Y-78855509D01*
X31426692Y-78840635D01*
X31646496Y-78781739D01*
X31852734Y-78685568D01*
X32039139Y-78555047D01*
X32200047Y-78394139D01*
X32330568Y-78207734D01*
X32426739Y-78001496D01*
X32485635Y-77781692D01*
X32505468Y-77555000D01*
X32485635Y-77328308D01*
X32426739Y-77108504D01*
X32330568Y-76902266D01*
X32232839Y-76762693D01*
X32200045Y-76715858D01*
X32039141Y-76554954D01*
X31878836Y-76442709D01*
X31852734Y-76424432D01*
X31794724Y-76397381D01*
X31742286Y-76351209D01*
X31723135Y-76284015D01*
X31743351Y-76217134D01*
X31794726Y-76172618D01*
X31852734Y-76145569D01*
X32039139Y-76015048D01*
X32200047Y-75854140D01*
X32225088Y-75818378D01*
X32279665Y-75774753D01*
X32326663Y-75765501D01*
X32677770Y-75765501D01*
X32744809Y-75785186D01*
X32765451Y-75801820D01*
X32806344Y-75842713D01*
X32955666Y-75934815D01*
X33122203Y-75990000D01*
X33224991Y-76000501D01*
X34575008Y-76000500D01*
X34677797Y-75990000D01*
X34844334Y-75934815D01*
X34979908Y-75851192D01*
X35047299Y-75832753D01*
X35113962Y-75853676D01*
X35132684Y-75869051D01*
X35206344Y-75942711D01*
X35355666Y-76034813D01*
X35522203Y-76089998D01*
X35624991Y-76100499D01*
X36975008Y-76100498D01*
X37077797Y-76089998D01*
X37244334Y-76034813D01*
X37393656Y-75942711D01*
X37517712Y-75818655D01*
X37548651Y-75768493D01*
X37600597Y-75721770D01*
X37669559Y-75710547D01*
X37733642Y-75738390D01*
X37755764Y-75762468D01*
X37819954Y-75854142D01*
X37980858Y-76015046D01*
X37980861Y-76015048D01*
X38167266Y-76145569D01*
X38225275Y-76172619D01*
X38277714Y-76218792D01*
X38296866Y-76285985D01*
X38276650Y-76352866D01*
X38225275Y-76397383D01*
X38167267Y-76424432D01*
X38167265Y-76424433D01*
X37980858Y-76554955D01*
X37819954Y-76715859D01*
X37689433Y-76902265D01*
X37620912Y-77049207D01*
X37574739Y-77101646D01*
X37507545Y-77120797D01*
X37440664Y-77100581D01*
X37420849Y-77084482D01*
X37393657Y-77057290D01*
X37393656Y-77057289D01*
X37299366Y-76999131D01*
X37244336Y-76965188D01*
X37244331Y-76965186D01*
X37222609Y-76957988D01*
X37077797Y-76910002D01*
X37077795Y-76910001D01*
X36975010Y-76899501D01*
X35624998Y-76899501D01*
X35624981Y-76899502D01*
X35522203Y-76910001D01*
X35522200Y-76910002D01*
X35355668Y-76965186D01*
X35355663Y-76965188D01*
X35206342Y-77057290D01*
X35082289Y-77181343D01*
X34990187Y-77330664D01*
X34990185Y-77330669D01*
X34974943Y-77376668D01*
X34935001Y-77497204D01*
X34935001Y-77497205D01*
X34935000Y-77497205D01*
X34924500Y-77599984D01*
X34924500Y-78500002D01*
X34924501Y-78500020D01*
X34935000Y-78602797D01*
X34935001Y-78602800D01*
X34990185Y-78769332D01*
X34990187Y-78769337D01*
X35016047Y-78811262D01*
X35082288Y-78918657D01*
X35206344Y-79042713D01*
X35355666Y-79134815D01*
X35522203Y-79190000D01*
X35624991Y-79200501D01*
X36975008Y-79200500D01*
X37077797Y-79190000D01*
X37244334Y-79134815D01*
X37393656Y-79042713D01*
X37517712Y-78918657D01*
X37609814Y-78769335D01*
X37609815Y-78769332D01*
X37613605Y-78763188D01*
X37615399Y-78764294D01*
X37654687Y-78719664D01*
X37720908Y-78700501D01*
X38171798Y-78700501D01*
X38224202Y-78712118D01*
X38373504Y-78781740D01*
X38593308Y-78840636D01*
X38755230Y-78854802D01*
X38819998Y-78860469D01*
X38820000Y-78860469D01*
X38820002Y-78860469D01*
X38876673Y-78855510D01*
X39046692Y-78840636D01*
X39266496Y-78781740D01*
X39472734Y-78685569D01*
X39659139Y-78555048D01*
X39820047Y-78394140D01*
X39950568Y-78207735D01*
X40046739Y-78001497D01*
X40105635Y-77781693D01*
X40125468Y-77555001D01*
X40105635Y-77328309D01*
X40046739Y-77108505D01*
X39950568Y-76902267D01*
X39820047Y-76715862D01*
X39820046Y-76715861D01*
X39820045Y-76715859D01*
X39659141Y-76554955D01*
X39472734Y-76424433D01*
X39472728Y-76424430D01*
X39414725Y-76397383D01*
X39362285Y-76351211D01*
X39343133Y-76284018D01*
X39363348Y-76217136D01*
X39414725Y-76172619D01*
X39472734Y-76145569D01*
X39659139Y-76015048D01*
X39820047Y-75854140D01*
X39950568Y-75667735D01*
X40046739Y-75461497D01*
X40105635Y-75241693D01*
X40125468Y-75015001D01*
X40124681Y-75006011D01*
X40115404Y-74899973D01*
X40105635Y-74788309D01*
X40046739Y-74568505D01*
X39950568Y-74362267D01*
X39820047Y-74175862D01*
X39820045Y-74175859D01*
X39659141Y-74014955D01*
X39472734Y-73884433D01*
X39472732Y-73884432D01*
X39431459Y-73865186D01*
X39414132Y-73857106D01*
X39361694Y-73810935D01*
X39342542Y-73743741D01*
X39362758Y-73676860D01*
X39414134Y-73632342D01*
X39472484Y-73605133D01*
X39658820Y-73474658D01*
X39819657Y-73313821D01*
X39950134Y-73127483D01*
X40046265Y-72921327D01*
X40046269Y-72921318D01*
X40098872Y-72725001D01*
X39135686Y-72725001D01*
X39140080Y-72720607D01*
X39192741Y-72629395D01*
X39220000Y-72527662D01*
X39220000Y-72422340D01*
X39192741Y-72320607D01*
X39140080Y-72229395D01*
X39135686Y-72225001D01*
X40098872Y-72225001D01*
X40098872Y-72225000D01*
X40046269Y-72028683D01*
X40046265Y-72028674D01*
X39950134Y-71822518D01*
X39819657Y-71636180D01*
X39745658Y-71562181D01*
X39712173Y-71500858D01*
X39717157Y-71431166D01*
X39759029Y-71375233D01*
X39824493Y-71350816D01*
X39833339Y-71350500D01*
X42774945Y-71350500D01*
X42841984Y-71370185D01*
X42887739Y-71422989D01*
X42898165Y-71488383D01*
X42882435Y-71627996D01*
X42882435Y-71628003D01*
X42902630Y-71807249D01*
X42902631Y-71807254D01*
X42962211Y-71977524D01*
X43018493Y-72067094D01*
X43037500Y-72133067D01*
X43037500Y-76641192D01*
X43017815Y-76708231D01*
X43001181Y-76728873D01*
X39898873Y-79831181D01*
X39837550Y-79864666D01*
X39811192Y-79867500D01*
X31887474Y-79867500D01*
X31761806Y-79892497D01*
X31761800Y-79892499D01*
X31643420Y-79941533D01*
X31643411Y-79941538D01*
X31536876Y-80012723D01*
X31536872Y-80012726D01*
X30954418Y-80595181D01*
X30893095Y-80628666D01*
X30866737Y-80631500D01*
X27574000Y-80631500D01*
X27506961Y-80611815D01*
X27461206Y-80559011D01*
X27450000Y-80507500D01*
X27450000Y-79506011D01*
X27469685Y-79438972D01*
X27497834Y-79408160D01*
X27585744Y-79339738D01*
X27754164Y-79156785D01*
X27890173Y-78948607D01*
X27990063Y-78720881D01*
X28051108Y-78479821D01*
X28071643Y-78232000D01*
X28069632Y-78207735D01*
X28051109Y-77984187D01*
X28051107Y-77984175D01*
X27990063Y-77743118D01*
X27890173Y-77515393D01*
X27754166Y-77307217D01*
X27696592Y-77244675D01*
X27585744Y-77124262D01*
X27526241Y-77077949D01*
X27497837Y-77055841D01*
X27457024Y-76999131D01*
X27450000Y-76957988D01*
X27450000Y-75006011D01*
X27469685Y-74938972D01*
X27497834Y-74908160D01*
X27585744Y-74839738D01*
X27754164Y-74656785D01*
X27890173Y-74448607D01*
X27990063Y-74220881D01*
X28051108Y-73979821D01*
X28059012Y-73884432D01*
X28071643Y-73732005D01*
X28071643Y-73731994D01*
X28051109Y-73484187D01*
X28051107Y-73484175D01*
X27990063Y-73243118D01*
X27890173Y-73015393D01*
X27754166Y-72807217D01*
X27688816Y-72736228D01*
X27585744Y-72624262D01*
X27497837Y-72555841D01*
X27457024Y-72499131D01*
X27450000Y-72457988D01*
X27450000Y-70184003D01*
X27469685Y-70116964D01*
X27522489Y-70071209D01*
X27574000Y-70060003D01*
X31927273Y-70060003D01*
X31994312Y-70079688D01*
G37*
%TD.AperFunction*%
%TA.AperFunction,Conductor*%
G36*
X37873700Y-71370185D02*
G01*
X37919455Y-71422989D01*
X37929399Y-71492147D01*
X37900374Y-71555703D01*
X37894342Y-71562181D01*
X37820342Y-71636180D01*
X37689865Y-71822518D01*
X37593734Y-72028674D01*
X37593730Y-72028683D01*
X37541127Y-72225000D01*
X37541128Y-72225001D01*
X38504314Y-72225001D01*
X38499920Y-72229395D01*
X38447259Y-72320607D01*
X38420000Y-72422340D01*
X38420000Y-72527662D01*
X38447259Y-72629395D01*
X38499920Y-72720607D01*
X38504314Y-72725001D01*
X37541128Y-72725001D01*
X37593730Y-72921318D01*
X37593734Y-72921327D01*
X37689865Y-73127483D01*
X37820342Y-73313821D01*
X37981179Y-73474658D01*
X38167518Y-73605135D01*
X38167520Y-73605136D01*
X38225865Y-73632343D01*
X38278305Y-73678515D01*
X38297457Y-73745708D01*
X38277242Y-73812590D01*
X38225867Y-73857106D01*
X38190388Y-73873651D01*
X38167264Y-73884434D01*
X37980858Y-74014955D01*
X37819954Y-74175859D01*
X37798395Y-74206649D01*
X37743817Y-74250273D01*
X37674319Y-74257465D01*
X37611965Y-74225942D01*
X37591282Y-74200620D01*
X37585100Y-74190598D01*
X37517712Y-74081343D01*
X37393656Y-73957287D01*
X37244334Y-73865185D01*
X37077797Y-73810000D01*
X37077795Y-73809999D01*
X36975010Y-73799499D01*
X35624998Y-73799499D01*
X35624981Y-73799500D01*
X35522203Y-73809999D01*
X35522200Y-73810000D01*
X35355668Y-73865184D01*
X35355663Y-73865186D01*
X35324458Y-73884434D01*
X35220091Y-73948807D01*
X35152701Y-73967247D01*
X35086038Y-73946324D01*
X35067316Y-73930949D01*
X34993657Y-73857290D01*
X34993656Y-73857289D01*
X34861054Y-73775500D01*
X34844336Y-73765188D01*
X34844331Y-73765186D01*
X34779614Y-73743741D01*
X34677797Y-73710002D01*
X34677795Y-73710001D01*
X34575010Y-73699501D01*
X33224998Y-73699501D01*
X33224981Y-73699502D01*
X33122203Y-73710001D01*
X33122200Y-73710002D01*
X32955668Y-73765186D01*
X32955663Y-73765188D01*
X32806342Y-73857290D01*
X32682289Y-73981343D01*
X32590187Y-74130664D01*
X32590185Y-74130669D01*
X32574003Y-74179505D01*
X32534230Y-74236950D01*
X32469714Y-74263773D01*
X32456297Y-74264501D01*
X32326663Y-74264501D01*
X32259624Y-74244816D01*
X32225088Y-74211624D01*
X32200045Y-74175859D01*
X32039143Y-74014957D01*
X32028193Y-74007290D01*
X32014535Y-73997726D01*
X31970912Y-73943150D01*
X31963719Y-73873651D01*
X31995241Y-73811297D01*
X32055471Y-73775883D01*
X32072404Y-73772862D01*
X32107483Y-73769092D01*
X32242331Y-73718797D01*
X32357546Y-73632547D01*
X32443796Y-73517332D01*
X32494091Y-73382484D01*
X32500500Y-73322874D01*
X32500499Y-72736225D01*
X32520183Y-72669189D01*
X32572987Y-72623434D01*
X32642146Y-72613490D01*
X32705702Y-72642515D01*
X32712180Y-72648547D01*
X32806344Y-72742711D01*
X32955666Y-72834813D01*
X33122203Y-72889998D01*
X33224991Y-72900499D01*
X34575008Y-72900498D01*
X34677797Y-72889998D01*
X34844334Y-72834813D01*
X34993656Y-72742711D01*
X35117712Y-72618655D01*
X35209814Y-72469333D01*
X35264999Y-72302796D01*
X35275500Y-72200008D01*
X35275499Y-71487227D01*
X35295183Y-71420189D01*
X35311812Y-71399553D01*
X35324552Y-71386813D01*
X35385875Y-71353333D01*
X35412228Y-71350500D01*
X37806661Y-71350500D01*
X37873700Y-71370185D01*
G37*
%TD.AperFunction*%
%TD*%
%TA.AperFunction,Conductor*%
%TO.N,+3V3*%
G36*
X61427336Y-20620185D02*
G01*
X61473091Y-20672989D01*
X61483035Y-20742147D01*
X61469129Y-20783927D01*
X61385635Y-20936833D01*
X61285628Y-21204962D01*
X61224804Y-21484566D01*
X61204390Y-21769998D01*
X61204390Y-21770001D01*
X61224804Y-22055433D01*
X61285628Y-22335037D01*
X61285630Y-22335043D01*
X61285631Y-22335046D01*
X61347156Y-22500000D01*
X61385635Y-22603166D01*
X61522770Y-22854309D01*
X61522775Y-22854317D01*
X61694254Y-23083387D01*
X61694270Y-23083405D01*
X61896594Y-23285729D01*
X61896612Y-23285745D01*
X62125682Y-23457224D01*
X62125690Y-23457229D01*
X62376833Y-23594364D01*
X62376832Y-23594364D01*
X62376836Y-23594365D01*
X62376839Y-23594367D01*
X62644954Y-23694369D01*
X62644960Y-23694370D01*
X62644962Y-23694371D01*
X62924566Y-23755195D01*
X62924568Y-23755195D01*
X62924572Y-23755196D01*
X63178220Y-23773337D01*
X63209999Y-23775610D01*
X63210000Y-23775610D01*
X63210001Y-23775610D01*
X63238595Y-23773564D01*
X63495428Y-23755196D01*
X63714482Y-23707544D01*
X63775037Y-23694371D01*
X63775037Y-23694370D01*
X63775046Y-23694369D01*
X64043161Y-23594367D01*
X64294315Y-23457226D01*
X64523395Y-23285739D01*
X64725739Y-23083395D01*
X64897226Y-22854315D01*
X65034367Y-22603161D01*
X65134369Y-22335046D01*
X65195196Y-22055428D01*
X65215610Y-21770000D01*
X65195196Y-21484572D01*
X65193464Y-21476612D01*
X65134371Y-21204962D01*
X65134370Y-21204960D01*
X65134369Y-21204954D01*
X65034367Y-20936839D01*
X65034364Y-20936833D01*
X64950871Y-20783927D01*
X64936019Y-20715654D01*
X64960436Y-20650190D01*
X65016369Y-20608318D01*
X65059703Y-20600500D01*
X84975500Y-20600500D01*
X85042539Y-20620185D01*
X85088294Y-20672989D01*
X85099500Y-20724500D01*
X85099500Y-31000192D01*
X85079815Y-31067231D01*
X85027011Y-31112986D01*
X84957853Y-31122930D01*
X84894297Y-31093905D01*
X84887819Y-31087873D01*
X84347709Y-30547763D01*
X84314224Y-30486440D01*
X84315615Y-30427989D01*
X84316545Y-30424517D01*
X84335063Y-30355408D01*
X84355659Y-30120000D01*
X84335063Y-29884592D01*
X84275970Y-29664051D01*
X84273905Y-29656344D01*
X84273904Y-29656343D01*
X84273903Y-29656337D01*
X84174035Y-29442171D01*
X84168425Y-29434158D01*
X84038494Y-29248597D01*
X83871402Y-29081506D01*
X83871396Y-29081501D01*
X83685842Y-28951575D01*
X83642217Y-28896998D01*
X83635023Y-28827500D01*
X83666546Y-28765145D01*
X83685842Y-28748425D01*
X83725373Y-28720745D01*
X83871401Y-28618495D01*
X84038495Y-28451401D01*
X84174035Y-28257830D01*
X84273903Y-28043663D01*
X84335063Y-27815408D01*
X84355659Y-27580000D01*
X84335063Y-27344592D01*
X84273903Y-27116337D01*
X84174035Y-26902171D01*
X84174034Y-26902169D01*
X84038494Y-26708597D01*
X83871402Y-26541506D01*
X83871396Y-26541501D01*
X83685842Y-26411575D01*
X83642217Y-26356998D01*
X83635023Y-26287500D01*
X83666546Y-26225145D01*
X83685842Y-26208425D01*
X83720602Y-26184086D01*
X83871401Y-26078495D01*
X84038495Y-25911401D01*
X84174035Y-25717830D01*
X84273903Y-25503663D01*
X84335063Y-25275408D01*
X84355659Y-25040000D01*
X84335063Y-24804592D01*
X84273903Y-24576337D01*
X84174035Y-24362171D01*
X84168425Y-24354158D01*
X84038494Y-24168597D01*
X83871402Y-24001506D01*
X83871396Y-24001501D01*
X83685842Y-23871575D01*
X83642217Y-23816998D01*
X83635023Y-23747500D01*
X83666546Y-23685145D01*
X83685842Y-23668425D01*
X83750478Y-23623166D01*
X83871401Y-23538495D01*
X84038495Y-23371401D01*
X84174035Y-23177830D01*
X84273903Y-22963663D01*
X84335063Y-22735408D01*
X84355659Y-22500000D01*
X84353843Y-22479249D01*
X84338161Y-22300000D01*
X84335063Y-22264592D01*
X84273903Y-22036337D01*
X84174035Y-21822171D01*
X84156927Y-21797737D01*
X84038494Y-21628597D01*
X83871402Y-21461506D01*
X83871395Y-21461501D01*
X83677834Y-21325967D01*
X83677830Y-21325965D01*
X83677828Y-21325964D01*
X83463663Y-21226097D01*
X83463659Y-21226096D01*
X83463655Y-21226094D01*
X83235413Y-21164938D01*
X83235403Y-21164936D01*
X83000001Y-21144341D01*
X82999999Y-21144341D01*
X82764596Y-21164936D01*
X82764586Y-21164938D01*
X82536344Y-21226094D01*
X82536335Y-21226098D01*
X82322171Y-21325964D01*
X82322169Y-21325965D01*
X82128600Y-21461503D01*
X82006673Y-21583430D01*
X81945350Y-21616914D01*
X81875658Y-21611930D01*
X81819725Y-21570058D01*
X81802810Y-21539081D01*
X81753797Y-21407671D01*
X81753793Y-21407664D01*
X81667547Y-21292455D01*
X81667544Y-21292452D01*
X81552335Y-21206206D01*
X81552328Y-21206202D01*
X81417482Y-21155908D01*
X81417483Y-21155908D01*
X81357883Y-21149501D01*
X81357881Y-21149500D01*
X81357873Y-21149500D01*
X81357864Y-21149500D01*
X79562129Y-21149500D01*
X79562123Y-21149501D01*
X79502516Y-21155908D01*
X79367671Y-21206202D01*
X79367664Y-21206206D01*
X79252455Y-21292452D01*
X79252452Y-21292455D01*
X79166206Y-21407664D01*
X79166202Y-21407671D01*
X79115908Y-21542517D01*
X79109501Y-21602116D01*
X79109500Y-21602135D01*
X79109500Y-23397870D01*
X79109501Y-23397876D01*
X79115908Y-23457483D01*
X79166202Y-23592328D01*
X79166206Y-23592335D01*
X79252452Y-23707544D01*
X79252455Y-23707547D01*
X79367664Y-23793793D01*
X79367671Y-23793797D01*
X79499081Y-23842810D01*
X79555015Y-23884681D01*
X79579432Y-23950145D01*
X79564580Y-24018418D01*
X79543430Y-24046673D01*
X79421503Y-24168600D01*
X79285965Y-24362169D01*
X79285964Y-24362171D01*
X79186098Y-24576335D01*
X79186094Y-24576344D01*
X79124938Y-24804586D01*
X79124936Y-24804596D01*
X79104341Y-25039999D01*
X79104341Y-25040000D01*
X79124936Y-25275403D01*
X79124938Y-25275413D01*
X79186094Y-25503655D01*
X79186096Y-25503659D01*
X79186097Y-25503663D01*
X79280703Y-25706546D01*
X79285965Y-25717830D01*
X79285967Y-25717834D01*
X79376435Y-25847034D01*
X79421501Y-25911396D01*
X79421506Y-25911402D01*
X79588597Y-26078493D01*
X79588603Y-26078498D01*
X79606726Y-26091188D01*
X79739398Y-26184086D01*
X79774157Y-26208424D01*
X79817782Y-26263001D01*
X79824976Y-26332499D01*
X79793453Y-26394854D01*
X79774158Y-26411574D01*
X79588594Y-26541507D01*
X79421505Y-26708596D01*
X79285965Y-26902168D01*
X79285964Y-26902170D01*
X79192401Y-27102815D01*
X79186098Y-27116335D01*
X79186094Y-27116343D01*
X79124938Y-27344585D01*
X79124936Y-27344595D01*
X79104341Y-27579998D01*
X79104341Y-27579999D01*
X79124936Y-27815402D01*
X79124938Y-27815412D01*
X79186094Y-28043654D01*
X79186096Y-28043658D01*
X79186097Y-28043662D01*
X79240474Y-28160273D01*
X79285965Y-28257829D01*
X79285967Y-28257833D01*
X79383930Y-28397737D01*
X79421505Y-28451400D01*
X79588599Y-28618494D01*
X79588601Y-28618495D01*
X79588603Y-28618497D01*
X79774158Y-28748424D01*
X79817783Y-28803001D01*
X79824977Y-28872499D01*
X79793454Y-28934854D01*
X79774159Y-28951574D01*
X79588594Y-29081508D01*
X79421505Y-29248597D01*
X79285965Y-29442169D01*
X79285964Y-29442171D01*
X79186098Y-29656335D01*
X79186094Y-29656344D01*
X79124938Y-29884586D01*
X79124936Y-29884596D01*
X79104341Y-30119999D01*
X79104341Y-30120000D01*
X79124936Y-30355403D01*
X79124938Y-30355413D01*
X79186094Y-30583655D01*
X79186096Y-30583659D01*
X79186097Y-30583663D01*
X79285965Y-30797830D01*
X79285967Y-30797834D01*
X79421501Y-30991395D01*
X79421506Y-30991402D01*
X79588597Y-31158493D01*
X79588603Y-31158498D01*
X79774158Y-31288425D01*
X79817783Y-31343002D01*
X79824977Y-31412500D01*
X79793454Y-31474855D01*
X79774158Y-31491575D01*
X79588597Y-31621505D01*
X79421505Y-31788597D01*
X79285965Y-31982169D01*
X79285964Y-31982171D01*
X79186098Y-32196335D01*
X79186094Y-32196344D01*
X79124938Y-32424586D01*
X79124936Y-32424596D01*
X79104341Y-32659999D01*
X79104341Y-32660000D01*
X79124936Y-32895403D01*
X79124938Y-32895413D01*
X79159327Y-33023756D01*
X79157664Y-33093606D01*
X79127235Y-33143529D01*
X79097585Y-33173180D01*
X79036262Y-33206666D01*
X79009902Y-33209500D01*
X50717109Y-33209500D01*
X50650070Y-33189815D01*
X50604315Y-33137011D01*
X50594371Y-33067853D01*
X50604727Y-33033095D01*
X50635544Y-32967007D01*
X50691740Y-32846496D01*
X50750636Y-32626692D01*
X50770469Y-32400000D01*
X50750636Y-32173308D01*
X50691740Y-31953504D01*
X50595569Y-31747266D01*
X50465048Y-31560861D01*
X50465046Y-31560858D01*
X50304142Y-31399954D01*
X50117735Y-31269432D01*
X50117733Y-31269431D01*
X49911498Y-31173261D01*
X49911489Y-31173258D01*
X49691698Y-31114366D01*
X49691694Y-31114365D01*
X49691693Y-31114365D01*
X49691692Y-31114364D01*
X49691687Y-31114364D01*
X49465003Y-31094532D01*
X49464999Y-31094532D01*
X49238314Y-31114364D01*
X49238303Y-31114366D01*
X49018512Y-31173258D01*
X49018503Y-31173261D01*
X48812268Y-31269431D01*
X48812266Y-31269432D01*
X48625859Y-31399954D01*
X48464955Y-31560858D01*
X48447726Y-31585464D01*
X48393148Y-31629088D01*
X48323649Y-31636280D01*
X48261295Y-31604757D01*
X48225883Y-31544526D01*
X48222862Y-31527591D01*
X48219092Y-31492516D01*
X48168798Y-31357671D01*
X48168794Y-31357664D01*
X48082548Y-31242455D01*
X48082545Y-31242452D01*
X47967336Y-31156206D01*
X47967329Y-31156202D01*
X47832483Y-31105908D01*
X47832484Y-31105908D01*
X47772884Y-31099501D01*
X47772882Y-31099500D01*
X47772874Y-31099500D01*
X47772865Y-31099500D01*
X46077130Y-31099500D01*
X46077124Y-31099501D01*
X46017517Y-31105908D01*
X45882672Y-31156202D01*
X45882665Y-31156206D01*
X45767456Y-31242452D01*
X45767453Y-31242455D01*
X45681207Y-31357664D01*
X45681203Y-31357671D01*
X45630909Y-31492517D01*
X45624502Y-31552116D01*
X45624501Y-31552135D01*
X45624501Y-33247870D01*
X45624502Y-33247876D01*
X45630909Y-33307483D01*
X45681203Y-33442328D01*
X45681207Y-33442335D01*
X45767453Y-33557544D01*
X45767456Y-33557547D01*
X45882665Y-33643793D01*
X45882672Y-33643797D01*
X45927619Y-33660561D01*
X46017518Y-33694091D01*
X46077128Y-33700500D01*
X46450903Y-33700499D01*
X46517941Y-33720183D01*
X46563696Y-33772987D01*
X46573640Y-33842146D01*
X46544615Y-33905701D01*
X46538583Y-33912180D01*
X33531286Y-46919478D01*
X33419481Y-47031282D01*
X33419479Y-47031284D01*
X33391797Y-47079232D01*
X33380096Y-47099500D01*
X33340423Y-47168215D01*
X33299499Y-47320943D01*
X33299499Y-47320945D01*
X33299499Y-47489046D01*
X33299500Y-47489059D01*
X33299500Y-50217587D01*
X33279815Y-50284626D01*
X33272450Y-50294896D01*
X33270186Y-50297734D01*
X33174211Y-50450476D01*
X33114631Y-50620745D01*
X33114630Y-50620750D01*
X33094435Y-50799996D01*
X33094435Y-50800003D01*
X33114630Y-50979249D01*
X33114631Y-50979254D01*
X33174211Y-51149523D01*
X33251632Y-51272737D01*
X33270184Y-51302262D01*
X33397738Y-51429816D01*
X33456448Y-51466706D01*
X33532562Y-51514532D01*
X33550478Y-51525789D01*
X33650048Y-51560630D01*
X33720745Y-51585368D01*
X33720750Y-51585369D01*
X33899996Y-51605565D01*
X33900000Y-51605565D01*
X33900004Y-51605565D01*
X34079249Y-51585369D01*
X34079252Y-51585368D01*
X34079255Y-51585368D01*
X34249522Y-51525789D01*
X34402262Y-51429816D01*
X34529816Y-51302262D01*
X34625789Y-51149522D01*
X34685368Y-50979255D01*
X34685369Y-50979249D01*
X34705565Y-50800003D01*
X34705565Y-50799996D01*
X34685369Y-50620750D01*
X34685368Y-50620745D01*
X34625788Y-50450476D01*
X34584878Y-50385368D01*
X34529816Y-50297738D01*
X34529814Y-50297736D01*
X34529813Y-50297734D01*
X34527550Y-50294896D01*
X34526659Y-50292715D01*
X34526111Y-50291842D01*
X34526264Y-50291745D01*
X34501144Y-50230209D01*
X34500500Y-50217587D01*
X34500500Y-49110576D01*
X34520185Y-49043537D01*
X34572989Y-48997782D01*
X34638383Y-48987356D01*
X34799996Y-49005565D01*
X34800000Y-49005565D01*
X34800004Y-49005565D01*
X34979249Y-48985369D01*
X34979252Y-48985368D01*
X34979255Y-48985368D01*
X35149522Y-48925789D01*
X35302262Y-48829816D01*
X35429816Y-48702262D01*
X35525789Y-48549522D01*
X35585368Y-48379255D01*
X35588042Y-48355522D01*
X35605565Y-48200003D01*
X35605565Y-48199996D01*
X35585369Y-48020750D01*
X35585367Y-48020740D01*
X35544515Y-47903995D01*
X35540952Y-47834216D01*
X35573873Y-47775360D01*
X47512417Y-35836819D01*
X47573740Y-35803334D01*
X47600098Y-35800500D01*
X47717588Y-35800500D01*
X47784627Y-35820185D01*
X47794903Y-35827555D01*
X47797736Y-35829814D01*
X47797738Y-35829816D01*
X47874152Y-35877830D01*
X47876296Y-35879177D01*
X47922587Y-35931512D01*
X47933235Y-36000565D01*
X47904860Y-36064414D01*
X47872325Y-36091557D01*
X47841290Y-36109475D01*
X47841282Y-36109481D01*
X39719479Y-44231284D01*
X39708398Y-44250478D01*
X39680096Y-44299500D01*
X39640423Y-44368215D01*
X39599499Y-44520943D01*
X39599499Y-44520945D01*
X39599499Y-44689046D01*
X39599500Y-44689059D01*
X39599500Y-48117587D01*
X39579815Y-48184626D01*
X39572450Y-48194896D01*
X39570186Y-48197734D01*
X39474211Y-48350476D01*
X39414631Y-48520745D01*
X39414630Y-48520750D01*
X39394435Y-48699996D01*
X39394435Y-48700003D01*
X39414630Y-48879249D01*
X39414631Y-48879254D01*
X39474211Y-49049523D01*
X39542791Y-49158667D01*
X39570184Y-49202262D01*
X39697738Y-49329816D01*
X39850478Y-49425789D01*
X39904880Y-49444825D01*
X40020745Y-49485368D01*
X40020750Y-49485369D01*
X40199996Y-49505565D01*
X40200000Y-49505565D01*
X40200004Y-49505565D01*
X40379249Y-49485369D01*
X40379252Y-49485368D01*
X40379255Y-49485368D01*
X40549522Y-49425789D01*
X40702262Y-49329816D01*
X40829816Y-49202262D01*
X40925789Y-49049522D01*
X40985368Y-48879255D01*
X40990169Y-48836648D01*
X41005565Y-48700003D01*
X41005565Y-48699996D01*
X40985369Y-48520750D01*
X40985368Y-48520745D01*
X40942326Y-48397738D01*
X40925789Y-48350478D01*
X40829816Y-48197738D01*
X40829814Y-48197736D01*
X40829813Y-48197734D01*
X40827550Y-48194896D01*
X40826659Y-48192715D01*
X40826111Y-48191842D01*
X40826264Y-48191745D01*
X40801144Y-48130209D01*
X40800500Y-48117587D01*
X40800500Y-45730012D01*
X40820185Y-45662973D01*
X40872989Y-45617218D01*
X40942147Y-45607274D01*
X40990532Y-45628194D01*
X40991842Y-45626111D01*
X40997737Y-45629815D01*
X40997738Y-45629816D01*
X41024284Y-45646496D01*
X41142550Y-45720808D01*
X41150478Y-45725789D01*
X41162547Y-45730012D01*
X41320745Y-45785368D01*
X41320750Y-45785369D01*
X41499996Y-45805565D01*
X41500000Y-45805565D01*
X41500004Y-45805565D01*
X41679249Y-45785369D01*
X41679252Y-45785368D01*
X41679255Y-45785368D01*
X41849522Y-45725789D01*
X42002262Y-45629816D01*
X42129816Y-45502262D01*
X42225789Y-45349522D01*
X42278110Y-45199998D01*
X45129532Y-45199998D01*
X45129532Y-45200001D01*
X45149364Y-45426686D01*
X45149366Y-45426697D01*
X45208258Y-45646488D01*
X45208261Y-45646497D01*
X45304431Y-45852732D01*
X45304432Y-45852734D01*
X45434954Y-46039141D01*
X45595858Y-46200045D01*
X45595861Y-46200047D01*
X45782266Y-46330568D01*
X45988504Y-46426739D01*
X46208308Y-46485635D01*
X46370230Y-46499801D01*
X46434998Y-46505468D01*
X46435000Y-46505468D01*
X46435002Y-46505468D01*
X46491807Y-46500498D01*
X46661692Y-46485635D01*
X46881496Y-46426739D01*
X47087734Y-46330568D01*
X47274139Y-46200047D01*
X47435047Y-46039139D01*
X47452272Y-46014539D01*
X47506848Y-45970913D01*
X47576346Y-45963718D01*
X47638701Y-45995239D01*
X47674116Y-46055468D01*
X47677138Y-46072406D01*
X47680908Y-46107483D01*
X47731202Y-46242328D01*
X47731206Y-46242335D01*
X47817452Y-46357544D01*
X47817455Y-46357547D01*
X47932664Y-46443793D01*
X47932671Y-46443797D01*
X48067517Y-46494091D01*
X48067516Y-46494091D01*
X48074444Y-46494835D01*
X48127127Y-46500500D01*
X49822872Y-46500499D01*
X49882483Y-46494091D01*
X50017331Y-46443796D01*
X50132546Y-46357546D01*
X50218796Y-46242331D01*
X50269091Y-46107483D01*
X50275500Y-46047873D01*
X50275499Y-44352128D01*
X50269091Y-44292517D01*
X50262263Y-44274211D01*
X50218797Y-44157671D01*
X50218793Y-44157664D01*
X50132547Y-44042455D01*
X50132544Y-44042452D01*
X50017335Y-43956206D01*
X50017328Y-43956202D01*
X49882482Y-43905908D01*
X49882483Y-43905908D01*
X49822883Y-43899501D01*
X49822881Y-43899500D01*
X49822873Y-43899500D01*
X49822864Y-43899500D01*
X48127129Y-43899500D01*
X48127123Y-43899501D01*
X48067516Y-43905908D01*
X47932671Y-43956202D01*
X47932664Y-43956206D01*
X47817455Y-44042452D01*
X47817452Y-44042455D01*
X47731206Y-44157664D01*
X47731202Y-44157671D01*
X47680908Y-44292516D01*
X47677137Y-44327596D01*
X47650398Y-44392146D01*
X47593006Y-44431994D01*
X47523180Y-44434487D01*
X47463092Y-44398834D01*
X47452273Y-44385462D01*
X47435045Y-44360858D01*
X47274141Y-44199954D01*
X47087734Y-44069432D01*
X47087732Y-44069431D01*
X46881497Y-43973261D01*
X46881488Y-43973258D01*
X46661697Y-43914366D01*
X46661693Y-43914365D01*
X46661692Y-43914365D01*
X46661691Y-43914364D01*
X46661686Y-43914364D01*
X46435002Y-43894532D01*
X46434998Y-43894532D01*
X46208313Y-43914364D01*
X46208302Y-43914366D01*
X45988511Y-43973258D01*
X45988502Y-43973261D01*
X45782267Y-44069431D01*
X45782265Y-44069432D01*
X45595858Y-44199954D01*
X45434954Y-44360858D01*
X45304432Y-44547265D01*
X45304431Y-44547267D01*
X45208261Y-44753502D01*
X45208258Y-44753511D01*
X45149366Y-44973302D01*
X45149364Y-44973313D01*
X45129532Y-45199998D01*
X42278110Y-45199998D01*
X42285368Y-45179255D01*
X42286182Y-45172025D01*
X42313245Y-45107611D01*
X42321712Y-45098232D01*
X47023225Y-40396719D01*
X47084546Y-40363236D01*
X47097020Y-40361182D01*
X47104256Y-40360367D01*
X47274523Y-40300788D01*
X47427263Y-40204815D01*
X47554817Y-40077261D01*
X47650790Y-39924521D01*
X47710369Y-39754254D01*
X47713576Y-39725790D01*
X47730566Y-39575002D01*
X47730566Y-39574995D01*
X47710370Y-39395749D01*
X47710369Y-39395744D01*
X47650790Y-39225477D01*
X47554817Y-39072737D01*
X47427263Y-38945183D01*
X47274523Y-38849210D01*
X47274520Y-38849208D01*
X47109291Y-38791391D01*
X47052515Y-38750669D01*
X47026768Y-38685717D01*
X47040224Y-38617155D01*
X47062561Y-38586673D01*
X48422417Y-37226819D01*
X48483740Y-37193334D01*
X48510098Y-37190500D01*
X69078060Y-37190500D01*
X69145099Y-37210185D01*
X69190854Y-37262989D01*
X69200798Y-37332147D01*
X69173648Y-37391596D01*
X69174525Y-37392295D01*
X69170184Y-37397737D01*
X69074211Y-37550476D01*
X69014631Y-37720745D01*
X69014630Y-37720750D01*
X68994435Y-37899996D01*
X68994435Y-37900003D01*
X69014630Y-38079249D01*
X69014631Y-38079254D01*
X69074211Y-38249524D01*
X69130493Y-38339094D01*
X69149500Y-38405067D01*
X69149500Y-41479191D01*
X69129815Y-41546230D01*
X69113181Y-41566872D01*
X66901775Y-43778277D01*
X66840452Y-43811762D01*
X66827988Y-43813815D01*
X66820752Y-43814630D01*
X66820744Y-43814632D01*
X66650478Y-43874210D01*
X66497737Y-43970184D01*
X66370184Y-44097737D01*
X66274211Y-44250476D01*
X66214631Y-44420745D01*
X66214630Y-44420750D01*
X66194435Y-44599996D01*
X66194435Y-44600003D01*
X66214630Y-44779249D01*
X66214631Y-44779254D01*
X66274211Y-44949523D01*
X66370184Y-45102262D01*
X66502662Y-45234740D01*
X66501390Y-45236011D01*
X66536295Y-45285740D01*
X66539145Y-45355552D01*
X66503800Y-45415822D01*
X66441482Y-45447416D01*
X66418842Y-45449500D01*
X64865567Y-45449500D01*
X64798528Y-45429815D01*
X64752773Y-45377011D01*
X64742829Y-45307853D01*
X64748526Y-45284545D01*
X64785366Y-45179262D01*
X64785369Y-45179249D01*
X64805565Y-45000003D01*
X64805565Y-44999996D01*
X64785369Y-44820750D01*
X64785368Y-44820745D01*
X64768321Y-44772027D01*
X64725789Y-44650478D01*
X64629816Y-44497738D01*
X64502262Y-44370184D01*
X64473526Y-44352128D01*
X64349521Y-44274210D01*
X64179255Y-44214632D01*
X64179246Y-44214630D01*
X64172012Y-44213815D01*
X64107600Y-44186744D01*
X64098223Y-44178277D01*
X62821722Y-42901776D01*
X62788237Y-42840453D01*
X62786182Y-42827973D01*
X62785368Y-42820745D01*
X62725789Y-42650478D01*
X62629816Y-42497738D01*
X62502262Y-42370184D01*
X62349523Y-42274211D01*
X62179254Y-42214631D01*
X62179249Y-42214630D01*
X62000004Y-42194435D01*
X61999996Y-42194435D01*
X61820750Y-42214630D01*
X61820745Y-42214631D01*
X61650476Y-42274211D01*
X61497737Y-42370184D01*
X61370184Y-42497737D01*
X61274211Y-42650476D01*
X61214631Y-42820745D01*
X61214630Y-42820750D01*
X61194435Y-42999996D01*
X61194435Y-43000003D01*
X61214630Y-43179249D01*
X61214631Y-43179254D01*
X61274211Y-43349523D01*
X61370184Y-43502262D01*
X61497738Y-43629816D01*
X61650478Y-43725789D01*
X61820745Y-43785368D01*
X61827974Y-43786182D01*
X61892388Y-43813246D01*
X61901776Y-43821722D01*
X63178277Y-45098223D01*
X63211762Y-45159546D01*
X63213815Y-45172012D01*
X63214630Y-45179246D01*
X63214632Y-45179255D01*
X63251475Y-45284546D01*
X63255036Y-45354325D01*
X63220307Y-45414952D01*
X63158313Y-45447179D01*
X63134433Y-45449500D01*
X59499972Y-45449500D01*
X59459017Y-45442542D01*
X59379254Y-45414631D01*
X59379249Y-45414630D01*
X59200004Y-45394435D01*
X59199996Y-45394435D01*
X59020750Y-45414630D01*
X59020745Y-45414631D01*
X58850476Y-45474211D01*
X58697737Y-45570184D01*
X58570184Y-45697737D01*
X58474211Y-45850476D01*
X58414631Y-46020745D01*
X58414630Y-46020750D01*
X58394435Y-46199996D01*
X58394435Y-46200003D01*
X58414630Y-46379249D01*
X58414631Y-46379254D01*
X58474211Y-46549523D01*
X58556457Y-46680416D01*
X58570184Y-46702262D01*
X58697738Y-46829816D01*
X58850478Y-46925789D01*
X59020745Y-46985368D01*
X59020750Y-46985369D01*
X59199996Y-47005565D01*
X59200000Y-47005565D01*
X59200004Y-47005565D01*
X59379249Y-46985369D01*
X59379252Y-46985368D01*
X59379255Y-46985368D01*
X59549522Y-46925789D01*
X59702262Y-46829816D01*
X59745259Y-46786819D01*
X59806582Y-46753334D01*
X59832940Y-46750500D01*
X67879192Y-46750500D01*
X67946231Y-46770185D01*
X67966873Y-46786819D01*
X71878277Y-50698223D01*
X71911762Y-50759546D01*
X71913815Y-50772012D01*
X71914630Y-50779246D01*
X71914632Y-50779255D01*
X71974210Y-50949521D01*
X72009333Y-51005419D01*
X72070184Y-51102262D01*
X72197738Y-51229816D01*
X72266045Y-51272736D01*
X72339259Y-51318740D01*
X72350478Y-51325789D01*
X72494230Y-51376090D01*
X72520745Y-51385368D01*
X72520750Y-51385369D01*
X72699996Y-51405565D01*
X72700000Y-51405565D01*
X72700004Y-51405565D01*
X72879249Y-51385369D01*
X72879252Y-51385368D01*
X72879255Y-51385368D01*
X73049522Y-51325789D01*
X73202262Y-51229816D01*
X73329816Y-51102262D01*
X73425789Y-50949522D01*
X73485368Y-50779255D01*
X73505565Y-50600000D01*
X73497734Y-50530500D01*
X73485369Y-50420750D01*
X73485368Y-50420745D01*
X73452141Y-50325788D01*
X73425789Y-50250478D01*
X73329816Y-50097738D01*
X73202262Y-49970184D01*
X73169377Y-49949521D01*
X73049521Y-49874210D01*
X72879255Y-49814632D01*
X72879246Y-49814630D01*
X72872012Y-49813815D01*
X72807600Y-49786744D01*
X72798223Y-49778277D01*
X69119942Y-46099995D01*
X78490561Y-46099995D01*
X78490561Y-46100004D01*
X78509652Y-46354769D01*
X78509653Y-46354774D01*
X78566503Y-46603852D01*
X78566505Y-46603861D01*
X78566507Y-46603866D01*
X78659849Y-46841698D01*
X78787595Y-47062961D01*
X78897227Y-47200435D01*
X78946896Y-47262718D01*
X79073835Y-47380499D01*
X79134182Y-47436493D01*
X79345281Y-47580418D01*
X79345286Y-47580420D01*
X79345287Y-47580421D01*
X79345288Y-47580422D01*
X79467541Y-47639295D01*
X79575468Y-47691270D01*
X79575469Y-47691270D01*
X79575472Y-47691272D01*
X79819614Y-47766580D01*
X79819615Y-47766580D01*
X79819618Y-47766581D01*
X80072245Y-47804658D01*
X80072250Y-47804658D01*
X80072253Y-47804659D01*
X80072254Y-47804659D01*
X80327746Y-47804659D01*
X80327747Y-47804659D01*
X80327754Y-47804658D01*
X80580381Y-47766581D01*
X80580382Y-47766580D01*
X80580386Y-47766580D01*
X80824528Y-47691272D01*
X81054720Y-47580418D01*
X81265818Y-47436493D01*
X81453107Y-47262714D01*
X81612405Y-47062961D01*
X81740151Y-46841698D01*
X81833493Y-46603866D01*
X81890346Y-46354779D01*
X81890347Y-46354769D01*
X81909439Y-46100004D01*
X81909439Y-46099995D01*
X81890347Y-45845230D01*
X81890346Y-45845225D01*
X81890346Y-45845221D01*
X81833493Y-45596134D01*
X81740151Y-45358302D01*
X81612405Y-45137039D01*
X81453107Y-44937286D01*
X81453106Y-44937285D01*
X81453103Y-44937281D01*
X81282789Y-44779254D01*
X81265818Y-44763507D01*
X81251146Y-44753504D01*
X81054723Y-44619584D01*
X81054712Y-44619577D01*
X80824530Y-44508729D01*
X80824532Y-44508729D01*
X80580387Y-44433420D01*
X80580381Y-44433418D01*
X80327754Y-44395341D01*
X80327747Y-44395341D01*
X80072253Y-44395341D01*
X80072245Y-44395341D01*
X79819618Y-44433418D01*
X79819612Y-44433420D01*
X79575468Y-44508729D01*
X79345288Y-44619577D01*
X79345287Y-44619578D01*
X79134181Y-44763507D01*
X78946896Y-44937281D01*
X78787595Y-45137039D01*
X78659849Y-45358301D01*
X78566509Y-45596128D01*
X78566503Y-45596147D01*
X78509653Y-45845225D01*
X78509652Y-45845230D01*
X78490561Y-46099995D01*
X69119942Y-46099995D01*
X68614674Y-45594727D01*
X68614673Y-45594726D01*
X68508123Y-45523532D01*
X68389749Y-45474501D01*
X68389748Y-45474500D01*
X68389744Y-45474499D01*
X68389741Y-45474498D01*
X68389737Y-45474497D01*
X68388286Y-45474209D01*
X68388286Y-45474208D01*
X68264071Y-45449500D01*
X68264069Y-45449500D01*
X67581158Y-45449500D01*
X67514119Y-45429815D01*
X67468364Y-45377011D01*
X67458420Y-45307853D01*
X67487445Y-45244297D01*
X67497368Y-45234770D01*
X67497338Y-45234740D01*
X67560066Y-45172012D01*
X67629816Y-45102262D01*
X67725789Y-44949522D01*
X67785368Y-44779255D01*
X67786182Y-44772025D01*
X67813245Y-44707611D01*
X67821712Y-44698232D01*
X70305277Y-42214669D01*
X70376465Y-42108127D01*
X70425501Y-41989744D01*
X70450500Y-41864069D01*
X70450500Y-38405067D01*
X70469507Y-38339094D01*
X70525788Y-38249524D01*
X70537997Y-38214633D01*
X70585368Y-38079255D01*
X70597069Y-37975408D01*
X70605565Y-37900003D01*
X70605565Y-37899996D01*
X70585369Y-37720750D01*
X70585368Y-37720745D01*
X70525788Y-37550476D01*
X70429815Y-37397737D01*
X70425475Y-37392295D01*
X70427833Y-37390413D01*
X70400774Y-37340858D01*
X70405758Y-37271166D01*
X70447630Y-37215233D01*
X70513094Y-37190816D01*
X70521940Y-37190500D01*
X79047497Y-37190500D01*
X79114536Y-37210185D01*
X79160291Y-37262989D01*
X79170235Y-37332147D01*
X79167272Y-37346593D01*
X79124938Y-37504586D01*
X79124936Y-37504596D01*
X79104341Y-37739999D01*
X79104341Y-37740000D01*
X79124936Y-37975403D01*
X79124938Y-37975413D01*
X79186094Y-38203655D01*
X79186096Y-38203659D01*
X79186097Y-38203663D01*
X79280703Y-38406546D01*
X79285965Y-38417830D01*
X79285967Y-38417834D01*
X79341917Y-38497738D01*
X79421501Y-38611396D01*
X79421506Y-38611402D01*
X79588597Y-38778493D01*
X79588603Y-38778498D01*
X79774158Y-38908425D01*
X79817783Y-38963002D01*
X79824977Y-39032500D01*
X79793454Y-39094855D01*
X79774159Y-39111575D01*
X79588594Y-39241509D01*
X79421505Y-39408598D01*
X79285965Y-39602170D01*
X79285964Y-39602172D01*
X79215265Y-39753787D01*
X79190001Y-39807967D01*
X79186098Y-39816336D01*
X79186094Y-39816345D01*
X79124938Y-40044587D01*
X79124936Y-40044597D01*
X79104341Y-40280000D01*
X79104341Y-40280001D01*
X79124936Y-40515404D01*
X79124938Y-40515414D01*
X79186094Y-40743656D01*
X79186096Y-40743660D01*
X79186097Y-40743664D01*
X79266003Y-40915023D01*
X79285965Y-40957831D01*
X79285967Y-40957835D01*
X79394281Y-41112522D01*
X79421505Y-41151402D01*
X79588599Y-41318496D01*
X79685384Y-41386266D01*
X79782165Y-41454033D01*
X79782167Y-41454034D01*
X79782170Y-41454036D01*
X79996337Y-41553904D01*
X80224592Y-41615064D01*
X80412918Y-41631540D01*
X80459999Y-41635660D01*
X80460000Y-41635660D01*
X80460001Y-41635660D01*
X80499234Y-41632227D01*
X80695408Y-41615064D01*
X80923663Y-41553904D01*
X81137830Y-41454036D01*
X81331401Y-41318496D01*
X81498495Y-41151402D01*
X81628426Y-40965840D01*
X81683002Y-40922217D01*
X81752500Y-40915023D01*
X81814855Y-40946546D01*
X81831575Y-40965842D01*
X81850499Y-40992869D01*
X81961505Y-41151401D01*
X82128599Y-41318495D01*
X82158966Y-41339758D01*
X82322165Y-41454032D01*
X82322167Y-41454033D01*
X82322170Y-41454035D01*
X82536337Y-41553903D01*
X82536343Y-41553904D01*
X82536344Y-41553905D01*
X82591285Y-41568626D01*
X82764592Y-41615063D01*
X82952918Y-41631539D01*
X82999999Y-41635659D01*
X83000000Y-41635659D01*
X83000001Y-41635659D01*
X83039234Y-41632226D01*
X83235408Y-41615063D01*
X83463663Y-41553903D01*
X83677830Y-41454035D01*
X83871401Y-41318495D01*
X83937819Y-41252077D01*
X83999142Y-41218592D01*
X84068834Y-41223576D01*
X84124767Y-41265448D01*
X84149184Y-41330912D01*
X84149500Y-41339758D01*
X84149500Y-63379191D01*
X84129815Y-63446230D01*
X84113181Y-63466872D01*
X82801775Y-64778277D01*
X82740452Y-64811762D01*
X82727988Y-64813815D01*
X82720752Y-64814630D01*
X82720744Y-64814632D01*
X82550478Y-64874210D01*
X82397737Y-64970184D01*
X82270184Y-65097737D01*
X82174211Y-65250476D01*
X82114631Y-65420745D01*
X82114630Y-65420750D01*
X82094435Y-65599996D01*
X82094435Y-65600003D01*
X82114630Y-65779249D01*
X82114631Y-65779254D01*
X82174211Y-65949523D01*
X82221951Y-66025500D01*
X82270184Y-66102262D01*
X82397738Y-66229816D01*
X82550478Y-66325789D01*
X82642546Y-66358005D01*
X82720745Y-66385368D01*
X82720750Y-66385369D01*
X82899996Y-66405565D01*
X82900000Y-66405565D01*
X82900004Y-66405565D01*
X83079249Y-66385369D01*
X83079252Y-66385368D01*
X83079255Y-66385368D01*
X83249522Y-66325789D01*
X83402262Y-66229816D01*
X83529816Y-66102262D01*
X83625789Y-65949522D01*
X83685368Y-65779255D01*
X83686182Y-65772025D01*
X83713245Y-65707611D01*
X83721712Y-65698232D01*
X84887820Y-64532124D01*
X84949142Y-64498641D01*
X85018834Y-64503625D01*
X85074767Y-64545497D01*
X85099184Y-64610961D01*
X85099500Y-64619807D01*
X85099500Y-66848017D01*
X85079815Y-66915056D01*
X85027011Y-66960811D01*
X84974696Y-66972014D01*
X56273696Y-66785897D01*
X56206786Y-66765779D01*
X56161374Y-66712679D01*
X56150500Y-66661900D01*
X56150500Y-53009940D01*
X56170185Y-52942901D01*
X56222989Y-52897146D01*
X56292147Y-52887202D01*
X56355703Y-52916227D01*
X56362181Y-52922259D01*
X56393738Y-52953816D01*
X56446803Y-52987159D01*
X56541539Y-53046686D01*
X56546478Y-53049789D01*
X56704382Y-53105042D01*
X56716745Y-53109368D01*
X56716750Y-53109369D01*
X56895996Y-53129565D01*
X56896000Y-53129565D01*
X56896004Y-53129565D01*
X57075249Y-53109369D01*
X57075252Y-53109368D01*
X57075255Y-53109368D01*
X57102039Y-53099996D01*
X58294435Y-53099996D01*
X58294435Y-53100003D01*
X58314630Y-53279249D01*
X58314631Y-53279254D01*
X58374211Y-53449523D01*
X58432162Y-53541750D01*
X58470184Y-53602262D01*
X58597738Y-53729816D01*
X58676163Y-53779094D01*
X58741339Y-53820047D01*
X58750478Y-53825789D01*
X58920745Y-53885368D01*
X58927974Y-53886182D01*
X58992388Y-53913246D01*
X59001776Y-53921722D01*
X61085325Y-56005272D01*
X61085332Y-56005278D01*
X61191863Y-56076459D01*
X61191865Y-56076460D01*
X61191874Y-56076466D01*
X61241565Y-56097048D01*
X61241566Y-56097049D01*
X61241567Y-56097049D01*
X61310256Y-56125501D01*
X61310260Y-56125501D01*
X61310261Y-56125502D01*
X61435928Y-56150500D01*
X61435931Y-56150500D01*
X61585453Y-56150500D01*
X61652492Y-56170185D01*
X61698247Y-56222989D01*
X61708673Y-56288383D01*
X61694435Y-56414755D01*
X61694435Y-56414763D01*
X61714630Y-56594009D01*
X61714631Y-56594014D01*
X61774211Y-56764283D01*
X61858817Y-56898931D01*
X61870184Y-56917022D01*
X61997738Y-57044576D01*
X62039386Y-57070745D01*
X62146021Y-57137749D01*
X62150478Y-57140549D01*
X62320739Y-57200126D01*
X62320745Y-57200128D01*
X62320750Y-57200129D01*
X62499996Y-57220325D01*
X62500000Y-57220325D01*
X62500004Y-57220325D01*
X62679249Y-57200129D01*
X62679251Y-57200128D01*
X62679255Y-57200128D01*
X62679258Y-57200126D01*
X62679262Y-57200126D01*
X62769377Y-57168592D01*
X62849522Y-57140549D01*
X62939096Y-57084265D01*
X63005068Y-57065260D01*
X64603300Y-57065260D01*
X64670339Y-57084945D01*
X64716094Y-57137749D01*
X64726038Y-57206907D01*
X64697013Y-57270463D01*
X64690981Y-57276941D01*
X64570184Y-57397737D01*
X64474211Y-57550476D01*
X64414631Y-57720745D01*
X64414630Y-57720750D01*
X64394435Y-57899996D01*
X64394435Y-57900003D01*
X64414630Y-58079249D01*
X64414631Y-58079254D01*
X64474211Y-58249523D01*
X64543231Y-58359367D01*
X64570184Y-58402262D01*
X64697738Y-58529816D01*
X64754504Y-58565484D01*
X64850477Y-58625789D01*
X64888996Y-58639266D01*
X64908928Y-58646241D01*
X64955656Y-58675602D01*
X70185324Y-63905271D01*
X70185331Y-63905277D01*
X70291871Y-63976464D01*
X70291870Y-63976464D01*
X70326544Y-63990826D01*
X70410256Y-64025501D01*
X70410260Y-64025501D01*
X70410261Y-64025502D01*
X70535928Y-64050500D01*
X70535931Y-64050500D01*
X78494932Y-64050500D01*
X78560904Y-64069506D01*
X78650477Y-64125789D01*
X78650481Y-64125790D01*
X78820737Y-64185366D01*
X78820743Y-64185367D01*
X78820745Y-64185368D01*
X78820746Y-64185368D01*
X78820750Y-64185369D01*
X78999996Y-64205565D01*
X79000000Y-64205565D01*
X79000004Y-64205565D01*
X79179249Y-64185369D01*
X79179252Y-64185368D01*
X79179255Y-64185368D01*
X79349522Y-64125789D01*
X79502262Y-64029816D01*
X79629816Y-63902262D01*
X79725789Y-63749522D01*
X79785368Y-63579255D01*
X79795372Y-63490468D01*
X79805565Y-63400003D01*
X79805565Y-63399996D01*
X79785369Y-63220750D01*
X79785368Y-63220745D01*
X79725788Y-63050476D01*
X79665912Y-62955185D01*
X79629816Y-62897738D01*
X79502262Y-62770184D01*
X79439096Y-62730494D01*
X79349523Y-62674211D01*
X79179254Y-62614631D01*
X79179249Y-62614630D01*
X79000004Y-62594435D01*
X78999996Y-62594435D01*
X78820750Y-62614630D01*
X78820737Y-62614633D01*
X78650481Y-62674209D01*
X78650477Y-62674210D01*
X78560904Y-62730494D01*
X78494932Y-62749500D01*
X70920808Y-62749500D01*
X70853769Y-62729815D01*
X70833127Y-62713181D01*
X68919942Y-60799996D01*
X73294435Y-60799996D01*
X73294435Y-60800003D01*
X73314630Y-60979249D01*
X73314631Y-60979254D01*
X73374211Y-61149523D01*
X73419781Y-61222046D01*
X73470184Y-61302262D01*
X73597738Y-61429816D01*
X73750478Y-61525789D01*
X73920739Y-61585366D01*
X73920745Y-61585368D01*
X73920750Y-61585369D01*
X74099996Y-61605565D01*
X74100000Y-61605565D01*
X74100004Y-61605565D01*
X74279249Y-61585369D01*
X74279251Y-61585368D01*
X74279255Y-61585368D01*
X74279258Y-61585366D01*
X74279262Y-61585366D01*
X74369377Y-61553832D01*
X74449522Y-61525789D01*
X74539096Y-61469505D01*
X74605068Y-61450500D01*
X75794932Y-61450500D01*
X75860904Y-61469506D01*
X75950477Y-61525789D01*
X75950481Y-61525790D01*
X76120737Y-61585366D01*
X76120743Y-61585367D01*
X76120745Y-61585368D01*
X76120746Y-61585368D01*
X76120750Y-61585369D01*
X76299996Y-61605565D01*
X76300000Y-61605565D01*
X76300004Y-61605565D01*
X76479249Y-61585369D01*
X76479252Y-61585368D01*
X76479255Y-61585368D01*
X76649522Y-61525789D01*
X76802262Y-61429816D01*
X76929816Y-61302262D01*
X77025789Y-61149522D01*
X77085368Y-60979255D01*
X77085369Y-60979249D01*
X77105565Y-60800003D01*
X77105565Y-60799996D01*
X77085369Y-60620750D01*
X77085368Y-60620745D01*
X77084013Y-60616873D01*
X77025789Y-60450478D01*
X76929816Y-60297738D01*
X76802262Y-60170184D01*
X76739096Y-60130494D01*
X76649523Y-60074211D01*
X76479254Y-60014631D01*
X76479249Y-60014630D01*
X76300004Y-59994435D01*
X76299996Y-59994435D01*
X76120750Y-60014630D01*
X76120737Y-60014633D01*
X75950481Y-60074209D01*
X75950477Y-60074210D01*
X75860904Y-60130494D01*
X75794932Y-60149500D01*
X74605068Y-60149500D01*
X74539096Y-60130494D01*
X74449522Y-60074210D01*
X74449518Y-60074209D01*
X74279262Y-60014633D01*
X74279249Y-60014630D01*
X74100004Y-59994435D01*
X74099996Y-59994435D01*
X73920750Y-60014630D01*
X73920745Y-60014631D01*
X73750476Y-60074211D01*
X73597737Y-60170184D01*
X73470184Y-60297737D01*
X73374211Y-60450476D01*
X73314631Y-60620745D01*
X73314630Y-60620750D01*
X73294435Y-60799996D01*
X68919942Y-60799996D01*
X68736819Y-60616873D01*
X68703334Y-60555550D01*
X68700500Y-60529192D01*
X68700500Y-57755067D01*
X68719507Y-57689094D01*
X68775788Y-57599524D01*
X68792951Y-57550476D01*
X68835368Y-57429255D01*
X68835369Y-57429249D01*
X68855565Y-57250003D01*
X68855565Y-57249996D01*
X68850286Y-57203143D01*
X68862341Y-57134321D01*
X68909690Y-57082942D01*
X68973506Y-57065260D01*
X77149311Y-57065260D01*
X77233855Y-57048442D01*
X77274984Y-57040261D01*
X77393367Y-56991225D01*
X77499909Y-56920037D01*
X79405276Y-55014669D01*
X79476465Y-54908127D01*
X79525501Y-54789744D01*
X79536973Y-54732071D01*
X79550500Y-54664069D01*
X79550500Y-52280066D01*
X79569507Y-52214093D01*
X79625788Y-52124523D01*
X79633727Y-52101835D01*
X79685368Y-51954254D01*
X79685735Y-51950999D01*
X79705565Y-51775002D01*
X79705565Y-51774995D01*
X79685369Y-51595749D01*
X79685368Y-51595744D01*
X79673081Y-51560630D01*
X79625789Y-51425477D01*
X79613277Y-51405565D01*
X79569621Y-51336086D01*
X79529816Y-51272737D01*
X79402262Y-51145183D01*
X79342750Y-51107789D01*
X79249523Y-51049210D01*
X79079254Y-50989630D01*
X79079249Y-50989629D01*
X78900004Y-50969434D01*
X78899996Y-50969434D01*
X78720750Y-50989629D01*
X78720745Y-50989630D01*
X78550476Y-51049210D01*
X78397737Y-51145183D01*
X78270184Y-51272736D01*
X78174211Y-51425475D01*
X78114631Y-51595744D01*
X78114630Y-51595749D01*
X78094435Y-51774995D01*
X78094435Y-51775002D01*
X78114630Y-51954248D01*
X78114631Y-51954253D01*
X78174211Y-52124523D01*
X78230493Y-52214093D01*
X78249500Y-52280066D01*
X78249500Y-54279192D01*
X78229815Y-54346231D01*
X78213181Y-54366873D01*
X77015432Y-55564621D01*
X76954109Y-55598106D01*
X76884417Y-55593122D01*
X76828484Y-55551250D01*
X76804531Y-55490823D01*
X76785369Y-55320750D01*
X76785368Y-55320745D01*
X76780883Y-55307928D01*
X76725789Y-55150478D01*
X76629816Y-54997738D01*
X76502262Y-54870184D01*
X76439096Y-54830494D01*
X76349523Y-54774211D01*
X76179254Y-54714631D01*
X76179249Y-54714630D01*
X76000004Y-54694435D01*
X75999996Y-54694435D01*
X75820750Y-54714630D01*
X75820737Y-54714633D01*
X75650481Y-54774209D01*
X75650477Y-54774210D01*
X75560904Y-54830494D01*
X75494932Y-54849500D01*
X61820808Y-54849500D01*
X61753769Y-54829815D01*
X61733127Y-54813181D01*
X59921722Y-53001776D01*
X59888237Y-52940453D01*
X59886182Y-52927973D01*
X59885641Y-52923172D01*
X59885368Y-52920745D01*
X59825789Y-52750478D01*
X59818459Y-52738813D01*
X59760086Y-52645912D01*
X59729816Y-52597738D01*
X59602262Y-52470184D01*
X59566611Y-52447783D01*
X59449523Y-52374211D01*
X59279254Y-52314631D01*
X59279249Y-52314630D01*
X59100004Y-52294435D01*
X59099996Y-52294435D01*
X58920750Y-52314630D01*
X58920745Y-52314631D01*
X58750476Y-52374211D01*
X58597737Y-52470184D01*
X58470184Y-52597737D01*
X58374211Y-52750476D01*
X58314631Y-52920745D01*
X58314630Y-52920750D01*
X58294435Y-53099996D01*
X57102039Y-53099996D01*
X57245522Y-53049789D01*
X57398262Y-52953816D01*
X57525816Y-52826262D01*
X57621789Y-52673522D01*
X57681368Y-52503255D01*
X57683111Y-52487784D01*
X57701565Y-52324003D01*
X57701565Y-52323996D01*
X57681369Y-52144750D01*
X57681366Y-52144737D01*
X57625280Y-51984456D01*
X57621789Y-51974478D01*
X57580358Y-51908541D01*
X57565506Y-51884903D01*
X57546500Y-51818931D01*
X57546500Y-49829702D01*
X57566185Y-49762663D01*
X57582819Y-49742021D01*
X58632021Y-48692819D01*
X58693344Y-48659334D01*
X58719702Y-48656500D01*
X63675216Y-48656500D01*
X63742255Y-48676185D01*
X63788010Y-48728989D01*
X63797954Y-48798147D01*
X63768929Y-48861703D01*
X63762897Y-48868181D01*
X63738863Y-48892214D01*
X63738860Y-48892218D01*
X63629371Y-49056079D01*
X63629364Y-49056092D01*
X63553950Y-49238160D01*
X63553947Y-49238170D01*
X63515500Y-49431456D01*
X63515500Y-49431459D01*
X63515500Y-49628541D01*
X63515500Y-49628543D01*
X63515499Y-49628543D01*
X63553947Y-49821829D01*
X63553950Y-49821839D01*
X63629364Y-50003907D01*
X63629371Y-50003920D01*
X63738860Y-50167781D01*
X63738863Y-50167785D01*
X63878214Y-50307136D01*
X63878218Y-50307139D01*
X64042079Y-50416628D01*
X64042092Y-50416635D01*
X64224160Y-50492049D01*
X64224165Y-50492051D01*
X64224169Y-50492051D01*
X64224170Y-50492052D01*
X64417456Y-50530500D01*
X64417459Y-50530500D01*
X67408543Y-50530500D01*
X67538582Y-50504632D01*
X67601835Y-50492051D01*
X67783914Y-50416632D01*
X67947782Y-50307139D01*
X68087139Y-50167782D01*
X68196632Y-50003914D01*
X68272051Y-49821835D01*
X68287927Y-49742021D01*
X68310500Y-49628543D01*
X68310500Y-49431456D01*
X68272052Y-49238170D01*
X68272051Y-49238169D01*
X68272051Y-49238165D01*
X68257180Y-49202262D01*
X68196635Y-49056092D01*
X68196628Y-49056079D01*
X68087139Y-48892218D01*
X68087136Y-48892214D01*
X68031570Y-48836648D01*
X67998085Y-48775325D01*
X68003069Y-48705633D01*
X68044941Y-48649700D01*
X68053272Y-48643977D01*
X68066262Y-48635816D01*
X68193816Y-48508262D01*
X68289789Y-48355522D01*
X68349368Y-48185255D01*
X68349439Y-48184626D01*
X68369565Y-48006003D01*
X68369565Y-48005996D01*
X68349369Y-47826750D01*
X68349368Y-47826745D01*
X68297759Y-47679255D01*
X68289789Y-47656478D01*
X68193816Y-47503738D01*
X68066262Y-47376184D01*
X67978347Y-47320943D01*
X67913523Y-47280211D01*
X67743254Y-47220631D01*
X67743249Y-47220630D01*
X67564004Y-47200435D01*
X67563996Y-47200435D01*
X67384750Y-47220630D01*
X67384737Y-47220633D01*
X67214481Y-47280209D01*
X67214477Y-47280210D01*
X67124904Y-47336494D01*
X67058932Y-47355500D01*
X58334823Y-47355500D01*
X58209155Y-47380497D01*
X58209149Y-47380499D01*
X58090768Y-47429534D01*
X57984220Y-47500726D01*
X56390727Y-49094219D01*
X56377602Y-49113863D01*
X56323989Y-49158667D01*
X56254664Y-49167374D01*
X56191637Y-49137219D01*
X56154918Y-49077776D01*
X56150500Y-49044971D01*
X56150500Y-45720808D01*
X56170185Y-45653769D01*
X56186819Y-45633127D01*
X60333127Y-41486819D01*
X60394450Y-41453334D01*
X60420808Y-41450500D01*
X64894932Y-41450500D01*
X64960904Y-41469506D01*
X65050477Y-41525789D01*
X65050481Y-41525790D01*
X65220737Y-41585366D01*
X65220743Y-41585367D01*
X65220745Y-41585368D01*
X65220746Y-41585368D01*
X65220750Y-41585369D01*
X65399996Y-41605565D01*
X65400000Y-41605565D01*
X65400004Y-41605565D01*
X65579249Y-41585369D01*
X65579252Y-41585368D01*
X65579255Y-41585368D01*
X65749522Y-41525789D01*
X65902262Y-41429816D01*
X66029816Y-41302262D01*
X66125789Y-41149522D01*
X66185368Y-40979255D01*
X66185369Y-40979249D01*
X66205565Y-40800003D01*
X66205565Y-40799996D01*
X66185369Y-40620750D01*
X66185368Y-40620745D01*
X66148509Y-40515409D01*
X66125789Y-40450478D01*
X66029816Y-40297738D01*
X65902262Y-40170184D01*
X65839096Y-40130494D01*
X65749523Y-40074211D01*
X65579254Y-40014631D01*
X65579249Y-40014630D01*
X65396579Y-39994049D01*
X65332165Y-39966983D01*
X65292609Y-39909388D01*
X65290472Y-39839551D01*
X65326430Y-39779644D01*
X65369508Y-39753787D01*
X65449522Y-39725789D01*
X65602262Y-39629816D01*
X65729816Y-39502262D01*
X65825789Y-39349522D01*
X65885368Y-39179255D01*
X65901903Y-39032500D01*
X65905565Y-39000003D01*
X65905565Y-38999996D01*
X65885369Y-38820750D01*
X65885368Y-38820745D01*
X65869422Y-38775173D01*
X65825789Y-38650478D01*
X65801231Y-38611395D01*
X65729815Y-38497737D01*
X65602262Y-38370184D01*
X65449523Y-38274211D01*
X65279254Y-38214631D01*
X65279249Y-38214630D01*
X65100004Y-38194435D01*
X65099996Y-38194435D01*
X64920750Y-38214630D01*
X64920737Y-38214633D01*
X64750481Y-38274209D01*
X64750477Y-38274210D01*
X64660904Y-38330494D01*
X64594932Y-38349500D01*
X60190929Y-38349500D01*
X60065261Y-38374497D01*
X60065255Y-38374499D01*
X59946870Y-38423535D01*
X59840331Y-38494722D01*
X59840324Y-38494728D01*
X46821937Y-51513115D01*
X46760614Y-51546600D01*
X46702163Y-51545209D01*
X46661697Y-51534366D01*
X46661693Y-51534365D01*
X46661692Y-51534365D01*
X46661691Y-51534364D01*
X46661686Y-51534364D01*
X46435002Y-51514532D01*
X46434998Y-51514532D01*
X46208313Y-51534364D01*
X46208302Y-51534366D01*
X45988511Y-51593258D01*
X45988502Y-51593261D01*
X45782267Y-51689431D01*
X45782265Y-51689432D01*
X45595858Y-51819954D01*
X45434954Y-51980858D01*
X45304432Y-52167265D01*
X45304431Y-52167267D01*
X45208261Y-52373502D01*
X45208258Y-52373511D01*
X45149366Y-52593302D01*
X45149364Y-52593313D01*
X45129532Y-52819998D01*
X45129532Y-52820001D01*
X45149364Y-53046686D01*
X45149366Y-53046697D01*
X45208258Y-53266488D01*
X45208261Y-53266497D01*
X45304431Y-53472732D01*
X45304432Y-53472734D01*
X45434954Y-53659141D01*
X45595858Y-53820045D01*
X45629376Y-53843514D01*
X45782266Y-53950568D01*
X45988504Y-54046739D01*
X46208308Y-54105635D01*
X46370230Y-54119801D01*
X46434998Y-54125468D01*
X46435000Y-54125468D01*
X46435002Y-54125468D01*
X46491673Y-54120509D01*
X46661692Y-54105635D01*
X46881496Y-54046739D01*
X47087734Y-53950568D01*
X47274139Y-53820047D01*
X47435047Y-53659139D01*
X47565568Y-53472734D01*
X47592618Y-53414724D01*
X47638790Y-53362285D01*
X47705983Y-53343133D01*
X47772865Y-53363348D01*
X47817382Y-53414725D01*
X47844429Y-53472728D01*
X47844432Y-53472734D01*
X47974954Y-53659141D01*
X48135855Y-53820042D01*
X48135858Y-53820044D01*
X48135861Y-53820047D01*
X48271626Y-53915109D01*
X48315248Y-53969683D01*
X48324500Y-54016682D01*
X48324500Y-62539070D01*
X48349232Y-62663399D01*
X48349234Y-62663425D01*
X48349237Y-62663425D01*
X48349499Y-62664746D01*
X48398533Y-62783124D01*
X48398534Y-62783126D01*
X48398535Y-62783127D01*
X48435020Y-62837732D01*
X48469726Y-62889673D01*
X48469727Y-62889674D01*
X52126807Y-66546753D01*
X52160292Y-66608076D01*
X52155308Y-66677768D01*
X52113436Y-66733701D01*
X52047972Y-66758118D01*
X52038322Y-66758431D01*
X30712067Y-66620138D01*
X30645157Y-66600020D01*
X30625190Y-66583822D01*
X30225439Y-66184071D01*
X30191954Y-66122748D01*
X30196938Y-66053056D01*
X30230000Y-66008339D01*
X30230000Y-65040686D01*
X30234394Y-65045080D01*
X30325606Y-65097741D01*
X30427339Y-65125000D01*
X30532661Y-65125000D01*
X30634394Y-65097741D01*
X30725606Y-65045080D01*
X30730000Y-65040686D01*
X30730000Y-66003872D01*
X30926317Y-65951269D01*
X30926326Y-65951265D01*
X31132482Y-65855134D01*
X31318820Y-65724657D01*
X31479657Y-65563820D01*
X31610134Y-65377482D01*
X31706265Y-65171326D01*
X31706269Y-65171317D01*
X31758872Y-64975000D01*
X30795686Y-64975000D01*
X30800080Y-64970606D01*
X30852741Y-64879394D01*
X30880000Y-64777661D01*
X30880000Y-64672339D01*
X30852741Y-64570606D01*
X30800080Y-64479394D01*
X30795686Y-64475000D01*
X31758872Y-64475000D01*
X31758872Y-64474999D01*
X31706269Y-64278682D01*
X31706265Y-64278673D01*
X31610134Y-64072517D01*
X31479657Y-63886179D01*
X31318820Y-63725342D01*
X31132482Y-63594865D01*
X31074133Y-63567657D01*
X31021694Y-63521484D01*
X31002542Y-63454291D01*
X31022758Y-63387410D01*
X31074129Y-63342895D01*
X31132734Y-63315568D01*
X31319139Y-63185047D01*
X31480047Y-63024139D01*
X31610568Y-62837734D01*
X31706739Y-62631496D01*
X31765635Y-62411692D01*
X31785468Y-62185000D01*
X31783856Y-62166580D01*
X31777268Y-62091270D01*
X31765635Y-61958308D01*
X31712724Y-61760840D01*
X31706741Y-61738511D01*
X31706738Y-61738502D01*
X31644748Y-61605565D01*
X31610568Y-61532266D01*
X31480047Y-61345861D01*
X31480045Y-61345858D01*
X31319141Y-61184954D01*
X31132734Y-61054432D01*
X31132728Y-61054429D01*
X31074725Y-61027382D01*
X31022285Y-60981210D01*
X31003133Y-60914017D01*
X31023348Y-60847135D01*
X31074725Y-60802618D01*
X31080333Y-60800003D01*
X31132734Y-60775568D01*
X31319139Y-60645047D01*
X31480047Y-60484139D01*
X31610568Y-60297734D01*
X31706739Y-60091496D01*
X31765635Y-59871692D01*
X31785468Y-59645000D01*
X31785468Y-59644999D01*
X36794532Y-59644999D01*
X36794532Y-59645002D01*
X36814364Y-59871687D01*
X36814366Y-59871698D01*
X36873258Y-60091489D01*
X36873261Y-60091498D01*
X36969431Y-60297733D01*
X36969432Y-60297735D01*
X37099954Y-60484142D01*
X37260858Y-60645046D01*
X37260861Y-60645048D01*
X37447266Y-60775569D01*
X37505273Y-60802618D01*
X37557712Y-60848790D01*
X37576864Y-60915984D01*
X37556648Y-60982865D01*
X37505274Y-61027381D01*
X37447272Y-61054428D01*
X37447265Y-61054432D01*
X37260858Y-61184954D01*
X37099954Y-61345858D01*
X36969432Y-61532265D01*
X36969431Y-61532267D01*
X36873261Y-61738502D01*
X36873258Y-61738511D01*
X36814366Y-61958302D01*
X36814364Y-61958313D01*
X36794532Y-62184998D01*
X36794532Y-62185001D01*
X36814364Y-62411686D01*
X36814366Y-62411697D01*
X36873258Y-62631488D01*
X36873261Y-62631497D01*
X36969431Y-62837732D01*
X36969432Y-62837734D01*
X37099954Y-63024141D01*
X37260858Y-63185045D01*
X37285462Y-63202273D01*
X37329087Y-63256849D01*
X37336281Y-63326348D01*
X37304758Y-63388703D01*
X37244529Y-63424117D01*
X37227593Y-63427138D01*
X37192516Y-63430908D01*
X37057671Y-63481202D01*
X37057664Y-63481206D01*
X36942455Y-63567452D01*
X36942452Y-63567455D01*
X36856206Y-63682664D01*
X36856202Y-63682671D01*
X36805908Y-63817517D01*
X36799501Y-63877116D01*
X36799501Y-63877123D01*
X36799500Y-63877135D01*
X36799500Y-65572870D01*
X36799501Y-65572876D01*
X36805908Y-65632483D01*
X36856202Y-65767328D01*
X36856206Y-65767335D01*
X36942452Y-65882544D01*
X36942455Y-65882547D01*
X37057664Y-65968793D01*
X37057671Y-65968797D01*
X37192517Y-66019091D01*
X37192516Y-66019091D01*
X37199444Y-66019835D01*
X37252127Y-66025500D01*
X38947872Y-66025499D01*
X39007483Y-66019091D01*
X39142331Y-65968796D01*
X39257546Y-65882546D01*
X39343796Y-65767331D01*
X39394091Y-65632483D01*
X39400500Y-65572873D01*
X39400499Y-63877128D01*
X39394091Y-63817517D01*
X39343796Y-63682669D01*
X39343795Y-63682668D01*
X39343793Y-63682664D01*
X39257547Y-63567455D01*
X39257544Y-63567452D01*
X39142335Y-63481206D01*
X39142328Y-63481202D01*
X39007482Y-63430908D01*
X39007483Y-63430908D01*
X38972404Y-63427137D01*
X38907853Y-63400399D01*
X38868005Y-63343006D01*
X38865512Y-63273181D01*
X38901165Y-63213092D01*
X38914539Y-63202272D01*
X38939140Y-63185046D01*
X39100045Y-63024141D01*
X39100047Y-63024139D01*
X39230568Y-62837734D01*
X39326739Y-62631496D01*
X39385635Y-62411692D01*
X39405468Y-62185000D01*
X39403856Y-62166580D01*
X39397268Y-62091270D01*
X39385635Y-61958308D01*
X39332724Y-61760840D01*
X39326741Y-61738511D01*
X39326738Y-61738502D01*
X39264748Y-61605565D01*
X39230568Y-61532266D01*
X39100047Y-61345861D01*
X39100045Y-61345858D01*
X38939141Y-61184954D01*
X38752735Y-61054433D01*
X38752736Y-61054433D01*
X38752734Y-61054432D01*
X38694724Y-61027381D01*
X38642286Y-60981209D01*
X38623135Y-60914015D01*
X38643351Y-60847134D01*
X38694726Y-60802618D01*
X38752734Y-60775569D01*
X38939139Y-60645048D01*
X39100047Y-60484140D01*
X39230568Y-60297735D01*
X39326739Y-60091497D01*
X39385635Y-59871693D01*
X39405468Y-59645001D01*
X39385635Y-59418309D01*
X39326739Y-59198505D01*
X39230568Y-58992267D01*
X39100047Y-58805862D01*
X39100046Y-58805861D01*
X39100045Y-58805859D01*
X38939141Y-58644955D01*
X38752734Y-58514433D01*
X38752732Y-58514432D01*
X38546497Y-58418262D01*
X38546488Y-58418259D01*
X38326697Y-58359367D01*
X38326693Y-58359366D01*
X38326692Y-58359366D01*
X38326691Y-58359365D01*
X38326686Y-58359365D01*
X38100002Y-58339533D01*
X38099998Y-58339533D01*
X37873313Y-58359365D01*
X37873302Y-58359367D01*
X37653511Y-58418259D01*
X37653502Y-58418262D01*
X37447267Y-58514432D01*
X37447265Y-58514433D01*
X37260858Y-58644955D01*
X37099954Y-58805859D01*
X36969432Y-58992266D01*
X36969431Y-58992268D01*
X36873261Y-59198503D01*
X36873258Y-59198512D01*
X36814366Y-59418303D01*
X36814364Y-59418314D01*
X36794532Y-59644999D01*
X31785468Y-59644999D01*
X31765635Y-59418308D01*
X31706739Y-59198504D01*
X31610568Y-58992266D01*
X31480047Y-58805861D01*
X31480045Y-58805858D01*
X31319141Y-58644954D01*
X31132734Y-58514432D01*
X31132732Y-58514431D01*
X30926497Y-58418261D01*
X30926488Y-58418258D01*
X30706697Y-58359366D01*
X30706693Y-58359365D01*
X30706692Y-58359365D01*
X30706691Y-58359364D01*
X30706686Y-58359364D01*
X30480002Y-58339532D01*
X30479998Y-58339532D01*
X30253313Y-58359364D01*
X30253302Y-58359366D01*
X30033511Y-58418258D01*
X30033502Y-58418261D01*
X29827267Y-58514431D01*
X29827265Y-58514432D01*
X29640858Y-58644954D01*
X29479954Y-58805858D01*
X29349432Y-58992265D01*
X29349431Y-58992267D01*
X29253261Y-59198502D01*
X29253258Y-59198511D01*
X29194366Y-59418302D01*
X29194364Y-59418313D01*
X29174532Y-59644998D01*
X29174532Y-59645001D01*
X29194364Y-59871686D01*
X29194366Y-59871697D01*
X29253258Y-60091488D01*
X29253261Y-60091497D01*
X29349431Y-60297732D01*
X29349432Y-60297734D01*
X29479954Y-60484141D01*
X29640858Y-60645045D01*
X29640861Y-60645047D01*
X29827266Y-60775568D01*
X29879667Y-60800003D01*
X29885275Y-60802618D01*
X29937714Y-60848791D01*
X29956866Y-60915984D01*
X29936650Y-60982865D01*
X29885275Y-61027382D01*
X29827267Y-61054431D01*
X29827265Y-61054432D01*
X29640858Y-61184954D01*
X29479954Y-61345858D01*
X29454912Y-61381623D01*
X29400335Y-61425248D01*
X29353337Y-61434500D01*
X25527230Y-61434500D01*
X25460191Y-61414815D01*
X25439549Y-61398181D01*
X25259097Y-61217728D01*
X25259074Y-61217707D01*
X21566819Y-57525451D01*
X21533334Y-57464128D01*
X21530500Y-57437770D01*
X21530500Y-56979972D01*
X21537458Y-56939017D01*
X21565368Y-56859254D01*
X21565369Y-56859249D01*
X21585565Y-56680003D01*
X21585565Y-56679996D01*
X21565369Y-56500750D01*
X21565368Y-56500745D01*
X21552068Y-56462737D01*
X21505789Y-56330478D01*
X21409816Y-56177738D01*
X21282262Y-56050184D01*
X21129523Y-55954211D01*
X20959254Y-55894631D01*
X20959249Y-55894630D01*
X20773081Y-55873655D01*
X20773361Y-55871164D01*
X20717461Y-55854750D01*
X20671706Y-55801946D01*
X20660500Y-55750435D01*
X20660500Y-51849999D01*
X22444659Y-51849999D01*
X22448903Y-51893090D01*
X22449500Y-51905244D01*
X22449500Y-51948543D01*
X22457945Y-51991005D01*
X22459730Y-52003034D01*
X22463975Y-52046130D01*
X22463977Y-52046137D01*
X22476547Y-52087577D01*
X22479503Y-52099378D01*
X22484505Y-52124523D01*
X22487949Y-52141836D01*
X22504523Y-52181850D01*
X22508615Y-52193288D01*
X22521185Y-52234725D01*
X22521187Y-52234730D01*
X22541599Y-52272919D01*
X22546800Y-52283915D01*
X22563369Y-52323914D01*
X22563369Y-52323915D01*
X22587422Y-52359913D01*
X22593677Y-52370348D01*
X22614092Y-52408541D01*
X22641557Y-52442007D01*
X22648806Y-52451781D01*
X22672860Y-52487780D01*
X22672863Y-52487784D01*
X22703474Y-52518394D01*
X22711646Y-52527410D01*
X22739118Y-52560884D01*
X22772587Y-52588351D01*
X22781605Y-52596525D01*
X22812213Y-52627134D01*
X22812216Y-52627136D01*
X22812219Y-52627139D01*
X22848219Y-52651193D01*
X22857992Y-52658442D01*
X22867582Y-52666312D01*
X22891462Y-52685910D01*
X22911526Y-52696634D01*
X22929651Y-52706322D01*
X22940090Y-52712579D01*
X22976086Y-52736631D01*
X23016087Y-52753201D01*
X23027085Y-52758402D01*
X23065273Y-52778814D01*
X23106721Y-52791387D01*
X23118166Y-52795483D01*
X23158156Y-52812048D01*
X23158157Y-52812048D01*
X23158164Y-52812051D01*
X23200632Y-52820497D01*
X23212424Y-52823451D01*
X23253868Y-52836024D01*
X23296965Y-52840268D01*
X23308991Y-52842052D01*
X23339481Y-52848117D01*
X23351459Y-52850500D01*
X23351460Y-52850500D01*
X23394756Y-52850500D01*
X23406909Y-52851096D01*
X23450000Y-52855341D01*
X23493090Y-52851096D01*
X23505244Y-52850500D01*
X23548541Y-52850500D01*
X23564453Y-52847334D01*
X23591004Y-52842053D01*
X23603036Y-52840268D01*
X23646132Y-52836024D01*
X23687570Y-52823452D01*
X23699370Y-52820497D01*
X23737658Y-52812881D01*
X23761846Y-52810500D01*
X24787030Y-52810500D01*
X24854069Y-52830185D01*
X24899824Y-52882989D01*
X24909768Y-52952147D01*
X24880743Y-53015703D01*
X24853002Y-53039494D01*
X24770737Y-53091184D01*
X24643184Y-53218737D01*
X24547211Y-53371476D01*
X24487631Y-53541745D01*
X24487630Y-53541750D01*
X24467435Y-53720996D01*
X24467435Y-53721003D01*
X24487630Y-53900249D01*
X24487631Y-53900254D01*
X24547211Y-54070523D01*
X24643184Y-54223262D01*
X24770738Y-54350816D01*
X24923478Y-54446789D01*
X25093745Y-54506368D01*
X25100974Y-54507182D01*
X25165388Y-54534246D01*
X25174776Y-54542722D01*
X26237181Y-55605127D01*
X26270666Y-55666450D01*
X26273500Y-55692808D01*
X26273500Y-56898931D01*
X26254494Y-56964903D01*
X26198211Y-57054477D01*
X26198209Y-57054481D01*
X26138633Y-57224737D01*
X26138630Y-57224750D01*
X26118435Y-57403996D01*
X26118435Y-57404003D01*
X26138630Y-57583249D01*
X26138631Y-57583254D01*
X26198211Y-57753523D01*
X26252972Y-57840674D01*
X26294184Y-57906262D01*
X26421738Y-58033816D01*
X26574478Y-58129789D01*
X26744745Y-58189368D01*
X26744750Y-58189369D01*
X26923996Y-58209565D01*
X26924000Y-58209565D01*
X26924004Y-58209565D01*
X27103249Y-58189369D01*
X27103252Y-58189368D01*
X27103255Y-58189368D01*
X27273522Y-58129789D01*
X27426262Y-58033816D01*
X27553816Y-57906262D01*
X27649789Y-57753522D01*
X27709368Y-57583255D01*
X27713061Y-57550478D01*
X27729565Y-57404003D01*
X27729565Y-57403996D01*
X27709369Y-57224750D01*
X27709366Y-57224737D01*
X27649790Y-57054481D01*
X27649789Y-57054478D01*
X27610232Y-56991523D01*
X27593506Y-56964903D01*
X27574500Y-56898931D01*
X27574500Y-55307928D01*
X27549502Y-55182261D01*
X27549501Y-55182260D01*
X27549501Y-55182256D01*
X27517615Y-55105276D01*
X27500466Y-55063874D01*
X27471648Y-55020745D01*
X27429278Y-54957332D01*
X27429272Y-54957325D01*
X26094722Y-53622776D01*
X26061237Y-53561453D01*
X26059182Y-53548973D01*
X26058368Y-53541745D01*
X25998789Y-53371478D01*
X25902816Y-53218738D01*
X25775262Y-53091184D01*
X25704461Y-53046697D01*
X25692998Y-53039494D01*
X25646707Y-52987159D01*
X25636059Y-52918105D01*
X25664434Y-52854257D01*
X25722824Y-52815885D01*
X25758970Y-52810500D01*
X26374756Y-52810500D01*
X26386909Y-52811096D01*
X26430000Y-52815341D01*
X26473090Y-52811096D01*
X26485244Y-52810500D01*
X26528542Y-52810500D01*
X26544454Y-52807334D01*
X26571005Y-52802053D01*
X26583037Y-52800268D01*
X26626132Y-52796024D01*
X26667580Y-52783450D01*
X26679353Y-52780500D01*
X26721835Y-52772051D01*
X26761847Y-52755476D01*
X26773280Y-52751386D01*
X26814727Y-52738814D01*
X26831448Y-52729876D01*
X34765484Y-52729876D01*
X34803932Y-52923162D01*
X34803935Y-52923172D01*
X34879349Y-53105240D01*
X34879356Y-53105253D01*
X34988845Y-53269114D01*
X34988848Y-53269118D01*
X35128199Y-53408469D01*
X35128203Y-53408472D01*
X35292064Y-53517961D01*
X35292077Y-53517968D01*
X35397061Y-53561453D01*
X35474150Y-53593384D01*
X35474154Y-53593384D01*
X35474155Y-53593385D01*
X35667441Y-53631833D01*
X35667444Y-53631833D01*
X35858763Y-53631833D01*
X35925802Y-53651518D01*
X35971557Y-53704322D01*
X35980961Y-53747554D01*
X35981983Y-53747439D01*
X36002958Y-53933607D01*
X36002959Y-53933612D01*
X36062539Y-54103881D01*
X36137552Y-54223262D01*
X36158512Y-54256620D01*
X36286066Y-54384174D01*
X36334538Y-54414631D01*
X36429355Y-54474209D01*
X36438806Y-54480147D01*
X36609073Y-54539726D01*
X36616302Y-54540540D01*
X36680716Y-54567604D01*
X36690104Y-54576080D01*
X37819295Y-55705272D01*
X37819302Y-55705278D01*
X37925833Y-55776459D01*
X37925836Y-55776461D01*
X37925844Y-55776466D01*
X37943936Y-55783960D01*
X37956732Y-55789260D01*
X37956731Y-55789260D01*
X38044221Y-55825499D01*
X38044226Y-55825501D01*
X38044230Y-55825501D01*
X38044231Y-55825502D01*
X38169898Y-55850500D01*
X38169901Y-55850500D01*
X38169902Y-55850500D01*
X38298039Y-55850500D01*
X46594932Y-55850500D01*
X46660904Y-55869506D01*
X46750477Y-55925789D01*
X46750481Y-55925790D01*
X46920737Y-55985366D01*
X46920743Y-55985367D01*
X46920745Y-55985368D01*
X46920746Y-55985368D01*
X46920750Y-55985369D01*
X47099996Y-56005565D01*
X47100000Y-56005565D01*
X47100004Y-56005565D01*
X47279249Y-55985369D01*
X47279252Y-55985368D01*
X47279255Y-55985368D01*
X47449522Y-55925789D01*
X47602262Y-55829816D01*
X47729816Y-55702262D01*
X47825789Y-55549522D01*
X47885368Y-55379255D01*
X47891960Y-55320750D01*
X47905565Y-55200003D01*
X47905565Y-55199996D01*
X47885369Y-55020750D01*
X47885368Y-55020745D01*
X47883242Y-55014668D01*
X47825789Y-54850478D01*
X47825174Y-54849500D01*
X47777866Y-54774209D01*
X47729816Y-54697738D01*
X47602262Y-54570184D01*
X47555084Y-54540540D01*
X47449523Y-54474211D01*
X47279254Y-54414631D01*
X47279249Y-54414630D01*
X47100004Y-54394435D01*
X47099996Y-54394435D01*
X46920750Y-54414630D01*
X46920737Y-54414633D01*
X46750481Y-54474209D01*
X46750477Y-54474210D01*
X46660904Y-54530494D01*
X46594932Y-54549500D01*
X38554778Y-54549500D01*
X38487739Y-54529815D01*
X38467097Y-54513181D01*
X37797430Y-53843514D01*
X37763945Y-53782191D01*
X37768929Y-53712499D01*
X37810801Y-53656566D01*
X37876265Y-53632149D01*
X37885111Y-53631833D01*
X40283876Y-53631833D01*
X40413915Y-53605965D01*
X40477168Y-53593384D01*
X40659247Y-53517965D01*
X40823115Y-53408472D01*
X40962472Y-53269115D01*
X41071965Y-53105247D01*
X41147384Y-52923168D01*
X41164377Y-52837738D01*
X41185833Y-52729876D01*
X41185833Y-52532789D01*
X41147385Y-52339503D01*
X41147384Y-52339502D01*
X41147384Y-52339498D01*
X41137084Y-52314631D01*
X41071968Y-52157425D01*
X41071961Y-52157412D01*
X40962472Y-51993551D01*
X40962469Y-51993547D01*
X40823118Y-51854196D01*
X40823114Y-51854193D01*
X40659253Y-51744704D01*
X40659240Y-51744697D01*
X40477172Y-51669283D01*
X40477162Y-51669280D01*
X40283876Y-51630833D01*
X40283874Y-51630833D01*
X35667444Y-51630833D01*
X35667442Y-51630833D01*
X35474155Y-51669280D01*
X35474145Y-51669283D01*
X35292077Y-51744697D01*
X35292064Y-51744704D01*
X35128203Y-51854193D01*
X35128199Y-51854196D01*
X34988848Y-51993547D01*
X34988845Y-51993551D01*
X34879356Y-52157412D01*
X34879349Y-52157425D01*
X34803935Y-52339493D01*
X34803932Y-52339503D01*
X34765485Y-52532789D01*
X34765485Y-52532792D01*
X34765485Y-52729874D01*
X34765485Y-52729876D01*
X34765484Y-52729876D01*
X26831448Y-52729876D01*
X26852918Y-52718399D01*
X26863906Y-52713202D01*
X26903914Y-52696632D01*
X26939938Y-52672560D01*
X26950351Y-52666320D01*
X26978654Y-52651193D01*
X26988535Y-52645912D01*
X26988539Y-52645909D01*
X27022005Y-52618444D01*
X27031782Y-52611193D01*
X27067781Y-52587140D01*
X27067783Y-52587138D01*
X27067783Y-52587137D01*
X27098408Y-52556512D01*
X27107402Y-52548359D01*
X27140883Y-52520883D01*
X27168359Y-52487402D01*
X27176512Y-52478408D01*
X27207139Y-52447782D01*
X27208230Y-52446150D01*
X27231193Y-52411782D01*
X27238444Y-52402005D01*
X27261836Y-52373502D01*
X27265910Y-52368538D01*
X27267815Y-52364975D01*
X27272295Y-52356591D01*
X27286320Y-52330351D01*
X27292560Y-52319938D01*
X27316632Y-52283914D01*
X27333202Y-52243906D01*
X27338399Y-52232918D01*
X27358814Y-52194727D01*
X27371386Y-52153280D01*
X27375481Y-52141836D01*
X27392051Y-52101835D01*
X27400500Y-52059353D01*
X27403450Y-52047580D01*
X27416024Y-52006132D01*
X27420268Y-51963037D01*
X27422054Y-51950999D01*
X27430500Y-51908541D01*
X27430500Y-51865244D01*
X27431097Y-51853090D01*
X27431401Y-51849999D01*
X27435341Y-51810000D01*
X27431097Y-51766907D01*
X27430500Y-51754754D01*
X27430500Y-51711458D01*
X27427617Y-51696964D01*
X27422052Y-51668990D01*
X27420268Y-51656961D01*
X27419963Y-51653869D01*
X27416024Y-51613868D01*
X27403448Y-51572414D01*
X27400499Y-51560640D01*
X27392051Y-51518165D01*
X27375480Y-51478160D01*
X27371382Y-51466706D01*
X27358814Y-51425273D01*
X27338404Y-51387091D01*
X27333201Y-51376090D01*
X27333200Y-51376087D01*
X27316632Y-51336086D01*
X27292572Y-51300078D01*
X27286316Y-51289640D01*
X27265911Y-51251464D01*
X27265910Y-51251462D01*
X27238438Y-51217988D01*
X27231194Y-51208219D01*
X27207140Y-51172219D01*
X27207136Y-51172214D01*
X27176520Y-51141599D01*
X27168346Y-51132581D01*
X27140884Y-51099118D01*
X27107416Y-51071651D01*
X27098401Y-51063479D01*
X27067787Y-51032865D01*
X27067783Y-51032862D01*
X27067774Y-51032856D01*
X27051139Y-51021740D01*
X27031772Y-51008799D01*
X27022002Y-51001552D01*
X26988543Y-50974094D01*
X26988535Y-50974088D01*
X26971436Y-50964948D01*
X26950350Y-50953678D01*
X26939918Y-50947425D01*
X26903918Y-50923370D01*
X26903914Y-50923368D01*
X26863915Y-50906800D01*
X26852913Y-50901597D01*
X26814729Y-50881187D01*
X26814728Y-50881186D01*
X26814727Y-50881186D01*
X26773277Y-50868612D01*
X26761834Y-50864517D01*
X26721834Y-50847948D01*
X26721827Y-50847946D01*
X26679378Y-50839503D01*
X26667575Y-50836547D01*
X26626134Y-50823976D01*
X26626130Y-50823975D01*
X26583035Y-50819730D01*
X26571006Y-50817945D01*
X26528544Y-50809500D01*
X26528541Y-50809500D01*
X26485244Y-50809500D01*
X26473090Y-50808903D01*
X26430000Y-50804659D01*
X26386910Y-50808903D01*
X26374756Y-50809500D01*
X23594675Y-50809500D01*
X23594655Y-50809499D01*
X23588541Y-50809499D01*
X23391460Y-50809499D01*
X23391457Y-50809499D01*
X23198172Y-50847946D01*
X23198164Y-50847948D01*
X23016088Y-50923366D01*
X23016079Y-50923371D01*
X22853830Y-51031784D01*
X22853829Y-51031783D01*
X22852223Y-51032856D01*
X22852215Y-51032863D01*
X22781589Y-51103487D01*
X22772578Y-51111655D01*
X22739117Y-51139117D01*
X22711646Y-51172589D01*
X22703479Y-51181600D01*
X22672858Y-51212222D01*
X22672853Y-51212228D01*
X22648802Y-51248222D01*
X22641558Y-51257991D01*
X22614088Y-51291464D01*
X22593672Y-51329658D01*
X22587420Y-51340089D01*
X22563367Y-51376087D01*
X22546799Y-51416084D01*
X22541600Y-51427076D01*
X22521188Y-51465266D01*
X22521187Y-51465270D01*
X22508616Y-51506707D01*
X22504518Y-51518158D01*
X22487950Y-51558158D01*
X22487948Y-51558165D01*
X22479503Y-51600622D01*
X22476547Y-51612423D01*
X22463977Y-51653862D01*
X22463975Y-51653869D01*
X22459730Y-51696964D01*
X22457945Y-51708992D01*
X22449500Y-51751454D01*
X22449500Y-51794754D01*
X22448903Y-51806907D01*
X22444659Y-51849999D01*
X20660500Y-51849999D01*
X20660500Y-47499996D01*
X26294435Y-47499996D01*
X26294435Y-47500003D01*
X26314630Y-47679249D01*
X26314631Y-47679254D01*
X26374211Y-47849523D01*
X26470184Y-48002262D01*
X26580241Y-48112319D01*
X26613726Y-48173642D01*
X26608742Y-48243334D01*
X26580241Y-48287681D01*
X26470184Y-48397737D01*
X26374211Y-48550476D01*
X26314631Y-48720745D01*
X26314630Y-48720750D01*
X26294435Y-48899996D01*
X26294435Y-48900003D01*
X26314630Y-49079249D01*
X26314631Y-49079254D01*
X26374211Y-49249523D01*
X26417961Y-49319150D01*
X26470184Y-49402262D01*
X26597738Y-49529816D01*
X26750478Y-49625789D01*
X26920745Y-49685368D01*
X26920754Y-49685369D01*
X26921207Y-49685473D01*
X26921477Y-49685624D01*
X26927318Y-49687668D01*
X26926960Y-49688690D01*
X26982191Y-49719573D01*
X27011377Y-49773017D01*
X27012333Y-49772683D01*
X27014362Y-49778483D01*
X27014523Y-49778777D01*
X27014631Y-49779250D01*
X27014632Y-49779255D01*
X27046538Y-49870437D01*
X27074210Y-49949521D01*
X27160138Y-50086274D01*
X27170184Y-50102262D01*
X27297738Y-50229816D01*
X27450478Y-50325789D01*
X27620745Y-50385368D01*
X27620750Y-50385369D01*
X27799996Y-50405565D01*
X27800000Y-50405565D01*
X27800004Y-50405565D01*
X27979249Y-50385369D01*
X27979252Y-50385368D01*
X27979255Y-50385368D01*
X28149522Y-50325789D01*
X28302262Y-50229816D01*
X28412319Y-50119759D01*
X28473642Y-50086274D01*
X28543334Y-50091258D01*
X28587681Y-50119759D01*
X28697738Y-50229816D01*
X28850478Y-50325789D01*
X29020745Y-50385368D01*
X29020750Y-50385369D01*
X29199996Y-50405565D01*
X29200000Y-50405565D01*
X29200004Y-50405565D01*
X29379249Y-50385369D01*
X29379252Y-50385368D01*
X29379255Y-50385368D01*
X29549522Y-50325789D01*
X29702262Y-50229816D01*
X29829816Y-50102262D01*
X29925789Y-49949522D01*
X29985368Y-49779255D01*
X29985369Y-49779243D01*
X29985473Y-49778793D01*
X29985624Y-49778522D01*
X29987668Y-49772682D01*
X29988690Y-49773039D01*
X30019573Y-49717809D01*
X30073017Y-49688626D01*
X30072682Y-49687668D01*
X30078504Y-49685630D01*
X30078793Y-49685473D01*
X30079243Y-49685369D01*
X30079255Y-49685368D01*
X30249522Y-49625789D01*
X30402262Y-49529816D01*
X30529816Y-49402262D01*
X30625789Y-49249522D01*
X30685368Y-49079255D01*
X30687978Y-49056092D01*
X30705565Y-48900003D01*
X30705565Y-48899996D01*
X30685369Y-48720750D01*
X30685368Y-48720745D01*
X30680080Y-48705633D01*
X30625789Y-48550478D01*
X30625188Y-48549522D01*
X30529815Y-48397737D01*
X30419759Y-48287681D01*
X30386274Y-48226358D01*
X30391258Y-48156666D01*
X30419759Y-48112319D01*
X30529816Y-48002262D01*
X30625789Y-47849522D01*
X30685368Y-47679255D01*
X30685369Y-47679249D01*
X30705565Y-47500003D01*
X30705565Y-47499996D01*
X30685369Y-47320750D01*
X30685368Y-47320745D01*
X30625789Y-47150478D01*
X30529816Y-46997738D01*
X30402262Y-46870184D01*
X30338015Y-46829815D01*
X30249521Y-46774210D01*
X30170437Y-46746538D01*
X30079255Y-46714632D01*
X30079251Y-46714631D01*
X30079250Y-46714631D01*
X30078777Y-46714523D01*
X30078501Y-46714369D01*
X30072683Y-46712333D01*
X30073039Y-46711313D01*
X30017798Y-46680416D01*
X29988626Y-46626982D01*
X29987668Y-46627318D01*
X29985630Y-46621496D01*
X29985473Y-46621207D01*
X29985369Y-46620754D01*
X29985368Y-46620745D01*
X29925789Y-46450478D01*
X29921590Y-46443796D01*
X29881033Y-46379249D01*
X29829816Y-46297738D01*
X29702262Y-46170184D01*
X29549523Y-46074211D01*
X29379254Y-46014631D01*
X29379249Y-46014630D01*
X29200004Y-45994435D01*
X29199996Y-45994435D01*
X29020750Y-46014630D01*
X29020745Y-46014631D01*
X28850476Y-46074211D01*
X28697737Y-46170184D01*
X28587681Y-46280241D01*
X28526358Y-46313726D01*
X28456666Y-46308742D01*
X28412319Y-46280241D01*
X28302262Y-46170184D01*
X28149523Y-46074211D01*
X27979254Y-46014631D01*
X27979249Y-46014630D01*
X27800004Y-45994435D01*
X27799996Y-45994435D01*
X27620750Y-46014630D01*
X27620745Y-46014631D01*
X27450476Y-46074211D01*
X27297737Y-46170184D01*
X27170184Y-46297737D01*
X27074210Y-46450478D01*
X27014628Y-46620755D01*
X27014518Y-46621241D01*
X27014360Y-46621522D01*
X27012333Y-46627317D01*
X27011317Y-46626961D01*
X26980400Y-46682215D01*
X26926984Y-46711381D01*
X26927317Y-46712333D01*
X26921541Y-46714353D01*
X26921241Y-46714518D01*
X26920755Y-46714628D01*
X26750478Y-46774210D01*
X26597737Y-46870184D01*
X26470184Y-46997737D01*
X26374211Y-47150476D01*
X26314631Y-47320745D01*
X26314630Y-47320750D01*
X26294435Y-47499996D01*
X20660500Y-47499996D01*
X20660500Y-32266831D01*
X20680185Y-32199792D01*
X20696819Y-32179150D01*
X24330969Y-28545000D01*
X54719659Y-28545000D01*
X54738975Y-28741129D01*
X54738976Y-28741132D01*
X54786257Y-28896997D01*
X54796188Y-28929733D01*
X54889086Y-29103532D01*
X54889090Y-29103539D01*
X55014116Y-29255883D01*
X55166460Y-29380909D01*
X55166467Y-29380913D01*
X55340266Y-29473811D01*
X55340269Y-29473811D01*
X55340273Y-29473814D01*
X55528868Y-29531024D01*
X55725000Y-29550341D01*
X55921132Y-29531024D01*
X56109727Y-29473814D01*
X56283538Y-29380910D01*
X56435883Y-29255883D01*
X56560910Y-29103538D01*
X56653814Y-28929727D01*
X56711024Y-28741132D01*
X56730341Y-28545000D01*
X58069659Y-28545000D01*
X58088975Y-28741129D01*
X58088976Y-28741132D01*
X58136257Y-28896997D01*
X58146188Y-28929733D01*
X58239086Y-29103532D01*
X58239090Y-29103539D01*
X58364116Y-29255883D01*
X58516460Y-29380909D01*
X58516467Y-29380913D01*
X58690266Y-29473811D01*
X58690269Y-29473811D01*
X58690273Y-29473814D01*
X58878868Y-29531024D01*
X59075000Y-29550341D01*
X59271132Y-29531024D01*
X59459727Y-29473814D01*
X59633538Y-29380910D01*
X59785883Y-29255883D01*
X59910910Y-29103538D01*
X60003814Y-28929727D01*
X60012833Y-28899996D01*
X71694435Y-28899996D01*
X71694435Y-28900003D01*
X71714630Y-29079249D01*
X71714631Y-29079254D01*
X71774211Y-29249523D01*
X71870184Y-29402262D01*
X71997738Y-29529816D01*
X72150478Y-29625789D01*
X72320745Y-29685368D01*
X72320750Y-29685369D01*
X72499996Y-29705565D01*
X72500000Y-29705565D01*
X72500004Y-29705565D01*
X72679249Y-29685369D01*
X72679252Y-29685368D01*
X72679255Y-29685368D01*
X72849522Y-29625789D01*
X73002262Y-29529816D01*
X73129816Y-29402262D01*
X73225789Y-29249522D01*
X73285368Y-29079255D01*
X73286182Y-29072025D01*
X73313245Y-29007611D01*
X73321712Y-28998232D01*
X73519401Y-28800543D01*
X75199499Y-28800543D01*
X75237947Y-28993829D01*
X75237950Y-28993839D01*
X75313364Y-29175907D01*
X75313371Y-29175920D01*
X75422860Y-29339781D01*
X75422863Y-29339785D01*
X75562214Y-29479136D01*
X75562218Y-29479139D01*
X75726079Y-29588628D01*
X75726092Y-29588635D01*
X75908160Y-29664049D01*
X75908165Y-29664051D01*
X75908169Y-29664051D01*
X75908170Y-29664052D01*
X76101456Y-29702500D01*
X76101459Y-29702500D01*
X76298543Y-29702500D01*
X76428582Y-29676632D01*
X76491835Y-29664051D01*
X76673914Y-29588632D01*
X76837782Y-29479139D01*
X76977139Y-29339782D01*
X77086632Y-29175914D01*
X77162051Y-28993835D01*
X77181313Y-28896998D01*
X77200500Y-28800543D01*
X77200500Y-26063456D01*
X77162052Y-25870170D01*
X77162051Y-25870169D01*
X77162051Y-25870165D01*
X77152469Y-25847031D01*
X77086635Y-25688092D01*
X77086628Y-25688079D01*
X76977139Y-25524218D01*
X76977136Y-25524214D01*
X76837785Y-25384863D01*
X76837781Y-25384860D01*
X76673920Y-25275371D01*
X76673907Y-25275364D01*
X76491839Y-25199950D01*
X76491829Y-25199947D01*
X76298543Y-25161500D01*
X76298541Y-25161500D01*
X76101459Y-25161500D01*
X76101457Y-25161500D01*
X75908170Y-25199947D01*
X75908160Y-25199950D01*
X75726092Y-25275364D01*
X75726079Y-25275371D01*
X75562218Y-25384860D01*
X75562214Y-25384863D01*
X75422863Y-25524214D01*
X75422860Y-25524218D01*
X75313371Y-25688079D01*
X75313364Y-25688092D01*
X75237950Y-25870160D01*
X75237947Y-25870170D01*
X75199500Y-26063456D01*
X75199500Y-26063459D01*
X75199500Y-28800541D01*
X75199500Y-28800543D01*
X75199499Y-28800543D01*
X73519401Y-28800543D01*
X74305277Y-28014669D01*
X74376466Y-27908126D01*
X74407121Y-27834117D01*
X74425501Y-27789744D01*
X74441545Y-27709090D01*
X74450500Y-27664071D01*
X74450500Y-22805067D01*
X74469507Y-22739094D01*
X74525788Y-22649524D01*
X74525789Y-22649522D01*
X74585368Y-22479255D01*
X74585369Y-22479249D01*
X74605565Y-22300003D01*
X74605565Y-22299996D01*
X74585369Y-22120750D01*
X74585368Y-22120745D01*
X74562514Y-22055433D01*
X74525789Y-21950478D01*
X74429816Y-21797738D01*
X74302262Y-21670184D01*
X74236077Y-21628597D01*
X74149523Y-21574211D01*
X73979254Y-21514631D01*
X73979249Y-21514630D01*
X73800004Y-21494435D01*
X73799996Y-21494435D01*
X73620750Y-21514630D01*
X73620745Y-21514631D01*
X73450476Y-21574211D01*
X73297737Y-21670184D01*
X73170184Y-21797737D01*
X73074211Y-21950476D01*
X73014631Y-22120745D01*
X73014630Y-22120750D01*
X72994435Y-22299996D01*
X72994435Y-22300003D01*
X73014630Y-22479249D01*
X73014631Y-22479254D01*
X73074211Y-22649524D01*
X73130493Y-22739094D01*
X73149500Y-22805067D01*
X73149500Y-27279191D01*
X73129815Y-27346230D01*
X73113181Y-27366872D01*
X72401775Y-28078277D01*
X72340452Y-28111762D01*
X72327988Y-28113815D01*
X72320752Y-28114630D01*
X72320744Y-28114632D01*
X72150478Y-28174210D01*
X71997737Y-28270184D01*
X71870184Y-28397737D01*
X71774211Y-28550476D01*
X71714631Y-28720745D01*
X71714630Y-28720750D01*
X71694435Y-28899996D01*
X60012833Y-28899996D01*
X60061024Y-28741132D01*
X60080341Y-28545000D01*
X60061024Y-28348868D01*
X60003814Y-28160273D01*
X60003811Y-28160269D01*
X60003811Y-28160266D01*
X59910913Y-27986467D01*
X59910909Y-27986460D01*
X59785883Y-27834116D01*
X59633539Y-27709090D01*
X59633532Y-27709086D01*
X59459733Y-27616188D01*
X59459727Y-27616186D01*
X59271132Y-27558976D01*
X59271129Y-27558975D01*
X59075000Y-27539659D01*
X58878870Y-27558975D01*
X58690266Y-27616188D01*
X58516467Y-27709086D01*
X58516460Y-27709090D01*
X58364116Y-27834116D01*
X58239090Y-27986460D01*
X58239086Y-27986467D01*
X58146188Y-28160266D01*
X58088975Y-28348870D01*
X58069659Y-28545000D01*
X56730341Y-28545000D01*
X56711024Y-28348868D01*
X56653814Y-28160273D01*
X56653811Y-28160269D01*
X56653811Y-28160266D01*
X56560913Y-27986467D01*
X56560909Y-27986460D01*
X56435883Y-27834116D01*
X56283539Y-27709090D01*
X56283532Y-27709086D01*
X56109733Y-27616188D01*
X56109727Y-27616186D01*
X55921132Y-27558976D01*
X55921129Y-27558975D01*
X55725000Y-27539659D01*
X55528870Y-27558975D01*
X55340266Y-27616188D01*
X55166467Y-27709086D01*
X55166460Y-27709090D01*
X55014116Y-27834116D01*
X54889090Y-27986460D01*
X54889086Y-27986467D01*
X54796188Y-28160266D01*
X54738975Y-28348870D01*
X54719659Y-28545000D01*
X24330969Y-28545000D01*
X24660947Y-28215022D01*
X25855969Y-27020000D01*
X56394658Y-27020000D01*
X56413974Y-27216129D01*
X56471187Y-27404733D01*
X56564085Y-27578532D01*
X56564089Y-27578539D01*
X56689115Y-27730883D01*
X56841459Y-27855909D01*
X56841466Y-27855913D01*
X57015265Y-27948811D01*
X57015268Y-27948811D01*
X57015272Y-27948814D01*
X57203867Y-28006024D01*
X57399999Y-28025341D01*
X57596131Y-28006024D01*
X57784726Y-27948814D01*
X57958537Y-27855910D01*
X58110882Y-27730883D01*
X58235909Y-27578538D01*
X58328813Y-27404727D01*
X58386023Y-27216132D01*
X58405340Y-27020000D01*
X58386023Y-26823868D01*
X58328813Y-26635273D01*
X58328810Y-26635269D01*
X58328810Y-26635266D01*
X58235912Y-26461467D01*
X58235908Y-26461460D01*
X58110882Y-26309116D01*
X57958538Y-26184090D01*
X57958531Y-26184086D01*
X57784732Y-26091188D01*
X57784726Y-26091186D01*
X57596131Y-26033976D01*
X57596128Y-26033975D01*
X57399999Y-26014659D01*
X57203869Y-26033975D01*
X57015265Y-26091188D01*
X56841466Y-26184086D01*
X56841459Y-26184090D01*
X56689115Y-26309116D01*
X56564089Y-26461460D01*
X56564085Y-26461467D01*
X56471187Y-26635266D01*
X56413974Y-26823870D01*
X56394658Y-27020000D01*
X25855969Y-27020000D01*
X28690122Y-24185846D01*
X28751443Y-24152363D01*
X28821135Y-24157347D01*
X28877068Y-24199219D01*
X28901485Y-24264683D01*
X28893983Y-24316862D01*
X28856403Y-24417619D01*
X28856401Y-24417627D01*
X28850000Y-24477155D01*
X28850000Y-25125000D01*
X29766988Y-25125000D01*
X29734075Y-25182007D01*
X29700000Y-25309174D01*
X29700000Y-25440826D01*
X29734075Y-25567993D01*
X29766988Y-25625000D01*
X28850000Y-25625000D01*
X28850000Y-26272844D01*
X28856401Y-26332372D01*
X28856403Y-26332379D01*
X28906645Y-26467086D01*
X28906649Y-26467093D01*
X28992809Y-26582187D01*
X28992812Y-26582190D01*
X29107906Y-26668350D01*
X29107913Y-26668354D01*
X29242620Y-26718596D01*
X29242627Y-26718598D01*
X29302155Y-26724999D01*
X29302172Y-26725000D01*
X29950000Y-26725000D01*
X29950000Y-25808012D01*
X30007007Y-25840925D01*
X30134174Y-25875000D01*
X30265826Y-25875000D01*
X30392993Y-25840925D01*
X30450000Y-25808012D01*
X30450000Y-26725000D01*
X31097828Y-26725000D01*
X31097844Y-26724999D01*
X31157372Y-26718598D01*
X31157379Y-26718596D01*
X31292086Y-26668354D01*
X31292093Y-26668350D01*
X31407187Y-26582190D01*
X31407190Y-26582187D01*
X31493350Y-26467093D01*
X31493354Y-26467086D01*
X31542422Y-26335529D01*
X31584293Y-26279595D01*
X31649757Y-26255178D01*
X31718030Y-26270030D01*
X31746285Y-26291181D01*
X31868599Y-26413495D01*
X31937100Y-26461460D01*
X32062165Y-26549032D01*
X32062167Y-26549033D01*
X32062170Y-26549035D01*
X32276337Y-26648903D01*
X32504592Y-26710063D01*
X32675319Y-26725000D01*
X32739999Y-26730659D01*
X32740000Y-26730659D01*
X32740001Y-26730659D01*
X32804681Y-26725000D01*
X32975408Y-26710063D01*
X33203663Y-26648903D01*
X33417830Y-26549035D01*
X33611401Y-26413495D01*
X33778495Y-26246401D01*
X33908424Y-26060842D01*
X33963001Y-26017218D01*
X34032499Y-26010024D01*
X34094854Y-26041547D01*
X34111574Y-26060842D01*
X34114929Y-26065633D01*
X34241504Y-26246401D01*
X34408598Y-26413495D01*
X34477099Y-26461460D01*
X34602164Y-26549032D01*
X34602166Y-26549033D01*
X34602169Y-26549035D01*
X34816336Y-26648903D01*
X35044591Y-26710063D01*
X35215318Y-26725000D01*
X35279998Y-26730659D01*
X35279999Y-26730659D01*
X35280000Y-26730659D01*
X35344680Y-26725000D01*
X35515407Y-26710063D01*
X35743662Y-26648903D01*
X35957829Y-26549035D01*
X36151400Y-26413495D01*
X36318494Y-26246401D01*
X36448425Y-26060839D01*
X36503001Y-26017216D01*
X36572499Y-26010022D01*
X36634854Y-26041545D01*
X36651572Y-26060838D01*
X36781505Y-26246401D01*
X36948599Y-26413495D01*
X37017100Y-26461460D01*
X37142165Y-26549032D01*
X37142167Y-26549033D01*
X37142170Y-26549035D01*
X37356337Y-26648903D01*
X37584592Y-26710063D01*
X37755319Y-26725000D01*
X37819999Y-26730659D01*
X37820000Y-26730659D01*
X37820001Y-26730659D01*
X37884681Y-26725000D01*
X38055408Y-26710063D01*
X38283663Y-26648903D01*
X38497830Y-26549035D01*
X38691401Y-26413495D01*
X38858495Y-26246401D01*
X38994035Y-26052830D01*
X39093903Y-25838663D01*
X39155063Y-25610408D01*
X39175659Y-25375000D01*
X39155063Y-25139592D01*
X39108626Y-24966285D01*
X39093905Y-24911344D01*
X39093904Y-24911343D01*
X39093903Y-24911337D01*
X38994035Y-24697171D01*
X38988425Y-24689158D01*
X38858494Y-24503597D01*
X38691402Y-24336506D01*
X38691395Y-24336501D01*
X38497834Y-24200967D01*
X38497830Y-24200965D01*
X38494086Y-24199219D01*
X38283663Y-24101097D01*
X38283659Y-24101096D01*
X38283655Y-24101094D01*
X38055413Y-24039938D01*
X38055403Y-24039936D01*
X37820001Y-24019341D01*
X37819999Y-24019341D01*
X37584596Y-24039936D01*
X37584586Y-24039938D01*
X37356344Y-24101094D01*
X37356335Y-24101098D01*
X37142171Y-24200964D01*
X37142169Y-24200965D01*
X36948597Y-24336505D01*
X36781508Y-24503594D01*
X36651574Y-24689160D01*
X36596997Y-24732784D01*
X36527498Y-24739977D01*
X36465144Y-24708455D01*
X36448424Y-24689159D01*
X36318493Y-24503597D01*
X36151401Y-24336506D01*
X36151394Y-24336501D01*
X35957833Y-24200967D01*
X35957829Y-24200965D01*
X35954085Y-24199219D01*
X35743662Y-24101097D01*
X35743658Y-24101096D01*
X35743654Y-24101094D01*
X35515412Y-24039938D01*
X35515402Y-24039936D01*
X35280000Y-24019341D01*
X35279998Y-24019341D01*
X35044595Y-24039936D01*
X35044585Y-24039938D01*
X34816343Y-24101094D01*
X34816334Y-24101098D01*
X34602170Y-24200964D01*
X34602168Y-24200965D01*
X34408596Y-24336505D01*
X34241507Y-24503594D01*
X34111574Y-24689158D01*
X34056997Y-24732782D01*
X33987498Y-24739975D01*
X33925144Y-24708453D01*
X33908424Y-24689157D01*
X33778494Y-24503597D01*
X33611402Y-24336506D01*
X33611395Y-24336501D01*
X33417834Y-24200967D01*
X33417830Y-24200965D01*
X33414086Y-24199219D01*
X33203663Y-24101097D01*
X33203659Y-24101096D01*
X33203655Y-24101094D01*
X32975413Y-24039938D01*
X32975403Y-24039936D01*
X32740001Y-24019341D01*
X32739999Y-24019341D01*
X32504596Y-24039936D01*
X32504586Y-24039938D01*
X32276344Y-24101094D01*
X32276335Y-24101098D01*
X32062171Y-24200964D01*
X32062169Y-24200965D01*
X31868600Y-24336503D01*
X31746284Y-24458819D01*
X31684961Y-24492303D01*
X31615269Y-24487319D01*
X31559336Y-24445447D01*
X31542421Y-24414470D01*
X31493354Y-24282913D01*
X31493350Y-24282906D01*
X31407190Y-24167812D01*
X31407187Y-24167809D01*
X31292093Y-24081649D01*
X31292086Y-24081645D01*
X31157379Y-24031403D01*
X31157372Y-24031401D01*
X31097844Y-24025000D01*
X30450000Y-24025000D01*
X30450000Y-24941988D01*
X30392993Y-24909075D01*
X30265826Y-24875000D01*
X30134174Y-24875000D01*
X30007007Y-24909075D01*
X29950000Y-24941988D01*
X29950000Y-24025000D01*
X29302155Y-24025000D01*
X29242627Y-24031401D01*
X29242619Y-24031403D01*
X29141862Y-24068983D01*
X29072170Y-24073967D01*
X29010847Y-24040481D01*
X28977363Y-23979158D01*
X28982348Y-23909466D01*
X29010846Y-23865122D01*
X31159150Y-21716819D01*
X31220473Y-21683334D01*
X31246831Y-21680500D01*
X42854193Y-21680500D01*
X42921232Y-21700185D01*
X42941874Y-21716819D01*
X45618116Y-24393061D01*
X45651601Y-24454384D01*
X45650210Y-24512834D01*
X45639368Y-24553299D01*
X45639365Y-24553313D01*
X45619533Y-24779998D01*
X45619533Y-24780001D01*
X45639365Y-25006686D01*
X45639367Y-25006697D01*
X45698259Y-25226488D01*
X45698262Y-25226497D01*
X45794432Y-25432732D01*
X45794433Y-25432734D01*
X45924955Y-25619141D01*
X46085859Y-25780045D01*
X46085862Y-25780047D01*
X46272267Y-25910568D01*
X46478505Y-26006739D01*
X46478510Y-26006740D01*
X46478512Y-26006741D01*
X46508063Y-26014659D01*
X46698309Y-26065635D01*
X46845334Y-26078498D01*
X46924999Y-26085468D01*
X46925001Y-26085468D01*
X46925003Y-26085468D01*
X47004668Y-26078498D01*
X47151693Y-26065635D01*
X47371497Y-26006739D01*
X47577735Y-25910568D01*
X47764140Y-25780047D01*
X47925048Y-25619139D01*
X48055569Y-25432734D01*
X48082619Y-25374724D01*
X48128791Y-25322285D01*
X48195984Y-25303133D01*
X48262866Y-25323348D01*
X48307383Y-25374725D01*
X48334430Y-25432728D01*
X48334433Y-25432734D01*
X48464955Y-25619141D01*
X48625859Y-25780045D01*
X48625862Y-25780047D01*
X48812267Y-25910568D01*
X49018505Y-26006739D01*
X49018510Y-26006740D01*
X49018512Y-26006741D01*
X49048063Y-26014659D01*
X49238309Y-26065635D01*
X49385334Y-26078498D01*
X49464999Y-26085468D01*
X49465001Y-26085468D01*
X49465003Y-26085468D01*
X49544668Y-26078498D01*
X49691693Y-26065635D01*
X49911497Y-26006739D01*
X50117735Y-25910568D01*
X50304140Y-25780047D01*
X50465048Y-25619139D01*
X50551970Y-25495000D01*
X54719659Y-25495000D01*
X54738975Y-25691129D01*
X54738976Y-25691132D01*
X54793285Y-25870165D01*
X54796188Y-25879733D01*
X54889086Y-26053532D01*
X54889090Y-26053539D01*
X55014116Y-26205883D01*
X55166460Y-26330909D01*
X55166467Y-26330913D01*
X55340266Y-26423811D01*
X55340269Y-26423811D01*
X55340273Y-26423814D01*
X55528868Y-26481024D01*
X55725000Y-26500341D01*
X55921132Y-26481024D01*
X56109727Y-26423814D01*
X56129033Y-26413495D01*
X56280565Y-26332499D01*
X56283538Y-26330910D01*
X56435883Y-26205883D01*
X56560910Y-26053538D01*
X56653814Y-25879727D01*
X56711024Y-25691132D01*
X56730341Y-25495000D01*
X58069659Y-25495000D01*
X58088975Y-25691129D01*
X58088976Y-25691132D01*
X58143285Y-25870165D01*
X58146188Y-25879733D01*
X58239086Y-26053532D01*
X58239090Y-26053539D01*
X58364116Y-26205883D01*
X58516460Y-26330909D01*
X58516467Y-26330913D01*
X58690266Y-26423811D01*
X58690269Y-26423811D01*
X58690273Y-26423814D01*
X58878868Y-26481024D01*
X59075000Y-26500341D01*
X59271132Y-26481024D01*
X59459727Y-26423814D01*
X59479033Y-26413495D01*
X59630565Y-26332499D01*
X59633538Y-26330910D01*
X59785883Y-26205883D01*
X59910910Y-26053538D01*
X60003814Y-25879727D01*
X60061024Y-25691132D01*
X60080341Y-25495000D01*
X60061024Y-25298868D01*
X60003814Y-25110273D01*
X60003811Y-25110269D01*
X60003811Y-25110266D01*
X59910913Y-24936467D01*
X59910909Y-24936460D01*
X59785883Y-24784116D01*
X59633539Y-24659090D01*
X59633532Y-24659086D01*
X59459733Y-24566188D01*
X59459727Y-24566186D01*
X59271132Y-24508976D01*
X59271129Y-24508975D01*
X59075000Y-24489659D01*
X58878870Y-24508975D01*
X58690266Y-24566188D01*
X58516467Y-24659086D01*
X58516460Y-24659090D01*
X58364116Y-24784116D01*
X58239090Y-24936460D01*
X58239086Y-24936467D01*
X58146188Y-25110266D01*
X58088975Y-25298870D01*
X58069659Y-25495000D01*
X56730341Y-25495000D01*
X56711024Y-25298868D01*
X56653814Y-25110273D01*
X56653811Y-25110269D01*
X56653811Y-25110266D01*
X56560913Y-24936467D01*
X56560909Y-24936460D01*
X56435883Y-24784116D01*
X56283539Y-24659090D01*
X56283532Y-24659086D01*
X56109733Y-24566188D01*
X56109727Y-24566186D01*
X55921132Y-24508976D01*
X55921129Y-24508975D01*
X55725000Y-24489659D01*
X55528870Y-24508975D01*
X55340266Y-24566188D01*
X55166467Y-24659086D01*
X55166460Y-24659090D01*
X55014116Y-24784116D01*
X54889090Y-24936460D01*
X54889086Y-24936467D01*
X54796188Y-25110266D01*
X54738975Y-25298870D01*
X54719659Y-25495000D01*
X50551970Y-25495000D01*
X50595569Y-25432734D01*
X50691740Y-25226496D01*
X50750636Y-25006692D01*
X50770469Y-24780000D01*
X50766967Y-24739977D01*
X50763222Y-24697169D01*
X50750636Y-24553308D01*
X50691740Y-24333504D01*
X50595569Y-24127266D01*
X50465048Y-23940861D01*
X50465046Y-23940858D01*
X50304142Y-23779954D01*
X50117735Y-23649432D01*
X50117733Y-23649431D01*
X49911498Y-23553261D01*
X49911489Y-23553258D01*
X49691698Y-23494366D01*
X49691694Y-23494365D01*
X49691693Y-23494365D01*
X49691692Y-23494364D01*
X49691687Y-23494364D01*
X49465003Y-23474532D01*
X49464999Y-23474532D01*
X49238314Y-23494364D01*
X49238303Y-23494366D01*
X49018512Y-23553258D01*
X49018503Y-23553261D01*
X48812268Y-23649431D01*
X48812266Y-23649432D01*
X48625859Y-23779954D01*
X48464955Y-23940858D01*
X48334433Y-24127265D01*
X48334432Y-24127267D01*
X48307383Y-24185275D01*
X48261210Y-24237714D01*
X48194017Y-24256866D01*
X48127136Y-24236650D01*
X48082619Y-24185275D01*
X48074476Y-24167812D01*
X48055569Y-24127266D01*
X47925048Y-23940861D01*
X47925046Y-23940858D01*
X47764142Y-23779954D01*
X47577735Y-23649432D01*
X47577733Y-23649431D01*
X47371498Y-23553261D01*
X47371489Y-23553258D01*
X47151698Y-23494366D01*
X47151694Y-23494365D01*
X47151693Y-23494365D01*
X47151692Y-23494364D01*
X47151687Y-23494364D01*
X46925003Y-23474532D01*
X46924999Y-23474532D01*
X46698314Y-23494364D01*
X46698300Y-23494367D01*
X46657835Y-23505209D01*
X46587985Y-23503545D01*
X46538062Y-23473115D01*
X43877128Y-20812181D01*
X43843643Y-20750858D01*
X43848627Y-20681166D01*
X43890499Y-20625233D01*
X43955963Y-20600816D01*
X43964809Y-20600500D01*
X61360297Y-20600500D01*
X61427336Y-20620185D01*
G37*
%TD.AperFunction*%
%TA.AperFunction,Conductor*%
G36*
X29420376Y-62955185D02*
G01*
X29454912Y-62988377D01*
X29479954Y-63024141D01*
X29640858Y-63185045D01*
X29680914Y-63213092D01*
X29827266Y-63315568D01*
X29885865Y-63342893D01*
X29938305Y-63389065D01*
X29957457Y-63456258D01*
X29937242Y-63523139D01*
X29885867Y-63567657D01*
X29827515Y-63594867D01*
X29641179Y-63725342D01*
X29480342Y-63886179D01*
X29349865Y-64072517D01*
X29253734Y-64278673D01*
X29253730Y-64278682D01*
X29201127Y-64474999D01*
X29201128Y-64475000D01*
X30164314Y-64475000D01*
X30159920Y-64479394D01*
X30107259Y-64570606D01*
X30080000Y-64672339D01*
X30080000Y-64777661D01*
X30107259Y-64879394D01*
X30159920Y-64970606D01*
X30164314Y-64975000D01*
X29196530Y-64975000D01*
X29150554Y-65008569D01*
X29080808Y-65012722D01*
X29020928Y-64979560D01*
X27188549Y-63147181D01*
X27155064Y-63085858D01*
X27160048Y-63016166D01*
X27201920Y-62960233D01*
X27267384Y-62935816D01*
X27276230Y-62935500D01*
X29353337Y-62935500D01*
X29420376Y-62955185D01*
G37*
%TD.AperFunction*%
%TD*%
M02*
