%TF.GenerationSoftware,KiCad,Pcbnew,8.0.6*%
%TF.CreationDate,2025-05-10T04:30:55+07:00*%
%TF.ProjectId,FCU32 2 LAYER,46435533-3220-4322-904c-415945522e6b,rev?*%
%TF.SameCoordinates,Original*%
%TF.FileFunction,Plated,1,2,PTH,Drill*%
%TF.FilePolarity,Positive*%
%FSLAX46Y46*%
G04 Gerber Fmt 4.6, Leading zero omitted, Abs format (unit mm)*
G04 Created by KiCad (PCBNEW 8.0.6) date 2025-05-10 04:30:55*
%MOMM*%
%LPD*%
G01*
G04 APERTURE LIST*
%TA.AperFunction,ComponentDrill*%
%ADD10C,0.200000*%
%TD*%
%TA.AperFunction,ViaDrill*%
%ADD11C,0.400000*%
%TD*%
%TA.AperFunction,ViaDrill*%
%ADD12C,0.800000*%
%TD*%
%TA.AperFunction,ComponentDrill*%
%ADD13C,0.800000*%
%TD*%
%TA.AperFunction,ComponentDrill*%
%ADD14C,1.000000*%
%TD*%
%TA.AperFunction,ComponentDrill*%
%ADD15C,1.100000*%
%TD*%
%TA.AperFunction,ComponentDrill*%
%ADD16C,1.900000*%
%TD*%
G04 APERTURE END LIST*
D10*
%TO.C,U12*%
X27100000Y-47500000D03*
X27100000Y-48900000D03*
X27800000Y-46800000D03*
X27800000Y-48200000D03*
X27800000Y-49600000D03*
X28500000Y-47500000D03*
X28500000Y-48900000D03*
X29200000Y-46800000D03*
X29200000Y-48200000D03*
X29200000Y-49600000D03*
X29900000Y-47500000D03*
X29900000Y-48900000D03*
%TD*%
D11*
X20780000Y-56680000D03*
X22200000Y-57600000D03*
X25273000Y-53721000D03*
X26924000Y-57404000D03*
X33900000Y-50800000D03*
X34750000Y-70780000D03*
X34800000Y-48200000D03*
X35765985Y-52631333D03*
X36788328Y-53754358D03*
X40185333Y-52631333D03*
X40200000Y-48700000D03*
X41500000Y-45000000D03*
X43688000Y-71628000D03*
X46925001Y-39574999D03*
X47100000Y-55200000D03*
X48300000Y-35200000D03*
X51308000Y-53340000D03*
X51308000Y-56642000D03*
X51800000Y-35200000D03*
X54100000Y-55200000D03*
X56896000Y-52324000D03*
X59100000Y-53100000D03*
X59200000Y-46200000D03*
X59400000Y-69400000D03*
X62000000Y-43000000D03*
X62500000Y-56414760D03*
X64000000Y-45000000D03*
X64516000Y-49530000D03*
X65100000Y-39000000D03*
X65200000Y-57900000D03*
X65400000Y-40800000D03*
X66000000Y-69200000D03*
X67000000Y-44600000D03*
X67310000Y-49530000D03*
X67564000Y-48006000D03*
X68050000Y-57250000D03*
X69800000Y-37900000D03*
X71000000Y-22000000D03*
X72500000Y-28900000D03*
X72700000Y-50600000D03*
X73800000Y-22300000D03*
X74100000Y-60800000D03*
X76000000Y-55500000D03*
X76200000Y-26162000D03*
X76200000Y-28702000D03*
X76274999Y-44574999D03*
X76300000Y-60800000D03*
X78000000Y-26000000D03*
X78500000Y-64900000D03*
X78900000Y-51774999D03*
X79000000Y-60500000D03*
X79000000Y-63400000D03*
X82900000Y-65600000D03*
D12*
X23450000Y-51850000D03*
X26430000Y-51810000D03*
X32800000Y-82300000D03*
X32955000Y-85675000D03*
X34480000Y-83999999D03*
X36005000Y-82325000D03*
X36005000Y-85675000D03*
X47577500Y-82325000D03*
X47577500Y-85675000D03*
X49102500Y-83999999D03*
X50627500Y-82325000D03*
X50627500Y-85675000D03*
X55725000Y-25495000D03*
X55725000Y-28545000D03*
X57399999Y-27020000D03*
X59075000Y-25495000D03*
X59075000Y-28545000D03*
D13*
%TO.C,U9*%
X30480000Y-59645000D03*
X30480000Y-62185000D03*
X30480000Y-64725000D03*
%TO.C,U8*%
X31200000Y-72475001D03*
X31200000Y-75015001D03*
X31200000Y-77555000D03*
%TO.C,U9*%
X38100000Y-59645001D03*
X38100000Y-62185000D03*
X38100000Y-64725000D03*
%TO.C,U8*%
X38820000Y-72475001D03*
X38820000Y-75015001D03*
X38820000Y-77555001D03*
%TO.C,U2*%
X46200000Y-72475001D03*
X46200000Y-75015001D03*
X46200000Y-77555000D03*
%TO.C,U13*%
X46435000Y-45200000D03*
X46435000Y-52820000D03*
%TO.C,U7*%
X46925001Y-24780000D03*
X46925001Y-32400000D03*
%TO.C,U13*%
X48975000Y-45200000D03*
X48975000Y-52820000D03*
%TO.C,U7*%
X49465001Y-24780000D03*
X49465001Y-32400000D03*
%TO.C,U2*%
X53820000Y-72475001D03*
X53820000Y-75015001D03*
X53820000Y-77555001D03*
D14*
%TO.C,J4*%
X29100000Y-105900000D03*
%TO.C,J2*%
X30200000Y-25375000D03*
X32740000Y-25375000D03*
X35279999Y-25375000D03*
X37820000Y-25375000D03*
%TO.C,J4*%
X40100000Y-105900000D03*
%TO.C,J5*%
X43400000Y-105900000D03*
%TO.C,JP1*%
X48435000Y-68300000D03*
X50975000Y-68300000D03*
%TO.C,J5*%
X54400000Y-105900000D03*
%TO.C,J3*%
X57700000Y-105900000D03*
X68700000Y-105900000D03*
%TO.C,J1*%
X80460000Y-22500000D03*
X80460000Y-25040000D03*
X80460000Y-27579999D03*
X80460000Y-30120000D03*
X80460000Y-32660000D03*
X80460000Y-35200000D03*
X80460000Y-37740000D03*
X80460000Y-40280001D03*
X83000000Y-22500000D03*
X83000000Y-25040000D03*
X83000000Y-27580000D03*
X83000000Y-30120000D03*
X83000000Y-32660000D03*
X83000000Y-35200000D03*
X83000000Y-37740000D03*
X83000000Y-40280000D03*
D15*
%TO.C,SW1*%
X20066000Y-73732000D03*
X20066000Y-78232000D03*
%TO.C,SW2*%
X20066000Y-82282000D03*
X20066000Y-86782000D03*
%TO.C,SW1*%
X26566000Y-73732000D03*
X26566000Y-78232000D03*
%TO.C,SW2*%
X26566000Y-82282000D03*
X26566000Y-86782000D03*
D16*
%TO.C,J4*%
X32100000Y-95900000D03*
X37100000Y-95900000D03*
%TO.C,J5*%
X46400000Y-95900000D03*
X51400000Y-95900000D03*
%TO.C,J3*%
X60700000Y-95900000D03*
X65700000Y-95900000D03*
M02*
