%TF.GenerationSoftware,KiCad,Pcbnew,8.0.6*%
%TF.CreationDate,2025-05-10T04:30:44+07:00*%
%TF.ProjectId,FCU32 2 LAYER,46435533-3220-4322-904c-415945522e6b,rev?*%
%TF.SameCoordinates,Original*%
%TF.FileFunction,Soldermask,Top*%
%TF.FilePolarity,Negative*%
%FSLAX46Y46*%
G04 Gerber Fmt 4.6, Leading zero omitted, Abs format (unit mm)*
G04 Created by KiCad (PCBNEW 8.0.6) date 2025-05-10 04:30:44*
%MOMM*%
%LPD*%
G01*
G04 APERTURE LIST*
G04 Aperture macros list*
%AMRoundRect*
0 Rectangle with rounded corners*
0 $1 Rounding radius*
0 $2 $3 $4 $5 $6 $7 $8 $9 X,Y pos of 4 corners*
0 Add a 4 corners polygon primitive as box body*
4,1,4,$2,$3,$4,$5,$6,$7,$8,$9,$2,$3,0*
0 Add four circle primitives for the rounded corners*
1,1,$1+$1,$2,$3*
1,1,$1+$1,$4,$5*
1,1,$1+$1,$6,$7*
1,1,$1+$1,$8,$9*
0 Add four rect primitives between the rounded corners*
20,1,$1+$1,$2,$3,$4,$5,0*
20,1,$1+$1,$4,$5,$6,$7,0*
20,1,$1+$1,$6,$7,$8,$9,0*
20,1,$1+$1,$8,$9,$2,$3,0*%
G04 Aperture macros list end*
%ADD10RoundRect,0.250000X-0.400000X-0.625000X0.400000X-0.625000X0.400000X0.625000X-0.400000X0.625000X0*%
%ADD11O,1.600000X1.600000*%
%ADD12R,1.600000X1.600000*%
%ADD13RoundRect,0.150000X0.512500X0.150000X-0.512500X0.150000X-0.512500X-0.150000X0.512500X-0.150000X0*%
%ADD14RoundRect,0.375000X0.375000X-0.625000X0.375000X0.625000X-0.375000X0.625000X-0.375000X-0.625000X0*%
%ADD15RoundRect,0.500000X1.400000X-0.500000X1.400000X0.500000X-1.400000X0.500000X-1.400000X-0.500000X0*%
%ADD16C,2.000000*%
%ADD17RoundRect,0.250000X0.400000X0.625000X-0.400000X0.625000X-0.400000X-0.625000X0.400000X-0.625000X0*%
%ADD18RoundRect,0.250000X0.625000X-0.400000X0.625000X0.400000X-0.625000X0.400000X-0.625000X-0.400000X0*%
%ADD19RoundRect,0.250000X-0.625000X0.400000X-0.625000X-0.400000X0.625000X-0.400000X0.625000X0.400000X0*%
%ADD20RoundRect,0.125000X0.175000X0.125000X-0.175000X0.125000X-0.175000X-0.125000X0.175000X-0.125000X0*%
%ADD21RoundRect,0.250000X0.850000X0.350000X-0.850000X0.350000X-0.850000X-0.350000X0.850000X-0.350000X0*%
%ADD22RoundRect,0.249997X2.950003X2.650003X-2.950003X2.650003X-2.950003X-2.650003X2.950003X-2.650003X0*%
%ADD23RoundRect,0.125000X-0.125000X0.175000X-0.125000X-0.175000X0.125000X-0.175000X0.125000X0.175000X0*%
%ADD24RoundRect,0.250000X0.350000X-0.850000X0.350000X0.850000X-0.350000X0.850000X-0.350000X-0.850000X0*%
%ADD25RoundRect,0.249997X2.650003X-2.950003X2.650003X2.950003X-2.650003X2.950003X-2.650003X-2.950003X0*%
%ADD26RoundRect,0.150000X-0.150000X0.587500X-0.150000X-0.587500X0.150000X-0.587500X0.150000X0.587500X0*%
%ADD27RoundRect,0.150000X-0.587500X-0.150000X0.587500X-0.150000X0.587500X0.150000X-0.587500X0.150000X0*%
%ADD28R,1.700000X1.700000*%
%ADD29O,1.700000X1.700000*%
%ADD30C,1.400000*%
%ADD31RoundRect,0.770000X0.980000X0.980000X-0.980000X0.980000X-0.980000X-0.980000X0.980000X-0.980000X0*%
%ADD32C,3.500000*%
%ADD33RoundRect,0.250000X0.650000X-1.000000X0.650000X1.000000X-0.650000X1.000000X-0.650000X-1.000000X0*%
%ADD34R,0.900000X1.500000*%
%ADD35R,1.500000X0.900000*%
%ADD36C,0.600000*%
%ADD37R,3.900000X3.900000*%
G04 APERTURE END LIST*
D10*
%TO.C,R10*%
X21082000Y-67214000D03*
X24182000Y-67214000D03*
%TD*%
%TO.C,R11*%
X21082000Y-70104000D03*
X24182000Y-70104000D03*
%TD*%
D11*
%TO.C,U8*%
X38820000Y-72475001D03*
X38820000Y-75015001D03*
X38820000Y-77555001D03*
X31200000Y-77555000D03*
X31200000Y-75015001D03*
D12*
X31200000Y-72475001D03*
%TD*%
D11*
%TO.C,U2*%
X53820000Y-72475001D03*
X53820000Y-75015001D03*
X53820000Y-77555001D03*
X46200000Y-77555000D03*
X46200000Y-75015001D03*
D12*
X46200000Y-72475001D03*
%TD*%
%TO.C,U13*%
X48975000Y-45200000D03*
D11*
X46435000Y-45200000D03*
X46435000Y-52820000D03*
X48975000Y-52820000D03*
%TD*%
D13*
%TO.C,U11*%
X82537500Y-59749999D03*
X82537500Y-58800000D03*
X82537500Y-57850001D03*
X80262500Y-57850001D03*
X80262500Y-59749999D03*
%TD*%
D12*
%TO.C,U9*%
X38100000Y-64725000D03*
D11*
X38100000Y-62185000D03*
X38100000Y-59645001D03*
X30480000Y-59645000D03*
X30480000Y-62185000D03*
X30480000Y-64725000D03*
%TD*%
D12*
%TO.C,U7*%
X46925001Y-32400000D03*
D11*
X49465001Y-32400000D03*
X49465001Y-24780000D03*
X46925001Y-24780000D03*
%TD*%
D14*
%TO.C,U4*%
X60200000Y-68150000D03*
X62500000Y-68149999D03*
D15*
X62500000Y-61850001D03*
D14*
X64800000Y-68150000D03*
%TD*%
D16*
%TO.C,SW2*%
X20066000Y-82282000D03*
X26566000Y-82282000D03*
X20066000Y-86782000D03*
X26566000Y-86782000D03*
%TD*%
%TO.C,SW1*%
X20066000Y-73732000D03*
X26566000Y-73732000D03*
X20066000Y-78232000D03*
X26566000Y-78232000D03*
%TD*%
D10*
%TO.C,R24*%
X64900000Y-55400000D03*
X68000000Y-55400000D03*
%TD*%
D17*
%TO.C,R22*%
X74150001Y-56200000D03*
X71049999Y-56200000D03*
%TD*%
D10*
%TO.C,R20*%
X71049999Y-44900000D03*
X74150001Y-44900000D03*
%TD*%
D18*
%TO.C,R18*%
X41800000Y-74049999D03*
X41800000Y-77150001D03*
%TD*%
D10*
%TO.C,R17*%
X71049999Y-50500000D03*
X74150001Y-50500000D03*
%TD*%
D17*
%TO.C,R15*%
X74150001Y-47600000D03*
X71049999Y-47600000D03*
%TD*%
D18*
%TO.C,R14*%
X54400000Y-35650001D03*
X54400000Y-32549999D03*
%TD*%
%TO.C,R12*%
X50100000Y-38350001D03*
X50100000Y-35249999D03*
%TD*%
D19*
%TO.C,R9*%
X66200000Y-22849999D03*
X66200000Y-25950001D03*
%TD*%
D18*
%TO.C,R6*%
X42400000Y-53050001D03*
X42400000Y-49949999D03*
%TD*%
%TO.C,R5*%
X56700000Y-75950001D03*
X56700000Y-72849999D03*
%TD*%
D10*
%TO.C,R4*%
X65050000Y-53100000D03*
X68150000Y-53100000D03*
%TD*%
%TO.C,R3*%
X71049999Y-42200000D03*
X74150001Y-42200000D03*
%TD*%
%TO.C,R2*%
X71049999Y-53100000D03*
X74150001Y-53100000D03*
%TD*%
D19*
%TO.C,R1*%
X69200000Y-22849999D03*
X69200000Y-25950001D03*
%TD*%
D20*
%TO.C,Q8*%
X72850000Y-23200000D03*
X72850000Y-22200000D03*
X71550001Y-22700000D03*
%TD*%
D21*
%TO.C,Q7*%
X63700000Y-29300000D03*
D22*
X57399999Y-27020000D03*
D21*
X63700000Y-24740000D03*
%TD*%
D23*
%TO.C,Q6*%
X77500000Y-42550000D03*
X76500000Y-42550000D03*
X77000000Y-43849999D03*
%TD*%
D24*
%TO.C,Q4*%
X36760000Y-90300000D03*
D25*
X34480000Y-83999999D03*
D24*
X32200000Y-90300000D03*
%TD*%
D26*
%TO.C,Q3*%
X78150000Y-51024999D03*
X76250000Y-51024999D03*
X77200000Y-52900000D03*
%TD*%
D27*
%TO.C,Q2*%
X68675002Y-39900000D03*
X66800001Y-40850000D03*
X66800001Y-38950000D03*
%TD*%
D24*
%TO.C,Q1*%
X46822500Y-90300000D03*
D25*
X49102500Y-83999999D03*
D24*
X51382500Y-90300000D03*
%TD*%
D28*
%TO.C,JP1*%
X50975000Y-68300000D03*
D29*
X48435000Y-68300000D03*
%TD*%
D30*
%TO.C,J5*%
X54400000Y-105900000D03*
X43400000Y-105900000D03*
D31*
X46400000Y-95900000D03*
D32*
X51400000Y-95900000D03*
%TD*%
D30*
%TO.C,J4*%
X40100000Y-105900000D03*
X29100000Y-105900000D03*
D31*
X32100000Y-95900000D03*
D32*
X37100000Y-95900000D03*
%TD*%
D30*
%TO.C,J3*%
X68700000Y-105900000D03*
X57700000Y-105900000D03*
D31*
X60700000Y-95900000D03*
D32*
X65700000Y-95900000D03*
%TD*%
D28*
%TO.C,J2*%
X30200000Y-25375000D03*
D29*
X32740000Y-25375000D03*
X35279999Y-25375000D03*
X37820000Y-25375000D03*
%TD*%
D33*
%TO.C,D3*%
X82600000Y-52000001D03*
X82600000Y-47999999D03*
%TD*%
D29*
%TO.C,J1*%
X83000000Y-40280000D03*
X80460000Y-40280001D03*
X83000000Y-37740000D03*
X80460000Y-37740000D03*
X83000000Y-35200000D03*
X80460000Y-35200000D03*
X83000000Y-32660000D03*
X80460000Y-32660000D03*
X83000000Y-30120000D03*
X80460000Y-30120000D03*
X83000000Y-27580000D03*
X80460000Y-27579999D03*
X83000000Y-25040000D03*
X80460000Y-25040000D03*
X83000000Y-22500000D03*
D28*
X80460000Y-22500000D03*
%TD*%
D34*
%TO.C,U12*%
X20780000Y-55450000D03*
X22050000Y-55450000D03*
X23320000Y-55450000D03*
X24590000Y-55450000D03*
X25860000Y-55450000D03*
X27130000Y-55450000D03*
X28400000Y-55450000D03*
X29670000Y-55450000D03*
X30940000Y-55450000D03*
X32210000Y-55450000D03*
X33480000Y-55450000D03*
X34750000Y-55450000D03*
X36020000Y-55450000D03*
X37290000Y-55450000D03*
D35*
X38540000Y-53685000D03*
X38540000Y-52415000D03*
X38540000Y-51145000D03*
X38540000Y-49875000D03*
X38540000Y-48605000D03*
X38540000Y-47335000D03*
X38540000Y-46065000D03*
X38540000Y-44795000D03*
X38540000Y-43525000D03*
X38540000Y-42255000D03*
X38540000Y-40985000D03*
X38540000Y-39715000D03*
D34*
X37290000Y-37950000D03*
X36020000Y-37950000D03*
X34750000Y-37950000D03*
X33480000Y-37950000D03*
X32210000Y-37950000D03*
X30940000Y-37950000D03*
X29670000Y-37950000D03*
X28400000Y-37950000D03*
X27130000Y-37950000D03*
X25860000Y-37950000D03*
X24590000Y-37950000D03*
X23320000Y-37950000D03*
X22050000Y-37950000D03*
X20780000Y-37950000D03*
D36*
X27800000Y-49600000D03*
X29200000Y-49600000D03*
X27100000Y-48900000D03*
X28500000Y-48900000D03*
X29900000Y-48900000D03*
X27800000Y-48200000D03*
D37*
X28500000Y-48200000D03*
D36*
X29200000Y-48200000D03*
X27100000Y-47500000D03*
X28500000Y-47500000D03*
X29900000Y-47500000D03*
X27800000Y-46800000D03*
X29200000Y-46800000D03*
%TD*%
D17*
%TO.C,R23*%
X74150001Y-59100000D03*
X71049999Y-59100000D03*
%TD*%
D13*
%TO.C,U10*%
X82375000Y-64699999D03*
X82375000Y-63750000D03*
X82375000Y-62800001D03*
X80100000Y-62800001D03*
X80100000Y-64699999D03*
%TD*%
D17*
%TO.C,R21*%
X65149999Y-44890000D03*
X68250001Y-44890000D03*
%TD*%
M02*
