%TF.GenerationSoftware,KiCad,Pcbnew,8.0.6*%
%TF.CreationDate,2025-05-10T04:30:44+07:00*%
%TF.ProjectId,FCU32 2 LAYER,46435533-3220-4322-904c-415945522e6b,rev?*%
%TF.SameCoordinates,Original*%
%TF.FileFunction,Legend,Top*%
%TF.FilePolarity,Positive*%
%FSLAX46Y46*%
G04 Gerber Fmt 4.6, Leading zero omitted, Abs format (unit mm)*
G04 Created by KiCad (PCBNEW 8.0.6) date 2025-05-10 04:30:44*
%MOMM*%
%LPD*%
G01*
G04 APERTURE LIST*
%ADD10C,0.150000*%
%ADD11C,0.120000*%
G04 APERTURE END LIST*
D10*
X21989142Y-65848819D02*
X21655809Y-65372628D01*
X21417714Y-65848819D02*
X21417714Y-64848819D01*
X21417714Y-64848819D02*
X21798666Y-64848819D01*
X21798666Y-64848819D02*
X21893904Y-64896438D01*
X21893904Y-64896438D02*
X21941523Y-64944057D01*
X21941523Y-64944057D02*
X21989142Y-65039295D01*
X21989142Y-65039295D02*
X21989142Y-65182152D01*
X21989142Y-65182152D02*
X21941523Y-65277390D01*
X21941523Y-65277390D02*
X21893904Y-65325009D01*
X21893904Y-65325009D02*
X21798666Y-65372628D01*
X21798666Y-65372628D02*
X21417714Y-65372628D01*
X22941523Y-65848819D02*
X22370095Y-65848819D01*
X22655809Y-65848819D02*
X22655809Y-64848819D01*
X22655809Y-64848819D02*
X22560571Y-64991676D01*
X22560571Y-64991676D02*
X22465333Y-65086914D01*
X22465333Y-65086914D02*
X22370095Y-65134533D01*
X23560571Y-64848819D02*
X23655809Y-64848819D01*
X23655809Y-64848819D02*
X23751047Y-64896438D01*
X23751047Y-64896438D02*
X23798666Y-64944057D01*
X23798666Y-64944057D02*
X23846285Y-65039295D01*
X23846285Y-65039295D02*
X23893904Y-65229771D01*
X23893904Y-65229771D02*
X23893904Y-65467866D01*
X23893904Y-65467866D02*
X23846285Y-65658342D01*
X23846285Y-65658342D02*
X23798666Y-65753580D01*
X23798666Y-65753580D02*
X23751047Y-65801200D01*
X23751047Y-65801200D02*
X23655809Y-65848819D01*
X23655809Y-65848819D02*
X23560571Y-65848819D01*
X23560571Y-65848819D02*
X23465333Y-65801200D01*
X23465333Y-65801200D02*
X23417714Y-65753580D01*
X23417714Y-65753580D02*
X23370095Y-65658342D01*
X23370095Y-65658342D02*
X23322476Y-65467866D01*
X23322476Y-65467866D02*
X23322476Y-65229771D01*
X23322476Y-65229771D02*
X23370095Y-65039295D01*
X23370095Y-65039295D02*
X23417714Y-64944057D01*
X23417714Y-64944057D02*
X23465333Y-64896438D01*
X23465333Y-64896438D02*
X23560571Y-64848819D01*
X21989142Y-68738819D02*
X21655809Y-68262628D01*
X21417714Y-68738819D02*
X21417714Y-67738819D01*
X21417714Y-67738819D02*
X21798666Y-67738819D01*
X21798666Y-67738819D02*
X21893904Y-67786438D01*
X21893904Y-67786438D02*
X21941523Y-67834057D01*
X21941523Y-67834057D02*
X21989142Y-67929295D01*
X21989142Y-67929295D02*
X21989142Y-68072152D01*
X21989142Y-68072152D02*
X21941523Y-68167390D01*
X21941523Y-68167390D02*
X21893904Y-68215009D01*
X21893904Y-68215009D02*
X21798666Y-68262628D01*
X21798666Y-68262628D02*
X21417714Y-68262628D01*
X22941523Y-68738819D02*
X22370095Y-68738819D01*
X22655809Y-68738819D02*
X22655809Y-67738819D01*
X22655809Y-67738819D02*
X22560571Y-67881676D01*
X22560571Y-67881676D02*
X22465333Y-67976914D01*
X22465333Y-67976914D02*
X22370095Y-68024533D01*
X23893904Y-68738819D02*
X23322476Y-68738819D01*
X23608190Y-68738819D02*
X23608190Y-67738819D01*
X23608190Y-67738819D02*
X23512952Y-67881676D01*
X23512952Y-67881676D02*
X23417714Y-67976914D01*
X23417714Y-67976914D02*
X23322476Y-68024533D01*
X34248095Y-69599820D02*
X34248095Y-70409343D01*
X34248095Y-70409343D02*
X34295714Y-70504581D01*
X34295714Y-70504581D02*
X34343333Y-70552201D01*
X34343333Y-70552201D02*
X34438571Y-70599820D01*
X34438571Y-70599820D02*
X34629047Y-70599820D01*
X34629047Y-70599820D02*
X34724285Y-70552201D01*
X34724285Y-70552201D02*
X34771904Y-70504581D01*
X34771904Y-70504581D02*
X34819523Y-70409343D01*
X34819523Y-70409343D02*
X34819523Y-69599820D01*
X35438571Y-70028391D02*
X35343333Y-69980772D01*
X35343333Y-69980772D02*
X35295714Y-69933153D01*
X35295714Y-69933153D02*
X35248095Y-69837915D01*
X35248095Y-69837915D02*
X35248095Y-69790296D01*
X35248095Y-69790296D02*
X35295714Y-69695058D01*
X35295714Y-69695058D02*
X35343333Y-69647439D01*
X35343333Y-69647439D02*
X35438571Y-69599820D01*
X35438571Y-69599820D02*
X35629047Y-69599820D01*
X35629047Y-69599820D02*
X35724285Y-69647439D01*
X35724285Y-69647439D02*
X35771904Y-69695058D01*
X35771904Y-69695058D02*
X35819523Y-69790296D01*
X35819523Y-69790296D02*
X35819523Y-69837915D01*
X35819523Y-69837915D02*
X35771904Y-69933153D01*
X35771904Y-69933153D02*
X35724285Y-69980772D01*
X35724285Y-69980772D02*
X35629047Y-70028391D01*
X35629047Y-70028391D02*
X35438571Y-70028391D01*
X35438571Y-70028391D02*
X35343333Y-70076010D01*
X35343333Y-70076010D02*
X35295714Y-70123629D01*
X35295714Y-70123629D02*
X35248095Y-70218867D01*
X35248095Y-70218867D02*
X35248095Y-70409343D01*
X35248095Y-70409343D02*
X35295714Y-70504581D01*
X35295714Y-70504581D02*
X35343333Y-70552201D01*
X35343333Y-70552201D02*
X35438571Y-70599820D01*
X35438571Y-70599820D02*
X35629047Y-70599820D01*
X35629047Y-70599820D02*
X35724285Y-70552201D01*
X35724285Y-70552201D02*
X35771904Y-70504581D01*
X35771904Y-70504581D02*
X35819523Y-70409343D01*
X35819523Y-70409343D02*
X35819523Y-70218867D01*
X35819523Y-70218867D02*
X35771904Y-70123629D01*
X35771904Y-70123629D02*
X35724285Y-70076010D01*
X35724285Y-70076010D02*
X35629047Y-70028391D01*
X49248095Y-69599820D02*
X49248095Y-70409343D01*
X49248095Y-70409343D02*
X49295714Y-70504581D01*
X49295714Y-70504581D02*
X49343333Y-70552201D01*
X49343333Y-70552201D02*
X49438571Y-70599820D01*
X49438571Y-70599820D02*
X49629047Y-70599820D01*
X49629047Y-70599820D02*
X49724285Y-70552201D01*
X49724285Y-70552201D02*
X49771904Y-70504581D01*
X49771904Y-70504581D02*
X49819523Y-70409343D01*
X49819523Y-70409343D02*
X49819523Y-69599820D01*
X50248095Y-69695058D02*
X50295714Y-69647439D01*
X50295714Y-69647439D02*
X50390952Y-69599820D01*
X50390952Y-69599820D02*
X50629047Y-69599820D01*
X50629047Y-69599820D02*
X50724285Y-69647439D01*
X50724285Y-69647439D02*
X50771904Y-69695058D01*
X50771904Y-69695058D02*
X50819523Y-69790296D01*
X50819523Y-69790296D02*
X50819523Y-69885534D01*
X50819523Y-69885534D02*
X50771904Y-70028391D01*
X50771904Y-70028391D02*
X50200476Y-70599820D01*
X50200476Y-70599820D02*
X50819523Y-70599820D01*
X50759819Y-50248094D02*
X51569342Y-50248094D01*
X51569342Y-50248094D02*
X51664580Y-50200475D01*
X51664580Y-50200475D02*
X51712200Y-50152856D01*
X51712200Y-50152856D02*
X51759819Y-50057618D01*
X51759819Y-50057618D02*
X51759819Y-49867142D01*
X51759819Y-49867142D02*
X51712200Y-49771904D01*
X51712200Y-49771904D02*
X51664580Y-49724285D01*
X51664580Y-49724285D02*
X51569342Y-49676666D01*
X51569342Y-49676666D02*
X50759819Y-49676666D01*
X51759819Y-48676666D02*
X51759819Y-49248094D01*
X51759819Y-48962380D02*
X50759819Y-48962380D01*
X50759819Y-48962380D02*
X50902676Y-49057618D01*
X50902676Y-49057618D02*
X50997914Y-49152856D01*
X50997914Y-49152856D02*
X51045533Y-49248094D01*
X50759819Y-48343332D02*
X50759819Y-47724285D01*
X50759819Y-47724285D02*
X51140771Y-48057618D01*
X51140771Y-48057618D02*
X51140771Y-47914761D01*
X51140771Y-47914761D02*
X51188390Y-47819523D01*
X51188390Y-47819523D02*
X51236009Y-47771904D01*
X51236009Y-47771904D02*
X51331247Y-47724285D01*
X51331247Y-47724285D02*
X51569342Y-47724285D01*
X51569342Y-47724285D02*
X51664580Y-47771904D01*
X51664580Y-47771904D02*
X51712200Y-47819523D01*
X51712200Y-47819523D02*
X51759819Y-47914761D01*
X51759819Y-47914761D02*
X51759819Y-48200475D01*
X51759819Y-48200475D02*
X51712200Y-48295713D01*
X51712200Y-48295713D02*
X51664580Y-48343332D01*
X80161905Y-60654819D02*
X80161905Y-61464342D01*
X80161905Y-61464342D02*
X80209524Y-61559580D01*
X80209524Y-61559580D02*
X80257143Y-61607200D01*
X80257143Y-61607200D02*
X80352381Y-61654819D01*
X80352381Y-61654819D02*
X80542857Y-61654819D01*
X80542857Y-61654819D02*
X80638095Y-61607200D01*
X80638095Y-61607200D02*
X80685714Y-61559580D01*
X80685714Y-61559580D02*
X80733333Y-61464342D01*
X80733333Y-61464342D02*
X80733333Y-60654819D01*
X81733333Y-61654819D02*
X81161905Y-61654819D01*
X81447619Y-61654819D02*
X81447619Y-60654819D01*
X81447619Y-60654819D02*
X81352381Y-60797676D01*
X81352381Y-60797676D02*
X81257143Y-60892914D01*
X81257143Y-60892914D02*
X81161905Y-60940533D01*
X82685714Y-61654819D02*
X82114286Y-61654819D01*
X82400000Y-61654819D02*
X82400000Y-60654819D01*
X82400000Y-60654819D02*
X82304762Y-60797676D01*
X82304762Y-60797676D02*
X82209524Y-60892914D01*
X82209524Y-60892914D02*
X82114286Y-60940533D01*
X33528095Y-66509819D02*
X33528095Y-67319342D01*
X33528095Y-67319342D02*
X33575714Y-67414580D01*
X33575714Y-67414580D02*
X33623333Y-67462200D01*
X33623333Y-67462200D02*
X33718571Y-67509819D01*
X33718571Y-67509819D02*
X33909047Y-67509819D01*
X33909047Y-67509819D02*
X34004285Y-67462200D01*
X34004285Y-67462200D02*
X34051904Y-67414580D01*
X34051904Y-67414580D02*
X34099523Y-67319342D01*
X34099523Y-67319342D02*
X34099523Y-66509819D01*
X34623333Y-67509819D02*
X34813809Y-67509819D01*
X34813809Y-67509819D02*
X34909047Y-67462200D01*
X34909047Y-67462200D02*
X34956666Y-67414580D01*
X34956666Y-67414580D02*
X35051904Y-67271723D01*
X35051904Y-67271723D02*
X35099523Y-67081247D01*
X35099523Y-67081247D02*
X35099523Y-66700295D01*
X35099523Y-66700295D02*
X35051904Y-66605057D01*
X35051904Y-66605057D02*
X35004285Y-66557438D01*
X35004285Y-66557438D02*
X34909047Y-66509819D01*
X34909047Y-66509819D02*
X34718571Y-66509819D01*
X34718571Y-66509819D02*
X34623333Y-66557438D01*
X34623333Y-66557438D02*
X34575714Y-66605057D01*
X34575714Y-66605057D02*
X34528095Y-66700295D01*
X34528095Y-66700295D02*
X34528095Y-66938390D01*
X34528095Y-66938390D02*
X34575714Y-67033628D01*
X34575714Y-67033628D02*
X34623333Y-67081247D01*
X34623333Y-67081247D02*
X34718571Y-67128866D01*
X34718571Y-67128866D02*
X34909047Y-67128866D01*
X34909047Y-67128866D02*
X35004285Y-67081247D01*
X35004285Y-67081247D02*
X35051904Y-67033628D01*
X35051904Y-67033628D02*
X35099523Y-66938390D01*
X44049820Y-29351904D02*
X44859343Y-29351904D01*
X44859343Y-29351904D02*
X44954581Y-29304285D01*
X44954581Y-29304285D02*
X45002201Y-29256666D01*
X45002201Y-29256666D02*
X45049820Y-29161428D01*
X45049820Y-29161428D02*
X45049820Y-28970952D01*
X45049820Y-28970952D02*
X45002201Y-28875714D01*
X45002201Y-28875714D02*
X44954581Y-28828095D01*
X44954581Y-28828095D02*
X44859343Y-28780476D01*
X44859343Y-28780476D02*
X44049820Y-28780476D01*
X44049820Y-28399523D02*
X44049820Y-27732857D01*
X44049820Y-27732857D02*
X45049820Y-28161428D01*
X57454818Y-65761904D02*
X58264341Y-65761904D01*
X58264341Y-65761904D02*
X58359579Y-65714285D01*
X58359579Y-65714285D02*
X58407199Y-65666666D01*
X58407199Y-65666666D02*
X58454818Y-65571428D01*
X58454818Y-65571428D02*
X58454818Y-65380952D01*
X58454818Y-65380952D02*
X58407199Y-65285714D01*
X58407199Y-65285714D02*
X58359579Y-65238095D01*
X58359579Y-65238095D02*
X58264341Y-65190476D01*
X58264341Y-65190476D02*
X57454818Y-65190476D01*
X57788151Y-64285714D02*
X58454818Y-64285714D01*
X57407199Y-64523809D02*
X58121484Y-64761904D01*
X58121484Y-64761904D02*
X58121484Y-64142857D01*
X21982667Y-80689200D02*
X22125524Y-80736819D01*
X22125524Y-80736819D02*
X22363619Y-80736819D01*
X22363619Y-80736819D02*
X22458857Y-80689200D01*
X22458857Y-80689200D02*
X22506476Y-80641580D01*
X22506476Y-80641580D02*
X22554095Y-80546342D01*
X22554095Y-80546342D02*
X22554095Y-80451104D01*
X22554095Y-80451104D02*
X22506476Y-80355866D01*
X22506476Y-80355866D02*
X22458857Y-80308247D01*
X22458857Y-80308247D02*
X22363619Y-80260628D01*
X22363619Y-80260628D02*
X22173143Y-80213009D01*
X22173143Y-80213009D02*
X22077905Y-80165390D01*
X22077905Y-80165390D02*
X22030286Y-80117771D01*
X22030286Y-80117771D02*
X21982667Y-80022533D01*
X21982667Y-80022533D02*
X21982667Y-79927295D01*
X21982667Y-79927295D02*
X22030286Y-79832057D01*
X22030286Y-79832057D02*
X22077905Y-79784438D01*
X22077905Y-79784438D02*
X22173143Y-79736819D01*
X22173143Y-79736819D02*
X22411238Y-79736819D01*
X22411238Y-79736819D02*
X22554095Y-79784438D01*
X22887429Y-79736819D02*
X23125524Y-80736819D01*
X23125524Y-80736819D02*
X23316000Y-80022533D01*
X23316000Y-80022533D02*
X23506476Y-80736819D01*
X23506476Y-80736819D02*
X23744572Y-79736819D01*
X24077905Y-79832057D02*
X24125524Y-79784438D01*
X24125524Y-79784438D02*
X24220762Y-79736819D01*
X24220762Y-79736819D02*
X24458857Y-79736819D01*
X24458857Y-79736819D02*
X24554095Y-79784438D01*
X24554095Y-79784438D02*
X24601714Y-79832057D01*
X24601714Y-79832057D02*
X24649333Y-79927295D01*
X24649333Y-79927295D02*
X24649333Y-80022533D01*
X24649333Y-80022533D02*
X24601714Y-80165390D01*
X24601714Y-80165390D02*
X24030286Y-80736819D01*
X24030286Y-80736819D02*
X24649333Y-80736819D01*
X21982667Y-72139200D02*
X22125524Y-72186819D01*
X22125524Y-72186819D02*
X22363619Y-72186819D01*
X22363619Y-72186819D02*
X22458857Y-72139200D01*
X22458857Y-72139200D02*
X22506476Y-72091580D01*
X22506476Y-72091580D02*
X22554095Y-71996342D01*
X22554095Y-71996342D02*
X22554095Y-71901104D01*
X22554095Y-71901104D02*
X22506476Y-71805866D01*
X22506476Y-71805866D02*
X22458857Y-71758247D01*
X22458857Y-71758247D02*
X22363619Y-71710628D01*
X22363619Y-71710628D02*
X22173143Y-71663009D01*
X22173143Y-71663009D02*
X22077905Y-71615390D01*
X22077905Y-71615390D02*
X22030286Y-71567771D01*
X22030286Y-71567771D02*
X21982667Y-71472533D01*
X21982667Y-71472533D02*
X21982667Y-71377295D01*
X21982667Y-71377295D02*
X22030286Y-71282057D01*
X22030286Y-71282057D02*
X22077905Y-71234438D01*
X22077905Y-71234438D02*
X22173143Y-71186819D01*
X22173143Y-71186819D02*
X22411238Y-71186819D01*
X22411238Y-71186819D02*
X22554095Y-71234438D01*
X22887429Y-71186819D02*
X23125524Y-72186819D01*
X23125524Y-72186819D02*
X23316000Y-71472533D01*
X23316000Y-71472533D02*
X23506476Y-72186819D01*
X23506476Y-72186819D02*
X23744572Y-71186819D01*
X24649333Y-72186819D02*
X24077905Y-72186819D01*
X24363619Y-72186819D02*
X24363619Y-71186819D01*
X24363619Y-71186819D02*
X24268381Y-71329676D01*
X24268381Y-71329676D02*
X24173143Y-71424914D01*
X24173143Y-71424914D02*
X24077905Y-71472533D01*
X65807142Y-54034819D02*
X65473809Y-53558628D01*
X65235714Y-54034819D02*
X65235714Y-53034819D01*
X65235714Y-53034819D02*
X65616666Y-53034819D01*
X65616666Y-53034819D02*
X65711904Y-53082438D01*
X65711904Y-53082438D02*
X65759523Y-53130057D01*
X65759523Y-53130057D02*
X65807142Y-53225295D01*
X65807142Y-53225295D02*
X65807142Y-53368152D01*
X65807142Y-53368152D02*
X65759523Y-53463390D01*
X65759523Y-53463390D02*
X65711904Y-53511009D01*
X65711904Y-53511009D02*
X65616666Y-53558628D01*
X65616666Y-53558628D02*
X65235714Y-53558628D01*
X66188095Y-53130057D02*
X66235714Y-53082438D01*
X66235714Y-53082438D02*
X66330952Y-53034819D01*
X66330952Y-53034819D02*
X66569047Y-53034819D01*
X66569047Y-53034819D02*
X66664285Y-53082438D01*
X66664285Y-53082438D02*
X66711904Y-53130057D01*
X66711904Y-53130057D02*
X66759523Y-53225295D01*
X66759523Y-53225295D02*
X66759523Y-53320533D01*
X66759523Y-53320533D02*
X66711904Y-53463390D01*
X66711904Y-53463390D02*
X66140476Y-54034819D01*
X66140476Y-54034819D02*
X66759523Y-54034819D01*
X67616666Y-53368152D02*
X67616666Y-54034819D01*
X67378571Y-52987200D02*
X67140476Y-53701485D01*
X67140476Y-53701485D02*
X67759523Y-53701485D01*
X71957142Y-58474819D02*
X71623809Y-57998628D01*
X71385714Y-58474819D02*
X71385714Y-57474819D01*
X71385714Y-57474819D02*
X71766666Y-57474819D01*
X71766666Y-57474819D02*
X71861904Y-57522438D01*
X71861904Y-57522438D02*
X71909523Y-57570057D01*
X71909523Y-57570057D02*
X71957142Y-57665295D01*
X71957142Y-57665295D02*
X71957142Y-57808152D01*
X71957142Y-57808152D02*
X71909523Y-57903390D01*
X71909523Y-57903390D02*
X71861904Y-57951009D01*
X71861904Y-57951009D02*
X71766666Y-57998628D01*
X71766666Y-57998628D02*
X71385714Y-57998628D01*
X72338095Y-57570057D02*
X72385714Y-57522438D01*
X72385714Y-57522438D02*
X72480952Y-57474819D01*
X72480952Y-57474819D02*
X72719047Y-57474819D01*
X72719047Y-57474819D02*
X72814285Y-57522438D01*
X72814285Y-57522438D02*
X72861904Y-57570057D01*
X72861904Y-57570057D02*
X72909523Y-57665295D01*
X72909523Y-57665295D02*
X72909523Y-57760533D01*
X72909523Y-57760533D02*
X72861904Y-57903390D01*
X72861904Y-57903390D02*
X72290476Y-58474819D01*
X72290476Y-58474819D02*
X72909523Y-58474819D01*
X73290476Y-57570057D02*
X73338095Y-57522438D01*
X73338095Y-57522438D02*
X73433333Y-57474819D01*
X73433333Y-57474819D02*
X73671428Y-57474819D01*
X73671428Y-57474819D02*
X73766666Y-57522438D01*
X73766666Y-57522438D02*
X73814285Y-57570057D01*
X73814285Y-57570057D02*
X73861904Y-57665295D01*
X73861904Y-57665295D02*
X73861904Y-57760533D01*
X73861904Y-57760533D02*
X73814285Y-57903390D01*
X73814285Y-57903390D02*
X73242857Y-58474819D01*
X73242857Y-58474819D02*
X73861904Y-58474819D01*
X71957142Y-43534819D02*
X71623809Y-43058628D01*
X71385714Y-43534819D02*
X71385714Y-42534819D01*
X71385714Y-42534819D02*
X71766666Y-42534819D01*
X71766666Y-42534819D02*
X71861904Y-42582438D01*
X71861904Y-42582438D02*
X71909523Y-42630057D01*
X71909523Y-42630057D02*
X71957142Y-42725295D01*
X71957142Y-42725295D02*
X71957142Y-42868152D01*
X71957142Y-42868152D02*
X71909523Y-42963390D01*
X71909523Y-42963390D02*
X71861904Y-43011009D01*
X71861904Y-43011009D02*
X71766666Y-43058628D01*
X71766666Y-43058628D02*
X71385714Y-43058628D01*
X72338095Y-42630057D02*
X72385714Y-42582438D01*
X72385714Y-42582438D02*
X72480952Y-42534819D01*
X72480952Y-42534819D02*
X72719047Y-42534819D01*
X72719047Y-42534819D02*
X72814285Y-42582438D01*
X72814285Y-42582438D02*
X72861904Y-42630057D01*
X72861904Y-42630057D02*
X72909523Y-42725295D01*
X72909523Y-42725295D02*
X72909523Y-42820533D01*
X72909523Y-42820533D02*
X72861904Y-42963390D01*
X72861904Y-42963390D02*
X72290476Y-43534819D01*
X72290476Y-43534819D02*
X72909523Y-43534819D01*
X73528571Y-42534819D02*
X73623809Y-42534819D01*
X73623809Y-42534819D02*
X73719047Y-42582438D01*
X73719047Y-42582438D02*
X73766666Y-42630057D01*
X73766666Y-42630057D02*
X73814285Y-42725295D01*
X73814285Y-42725295D02*
X73861904Y-42915771D01*
X73861904Y-42915771D02*
X73861904Y-43153866D01*
X73861904Y-43153866D02*
X73814285Y-43344342D01*
X73814285Y-43344342D02*
X73766666Y-43439580D01*
X73766666Y-43439580D02*
X73719047Y-43487200D01*
X73719047Y-43487200D02*
X73623809Y-43534819D01*
X73623809Y-43534819D02*
X73528571Y-43534819D01*
X73528571Y-43534819D02*
X73433333Y-43487200D01*
X73433333Y-43487200D02*
X73385714Y-43439580D01*
X73385714Y-43439580D02*
X73338095Y-43344342D01*
X73338095Y-43344342D02*
X73290476Y-43153866D01*
X73290476Y-43153866D02*
X73290476Y-42915771D01*
X73290476Y-42915771D02*
X73338095Y-42725295D01*
X73338095Y-42725295D02*
X73385714Y-42630057D01*
X73385714Y-42630057D02*
X73433333Y-42582438D01*
X73433333Y-42582438D02*
X73528571Y-42534819D01*
X40434819Y-76242857D02*
X39958628Y-76576190D01*
X40434819Y-76814285D02*
X39434819Y-76814285D01*
X39434819Y-76814285D02*
X39434819Y-76433333D01*
X39434819Y-76433333D02*
X39482438Y-76338095D01*
X39482438Y-76338095D02*
X39530057Y-76290476D01*
X39530057Y-76290476D02*
X39625295Y-76242857D01*
X39625295Y-76242857D02*
X39768152Y-76242857D01*
X39768152Y-76242857D02*
X39863390Y-76290476D01*
X39863390Y-76290476D02*
X39911009Y-76338095D01*
X39911009Y-76338095D02*
X39958628Y-76433333D01*
X39958628Y-76433333D02*
X39958628Y-76814285D01*
X40434819Y-75290476D02*
X40434819Y-75861904D01*
X40434819Y-75576190D02*
X39434819Y-75576190D01*
X39434819Y-75576190D02*
X39577676Y-75671428D01*
X39577676Y-75671428D02*
X39672914Y-75766666D01*
X39672914Y-75766666D02*
X39720533Y-75861904D01*
X39863390Y-74719047D02*
X39815771Y-74814285D01*
X39815771Y-74814285D02*
X39768152Y-74861904D01*
X39768152Y-74861904D02*
X39672914Y-74909523D01*
X39672914Y-74909523D02*
X39625295Y-74909523D01*
X39625295Y-74909523D02*
X39530057Y-74861904D01*
X39530057Y-74861904D02*
X39482438Y-74814285D01*
X39482438Y-74814285D02*
X39434819Y-74719047D01*
X39434819Y-74719047D02*
X39434819Y-74528571D01*
X39434819Y-74528571D02*
X39482438Y-74433333D01*
X39482438Y-74433333D02*
X39530057Y-74385714D01*
X39530057Y-74385714D02*
X39625295Y-74338095D01*
X39625295Y-74338095D02*
X39672914Y-74338095D01*
X39672914Y-74338095D02*
X39768152Y-74385714D01*
X39768152Y-74385714D02*
X39815771Y-74433333D01*
X39815771Y-74433333D02*
X39863390Y-74528571D01*
X39863390Y-74528571D02*
X39863390Y-74719047D01*
X39863390Y-74719047D02*
X39911009Y-74814285D01*
X39911009Y-74814285D02*
X39958628Y-74861904D01*
X39958628Y-74861904D02*
X40053866Y-74909523D01*
X40053866Y-74909523D02*
X40244342Y-74909523D01*
X40244342Y-74909523D02*
X40339580Y-74861904D01*
X40339580Y-74861904D02*
X40387200Y-74814285D01*
X40387200Y-74814285D02*
X40434819Y-74719047D01*
X40434819Y-74719047D02*
X40434819Y-74528571D01*
X40434819Y-74528571D02*
X40387200Y-74433333D01*
X40387200Y-74433333D02*
X40339580Y-74385714D01*
X40339580Y-74385714D02*
X40244342Y-74338095D01*
X40244342Y-74338095D02*
X40053866Y-74338095D01*
X40053866Y-74338095D02*
X39958628Y-74385714D01*
X39958628Y-74385714D02*
X39911009Y-74433333D01*
X39911009Y-74433333D02*
X39863390Y-74528571D01*
X71957142Y-49134819D02*
X71623809Y-48658628D01*
X71385714Y-49134819D02*
X71385714Y-48134819D01*
X71385714Y-48134819D02*
X71766666Y-48134819D01*
X71766666Y-48134819D02*
X71861904Y-48182438D01*
X71861904Y-48182438D02*
X71909523Y-48230057D01*
X71909523Y-48230057D02*
X71957142Y-48325295D01*
X71957142Y-48325295D02*
X71957142Y-48468152D01*
X71957142Y-48468152D02*
X71909523Y-48563390D01*
X71909523Y-48563390D02*
X71861904Y-48611009D01*
X71861904Y-48611009D02*
X71766666Y-48658628D01*
X71766666Y-48658628D02*
X71385714Y-48658628D01*
X72909523Y-49134819D02*
X72338095Y-49134819D01*
X72623809Y-49134819D02*
X72623809Y-48134819D01*
X72623809Y-48134819D02*
X72528571Y-48277676D01*
X72528571Y-48277676D02*
X72433333Y-48372914D01*
X72433333Y-48372914D02*
X72338095Y-48420533D01*
X73242857Y-48134819D02*
X73909523Y-48134819D01*
X73909523Y-48134819D02*
X73480952Y-49134819D01*
X71957142Y-49874819D02*
X71623809Y-49398628D01*
X71385714Y-49874819D02*
X71385714Y-48874819D01*
X71385714Y-48874819D02*
X71766666Y-48874819D01*
X71766666Y-48874819D02*
X71861904Y-48922438D01*
X71861904Y-48922438D02*
X71909523Y-48970057D01*
X71909523Y-48970057D02*
X71957142Y-49065295D01*
X71957142Y-49065295D02*
X71957142Y-49208152D01*
X71957142Y-49208152D02*
X71909523Y-49303390D01*
X71909523Y-49303390D02*
X71861904Y-49351009D01*
X71861904Y-49351009D02*
X71766666Y-49398628D01*
X71766666Y-49398628D02*
X71385714Y-49398628D01*
X72909523Y-49874819D02*
X72338095Y-49874819D01*
X72623809Y-49874819D02*
X72623809Y-48874819D01*
X72623809Y-48874819D02*
X72528571Y-49017676D01*
X72528571Y-49017676D02*
X72433333Y-49112914D01*
X72433333Y-49112914D02*
X72338095Y-49160533D01*
X73814285Y-48874819D02*
X73338095Y-48874819D01*
X73338095Y-48874819D02*
X73290476Y-49351009D01*
X73290476Y-49351009D02*
X73338095Y-49303390D01*
X73338095Y-49303390D02*
X73433333Y-49255771D01*
X73433333Y-49255771D02*
X73671428Y-49255771D01*
X73671428Y-49255771D02*
X73766666Y-49303390D01*
X73766666Y-49303390D02*
X73814285Y-49351009D01*
X73814285Y-49351009D02*
X73861904Y-49446247D01*
X73861904Y-49446247D02*
X73861904Y-49684342D01*
X73861904Y-49684342D02*
X73814285Y-49779580D01*
X73814285Y-49779580D02*
X73766666Y-49827200D01*
X73766666Y-49827200D02*
X73671428Y-49874819D01*
X73671428Y-49874819D02*
X73433333Y-49874819D01*
X73433333Y-49874819D02*
X73338095Y-49827200D01*
X73338095Y-49827200D02*
X73290476Y-49779580D01*
X53034819Y-34742857D02*
X52558628Y-35076190D01*
X53034819Y-35314285D02*
X52034819Y-35314285D01*
X52034819Y-35314285D02*
X52034819Y-34933333D01*
X52034819Y-34933333D02*
X52082438Y-34838095D01*
X52082438Y-34838095D02*
X52130057Y-34790476D01*
X52130057Y-34790476D02*
X52225295Y-34742857D01*
X52225295Y-34742857D02*
X52368152Y-34742857D01*
X52368152Y-34742857D02*
X52463390Y-34790476D01*
X52463390Y-34790476D02*
X52511009Y-34838095D01*
X52511009Y-34838095D02*
X52558628Y-34933333D01*
X52558628Y-34933333D02*
X52558628Y-35314285D01*
X53034819Y-33790476D02*
X53034819Y-34361904D01*
X53034819Y-34076190D02*
X52034819Y-34076190D01*
X52034819Y-34076190D02*
X52177676Y-34171428D01*
X52177676Y-34171428D02*
X52272914Y-34266666D01*
X52272914Y-34266666D02*
X52320533Y-34361904D01*
X52368152Y-32933333D02*
X53034819Y-32933333D01*
X51987200Y-33171428D02*
X52701485Y-33409523D01*
X52701485Y-33409523D02*
X52701485Y-32790476D01*
X48734819Y-37442857D02*
X48258628Y-37776190D01*
X48734819Y-38014285D02*
X47734819Y-38014285D01*
X47734819Y-38014285D02*
X47734819Y-37633333D01*
X47734819Y-37633333D02*
X47782438Y-37538095D01*
X47782438Y-37538095D02*
X47830057Y-37490476D01*
X47830057Y-37490476D02*
X47925295Y-37442857D01*
X47925295Y-37442857D02*
X48068152Y-37442857D01*
X48068152Y-37442857D02*
X48163390Y-37490476D01*
X48163390Y-37490476D02*
X48211009Y-37538095D01*
X48211009Y-37538095D02*
X48258628Y-37633333D01*
X48258628Y-37633333D02*
X48258628Y-38014285D01*
X48734819Y-36490476D02*
X48734819Y-37061904D01*
X48734819Y-36776190D02*
X47734819Y-36776190D01*
X47734819Y-36776190D02*
X47877676Y-36871428D01*
X47877676Y-36871428D02*
X47972914Y-36966666D01*
X47972914Y-36966666D02*
X48020533Y-37061904D01*
X47830057Y-36109523D02*
X47782438Y-36061904D01*
X47782438Y-36061904D02*
X47734819Y-35966666D01*
X47734819Y-35966666D02*
X47734819Y-35728571D01*
X47734819Y-35728571D02*
X47782438Y-35633333D01*
X47782438Y-35633333D02*
X47830057Y-35585714D01*
X47830057Y-35585714D02*
X47925295Y-35538095D01*
X47925295Y-35538095D02*
X48020533Y-35538095D01*
X48020533Y-35538095D02*
X48163390Y-35585714D01*
X48163390Y-35585714D02*
X48734819Y-36157142D01*
X48734819Y-36157142D02*
X48734819Y-35538095D01*
X68474819Y-24566666D02*
X67998628Y-24899999D01*
X68474819Y-25138094D02*
X67474819Y-25138094D01*
X67474819Y-25138094D02*
X67474819Y-24757142D01*
X67474819Y-24757142D02*
X67522438Y-24661904D01*
X67522438Y-24661904D02*
X67570057Y-24614285D01*
X67570057Y-24614285D02*
X67665295Y-24566666D01*
X67665295Y-24566666D02*
X67808152Y-24566666D01*
X67808152Y-24566666D02*
X67903390Y-24614285D01*
X67903390Y-24614285D02*
X67951009Y-24661904D01*
X67951009Y-24661904D02*
X67998628Y-24757142D01*
X67998628Y-24757142D02*
X67998628Y-25138094D01*
X68474819Y-24090475D02*
X68474819Y-23899999D01*
X68474819Y-23899999D02*
X68427200Y-23804761D01*
X68427200Y-23804761D02*
X68379580Y-23757142D01*
X68379580Y-23757142D02*
X68236723Y-23661904D01*
X68236723Y-23661904D02*
X68046247Y-23614285D01*
X68046247Y-23614285D02*
X67665295Y-23614285D01*
X67665295Y-23614285D02*
X67570057Y-23661904D01*
X67570057Y-23661904D02*
X67522438Y-23709523D01*
X67522438Y-23709523D02*
X67474819Y-23804761D01*
X67474819Y-23804761D02*
X67474819Y-23995237D01*
X67474819Y-23995237D02*
X67522438Y-24090475D01*
X67522438Y-24090475D02*
X67570057Y-24138094D01*
X67570057Y-24138094D02*
X67665295Y-24185713D01*
X67665295Y-24185713D02*
X67903390Y-24185713D01*
X67903390Y-24185713D02*
X67998628Y-24138094D01*
X67998628Y-24138094D02*
X68046247Y-24090475D01*
X68046247Y-24090475D02*
X68093866Y-23995237D01*
X68093866Y-23995237D02*
X68093866Y-23804761D01*
X68093866Y-23804761D02*
X68046247Y-23709523D01*
X68046247Y-23709523D02*
X67998628Y-23661904D01*
X67998628Y-23661904D02*
X67903390Y-23614285D01*
X41034819Y-51666666D02*
X40558628Y-51999999D01*
X41034819Y-52238094D02*
X40034819Y-52238094D01*
X40034819Y-52238094D02*
X40034819Y-51857142D01*
X40034819Y-51857142D02*
X40082438Y-51761904D01*
X40082438Y-51761904D02*
X40130057Y-51714285D01*
X40130057Y-51714285D02*
X40225295Y-51666666D01*
X40225295Y-51666666D02*
X40368152Y-51666666D01*
X40368152Y-51666666D02*
X40463390Y-51714285D01*
X40463390Y-51714285D02*
X40511009Y-51761904D01*
X40511009Y-51761904D02*
X40558628Y-51857142D01*
X40558628Y-51857142D02*
X40558628Y-52238094D01*
X40034819Y-50809523D02*
X40034819Y-50999999D01*
X40034819Y-50999999D02*
X40082438Y-51095237D01*
X40082438Y-51095237D02*
X40130057Y-51142856D01*
X40130057Y-51142856D02*
X40272914Y-51238094D01*
X40272914Y-51238094D02*
X40463390Y-51285713D01*
X40463390Y-51285713D02*
X40844342Y-51285713D01*
X40844342Y-51285713D02*
X40939580Y-51238094D01*
X40939580Y-51238094D02*
X40987200Y-51190475D01*
X40987200Y-51190475D02*
X41034819Y-51095237D01*
X41034819Y-51095237D02*
X41034819Y-50904761D01*
X41034819Y-50904761D02*
X40987200Y-50809523D01*
X40987200Y-50809523D02*
X40939580Y-50761904D01*
X40939580Y-50761904D02*
X40844342Y-50714285D01*
X40844342Y-50714285D02*
X40606247Y-50714285D01*
X40606247Y-50714285D02*
X40511009Y-50761904D01*
X40511009Y-50761904D02*
X40463390Y-50809523D01*
X40463390Y-50809523D02*
X40415771Y-50904761D01*
X40415771Y-50904761D02*
X40415771Y-51095237D01*
X40415771Y-51095237D02*
X40463390Y-51190475D01*
X40463390Y-51190475D02*
X40511009Y-51238094D01*
X40511009Y-51238094D02*
X40606247Y-51285713D01*
X55334819Y-74566666D02*
X54858628Y-74899999D01*
X55334819Y-75138094D02*
X54334819Y-75138094D01*
X54334819Y-75138094D02*
X54334819Y-74757142D01*
X54334819Y-74757142D02*
X54382438Y-74661904D01*
X54382438Y-74661904D02*
X54430057Y-74614285D01*
X54430057Y-74614285D02*
X54525295Y-74566666D01*
X54525295Y-74566666D02*
X54668152Y-74566666D01*
X54668152Y-74566666D02*
X54763390Y-74614285D01*
X54763390Y-74614285D02*
X54811009Y-74661904D01*
X54811009Y-74661904D02*
X54858628Y-74757142D01*
X54858628Y-74757142D02*
X54858628Y-75138094D01*
X54334819Y-73661904D02*
X54334819Y-74138094D01*
X54334819Y-74138094D02*
X54811009Y-74185713D01*
X54811009Y-74185713D02*
X54763390Y-74138094D01*
X54763390Y-74138094D02*
X54715771Y-74042856D01*
X54715771Y-74042856D02*
X54715771Y-73804761D01*
X54715771Y-73804761D02*
X54763390Y-73709523D01*
X54763390Y-73709523D02*
X54811009Y-73661904D01*
X54811009Y-73661904D02*
X54906247Y-73614285D01*
X54906247Y-73614285D02*
X55144342Y-73614285D01*
X55144342Y-73614285D02*
X55239580Y-73661904D01*
X55239580Y-73661904D02*
X55287200Y-73709523D01*
X55287200Y-73709523D02*
X55334819Y-73804761D01*
X55334819Y-73804761D02*
X55334819Y-74042856D01*
X55334819Y-74042856D02*
X55287200Y-74138094D01*
X55287200Y-74138094D02*
X55239580Y-74185713D01*
X66433333Y-51734819D02*
X66100000Y-51258628D01*
X65861905Y-51734819D02*
X65861905Y-50734819D01*
X65861905Y-50734819D02*
X66242857Y-50734819D01*
X66242857Y-50734819D02*
X66338095Y-50782438D01*
X66338095Y-50782438D02*
X66385714Y-50830057D01*
X66385714Y-50830057D02*
X66433333Y-50925295D01*
X66433333Y-50925295D02*
X66433333Y-51068152D01*
X66433333Y-51068152D02*
X66385714Y-51163390D01*
X66385714Y-51163390D02*
X66338095Y-51211009D01*
X66338095Y-51211009D02*
X66242857Y-51258628D01*
X66242857Y-51258628D02*
X65861905Y-51258628D01*
X67290476Y-51068152D02*
X67290476Y-51734819D01*
X67052381Y-50687200D02*
X66814286Y-51401485D01*
X66814286Y-51401485D02*
X67433333Y-51401485D01*
X72433333Y-40834819D02*
X72100000Y-40358628D01*
X71861905Y-40834819D02*
X71861905Y-39834819D01*
X71861905Y-39834819D02*
X72242857Y-39834819D01*
X72242857Y-39834819D02*
X72338095Y-39882438D01*
X72338095Y-39882438D02*
X72385714Y-39930057D01*
X72385714Y-39930057D02*
X72433333Y-40025295D01*
X72433333Y-40025295D02*
X72433333Y-40168152D01*
X72433333Y-40168152D02*
X72385714Y-40263390D01*
X72385714Y-40263390D02*
X72338095Y-40311009D01*
X72338095Y-40311009D02*
X72242857Y-40358628D01*
X72242857Y-40358628D02*
X71861905Y-40358628D01*
X72766667Y-39834819D02*
X73385714Y-39834819D01*
X73385714Y-39834819D02*
X73052381Y-40215771D01*
X73052381Y-40215771D02*
X73195238Y-40215771D01*
X73195238Y-40215771D02*
X73290476Y-40263390D01*
X73290476Y-40263390D02*
X73338095Y-40311009D01*
X73338095Y-40311009D02*
X73385714Y-40406247D01*
X73385714Y-40406247D02*
X73385714Y-40644342D01*
X73385714Y-40644342D02*
X73338095Y-40739580D01*
X73338095Y-40739580D02*
X73290476Y-40787200D01*
X73290476Y-40787200D02*
X73195238Y-40834819D01*
X73195238Y-40834819D02*
X72909524Y-40834819D01*
X72909524Y-40834819D02*
X72814286Y-40787200D01*
X72814286Y-40787200D02*
X72766667Y-40739580D01*
X72433333Y-51734819D02*
X72100000Y-51258628D01*
X71861905Y-51734819D02*
X71861905Y-50734819D01*
X71861905Y-50734819D02*
X72242857Y-50734819D01*
X72242857Y-50734819D02*
X72338095Y-50782438D01*
X72338095Y-50782438D02*
X72385714Y-50830057D01*
X72385714Y-50830057D02*
X72433333Y-50925295D01*
X72433333Y-50925295D02*
X72433333Y-51068152D01*
X72433333Y-51068152D02*
X72385714Y-51163390D01*
X72385714Y-51163390D02*
X72338095Y-51211009D01*
X72338095Y-51211009D02*
X72242857Y-51258628D01*
X72242857Y-51258628D02*
X71861905Y-51258628D01*
X72814286Y-50830057D02*
X72861905Y-50782438D01*
X72861905Y-50782438D02*
X72957143Y-50734819D01*
X72957143Y-50734819D02*
X73195238Y-50734819D01*
X73195238Y-50734819D02*
X73290476Y-50782438D01*
X73290476Y-50782438D02*
X73338095Y-50830057D01*
X73338095Y-50830057D02*
X73385714Y-50925295D01*
X73385714Y-50925295D02*
X73385714Y-51020533D01*
X73385714Y-51020533D02*
X73338095Y-51163390D01*
X73338095Y-51163390D02*
X72766667Y-51734819D01*
X72766667Y-51734819D02*
X73385714Y-51734819D01*
X71474819Y-24566666D02*
X70998628Y-24899999D01*
X71474819Y-25138094D02*
X70474819Y-25138094D01*
X70474819Y-25138094D02*
X70474819Y-24757142D01*
X70474819Y-24757142D02*
X70522438Y-24661904D01*
X70522438Y-24661904D02*
X70570057Y-24614285D01*
X70570057Y-24614285D02*
X70665295Y-24566666D01*
X70665295Y-24566666D02*
X70808152Y-24566666D01*
X70808152Y-24566666D02*
X70903390Y-24614285D01*
X70903390Y-24614285D02*
X70951009Y-24661904D01*
X70951009Y-24661904D02*
X70998628Y-24757142D01*
X70998628Y-24757142D02*
X70998628Y-25138094D01*
X71474819Y-23614285D02*
X71474819Y-24185713D01*
X71474819Y-23899999D02*
X70474819Y-23899999D01*
X70474819Y-23899999D02*
X70617676Y-23995237D01*
X70617676Y-23995237D02*
X70712914Y-24090475D01*
X70712914Y-24090475D02*
X70760533Y-24185713D01*
X72104761Y-25500057D02*
X72009523Y-25452438D01*
X72009523Y-25452438D02*
X71914285Y-25357200D01*
X71914285Y-25357200D02*
X71771428Y-25214342D01*
X71771428Y-25214342D02*
X71676190Y-25166723D01*
X71676190Y-25166723D02*
X71580952Y-25166723D01*
X71628571Y-25404819D02*
X71533333Y-25357200D01*
X71533333Y-25357200D02*
X71438095Y-25261961D01*
X71438095Y-25261961D02*
X71390476Y-25071485D01*
X71390476Y-25071485D02*
X71390476Y-24738152D01*
X71390476Y-24738152D02*
X71438095Y-24547676D01*
X71438095Y-24547676D02*
X71533333Y-24452438D01*
X71533333Y-24452438D02*
X71628571Y-24404819D01*
X71628571Y-24404819D02*
X71819047Y-24404819D01*
X71819047Y-24404819D02*
X71914285Y-24452438D01*
X71914285Y-24452438D02*
X72009523Y-24547676D01*
X72009523Y-24547676D02*
X72057142Y-24738152D01*
X72057142Y-24738152D02*
X72057142Y-25071485D01*
X72057142Y-25071485D02*
X72009523Y-25261961D01*
X72009523Y-25261961D02*
X71914285Y-25357200D01*
X71914285Y-25357200D02*
X71819047Y-25404819D01*
X71819047Y-25404819D02*
X71628571Y-25404819D01*
X72628571Y-24833390D02*
X72533333Y-24785771D01*
X72533333Y-24785771D02*
X72485714Y-24738152D01*
X72485714Y-24738152D02*
X72438095Y-24642914D01*
X72438095Y-24642914D02*
X72438095Y-24595295D01*
X72438095Y-24595295D02*
X72485714Y-24500057D01*
X72485714Y-24500057D02*
X72533333Y-24452438D01*
X72533333Y-24452438D02*
X72628571Y-24404819D01*
X72628571Y-24404819D02*
X72819047Y-24404819D01*
X72819047Y-24404819D02*
X72914285Y-24452438D01*
X72914285Y-24452438D02*
X72961904Y-24500057D01*
X72961904Y-24500057D02*
X73009523Y-24595295D01*
X73009523Y-24595295D02*
X73009523Y-24642914D01*
X73009523Y-24642914D02*
X72961904Y-24738152D01*
X72961904Y-24738152D02*
X72914285Y-24785771D01*
X72914285Y-24785771D02*
X72819047Y-24833390D01*
X72819047Y-24833390D02*
X72628571Y-24833390D01*
X72628571Y-24833390D02*
X72533333Y-24881009D01*
X72533333Y-24881009D02*
X72485714Y-24928628D01*
X72485714Y-24928628D02*
X72438095Y-25023866D01*
X72438095Y-25023866D02*
X72438095Y-25214342D01*
X72438095Y-25214342D02*
X72485714Y-25309580D01*
X72485714Y-25309580D02*
X72533333Y-25357200D01*
X72533333Y-25357200D02*
X72628571Y-25404819D01*
X72628571Y-25404819D02*
X72819047Y-25404819D01*
X72819047Y-25404819D02*
X72914285Y-25357200D01*
X72914285Y-25357200D02*
X72961904Y-25309580D01*
X72961904Y-25309580D02*
X73009523Y-25214342D01*
X73009523Y-25214342D02*
X73009523Y-25023866D01*
X73009523Y-25023866D02*
X72961904Y-24928628D01*
X72961904Y-24928628D02*
X72914285Y-24881009D01*
X72914285Y-24881009D02*
X72819047Y-24833390D01*
X58564761Y-32070058D02*
X58469523Y-32022439D01*
X58469523Y-32022439D02*
X58374285Y-31927201D01*
X58374285Y-31927201D02*
X58231428Y-31784343D01*
X58231428Y-31784343D02*
X58136190Y-31736724D01*
X58136190Y-31736724D02*
X58040952Y-31736724D01*
X58088571Y-31974820D02*
X57993333Y-31927201D01*
X57993333Y-31927201D02*
X57898095Y-31831962D01*
X57898095Y-31831962D02*
X57850476Y-31641486D01*
X57850476Y-31641486D02*
X57850476Y-31308153D01*
X57850476Y-31308153D02*
X57898095Y-31117677D01*
X57898095Y-31117677D02*
X57993333Y-31022439D01*
X57993333Y-31022439D02*
X58088571Y-30974820D01*
X58088571Y-30974820D02*
X58279047Y-30974820D01*
X58279047Y-30974820D02*
X58374285Y-31022439D01*
X58374285Y-31022439D02*
X58469523Y-31117677D01*
X58469523Y-31117677D02*
X58517142Y-31308153D01*
X58517142Y-31308153D02*
X58517142Y-31641486D01*
X58517142Y-31641486D02*
X58469523Y-31831962D01*
X58469523Y-31831962D02*
X58374285Y-31927201D01*
X58374285Y-31927201D02*
X58279047Y-31974820D01*
X58279047Y-31974820D02*
X58088571Y-31974820D01*
X58850476Y-30974820D02*
X59517142Y-30974820D01*
X59517142Y-30974820D02*
X59088571Y-31974820D01*
X79800057Y-43295238D02*
X79752438Y-43390476D01*
X79752438Y-43390476D02*
X79657200Y-43485714D01*
X79657200Y-43485714D02*
X79514342Y-43628571D01*
X79514342Y-43628571D02*
X79466723Y-43723809D01*
X79466723Y-43723809D02*
X79466723Y-43819047D01*
X79704819Y-43771428D02*
X79657200Y-43866666D01*
X79657200Y-43866666D02*
X79561961Y-43961904D01*
X79561961Y-43961904D02*
X79371485Y-44009523D01*
X79371485Y-44009523D02*
X79038152Y-44009523D01*
X79038152Y-44009523D02*
X78847676Y-43961904D01*
X78847676Y-43961904D02*
X78752438Y-43866666D01*
X78752438Y-43866666D02*
X78704819Y-43771428D01*
X78704819Y-43771428D02*
X78704819Y-43580952D01*
X78704819Y-43580952D02*
X78752438Y-43485714D01*
X78752438Y-43485714D02*
X78847676Y-43390476D01*
X78847676Y-43390476D02*
X79038152Y-43342857D01*
X79038152Y-43342857D02*
X79371485Y-43342857D01*
X79371485Y-43342857D02*
X79561961Y-43390476D01*
X79561961Y-43390476D02*
X79657200Y-43485714D01*
X79657200Y-43485714D02*
X79704819Y-43580952D01*
X79704819Y-43580952D02*
X79704819Y-43771428D01*
X78704819Y-42485714D02*
X78704819Y-42676190D01*
X78704819Y-42676190D02*
X78752438Y-42771428D01*
X78752438Y-42771428D02*
X78800057Y-42819047D01*
X78800057Y-42819047D02*
X78942914Y-42914285D01*
X78942914Y-42914285D02*
X79133390Y-42961904D01*
X79133390Y-42961904D02*
X79514342Y-42961904D01*
X79514342Y-42961904D02*
X79609580Y-42914285D01*
X79609580Y-42914285D02*
X79657200Y-42866666D01*
X79657200Y-42866666D02*
X79704819Y-42771428D01*
X79704819Y-42771428D02*
X79704819Y-42580952D01*
X79704819Y-42580952D02*
X79657200Y-42485714D01*
X79657200Y-42485714D02*
X79609580Y-42438095D01*
X79609580Y-42438095D02*
X79514342Y-42390476D01*
X79514342Y-42390476D02*
X79276247Y-42390476D01*
X79276247Y-42390476D02*
X79181009Y-42438095D01*
X79181009Y-42438095D02*
X79133390Y-42485714D01*
X79133390Y-42485714D02*
X79085771Y-42580952D01*
X79085771Y-42580952D02*
X79085771Y-42771428D01*
X79085771Y-42771428D02*
X79133390Y-42866666D01*
X79133390Y-42866666D02*
X79181009Y-42914285D01*
X79181009Y-42914285D02*
X79276247Y-42961904D01*
X30530056Y-85355238D02*
X30482437Y-85450476D01*
X30482437Y-85450476D02*
X30387199Y-85545714D01*
X30387199Y-85545714D02*
X30244341Y-85688571D01*
X30244341Y-85688571D02*
X30196722Y-85783809D01*
X30196722Y-85783809D02*
X30196722Y-85879047D01*
X30434818Y-85831428D02*
X30387199Y-85926666D01*
X30387199Y-85926666D02*
X30291960Y-86021904D01*
X30291960Y-86021904D02*
X30101484Y-86069523D01*
X30101484Y-86069523D02*
X29768151Y-86069523D01*
X29768151Y-86069523D02*
X29577675Y-86021904D01*
X29577675Y-86021904D02*
X29482437Y-85926666D01*
X29482437Y-85926666D02*
X29434818Y-85831428D01*
X29434818Y-85831428D02*
X29434818Y-85640952D01*
X29434818Y-85640952D02*
X29482437Y-85545714D01*
X29482437Y-85545714D02*
X29577675Y-85450476D01*
X29577675Y-85450476D02*
X29768151Y-85402857D01*
X29768151Y-85402857D02*
X30101484Y-85402857D01*
X30101484Y-85402857D02*
X30291960Y-85450476D01*
X30291960Y-85450476D02*
X30387199Y-85545714D01*
X30387199Y-85545714D02*
X30434818Y-85640952D01*
X30434818Y-85640952D02*
X30434818Y-85831428D01*
X29768151Y-84545714D02*
X30434818Y-84545714D01*
X29387199Y-84783809D02*
X30101484Y-85021904D01*
X30101484Y-85021904D02*
X30101484Y-84402857D01*
X80150057Y-52057737D02*
X80102438Y-52152975D01*
X80102438Y-52152975D02*
X80007200Y-52248213D01*
X80007200Y-52248213D02*
X79864342Y-52391070D01*
X79864342Y-52391070D02*
X79816723Y-52486308D01*
X79816723Y-52486308D02*
X79816723Y-52581546D01*
X80054819Y-52533927D02*
X80007200Y-52629165D01*
X80007200Y-52629165D02*
X79911961Y-52724403D01*
X79911961Y-52724403D02*
X79721485Y-52772022D01*
X79721485Y-52772022D02*
X79388152Y-52772022D01*
X79388152Y-52772022D02*
X79197676Y-52724403D01*
X79197676Y-52724403D02*
X79102438Y-52629165D01*
X79102438Y-52629165D02*
X79054819Y-52533927D01*
X79054819Y-52533927D02*
X79054819Y-52343451D01*
X79054819Y-52343451D02*
X79102438Y-52248213D01*
X79102438Y-52248213D02*
X79197676Y-52152975D01*
X79197676Y-52152975D02*
X79388152Y-52105356D01*
X79388152Y-52105356D02*
X79721485Y-52105356D01*
X79721485Y-52105356D02*
X79911961Y-52152975D01*
X79911961Y-52152975D02*
X80007200Y-52248213D01*
X80007200Y-52248213D02*
X80054819Y-52343451D01*
X80054819Y-52343451D02*
X80054819Y-52533927D01*
X79054819Y-51772022D02*
X79054819Y-51152975D01*
X79054819Y-51152975D02*
X79435771Y-51486308D01*
X79435771Y-51486308D02*
X79435771Y-51343451D01*
X79435771Y-51343451D02*
X79483390Y-51248213D01*
X79483390Y-51248213D02*
X79531009Y-51200594D01*
X79531009Y-51200594D02*
X79626247Y-51152975D01*
X79626247Y-51152975D02*
X79864342Y-51152975D01*
X79864342Y-51152975D02*
X79959580Y-51200594D01*
X79959580Y-51200594D02*
X80007200Y-51248213D01*
X80007200Y-51248213D02*
X80054819Y-51343451D01*
X80054819Y-51343451D02*
X80054819Y-51629165D01*
X80054819Y-51629165D02*
X80007200Y-51724403D01*
X80007200Y-51724403D02*
X79959580Y-51772022D01*
X67642262Y-38050057D02*
X67547024Y-38002438D01*
X67547024Y-38002438D02*
X67451786Y-37907200D01*
X67451786Y-37907200D02*
X67308929Y-37764342D01*
X67308929Y-37764342D02*
X67213691Y-37716723D01*
X67213691Y-37716723D02*
X67118453Y-37716723D01*
X67166072Y-37954819D02*
X67070834Y-37907200D01*
X67070834Y-37907200D02*
X66975596Y-37811961D01*
X66975596Y-37811961D02*
X66927977Y-37621485D01*
X66927977Y-37621485D02*
X66927977Y-37288152D01*
X66927977Y-37288152D02*
X66975596Y-37097676D01*
X66975596Y-37097676D02*
X67070834Y-37002438D01*
X67070834Y-37002438D02*
X67166072Y-36954819D01*
X67166072Y-36954819D02*
X67356548Y-36954819D01*
X67356548Y-36954819D02*
X67451786Y-37002438D01*
X67451786Y-37002438D02*
X67547024Y-37097676D01*
X67547024Y-37097676D02*
X67594643Y-37288152D01*
X67594643Y-37288152D02*
X67594643Y-37621485D01*
X67594643Y-37621485D02*
X67547024Y-37811961D01*
X67547024Y-37811961D02*
X67451786Y-37907200D01*
X67451786Y-37907200D02*
X67356548Y-37954819D01*
X67356548Y-37954819D02*
X67166072Y-37954819D01*
X67975596Y-37050057D02*
X68023215Y-37002438D01*
X68023215Y-37002438D02*
X68118453Y-36954819D01*
X68118453Y-36954819D02*
X68356548Y-36954819D01*
X68356548Y-36954819D02*
X68451786Y-37002438D01*
X68451786Y-37002438D02*
X68499405Y-37050057D01*
X68499405Y-37050057D02*
X68547024Y-37145295D01*
X68547024Y-37145295D02*
X68547024Y-37240533D01*
X68547024Y-37240533D02*
X68499405Y-37383390D01*
X68499405Y-37383390D02*
X67927977Y-37954819D01*
X67927977Y-37954819D02*
X68547024Y-37954819D01*
X45152556Y-85355238D02*
X45104937Y-85450476D01*
X45104937Y-85450476D02*
X45009699Y-85545714D01*
X45009699Y-85545714D02*
X44866841Y-85688571D01*
X44866841Y-85688571D02*
X44819222Y-85783809D01*
X44819222Y-85783809D02*
X44819222Y-85879047D01*
X45057318Y-85831428D02*
X45009699Y-85926666D01*
X45009699Y-85926666D02*
X44914460Y-86021904D01*
X44914460Y-86021904D02*
X44723984Y-86069523D01*
X44723984Y-86069523D02*
X44390651Y-86069523D01*
X44390651Y-86069523D02*
X44200175Y-86021904D01*
X44200175Y-86021904D02*
X44104937Y-85926666D01*
X44104937Y-85926666D02*
X44057318Y-85831428D01*
X44057318Y-85831428D02*
X44057318Y-85640952D01*
X44057318Y-85640952D02*
X44104937Y-85545714D01*
X44104937Y-85545714D02*
X44200175Y-85450476D01*
X44200175Y-85450476D02*
X44390651Y-85402857D01*
X44390651Y-85402857D02*
X44723984Y-85402857D01*
X44723984Y-85402857D02*
X44914460Y-85450476D01*
X44914460Y-85450476D02*
X45009699Y-85545714D01*
X45009699Y-85545714D02*
X45057318Y-85640952D01*
X45057318Y-85640952D02*
X45057318Y-85831428D01*
X45057318Y-84450476D02*
X45057318Y-85021904D01*
X45057318Y-84736190D02*
X44057318Y-84736190D01*
X44057318Y-84736190D02*
X44200175Y-84831428D01*
X44200175Y-84831428D02*
X44295413Y-84926666D01*
X44295413Y-84926666D02*
X44343032Y-85021904D01*
X52759819Y-69133333D02*
X53474104Y-69133333D01*
X53474104Y-69133333D02*
X53616961Y-69180952D01*
X53616961Y-69180952D02*
X53712200Y-69276190D01*
X53712200Y-69276190D02*
X53759819Y-69419047D01*
X53759819Y-69419047D02*
X53759819Y-69514285D01*
X53759819Y-68657142D02*
X52759819Y-68657142D01*
X52759819Y-68657142D02*
X52759819Y-68276190D01*
X52759819Y-68276190D02*
X52807438Y-68180952D01*
X52807438Y-68180952D02*
X52855057Y-68133333D01*
X52855057Y-68133333D02*
X52950295Y-68085714D01*
X52950295Y-68085714D02*
X53093152Y-68085714D01*
X53093152Y-68085714D02*
X53188390Y-68133333D01*
X53188390Y-68133333D02*
X53236009Y-68180952D01*
X53236009Y-68180952D02*
X53283628Y-68276190D01*
X53283628Y-68276190D02*
X53283628Y-68657142D01*
X53759819Y-67133333D02*
X53759819Y-67704761D01*
X53759819Y-67419047D02*
X52759819Y-67419047D01*
X52759819Y-67419047D02*
X52902676Y-67514285D01*
X52902676Y-67514285D02*
X52997914Y-67609523D01*
X52997914Y-67609523D02*
X53045533Y-67704761D01*
X48566666Y-109854819D02*
X48566666Y-110569104D01*
X48566666Y-110569104D02*
X48519047Y-110711961D01*
X48519047Y-110711961D02*
X48423809Y-110807200D01*
X48423809Y-110807200D02*
X48280952Y-110854819D01*
X48280952Y-110854819D02*
X48185714Y-110854819D01*
X49519047Y-109854819D02*
X49042857Y-109854819D01*
X49042857Y-109854819D02*
X48995238Y-110331009D01*
X48995238Y-110331009D02*
X49042857Y-110283390D01*
X49042857Y-110283390D02*
X49138095Y-110235771D01*
X49138095Y-110235771D02*
X49376190Y-110235771D01*
X49376190Y-110235771D02*
X49471428Y-110283390D01*
X49471428Y-110283390D02*
X49519047Y-110331009D01*
X49519047Y-110331009D02*
X49566666Y-110426247D01*
X49566666Y-110426247D02*
X49566666Y-110664342D01*
X49566666Y-110664342D02*
X49519047Y-110759580D01*
X49519047Y-110759580D02*
X49471428Y-110807200D01*
X49471428Y-110807200D02*
X49376190Y-110854819D01*
X49376190Y-110854819D02*
X49138095Y-110854819D01*
X49138095Y-110854819D02*
X49042857Y-110807200D01*
X49042857Y-110807200D02*
X48995238Y-110759580D01*
X42828571Y-96014700D02*
X43971429Y-96014700D01*
X53828571Y-96014700D02*
X54971429Y-96014700D01*
X54400000Y-96586128D02*
X54400000Y-95443271D01*
X34266666Y-109854819D02*
X34266666Y-110569104D01*
X34266666Y-110569104D02*
X34219047Y-110711961D01*
X34219047Y-110711961D02*
X34123809Y-110807200D01*
X34123809Y-110807200D02*
X33980952Y-110854819D01*
X33980952Y-110854819D02*
X33885714Y-110854819D01*
X35171428Y-110188152D02*
X35171428Y-110854819D01*
X34933333Y-109807200D02*
X34695238Y-110521485D01*
X34695238Y-110521485D02*
X35314285Y-110521485D01*
X29028571Y-96014700D02*
X30171429Y-96014700D01*
X39528571Y-96014700D02*
X40671429Y-96014700D01*
X40100000Y-96586128D02*
X40100000Y-95443271D01*
X62866666Y-109854819D02*
X62866666Y-110569104D01*
X62866666Y-110569104D02*
X62819047Y-110711961D01*
X62819047Y-110711961D02*
X62723809Y-110807200D01*
X62723809Y-110807200D02*
X62580952Y-110854819D01*
X62580952Y-110854819D02*
X62485714Y-110854819D01*
X63247619Y-109854819D02*
X63866666Y-109854819D01*
X63866666Y-109854819D02*
X63533333Y-110235771D01*
X63533333Y-110235771D02*
X63676190Y-110235771D01*
X63676190Y-110235771D02*
X63771428Y-110283390D01*
X63771428Y-110283390D02*
X63819047Y-110331009D01*
X63819047Y-110331009D02*
X63866666Y-110426247D01*
X63866666Y-110426247D02*
X63866666Y-110664342D01*
X63866666Y-110664342D02*
X63819047Y-110759580D01*
X63819047Y-110759580D02*
X63771428Y-110807200D01*
X63771428Y-110807200D02*
X63676190Y-110854819D01*
X63676190Y-110854819D02*
X63390476Y-110854819D01*
X63390476Y-110854819D02*
X63295238Y-110807200D01*
X63295238Y-110807200D02*
X63247619Y-110759580D01*
X57128571Y-96014700D02*
X58271429Y-96014700D01*
X68128571Y-96014700D02*
X69271429Y-96014700D01*
X68700000Y-96586128D02*
X68700000Y-95443271D01*
X27384819Y-21323333D02*
X28099104Y-21323333D01*
X28099104Y-21323333D02*
X28241961Y-21370952D01*
X28241961Y-21370952D02*
X28337200Y-21466190D01*
X28337200Y-21466190D02*
X28384819Y-21609047D01*
X28384819Y-21609047D02*
X28384819Y-21704285D01*
X27480057Y-20894761D02*
X27432438Y-20847142D01*
X27432438Y-20847142D02*
X27384819Y-20751904D01*
X27384819Y-20751904D02*
X27384819Y-20513809D01*
X27384819Y-20513809D02*
X27432438Y-20418571D01*
X27432438Y-20418571D02*
X27480057Y-20370952D01*
X27480057Y-20370952D02*
X27575295Y-20323333D01*
X27575295Y-20323333D02*
X27670533Y-20323333D01*
X27670533Y-20323333D02*
X27813390Y-20370952D01*
X27813390Y-20370952D02*
X28384819Y-20942380D01*
X28384819Y-20942380D02*
X28384819Y-20323333D01*
X80554819Y-50738094D02*
X79554819Y-50738094D01*
X79554819Y-50738094D02*
X79554819Y-50499999D01*
X79554819Y-50499999D02*
X79602438Y-50357142D01*
X79602438Y-50357142D02*
X79697676Y-50261904D01*
X79697676Y-50261904D02*
X79792914Y-50214285D01*
X79792914Y-50214285D02*
X79983390Y-50166666D01*
X79983390Y-50166666D02*
X80126247Y-50166666D01*
X80126247Y-50166666D02*
X80316723Y-50214285D01*
X80316723Y-50214285D02*
X80411961Y-50261904D01*
X80411961Y-50261904D02*
X80507200Y-50357142D01*
X80507200Y-50357142D02*
X80554819Y-50499999D01*
X80554819Y-50499999D02*
X80554819Y-50738094D01*
X79554819Y-49833332D02*
X79554819Y-49214285D01*
X79554819Y-49214285D02*
X79935771Y-49547618D01*
X79935771Y-49547618D02*
X79935771Y-49404761D01*
X79935771Y-49404761D02*
X79983390Y-49309523D01*
X79983390Y-49309523D02*
X80031009Y-49261904D01*
X80031009Y-49261904D02*
X80126247Y-49214285D01*
X80126247Y-49214285D02*
X80364342Y-49214285D01*
X80364342Y-49214285D02*
X80459580Y-49261904D01*
X80459580Y-49261904D02*
X80507200Y-49309523D01*
X80507200Y-49309523D02*
X80554819Y-49404761D01*
X80554819Y-49404761D02*
X80554819Y-49690475D01*
X80554819Y-49690475D02*
X80507200Y-49785713D01*
X80507200Y-49785713D02*
X80459580Y-49833332D01*
X85781666Y-19684819D02*
X85781666Y-20399104D01*
X85781666Y-20399104D02*
X85734047Y-20541961D01*
X85734047Y-20541961D02*
X85638809Y-20637200D01*
X85638809Y-20637200D02*
X85495952Y-20684819D01*
X85495952Y-20684819D02*
X85400714Y-20684819D01*
X86781666Y-20684819D02*
X86210238Y-20684819D01*
X86495952Y-20684819D02*
X86495952Y-19684819D01*
X86495952Y-19684819D02*
X86400714Y-19827676D01*
X86400714Y-19827676D02*
X86305476Y-19922914D01*
X86305476Y-19922914D02*
X86210238Y-19970533D01*
X38678094Y-57745180D02*
X38678094Y-56935657D01*
X38678094Y-56935657D02*
X38630475Y-56840419D01*
X38630475Y-56840419D02*
X38582856Y-56792800D01*
X38582856Y-56792800D02*
X38487618Y-56745180D01*
X38487618Y-56745180D02*
X38297142Y-56745180D01*
X38297142Y-56745180D02*
X38201904Y-56792800D01*
X38201904Y-56792800D02*
X38154285Y-56840419D01*
X38154285Y-56840419D02*
X38106666Y-56935657D01*
X38106666Y-56935657D02*
X38106666Y-57745180D01*
X37106666Y-56745180D02*
X37678094Y-56745180D01*
X37392380Y-56745180D02*
X37392380Y-57745180D01*
X37392380Y-57745180D02*
X37487618Y-57602323D01*
X37487618Y-57602323D02*
X37582856Y-57507085D01*
X37582856Y-57507085D02*
X37678094Y-57459466D01*
X36725713Y-57649942D02*
X36678094Y-57697561D01*
X36678094Y-57697561D02*
X36582856Y-57745180D01*
X36582856Y-57745180D02*
X36344761Y-57745180D01*
X36344761Y-57745180D02*
X36249523Y-57697561D01*
X36249523Y-57697561D02*
X36201904Y-57649942D01*
X36201904Y-57649942D02*
X36154285Y-57554704D01*
X36154285Y-57554704D02*
X36154285Y-57459466D01*
X36154285Y-57459466D02*
X36201904Y-57316609D01*
X36201904Y-57316609D02*
X36773332Y-56745180D01*
X36773332Y-56745180D02*
X36154285Y-56745180D01*
X71957142Y-61374819D02*
X71623809Y-60898628D01*
X71385714Y-61374819D02*
X71385714Y-60374819D01*
X71385714Y-60374819D02*
X71766666Y-60374819D01*
X71766666Y-60374819D02*
X71861904Y-60422438D01*
X71861904Y-60422438D02*
X71909523Y-60470057D01*
X71909523Y-60470057D02*
X71957142Y-60565295D01*
X71957142Y-60565295D02*
X71957142Y-60708152D01*
X71957142Y-60708152D02*
X71909523Y-60803390D01*
X71909523Y-60803390D02*
X71861904Y-60851009D01*
X71861904Y-60851009D02*
X71766666Y-60898628D01*
X71766666Y-60898628D02*
X71385714Y-60898628D01*
X72338095Y-60470057D02*
X72385714Y-60422438D01*
X72385714Y-60422438D02*
X72480952Y-60374819D01*
X72480952Y-60374819D02*
X72719047Y-60374819D01*
X72719047Y-60374819D02*
X72814285Y-60422438D01*
X72814285Y-60422438D02*
X72861904Y-60470057D01*
X72861904Y-60470057D02*
X72909523Y-60565295D01*
X72909523Y-60565295D02*
X72909523Y-60660533D01*
X72909523Y-60660533D02*
X72861904Y-60803390D01*
X72861904Y-60803390D02*
X72290476Y-61374819D01*
X72290476Y-61374819D02*
X72909523Y-61374819D01*
X73242857Y-60374819D02*
X73861904Y-60374819D01*
X73861904Y-60374819D02*
X73528571Y-60755771D01*
X73528571Y-60755771D02*
X73671428Y-60755771D01*
X73671428Y-60755771D02*
X73766666Y-60803390D01*
X73766666Y-60803390D02*
X73814285Y-60851009D01*
X73814285Y-60851009D02*
X73861904Y-60946247D01*
X73861904Y-60946247D02*
X73861904Y-61184342D01*
X73861904Y-61184342D02*
X73814285Y-61279580D01*
X73814285Y-61279580D02*
X73766666Y-61327200D01*
X73766666Y-61327200D02*
X73671428Y-61374819D01*
X73671428Y-61374819D02*
X73385714Y-61374819D01*
X73385714Y-61374819D02*
X73290476Y-61327200D01*
X73290476Y-61327200D02*
X73242857Y-61279580D01*
X79999405Y-65604819D02*
X79999405Y-66414342D01*
X79999405Y-66414342D02*
X80047024Y-66509580D01*
X80047024Y-66509580D02*
X80094643Y-66557200D01*
X80094643Y-66557200D02*
X80189881Y-66604819D01*
X80189881Y-66604819D02*
X80380357Y-66604819D01*
X80380357Y-66604819D02*
X80475595Y-66557200D01*
X80475595Y-66557200D02*
X80523214Y-66509580D01*
X80523214Y-66509580D02*
X80570833Y-66414342D01*
X80570833Y-66414342D02*
X80570833Y-65604819D01*
X81570833Y-66604819D02*
X80999405Y-66604819D01*
X81285119Y-66604819D02*
X81285119Y-65604819D01*
X81285119Y-65604819D02*
X81189881Y-65747676D01*
X81189881Y-65747676D02*
X81094643Y-65842914D01*
X81094643Y-65842914D02*
X80999405Y-65890533D01*
X82189881Y-65604819D02*
X82285119Y-65604819D01*
X82285119Y-65604819D02*
X82380357Y-65652438D01*
X82380357Y-65652438D02*
X82427976Y-65700057D01*
X82427976Y-65700057D02*
X82475595Y-65795295D01*
X82475595Y-65795295D02*
X82523214Y-65985771D01*
X82523214Y-65985771D02*
X82523214Y-66223866D01*
X82523214Y-66223866D02*
X82475595Y-66414342D01*
X82475595Y-66414342D02*
X82427976Y-66509580D01*
X82427976Y-66509580D02*
X82380357Y-66557200D01*
X82380357Y-66557200D02*
X82285119Y-66604819D01*
X82285119Y-66604819D02*
X82189881Y-66604819D01*
X82189881Y-66604819D02*
X82094643Y-66557200D01*
X82094643Y-66557200D02*
X82047024Y-66509580D01*
X82047024Y-66509580D02*
X81999405Y-66414342D01*
X81999405Y-66414342D02*
X81951786Y-66223866D01*
X81951786Y-66223866D02*
X81951786Y-65985771D01*
X81951786Y-65985771D02*
X81999405Y-65795295D01*
X81999405Y-65795295D02*
X82047024Y-65700057D01*
X82047024Y-65700057D02*
X82094643Y-65652438D01*
X82094643Y-65652438D02*
X82189881Y-65604819D01*
X66057142Y-47164819D02*
X65723809Y-46688628D01*
X65485714Y-47164819D02*
X65485714Y-46164819D01*
X65485714Y-46164819D02*
X65866666Y-46164819D01*
X65866666Y-46164819D02*
X65961904Y-46212438D01*
X65961904Y-46212438D02*
X66009523Y-46260057D01*
X66009523Y-46260057D02*
X66057142Y-46355295D01*
X66057142Y-46355295D02*
X66057142Y-46498152D01*
X66057142Y-46498152D02*
X66009523Y-46593390D01*
X66009523Y-46593390D02*
X65961904Y-46641009D01*
X65961904Y-46641009D02*
X65866666Y-46688628D01*
X65866666Y-46688628D02*
X65485714Y-46688628D01*
X66438095Y-46260057D02*
X66485714Y-46212438D01*
X66485714Y-46212438D02*
X66580952Y-46164819D01*
X66580952Y-46164819D02*
X66819047Y-46164819D01*
X66819047Y-46164819D02*
X66914285Y-46212438D01*
X66914285Y-46212438D02*
X66961904Y-46260057D01*
X66961904Y-46260057D02*
X67009523Y-46355295D01*
X67009523Y-46355295D02*
X67009523Y-46450533D01*
X67009523Y-46450533D02*
X66961904Y-46593390D01*
X66961904Y-46593390D02*
X66390476Y-47164819D01*
X66390476Y-47164819D02*
X67009523Y-47164819D01*
X67961904Y-47164819D02*
X67390476Y-47164819D01*
X67676190Y-47164819D02*
X67676190Y-46164819D01*
X67676190Y-46164819D02*
X67580952Y-46307676D01*
X67580952Y-46307676D02*
X67485714Y-46402914D01*
X67485714Y-46402914D02*
X67390476Y-46450533D01*
D11*
%TO.C,R10*%
X21904936Y-66304000D02*
X23359064Y-66304000D01*
X21904936Y-68124000D02*
X23359064Y-68124000D01*
%TO.C,R11*%
X21904936Y-69194000D02*
X23359064Y-69194000D01*
X21904936Y-71014000D02*
X23359064Y-71014000D01*
%TO.C,U8*%
X36010001Y-71145001D02*
G75*
G02*
X34009999Y-71145001I-1000001J0D01*
G01*
X37660000Y-78885001D02*
X37660000Y-71145001D01*
X37660000Y-71145001D02*
X36010001Y-71145001D01*
X34010000Y-71145001D02*
X32360000Y-71145001D01*
X32359999Y-78885001D02*
X37660000Y-78885001D01*
X32360000Y-71145001D02*
X32359999Y-78885001D01*
%TO.C,U2*%
X51010001Y-71145001D02*
G75*
G02*
X49009999Y-71145001I-1000001J0D01*
G01*
X52660000Y-78885001D02*
X52660000Y-71145001D01*
X52660000Y-71145001D02*
X51010001Y-71145001D01*
X49010000Y-71145001D02*
X47360000Y-71145001D01*
X47359999Y-78885001D02*
X52660000Y-78885001D01*
X47360000Y-71145001D02*
X47359999Y-78885001D01*
%TO.C,U13*%
X50305000Y-46360000D02*
X45105000Y-46360000D01*
X45105000Y-46360000D02*
X45105000Y-51660000D01*
X50305000Y-48010000D02*
X50305000Y-46360000D01*
X50305000Y-51660000D02*
X50305000Y-50010001D01*
X45105000Y-51660000D02*
X50305000Y-51660000D01*
X50305000Y-50010001D02*
G75*
G02*
X50305000Y-48009999I0J1000001D01*
G01*
%TO.C,U11*%
X81400000Y-60360001D02*
X82200000Y-60360000D01*
X81400000Y-60360001D02*
X80600000Y-60360000D01*
X81400000Y-57239999D02*
X82200000Y-57240000D01*
X81400000Y-57239999D02*
X80600000Y-57240000D01*
X82940000Y-60640000D02*
X82460000Y-60640000D01*
X82700000Y-60310000D01*
X82940000Y-60640000D01*
G36*
X82940000Y-60640000D02*
G01*
X82460000Y-60640000D01*
X82700000Y-60310000D01*
X82940000Y-60640000D01*
G37*
%TO.C,U9*%
X36940000Y-66055000D02*
X36940001Y-58315000D01*
X36940001Y-58315000D02*
X31640000Y-58315000D01*
X35290000Y-66055000D02*
X36940000Y-66055000D01*
X31640000Y-66055000D02*
X33289999Y-66055000D01*
X31640000Y-58315000D02*
X31640000Y-66055000D01*
X33289999Y-66055000D02*
G75*
G02*
X35290001Y-66055000I1000001J0D01*
G01*
%TO.C,U7*%
X45595001Y-31240000D02*
X50795001Y-31240000D01*
X50795001Y-31240000D02*
X50795001Y-25940000D01*
X45595001Y-29590000D02*
X45595001Y-31240000D01*
X45595001Y-25940000D02*
X45595001Y-27589999D01*
X50795001Y-25940000D02*
X45595001Y-25940000D01*
X45595001Y-27589999D02*
G75*
G02*
X45595001Y-29590001I0J-1000001D01*
G01*
%TO.C,U4*%
X59089999Y-66850000D02*
X59090000Y-63090000D01*
X65910001Y-66850000D02*
X65910000Y-63090000D01*
X59090000Y-63090000D02*
X60349999Y-63090000D01*
X65910000Y-63090000D02*
X64650001Y-63090000D01*
X59190000Y-68130000D02*
X58860000Y-68370000D01*
X58860000Y-67890000D01*
X59190000Y-68130000D01*
G36*
X59190000Y-68130000D02*
G01*
X58860000Y-68370000D01*
X58860000Y-67890000D01*
X59190000Y-68130000D01*
G37*
%TO.C,SW2*%
X19816000Y-83782000D02*
X19816000Y-85282000D01*
X21066000Y-87782000D02*
X25566000Y-87782000D01*
X25566000Y-81282000D02*
X21066000Y-81282000D01*
X26816000Y-85282000D02*
X26816000Y-83782000D01*
%TO.C,SW1*%
X19816000Y-75232000D02*
X19816000Y-76732000D01*
X21066000Y-79232000D02*
X25566000Y-79232000D01*
X25566000Y-72732000D02*
X21066000Y-72732000D01*
X26816000Y-76732000D02*
X26816000Y-75232000D01*
%TO.C,R24*%
X65722936Y-54490000D02*
X67177064Y-54490000D01*
X65722936Y-56310000D02*
X67177064Y-56310000D01*
%TO.C,R22*%
X73327064Y-57110000D02*
X71872936Y-57110000D01*
X73327064Y-55290000D02*
X71872936Y-55290000D01*
%TO.C,R20*%
X71872936Y-43990000D02*
X73327064Y-43990000D01*
X71872936Y-45810000D02*
X73327064Y-45810000D01*
%TO.C,R18*%
X42710000Y-76327064D02*
X42710000Y-74872936D01*
X40890000Y-76327064D02*
X40890000Y-74872936D01*
%TO.C,R17*%
X71872936Y-49590000D02*
X73327064Y-49590000D01*
X71872936Y-51410000D02*
X73327064Y-51410000D01*
%TO.C,R15*%
X73327064Y-48510000D02*
X71872936Y-48510000D01*
X73327064Y-46690000D02*
X71872936Y-46690000D01*
%TO.C,R14*%
X53490000Y-34827064D02*
X53490000Y-33372936D01*
X55310000Y-34827064D02*
X55310000Y-33372936D01*
%TO.C,R12*%
X49190000Y-37527064D02*
X49190000Y-36072936D01*
X51010000Y-37527064D02*
X51010000Y-36072936D01*
%TO.C,R9*%
X67110000Y-23672936D02*
X67110000Y-25127064D01*
X65290000Y-23672936D02*
X65290000Y-25127064D01*
%TO.C,R6*%
X41490000Y-52227064D02*
X41490000Y-50772936D01*
X43310000Y-52227064D02*
X43310000Y-50772936D01*
%TO.C,R5*%
X55790000Y-75127064D02*
X55790000Y-73672936D01*
X57610000Y-75127064D02*
X57610000Y-73672936D01*
%TO.C,R4*%
X65872936Y-52190000D02*
X67327064Y-52190000D01*
X65872936Y-54010000D02*
X67327064Y-54010000D01*
%TO.C,R3*%
X71872936Y-41290000D02*
X73327064Y-41290000D01*
X71872936Y-43110000D02*
X73327064Y-43110000D01*
%TO.C,R2*%
X71872936Y-52190000D02*
X73327064Y-52190000D01*
X71872936Y-54010000D02*
X73327064Y-54010000D01*
%TO.C,R1*%
X70110000Y-23672936D02*
X70110000Y-25127064D01*
X68290000Y-23672936D02*
X68290000Y-25127064D01*
%TO.C,Q8*%
X71690000Y-23660000D02*
X72850000Y-23660000D01*
X71690000Y-23660000D02*
X71690000Y-23350000D01*
X71690000Y-21740000D02*
X72850000Y-21740000D01*
X71690000Y-21740000D02*
X71690000Y-22050000D01*
D10*
X73575000Y-23200000D02*
G75*
G02*
X73425000Y-23200000I-75000J0D01*
G01*
X73425000Y-23200000D02*
G75*
G02*
X73575000Y-23200000I75000J0D01*
G01*
D11*
%TO.C,Q7*%
X61970000Y-30470000D02*
X61970000Y-30200000D01*
X61970000Y-23570000D02*
X61970000Y-23840000D01*
X55550000Y-30469999D02*
X61970000Y-30470000D01*
X55550000Y-23570001D02*
X61970000Y-23570000D01*
X63630000Y-30490000D02*
X63150000Y-30490000D01*
X63390000Y-30160000D01*
X63630000Y-30490000D01*
G36*
X63630000Y-30490000D02*
G01*
X63150000Y-30490000D01*
X63390000Y-30160000D01*
X63630000Y-30490000D01*
G37*
%TO.C,Q6*%
X77960000Y-43710000D02*
X77960000Y-42550000D01*
X77960000Y-43710000D02*
X77650000Y-43710000D01*
X76040000Y-43710000D02*
X76040000Y-42550000D01*
X76040000Y-43710000D02*
X76350000Y-43710000D01*
D10*
X77575000Y-41900000D02*
G75*
G02*
X77425000Y-41900000I-75000J0D01*
G01*
X77425000Y-41900000D02*
G75*
G02*
X77575000Y-41900000I75000J0D01*
G01*
D11*
%TO.C,Q4*%
X31340000Y-89990000D02*
X31010000Y-90230000D01*
X31010000Y-89750000D01*
X31340000Y-89990000D01*
G36*
X31340000Y-89990000D02*
G01*
X31010000Y-90230000D01*
X31010000Y-89750000D01*
X31340000Y-89990000D01*
G37*
X37929999Y-82150000D02*
X37930000Y-88570000D01*
X31030001Y-82150000D02*
X31030000Y-88570000D01*
X37930000Y-88570000D02*
X37660000Y-88570000D01*
X31030000Y-88570000D02*
X31300000Y-88570000D01*
%TO.C,Q3*%
X78760001Y-51962499D02*
X78760000Y-51312499D01*
X78760001Y-51962499D02*
X78760000Y-52612499D01*
X75639999Y-51962499D02*
X75640000Y-51312499D01*
X75639999Y-51962499D02*
X75640000Y-52612499D01*
X79039999Y-51039999D02*
X78710000Y-50799999D01*
X79040000Y-50559999D01*
X79039999Y-51039999D01*
G36*
X79039999Y-51039999D02*
G01*
X78710000Y-50799999D01*
X79040000Y-50559999D01*
X79039999Y-51039999D01*
G37*
%TO.C,Q2*%
X66815001Y-38060001D02*
X66575001Y-38390000D01*
X66335001Y-38060000D01*
X66815001Y-38060001D01*
G36*
X66815001Y-38060001D02*
G01*
X66575001Y-38390000D01*
X66335001Y-38060000D01*
X66815001Y-38060001D01*
G37*
X67737501Y-41460001D02*
X68387501Y-41460000D01*
X67737501Y-41460001D02*
X67087501Y-41460000D01*
X67737501Y-38339999D02*
X68387501Y-38340000D01*
X67737501Y-38339999D02*
X67087501Y-38340000D01*
%TO.C,Q1*%
X45652500Y-88570000D02*
X45922500Y-88570000D01*
X52552500Y-88570000D02*
X52282500Y-88570000D01*
X45652501Y-82150000D02*
X45652500Y-88570000D01*
X52552499Y-82150000D02*
X52552500Y-88570000D01*
X45962500Y-89990000D02*
X45632500Y-90230000D01*
X45632500Y-89750000D01*
X45962500Y-89990000D01*
G36*
X45962500Y-89990000D02*
G01*
X45632500Y-90230000D01*
X45632500Y-89750000D01*
X45962500Y-89990000D01*
G37*
%TO.C,JP1*%
X52305000Y-66970000D02*
X52305000Y-68300000D01*
X50975000Y-66970000D02*
X52305000Y-66970000D01*
X49704999Y-66970000D02*
X47105000Y-66970000D01*
X49704999Y-66970000D02*
X49704999Y-69630000D01*
X47105000Y-66970000D02*
X47105000Y-69630000D01*
X49704999Y-69630000D02*
X47105000Y-69630000D01*
%TO.C,J5*%
X54550000Y-107010000D02*
X53960000Y-107010000D01*
X54550000Y-104790000D02*
X53960000Y-104790000D01*
X53960000Y-109110000D02*
X53960000Y-107010000D01*
X53960000Y-109110000D02*
X43840000Y-109110000D01*
X53960000Y-104790000D02*
X53960000Y-99890000D01*
X53960000Y-99890000D02*
X43840001Y-99890000D01*
X43840000Y-109110000D02*
X43840000Y-107010000D01*
X43840000Y-107010000D02*
X43250000Y-107010000D01*
X43840000Y-104790000D02*
X43840001Y-99890000D01*
X43840000Y-104790000D02*
X43250000Y-104790000D01*
X54550000Y-104790000D02*
G75*
G02*
X54550000Y-107010000I0J-1110000D01*
G01*
X43250000Y-107010000D02*
G75*
G02*
X43250000Y-104790000I0J1110000D01*
G01*
%TO.C,J4*%
X40250000Y-107010000D02*
X39660000Y-107010000D01*
X40250000Y-104790000D02*
X39660000Y-104790000D01*
X39660000Y-109110000D02*
X39660000Y-107010000D01*
X39660000Y-109110000D02*
X29540000Y-109110000D01*
X39660000Y-104790000D02*
X39660000Y-99890000D01*
X39660000Y-99890000D02*
X29540001Y-99890000D01*
X29540000Y-109110000D02*
X29540000Y-107010000D01*
X29540000Y-107010000D02*
X28950000Y-107010000D01*
X29540000Y-104790000D02*
X29540001Y-99890000D01*
X29540000Y-104790000D02*
X28950000Y-104790000D01*
X40250000Y-104790000D02*
G75*
G02*
X40250000Y-107010000I0J-1110000D01*
G01*
X28950000Y-107010000D02*
G75*
G02*
X28950000Y-104790000I0J1110000D01*
G01*
%TO.C,J3*%
X68850000Y-107010000D02*
X68260000Y-107010000D01*
X68850000Y-104790000D02*
X68260000Y-104790000D01*
X68260000Y-109110000D02*
X68260000Y-107010000D01*
X68260000Y-109110000D02*
X58140000Y-109110000D01*
X68260000Y-104790000D02*
X68260000Y-99890000D01*
X68260000Y-99890000D02*
X58140001Y-99890000D01*
X58140000Y-109110000D02*
X58140000Y-107010000D01*
X58140000Y-107010000D02*
X57550000Y-107010000D01*
X58140000Y-104790000D02*
X58140001Y-99890000D01*
X58140000Y-104790000D02*
X57550000Y-104790000D01*
X68850000Y-104790000D02*
G75*
G02*
X68850000Y-107010000I0J-1110000D01*
G01*
X57550000Y-107010000D02*
G75*
G02*
X57550000Y-104790000I0J1110000D01*
G01*
%TO.C,J2*%
X28930000Y-26645000D02*
X28929999Y-25375000D01*
X30200000Y-26645001D02*
X28930000Y-26645000D01*
X32360000Y-24332071D02*
X32360000Y-23935000D01*
X33120000Y-24332071D02*
X33120000Y-23935000D01*
X34900000Y-24332071D02*
X34900000Y-23935000D01*
X35660000Y-24332071D02*
X35660000Y-23935000D01*
X37440000Y-24332071D02*
X37440000Y-23935000D01*
X38200000Y-24332071D02*
X38200000Y-23935000D01*
X29820000Y-24265000D02*
X29820000Y-23935000D01*
X30580000Y-24265000D02*
X30580000Y-23935000D01*
X28870000Y-23935000D02*
X39150000Y-23935000D01*
X31470000Y-23935000D02*
X31470000Y-21275000D01*
X34010000Y-23935000D02*
X34010000Y-21275000D01*
X36550000Y-23935000D02*
X36550000Y-21275000D01*
X39150000Y-23935000D02*
X39150000Y-21275000D01*
X28870000Y-21275000D02*
X28870000Y-23935000D01*
X29820000Y-21275000D02*
X29820000Y-15275000D01*
X29880000Y-21275000D02*
X29880000Y-15275000D01*
X30000000Y-21275000D02*
X30000000Y-15275000D01*
X30120000Y-21275000D02*
X30120000Y-15275000D01*
X30240000Y-21275000D02*
X30240000Y-15275000D01*
X30360000Y-21275000D02*
X30360001Y-15275000D01*
X30480000Y-21275000D02*
X30479999Y-15275000D01*
X32360000Y-21275000D02*
X32360000Y-15275000D01*
X34900000Y-21275000D02*
X34899999Y-15275000D01*
X37440000Y-21275000D02*
X37440001Y-15275000D01*
X39150000Y-21275000D02*
X28870000Y-21275000D01*
X29820000Y-15275000D02*
X30580000Y-15275000D01*
X30580000Y-15275000D02*
X30580000Y-21275000D01*
X32360000Y-15275000D02*
X33120000Y-15275000D01*
X33120000Y-15275000D02*
X33120000Y-21275000D01*
X34899999Y-15275000D02*
X35660001Y-15275000D01*
X35660001Y-15275000D02*
X35660000Y-21275000D01*
X37440001Y-15275000D02*
X38200000Y-15275000D01*
X38200000Y-15275000D02*
X38200000Y-21275000D01*
%TO.C,D3*%
X80950000Y-53510000D02*
X84250000Y-53510000D01*
X80950000Y-53510000D02*
X80950000Y-48000000D01*
X84250000Y-53510000D02*
X84250000Y-48000000D01*
%TO.C,J1*%
X93100000Y-40660000D02*
X87100000Y-40660000D01*
X93100000Y-39900000D02*
X93100000Y-40660000D01*
X93100000Y-38120000D02*
X87100000Y-38120000D01*
X93100000Y-37360000D02*
X93100000Y-38120000D01*
X93100000Y-35580000D02*
X87100000Y-35580000D01*
X93100000Y-34820000D02*
X93100000Y-35580000D01*
X93100000Y-33040000D02*
X87100001Y-33040000D01*
X93100000Y-32280000D02*
X93100000Y-33040000D01*
X93100000Y-30500000D02*
X87100000Y-30500000D01*
X93100000Y-29740000D02*
X93100000Y-30500000D01*
X93100000Y-27960000D02*
X87100000Y-27960000D01*
X93100000Y-27200000D02*
X93100000Y-27960000D01*
X93100000Y-25420000D02*
X87100000Y-25420000D01*
X93100000Y-24660000D02*
X93100000Y-25420000D01*
X93100000Y-22880000D02*
X87100000Y-22880001D01*
X93100000Y-22120000D02*
X93100000Y-22880000D01*
X87100000Y-41610001D02*
X87100000Y-21170000D01*
X87100000Y-39900000D02*
X93100000Y-39900000D01*
X87100000Y-37360000D02*
X93100000Y-37360000D01*
X87100000Y-34820001D02*
X93100000Y-34820000D01*
X87100000Y-32280000D02*
X93100000Y-32280000D01*
X87100000Y-29740000D02*
X93100000Y-29740000D01*
X87100000Y-27200000D02*
X93100000Y-27200000D01*
X87100000Y-24660000D02*
X93100000Y-24660000D01*
X87100000Y-22780000D02*
X93100000Y-22780000D01*
X87100000Y-22660000D02*
X93100000Y-22660000D01*
X87100000Y-22540000D02*
X93100000Y-22540000D01*
X87100000Y-22419999D02*
X93100000Y-22420000D01*
X87100000Y-22300001D02*
X93100000Y-22300000D01*
X87100000Y-22180000D02*
X93100000Y-22180000D01*
X87100000Y-22119999D02*
X93100000Y-22120000D01*
X87100000Y-21170000D02*
X84440000Y-21170000D01*
X84440000Y-41610001D02*
X87100000Y-41610001D01*
X84440000Y-39010000D02*
X87100000Y-39010000D01*
X84440000Y-36470000D02*
X87100000Y-36470000D01*
X84439999Y-33930000D02*
X87100001Y-33930000D01*
X84440000Y-31390000D02*
X87100000Y-31390000D01*
X84440000Y-28850000D02*
X87100000Y-28850000D01*
X84440000Y-26310000D02*
X87100000Y-26310000D01*
X84440000Y-23770001D02*
X87100000Y-23770001D01*
X84440000Y-21170000D02*
X84440000Y-41610001D01*
X84042929Y-40660001D02*
X84440000Y-40660000D01*
X84042928Y-39900000D02*
X84440000Y-39900000D01*
X84042928Y-38120000D02*
X84440000Y-38120000D01*
X84042929Y-37360000D02*
X84440000Y-37360000D01*
X84042929Y-35580000D02*
X84440000Y-35580000D01*
X84042929Y-34820000D02*
X84440000Y-34820001D01*
X84042929Y-33040000D02*
X84440000Y-33039999D01*
X84042929Y-32280000D02*
X84440000Y-32280000D01*
X84042929Y-30500000D02*
X84440000Y-30500000D01*
X84042928Y-29740000D02*
X84440000Y-29740000D01*
X84042928Y-27960000D02*
X84440000Y-27960000D01*
X84042929Y-27199999D02*
X84440000Y-27200000D01*
X84042929Y-25420000D02*
X84440000Y-25420000D01*
X84042929Y-24660000D02*
X84440000Y-24660000D01*
X84042929Y-22880000D02*
X84440000Y-22880001D01*
X84042929Y-22120000D02*
X84440000Y-22119999D01*
X81570000Y-22880000D02*
X81957071Y-22880001D01*
X81570000Y-22120000D02*
X81957071Y-22119999D01*
X81502929Y-40660000D02*
X81957071Y-40660000D01*
X81502929Y-39900000D02*
X81957071Y-39900000D01*
X81502929Y-38120000D02*
X81957071Y-38120000D01*
X81502929Y-37360000D02*
X81957071Y-37360000D01*
X81502929Y-35580000D02*
X81957071Y-35580000D01*
X81502929Y-34820000D02*
X81957072Y-34820000D01*
X81502929Y-33040000D02*
X81957072Y-33040000D01*
X81502929Y-32280000D02*
X81957071Y-32280000D01*
X81502929Y-30500000D02*
X81957071Y-30500000D01*
X81502929Y-29740000D02*
X81957071Y-29740000D01*
X81502929Y-27960000D02*
X81957071Y-27960000D01*
X81502929Y-27200000D02*
X81957071Y-27200000D01*
X81502929Y-25420000D02*
X81957071Y-25420000D01*
X81502929Y-24660000D02*
X81957071Y-24660000D01*
X79189999Y-22500000D02*
X79190000Y-21230000D01*
X79190000Y-21230000D02*
X80460000Y-21229999D01*
%TO.C,U12*%
X13140000Y-55900000D02*
X19340000Y-55900000D01*
X13140000Y-55900000D02*
X13140000Y-37500000D01*
X37990000Y-55899999D02*
X38990000Y-55900000D01*
X38990000Y-55900000D02*
X38990000Y-54400000D01*
X13140000Y-37500000D02*
X19340000Y-37500000D01*
X38990000Y-37500000D02*
X38990000Y-39000000D01*
X38990000Y-37500000D02*
X37990000Y-37500001D01*
X20015000Y-56400000D02*
X19515000Y-55900000D01*
X20015000Y-55900000D01*
X20015000Y-56400000D01*
G36*
X20015000Y-56400000D02*
G01*
X19515000Y-55900000D01*
X20015000Y-55900000D01*
X20015000Y-56400000D01*
G37*
%TO.C,R23*%
X73327064Y-60010000D02*
X71872936Y-60010000D01*
X73327064Y-58190000D02*
X71872936Y-58190000D01*
%TO.C,U10*%
X81237500Y-65310001D02*
X82037500Y-65310000D01*
X81237500Y-65310001D02*
X80437500Y-65310000D01*
X81237500Y-62189999D02*
X82037500Y-62190000D01*
X81237500Y-62189999D02*
X80437500Y-62190000D01*
X82777500Y-65590000D02*
X82297500Y-65590000D01*
X82537500Y-65260000D01*
X82777500Y-65590000D01*
G36*
X82777500Y-65590000D02*
G01*
X82297500Y-65590000D01*
X82537500Y-65260000D01*
X82777500Y-65590000D01*
G37*
%TO.C,R21*%
X67427064Y-43980000D02*
X65972936Y-43980000D01*
X67427064Y-45800000D02*
X65972936Y-45800000D01*
%TD*%
M02*
