%TF.GenerationSoftware,KiCad,Pcbnew,8.0.6*%
%TF.CreationDate,2025-05-10T04:30:44+07:00*%
%TF.ProjectId,FCU32 2 LAYER,46435533-3220-4322-904c-415945522e6b,rev?*%
%TF.SameCoordinates,Original*%
%TF.FileFunction,Soldermask,Bot*%
%TF.FilePolarity,Negative*%
%FSLAX46Y46*%
G04 Gerber Fmt 4.6, Leading zero omitted, Abs format (unit mm)*
G04 Created by KiCad (PCBNEW 8.0.6) date 2025-05-10 04:30:44*
%MOMM*%
%LPD*%
G01*
G04 APERTURE LIST*
G04 Aperture macros list*
%AMRoundRect*
0 Rectangle with rounded corners*
0 $1 Rounding radius*
0 $2 $3 $4 $5 $6 $7 $8 $9 X,Y pos of 4 corners*
0 Add a 4 corners polygon primitive as box body*
4,1,4,$2,$3,$4,$5,$6,$7,$8,$9,$2,$3,0*
0 Add four circle primitives for the rounded corners*
1,1,$1+$1,$2,$3*
1,1,$1+$1,$4,$5*
1,1,$1+$1,$6,$7*
1,1,$1+$1,$8,$9*
0 Add four rect primitives between the rounded corners*
20,1,$1+$1,$2,$3,$4,$5,0*
20,1,$1+$1,$4,$5,$6,$7,0*
20,1,$1+$1,$6,$7,$8,$9,0*
20,1,$1+$1,$8,$9,$2,$3,0*%
G04 Aperture macros list end*
%ADD10O,1.600000X1.600000*%
%ADD11R,1.600000X1.600000*%
%ADD12C,2.000000*%
%ADD13RoundRect,0.250000X-0.625000X0.400000X-0.625000X-0.400000X0.625000X-0.400000X0.625000X0.400000X0*%
%ADD14R,1.700000X1.700000*%
%ADD15O,1.700000X1.700000*%
%ADD16C,1.400000*%
%ADD17RoundRect,0.770000X0.980000X0.980000X-0.980000X0.980000X-0.980000X-0.980000X0.980000X-0.980000X0*%
%ADD18C,3.500000*%
%ADD19RoundRect,0.250000X1.000000X0.650000X-1.000000X0.650000X-1.000000X-0.650000X1.000000X-0.650000X0*%
G04 APERTURE END LIST*
D10*
%TO.C,U8*%
X38820000Y-72475001D03*
X38820000Y-75015001D03*
X38820000Y-77555001D03*
X31200000Y-77555000D03*
X31200000Y-75015001D03*
D11*
X31200000Y-72475001D03*
%TD*%
D10*
%TO.C,U2*%
X53820000Y-72475001D03*
X53820000Y-75015001D03*
X53820000Y-77555001D03*
X46200000Y-77555000D03*
X46200000Y-75015001D03*
D11*
X46200000Y-72475001D03*
%TD*%
%TO.C,U13*%
X48975000Y-45200000D03*
D10*
X46435000Y-45200000D03*
X46435000Y-52820000D03*
X48975000Y-52820000D03*
%TD*%
D11*
%TO.C,U9*%
X38100000Y-64725000D03*
D10*
X38100000Y-62185000D03*
X38100000Y-59645001D03*
X30480000Y-59645000D03*
X30480000Y-62185000D03*
X30480000Y-64725000D03*
%TD*%
D11*
%TO.C,U7*%
X46925001Y-32400000D03*
D10*
X49465001Y-32400000D03*
X49465001Y-24780000D03*
X46925001Y-24780000D03*
%TD*%
D12*
%TO.C,SW2*%
X20066000Y-82282000D03*
X26566000Y-82282000D03*
X20066000Y-86782000D03*
X26566000Y-86782000D03*
%TD*%
%TO.C,SW1*%
X20066000Y-73732000D03*
X26566000Y-73732000D03*
X20066000Y-78232000D03*
X26566000Y-78232000D03*
%TD*%
D13*
%TO.C,R19*%
X36300000Y-78050001D03*
X36300000Y-74949999D03*
%TD*%
%TO.C,R16*%
X33900000Y-71749999D03*
X33900000Y-74850001D03*
%TD*%
%TO.C,R8*%
X48800000Y-71899999D03*
X48800000Y-75000001D03*
%TD*%
%TO.C,R7*%
X51500000Y-75449999D03*
X51500000Y-78550001D03*
%TD*%
D14*
%TO.C,JP1*%
X50975000Y-68300000D03*
D15*
X48435000Y-68300000D03*
%TD*%
D16*
%TO.C,J5*%
X54400000Y-105900000D03*
X43400000Y-105900000D03*
D17*
X46400000Y-95900000D03*
D18*
X51400000Y-95900000D03*
%TD*%
D16*
%TO.C,J4*%
X40100000Y-105900000D03*
X29100000Y-105900000D03*
D17*
X32100000Y-95900000D03*
D18*
X37100000Y-95900000D03*
%TD*%
D16*
%TO.C,J3*%
X68700000Y-105900000D03*
X57700000Y-105900000D03*
D17*
X60700000Y-95900000D03*
D18*
X65700000Y-95900000D03*
%TD*%
D14*
%TO.C,J2*%
X30200000Y-25375000D03*
D15*
X32740000Y-25375000D03*
X35279999Y-25375000D03*
X37820000Y-25375000D03*
%TD*%
D19*
%TO.C,D5*%
X50900000Y-100000000D03*
X46900000Y-100000000D03*
%TD*%
%TO.C,D4*%
X36600000Y-100000000D03*
X32600000Y-100000000D03*
%TD*%
%TO.C,D1*%
X70100001Y-74200000D03*
X66099999Y-74200000D03*
%TD*%
D15*
%TO.C,J1*%
X83000000Y-40280000D03*
X80460000Y-40280001D03*
X83000000Y-37740000D03*
X80460000Y-37740000D03*
X83000000Y-35200000D03*
X80460000Y-35200000D03*
X83000000Y-32660000D03*
X80460000Y-32660000D03*
X83000000Y-30120000D03*
X80460000Y-30120000D03*
X83000000Y-27580000D03*
X80460000Y-27579999D03*
X83000000Y-25040000D03*
X80460000Y-25040000D03*
X83000000Y-22500000D03*
D14*
X80460000Y-22500000D03*
%TD*%
M02*
