%TF.GenerationSoftware,KiCad,Pcbnew,8.0.6*%
%TF.CreationDate,2025-05-10T04:30:44+07:00*%
%TF.ProjectId,FCU32 2 LAYER,46435533-3220-4322-904c-415945522e6b,rev?*%
%TF.SameCoordinates,Original*%
%TF.FileFunction,Copper,L1,Top*%
%TF.FilePolarity,Positive*%
%FSLAX46Y46*%
G04 Gerber Fmt 4.6, Leading zero omitted, Abs format (unit mm)*
G04 Created by KiCad (PCBNEW 8.0.6) date 2025-05-10 04:30:44*
%MOMM*%
%LPD*%
G01*
G04 APERTURE LIST*
G04 Aperture macros list*
%AMRoundRect*
0 Rectangle with rounded corners*
0 $1 Rounding radius*
0 $2 $3 $4 $5 $6 $7 $8 $9 X,Y pos of 4 corners*
0 Add a 4 corners polygon primitive as box body*
4,1,4,$2,$3,$4,$5,$6,$7,$8,$9,$2,$3,0*
0 Add four circle primitives for the rounded corners*
1,1,$1+$1,$2,$3*
1,1,$1+$1,$4,$5*
1,1,$1+$1,$6,$7*
1,1,$1+$1,$8,$9*
0 Add four rect primitives between the rounded corners*
20,1,$1+$1,$2,$3,$4,$5,0*
20,1,$1+$1,$4,$5,$6,$7,0*
20,1,$1+$1,$6,$7,$8,$9,0*
20,1,$1+$1,$8,$9,$2,$3,0*%
G04 Aperture macros list end*
%TA.AperFunction,Conductor*%
%ADD10C,0.200000*%
%TD*%
%TA.AperFunction,SMDPad,CuDef*%
%ADD11RoundRect,0.250000X-0.400000X-0.625000X0.400000X-0.625000X0.400000X0.625000X-0.400000X0.625000X0*%
%TD*%
%TA.AperFunction,ComponentPad*%
%ADD12O,1.600000X1.600000*%
%TD*%
%TA.AperFunction,ComponentPad*%
%ADD13R,1.600000X1.600000*%
%TD*%
%TA.AperFunction,SMDPad,CuDef*%
%ADD14RoundRect,0.150000X0.512500X0.150000X-0.512500X0.150000X-0.512500X-0.150000X0.512500X-0.150000X0*%
%TD*%
%TA.AperFunction,SMDPad,CuDef*%
%ADD15RoundRect,0.375000X0.375000X-0.625000X0.375000X0.625000X-0.375000X0.625000X-0.375000X-0.625000X0*%
%TD*%
%TA.AperFunction,SMDPad,CuDef*%
%ADD16RoundRect,0.500000X1.400000X-0.500000X1.400000X0.500000X-1.400000X0.500000X-1.400000X-0.500000X0*%
%TD*%
%TA.AperFunction,ComponentPad*%
%ADD17C,2.000000*%
%TD*%
%TA.AperFunction,SMDPad,CuDef*%
%ADD18RoundRect,0.250000X0.400000X0.625000X-0.400000X0.625000X-0.400000X-0.625000X0.400000X-0.625000X0*%
%TD*%
%TA.AperFunction,SMDPad,CuDef*%
%ADD19RoundRect,0.250000X0.625000X-0.400000X0.625000X0.400000X-0.625000X0.400000X-0.625000X-0.400000X0*%
%TD*%
%TA.AperFunction,SMDPad,CuDef*%
%ADD20RoundRect,0.250000X-0.625000X0.400000X-0.625000X-0.400000X0.625000X-0.400000X0.625000X0.400000X0*%
%TD*%
%TA.AperFunction,SMDPad,CuDef*%
%ADD21RoundRect,0.125000X0.175000X0.125000X-0.175000X0.125000X-0.175000X-0.125000X0.175000X-0.125000X0*%
%TD*%
%TA.AperFunction,SMDPad,CuDef*%
%ADD22RoundRect,0.250000X0.850000X0.350000X-0.850000X0.350000X-0.850000X-0.350000X0.850000X-0.350000X0*%
%TD*%
%TA.AperFunction,SMDPad,CuDef*%
%ADD23RoundRect,0.250000X1.275000X1.125000X-1.275000X1.125000X-1.275000X-1.125000X1.275000X-1.125000X0*%
%TD*%
%TA.AperFunction,SMDPad,CuDef*%
%ADD24RoundRect,0.249997X2.950003X2.650003X-2.950003X2.650003X-2.950003X-2.650003X2.950003X-2.650003X0*%
%TD*%
%TA.AperFunction,SMDPad,CuDef*%
%ADD25RoundRect,0.125000X-0.125000X0.175000X-0.125000X-0.175000X0.125000X-0.175000X0.125000X0.175000X0*%
%TD*%
%TA.AperFunction,SMDPad,CuDef*%
%ADD26RoundRect,0.250000X0.350000X-0.850000X0.350000X0.850000X-0.350000X0.850000X-0.350000X-0.850000X0*%
%TD*%
%TA.AperFunction,SMDPad,CuDef*%
%ADD27RoundRect,0.250000X1.125000X-1.275000X1.125000X1.275000X-1.125000X1.275000X-1.125000X-1.275000X0*%
%TD*%
%TA.AperFunction,SMDPad,CuDef*%
%ADD28RoundRect,0.249997X2.650003X-2.950003X2.650003X2.950003X-2.650003X2.950003X-2.650003X-2.950003X0*%
%TD*%
%TA.AperFunction,SMDPad,CuDef*%
%ADD29RoundRect,0.150000X-0.150000X0.587500X-0.150000X-0.587500X0.150000X-0.587500X0.150000X0.587500X0*%
%TD*%
%TA.AperFunction,SMDPad,CuDef*%
%ADD30RoundRect,0.150000X-0.587500X-0.150000X0.587500X-0.150000X0.587500X0.150000X-0.587500X0.150000X0*%
%TD*%
%TA.AperFunction,ComponentPad*%
%ADD31R,1.700000X1.700000*%
%TD*%
%TA.AperFunction,ComponentPad*%
%ADD32O,1.700000X1.700000*%
%TD*%
%TA.AperFunction,ComponentPad*%
%ADD33C,1.400000*%
%TD*%
%TA.AperFunction,ComponentPad*%
%ADD34RoundRect,0.770000X0.980000X0.980000X-0.980000X0.980000X-0.980000X-0.980000X0.980000X-0.980000X0*%
%TD*%
%TA.AperFunction,ComponentPad*%
%ADD35C,3.500000*%
%TD*%
%TA.AperFunction,SMDPad,CuDef*%
%ADD36RoundRect,0.250000X0.650000X-1.000000X0.650000X1.000000X-0.650000X1.000000X-0.650000X-1.000000X0*%
%TD*%
%TA.AperFunction,SMDPad,CuDef*%
%ADD37R,0.900000X1.500000*%
%TD*%
%TA.AperFunction,SMDPad,CuDef*%
%ADD38R,1.500000X0.900000*%
%TD*%
%TA.AperFunction,HeatsinkPad*%
%ADD39C,0.600000*%
%TD*%
%TA.AperFunction,SMDPad,CuDef*%
%ADD40R,3.900000X3.900000*%
%TD*%
%TA.AperFunction,ViaPad*%
%ADD41C,1.000000*%
%TD*%
%TA.AperFunction,ViaPad*%
%ADD42C,0.600000*%
%TD*%
%TA.AperFunction,Conductor*%
%ADD43C,0.300000*%
%TD*%
%TA.AperFunction,Conductor*%
%ADD44C,0.500000*%
%TD*%
%TA.AperFunction,Conductor*%
%ADD45C,5.000000*%
%TD*%
G04 APERTURE END LIST*
%TO.N,GND*%
D10*
X58100000Y-93400000D02*
X62900000Y-93400000D01*
X62900000Y-98500000D01*
X58100000Y-98500000D01*
X58100000Y-93400000D01*
%TA.AperFunction,Conductor*%
G36*
X58100000Y-93400000D02*
G01*
X62900000Y-93400000D01*
X62900000Y-98500000D01*
X58100000Y-98500000D01*
X58100000Y-93400000D01*
G37*
%TD.AperFunction*%
X35600000Y-88600000D02*
X38300000Y-88600000D01*
X38300000Y-92200000D01*
X35600000Y-92200000D01*
X35600000Y-88600000D01*
%TA.AperFunction,Conductor*%
G36*
X35600000Y-88600000D02*
G01*
X38300000Y-88600000D01*
X38300000Y-92200000D01*
X35600000Y-92200000D01*
X35600000Y-88600000D01*
G37*
%TD.AperFunction*%
X50000000Y-88500000D02*
X52700000Y-88500000D01*
X52700000Y-92100000D01*
X50000000Y-92100000D01*
X50000000Y-88500000D01*
%TA.AperFunction,Conductor*%
G36*
X50000000Y-88500000D02*
G01*
X52700000Y-88500000D01*
X52700000Y-92100000D01*
X50000000Y-92100000D01*
X50000000Y-88500000D01*
G37*
%TD.AperFunction*%
%TD*%
D11*
%TO.P,R10,1*%
%TO.N,+3V3*%
X21082000Y-67214000D03*
%TO.P,R10,2*%
%TO.N,en*%
X24182000Y-67214000D03*
%TD*%
%TO.P,R11,1*%
%TO.N,+3V3*%
X21082000Y-70104000D03*
%TO.P,R11,2*%
%TO.N,IO0*%
X24182000Y-70104000D03*
%TD*%
D12*
%TO.P,U8,6*%
%TO.N,ACCU.SRC*%
X38820000Y-72475001D03*
%TO.P,U8,5*%
%TO.N,GND*%
X38820000Y-75015001D03*
%TO.P,U8,4*%
%TO.N,Net-(Q4-G)*%
X38820000Y-77555001D03*
%TO.P,U8,3*%
%TO.N,unconnected-(U8-Pad3)*%
X31200000Y-77555000D03*
%TO.P,U8,2*%
%TO.N,Net-(R16-Pad2)*%
X31200000Y-75015001D03*
D13*
%TO.P,U8,1*%
%TO.N,PUMP.PIN*%
X31200000Y-72475001D03*
%TD*%
D12*
%TO.P,U2,6*%
%TO.N,ACCU.SRC*%
X53820000Y-72475001D03*
%TO.P,U2,5*%
%TO.N,GND*%
X53820000Y-75015001D03*
%TO.P,U2,4*%
%TO.N,Net-(Q1-G)*%
X53820000Y-77555001D03*
%TO.P,U2,3*%
%TO.N,unconnected-(U2-Pad3)*%
X46200000Y-77555000D03*
%TO.P,U2,2*%
%TO.N,Net-(R8-Pad2)*%
X46200000Y-75015001D03*
D13*
%TO.P,U2,1*%
%TO.N,INJEC.PIN*%
X46200000Y-72475001D03*
%TD*%
%TO.P,U13,1*%
%TO.N,EROR*%
X48975000Y-45200000D03*
D12*
%TO.P,U13,2*%
%TO.N,Net-(R2-Pad2)*%
X46435000Y-45200000D03*
%TO.P,U13,3*%
%TO.N,Net-(Q2-G)*%
X46435000Y-52820000D03*
%TO.P,U13,4*%
%TO.N,ACCU.SRC*%
X48975000Y-52820000D03*
%TD*%
D14*
%TO.P,U11,1,VIN*%
%TO.N,Net-(D3-K)*%
X82537500Y-59749999D03*
%TO.P,U11,2,GND*%
%TO.N,GND*%
X82537500Y-58800000D03*
%TO.P,U11,3,EN*%
%TO.N,BATT ENABLE*%
X82537500Y-57850001D03*
%TO.P,U11,4,NC*%
%TO.N,unconnected-(U11-NC-Pad4)*%
X80262500Y-57850001D03*
%TO.P,U11,5,VOUT*%
%TO.N,+3V3*%
X80262500Y-59749999D03*
%TD*%
D13*
%TO.P,U9,1*%
%TO.N,+5V*%
X38100000Y-64725000D03*
D12*
%TO.P,U9,2*%
%TO.N,Net-(Q3-C)*%
X38100000Y-62185000D03*
%TO.P,U9,3*%
%TO.N,unconnected-(U9-Pad3)*%
X38100000Y-59645001D03*
%TO.P,U9,4*%
%TO.N,RPM*%
X30480000Y-59645000D03*
%TO.P,U9,5*%
%TO.N,GND1*%
X30480000Y-62185000D03*
%TO.P,U9,6*%
%TO.N,+3V3*%
X30480000Y-64725000D03*
%TD*%
D13*
%TO.P,U7,1*%
%TO.N,St.Out*%
X46925001Y-32400000D03*
D12*
%TO.P,U7,2*%
%TO.N,Net-(R14-Pad2)*%
X49465001Y-32400000D03*
%TO.P,U7,3*%
%TO.N,Net-(Q7-G)*%
X49465001Y-24780000D03*
%TO.P,U7,4*%
%TO.N,ACCU.SRC*%
X46925001Y-24780000D03*
%TD*%
D15*
%TO.P,U4,1,GND*%
%TO.N,GND*%
X60200000Y-68150000D03*
%TO.P,U4,2,VO*%
%TO.N,+5V*%
X62500000Y-68149999D03*
D16*
X62500000Y-61850001D03*
D15*
%TO.P,U4,3,VI*%
%TO.N,toams*%
X64800000Y-68150000D03*
%TD*%
D17*
%TO.P,SW2,1,1*%
%TO.N,IO0*%
X20066000Y-82282000D03*
X26566000Y-82282000D03*
%TO.P,SW2,2,2*%
%TO.N,GND1*%
X20066000Y-86782000D03*
X26566000Y-86782000D03*
%TD*%
%TO.P,SW1,1,1*%
%TO.N,en*%
X20066000Y-73732000D03*
X26566000Y-73732000D03*
%TO.P,SW1,2,2*%
%TO.N,GND1*%
X20066000Y-78232000D03*
X26566000Y-78232000D03*
%TD*%
D11*
%TO.P,R24,1*%
%TO.N,GND1*%
X64900000Y-55400000D03*
%TO.P,R24,2*%
%TO.N,LOGIC*%
X68000000Y-55400000D03*
%TD*%
D18*
%TO.P,R22,1*%
%TO.N,ACCU EN*%
X74150001Y-56200000D03*
%TO.P,R22,2*%
%TO.N,GND*%
X71049999Y-56200000D03*
%TD*%
D11*
%TO.P,R20,1*%
%TO.N,RPM*%
X71049999Y-44900000D03*
%TO.P,R20,2*%
%TO.N,+3V3*%
X74150001Y-44900000D03*
%TD*%
D19*
%TO.P,R18,2*%
%TO.N,ACCU.SRC*%
X41800000Y-74049999D03*
%TO.P,R18,1*%
%TO.N,Net-(Q4-G)*%
X41800000Y-77150001D03*
%TD*%
D11*
%TO.P,R17,1*%
%TO.N,GND*%
X71049999Y-50500000D03*
%TO.P,R17,2*%
%TO.N,Net-(Q3-E)*%
X74150001Y-50500000D03*
%TD*%
D18*
%TO.P,R15,1*%
%TO.N,COIL*%
X74150001Y-47600000D03*
%TO.P,R15,2*%
%TO.N,Net-(Q3-B)*%
X71049999Y-47600000D03*
%TD*%
D19*
%TO.P,R14,1*%
%TO.N,GND1*%
X54400000Y-35650001D03*
%TO.P,R14,2*%
%TO.N,Net-(R14-Pad2)*%
X54400000Y-32549999D03*
%TD*%
%TO.P,R12,1*%
%TO.N,GND1*%
X50100000Y-38350001D03*
%TO.P,R12,2*%
%TO.N,T.UDARA*%
X50100000Y-35249999D03*
%TD*%
D20*
%TO.P,R9,1*%
%TO.N,GND*%
X66200000Y-22849999D03*
%TO.P,R9,2*%
%TO.N,Net-(Q7-G)*%
X66200000Y-25950001D03*
%TD*%
D19*
%TO.P,R6,1*%
%TO.N,GND1*%
X42400000Y-53050001D03*
%TO.P,R6,2*%
%TO.N,St.bt*%
X42400000Y-49949999D03*
%TD*%
%TO.P,R5,1*%
%TO.N,Net-(Q1-G)*%
X56700000Y-75950001D03*
%TO.P,R5,2*%
%TO.N,ACCU.SRC*%
X56700000Y-72849999D03*
%TD*%
D11*
%TO.P,R4,1*%
%TO.N,KEY.PIN*%
X65050000Y-53100000D03*
%TO.P,R4,2*%
%TO.N,GND1*%
X68150000Y-53100000D03*
%TD*%
%TO.P,R3,1*%
%TO.N,GND1*%
X71049999Y-42200000D03*
%TO.P,R3,2*%
%TO.N,Dinamo.bt*%
X74150001Y-42200000D03*
%TD*%
%TO.P,R2,1*%
%TO.N,GND1*%
X71049999Y-53100000D03*
%TO.P,R2,2*%
%TO.N,Net-(R2-Pad2)*%
X74150001Y-53100000D03*
%TD*%
D20*
%TO.P,R1,1*%
%TO.N,GND*%
X69200000Y-22849999D03*
%TO.P,R1,2*%
%TO.N,KEY*%
X69200000Y-25950001D03*
%TD*%
D21*
%TO.P,Q8,1,G*%
%TO.N,KEY*%
X72850000Y-23200000D03*
%TO.P,Q8,2,S*%
%TO.N,KEY.PIN*%
X72850000Y-22200000D03*
%TO.P,Q8,3,D*%
%TO.N,+3V3*%
X71550001Y-22700000D03*
%TD*%
D22*
%TO.P,Q7,1,D*%
%TO.N,Dinamo(-)*%
X63700000Y-29300000D03*
D23*
%TO.P,Q7,2,G*%
%TO.N,Net-(Q7-G)*%
X59075000Y-28545000D03*
X59075000Y-25495000D03*
D24*
X57399999Y-27020000D03*
D23*
X55725000Y-28545000D03*
X55725000Y-25495000D03*
D22*
%TO.P,Q7,3,S*%
%TO.N,GND*%
X63700000Y-24740000D03*
%TD*%
D25*
%TO.P,Q6,1,G*%
%TO.N,Dinamo.bt*%
X77500000Y-42550000D03*
%TO.P,Q6,2,S*%
%TO.N,St.bt*%
X76500000Y-42550000D03*
%TO.P,Q6,3,D*%
%TO.N,+3V3*%
X77000000Y-43849999D03*
%TD*%
D26*
%TO.P,Q4,3,S*%
%TO.N,GND*%
X36760000Y-90300000D03*
D27*
%TO.P,Q4,2,G*%
%TO.N,Net-(Q4-G)*%
X36005000Y-82325000D03*
X32955000Y-82325000D03*
D28*
X34480000Y-83999999D03*
D27*
X36005000Y-85675000D03*
X32955000Y-85675000D03*
D26*
%TO.P,Q4,1,D*%
%TO.N,FUEL.PUMP(-)*%
X32200000Y-90300000D03*
%TD*%
D29*
%TO.P,Q3,1,C*%
%TO.N,Net-(Q3-C)*%
X78150000Y-51024999D03*
%TO.P,Q3,2,B*%
%TO.N,Net-(Q3-B)*%
X76250000Y-51024999D03*
%TO.P,Q3,3,E*%
%TO.N,Net-(Q3-E)*%
X77200000Y-52900000D03*
%TD*%
D30*
%TO.P,Q2,3,D*%
%TO.N,ERROR_LAMP*%
X68675002Y-39900000D03*
%TO.P,Q2,2,S*%
%TO.N,GND*%
X66800001Y-40850000D03*
%TO.P,Q2,1,G*%
%TO.N,Net-(Q2-G)*%
X66800001Y-38950000D03*
%TD*%
D26*
%TO.P,Q1,1,D*%
%TO.N,INJECTOR(-)*%
X46822500Y-90300000D03*
D27*
%TO.P,Q1,2,G*%
%TO.N,Net-(Q1-G)*%
X47577500Y-85675000D03*
X50627500Y-85675000D03*
D28*
X49102500Y-83999999D03*
D27*
X47577500Y-82325000D03*
X50627500Y-82325000D03*
D26*
%TO.P,Q1,3,S*%
%TO.N,GND*%
X51382500Y-90300000D03*
%TD*%
D31*
%TO.P,JP1,1,A*%
%TO.N,GND*%
X50975000Y-68300000D03*
D32*
%TO.P,JP1,2,B*%
%TO.N,GND1*%
X48435000Y-68300000D03*
%TD*%
D33*
%TO.P,J5,*%
%TO.N,*%
X54400000Y-105900000D03*
X43400000Y-105900000D03*
D34*
%TO.P,J5,1,Pin_1*%
%TO.N,INJECTOR(-)*%
X46400000Y-95900000D03*
D35*
%TO.P,J5,2,Pin_2*%
%TO.N,ACCU.SRC*%
X51400000Y-95900000D03*
%TD*%
D33*
%TO.P,J4,*%
%TO.N,*%
X40100000Y-105900000D03*
X29100000Y-105900000D03*
D34*
%TO.P,J4,1,Pin_1*%
%TO.N,FUEL.PUMP(-)*%
X32100000Y-95900000D03*
D35*
%TO.P,J4,2,Pin_2*%
%TO.N,ACCU.SRC*%
X37100000Y-95900000D03*
%TD*%
D33*
%TO.P,J3,*%
%TO.N,*%
X68700000Y-105900000D03*
X57700000Y-105900000D03*
D34*
%TO.P,J3,1,Pin_1*%
%TO.N,GND*%
X60700000Y-95900000D03*
D35*
%TO.P,J3,2,Pin_2*%
%TO.N,ACCU.SRC*%
X65700000Y-95900000D03*
%TD*%
D31*
%TO.P,J2,1,Pin_1*%
%TO.N,+3V3*%
X30200000Y-25375000D03*
D32*
%TO.P,J2,2,Pin_2*%
%TO.N,GND1*%
X32740000Y-25375000D03*
%TO.P,J2,3,Pin_3*%
%TO.N,TX*%
X35279999Y-25375000D03*
%TO.P,J2,4,Pin_4*%
%TO.N,RX*%
X37820000Y-25375000D03*
%TD*%
D36*
%TO.P,D3,1,K*%
%TO.N,Net-(D3-K)*%
X82600000Y-52000001D03*
%TO.P,D3,2,A*%
%TO.N,BATTERY*%
X82600000Y-47999999D03*
%TD*%
D32*
%TO.P,J1,16,Pin_16*%
%TO.N,BATTERY*%
X83000000Y-40280000D03*
%TO.P,J1,15,Pin_15*%
%TO.N,Dinamo.bt*%
X80460000Y-40280001D03*
%TO.P,J1,14,Pin_14*%
%TO.N,COIL*%
X83000000Y-37740000D03*
%TO.P,J1,13,Pin_13*%
%TO.N,ERROR_LAMP*%
X80460000Y-37740000D03*
%TO.P,J1,12,Pin_12*%
%TO.N,unconnected-(J1-Pin_12-Pad12)*%
X83000000Y-35200000D03*
%TO.P,J1,11,Pin_11*%
%TO.N,T.UDARA*%
X80460000Y-35200000D03*
%TO.P,J1,10,Pin_10*%
%TO.N,+3V3*%
X83000000Y-32660000D03*
%TO.P,J1,9,Pin_9*%
%TO.N,SENSOR PRESSURE*%
X80460000Y-32660000D03*
%TO.P,J1,8,Pin_8*%
%TO.N,STEPDOWN ACCU*%
X83000000Y-30120000D03*
%TO.P,J1,7,Pin_7*%
%TO.N,TPS*%
X80460000Y-30120000D03*
%TO.P,J1,6,Pin_6*%
%TO.N,unconnected-(J1-Pin_6-Pad6)*%
X83000000Y-27580000D03*
%TO.P,J1,5,Pin_5*%
%TO.N,Dinamo(-)*%
X80460000Y-27579999D03*
%TO.P,J1,4,Pin_4*%
%TO.N,unconnected-(J1-Pin_4-Pad4)*%
X83000000Y-25040000D03*
%TO.P,J1,3,Pin_3*%
%TO.N,GND1*%
X80460000Y-25040000D03*
%TO.P,J1,2,Pin_2*%
%TO.N,unconnected-(J1-Pin_2-Pad2)*%
X83000000Y-22500000D03*
D31*
%TO.P,J1,1,Pin_1*%
%TO.N,KEY*%
X80460000Y-22500000D03*
%TD*%
D37*
%TO.P,U12,1,GND*%
%TO.N,GND1*%
X20780000Y-55450000D03*
%TO.P,U12,2,3V3*%
%TO.N,+3V3*%
X22050000Y-55450000D03*
%TO.P,U12,3,EN*%
%TO.N,en*%
X23320000Y-55450000D03*
%TO.P,U12,4,IO4*%
%TO.N,PUMP.PIN*%
X24590000Y-55450000D03*
%TO.P,U12,5,IO5*%
%TO.N,INJEC.PIN*%
X25860000Y-55450000D03*
%TO.P,U12,6,IO6*%
%TO.N,SENSOR PRESSURE*%
X27130000Y-55450000D03*
%TO.P,U12,7,IO7*%
%TO.N,T.UDARA*%
X28400000Y-55450000D03*
%TO.P,U12,8,IO15*%
%TO.N,unconnected-(U12-IO15-Pad8)*%
X29670000Y-55450000D03*
%TO.P,U12,9,IO16*%
%TO.N,unconnected-(U12-IO16-Pad9)*%
X30940000Y-55450000D03*
%TO.P,U12,10,IO17*%
%TO.N,unconnected-(U12-IO17-Pad10)*%
X32210000Y-55450000D03*
%TO.P,U12,11,IO18*%
%TO.N,unconnected-(U12-IO18-Pad11)*%
X33480000Y-55450000D03*
%TO.P,U12,12,IO8*%
%TO.N,accu*%
X34750000Y-55450000D03*
%TO.P,U12,13,IO19*%
%TO.N,RPM*%
X36020000Y-55450000D03*
%TO.P,U12,14,IO20*%
%TO.N,ACCU.Voltage*%
X37290000Y-55450000D03*
D38*
%TO.P,U12,15,IO3*%
%TO.N,KEY.PIN*%
X38540000Y-53685000D03*
%TO.P,U12,16,IO46*%
%TO.N,unconnected-(U12-IO46-Pad16)*%
X38540000Y-52415000D03*
%TO.P,U12,17,IO9*%
%TO.N,BATT ENABLE*%
X38540000Y-51145000D03*
%TO.P,U12,18,IO10*%
%TO.N,St.bt*%
X38540000Y-49875000D03*
%TO.P,U12,19,IO11*%
%TO.N,TPS*%
X38540000Y-48605000D03*
%TO.P,U12,20,IO12*%
%TO.N,ACCU EN*%
X38540000Y-47335000D03*
%TO.P,U12,21,IO13*%
%TO.N,St.Out*%
X38540000Y-46065000D03*
%TO.P,U12,22,IO14*%
%TO.N,EROR*%
X38540000Y-44795000D03*
%TO.P,U12,23,IO21*%
%TO.N,unconnected-(U12-IO21-Pad23)*%
X38540000Y-43525000D03*
%TO.P,U12,24,IO47*%
%TO.N,unconnected-(U12-IO47-Pad24)*%
X38540000Y-42255000D03*
%TO.P,U12,25,IO48*%
%TO.N,unconnected-(U12-IO48-Pad25)*%
X38540000Y-40985000D03*
%TO.P,U12,26,IO45*%
%TO.N,unconnected-(U12-IO45-Pad26)*%
X38540000Y-39715000D03*
D37*
%TO.P,U12,27,IO0*%
%TO.N,IO0*%
X37290000Y-37950000D03*
%TO.P,U12,28,IO35*%
%TO.N,unconnected-(U12-IO35-Pad28)*%
X36020000Y-37950000D03*
%TO.P,U12,29,IO36*%
%TO.N,unconnected-(U12-IO36-Pad29)*%
X34750000Y-37950000D03*
%TO.P,U12,30,IO37*%
%TO.N,unconnected-(U12-IO37-Pad30)*%
X33480000Y-37950000D03*
%TO.P,U12,31,IO38*%
%TO.N,unconnected-(U12-IO38-Pad31)*%
X32210000Y-37950000D03*
%TO.P,U12,32,IO39*%
%TO.N,unconnected-(U12-IO39-Pad32)*%
X30940000Y-37950000D03*
%TO.P,U12,33,IO40*%
%TO.N,unconnected-(U12-IO40-Pad33)*%
X29670000Y-37950000D03*
%TO.P,U12,34,IO41*%
%TO.N,unconnected-(U12-IO41-Pad34)*%
X28400000Y-37950000D03*
%TO.P,U12,35,IO42*%
%TO.N,unconnected-(U12-IO42-Pad35)*%
X27130000Y-37950000D03*
%TO.P,U12,36,RXD0*%
%TO.N,RX*%
X25860000Y-37950000D03*
%TO.P,U12,37,TXD0*%
%TO.N,TX*%
X24590000Y-37950000D03*
%TO.P,U12,38,IO2*%
%TO.N,unconnected-(U12-IO2-Pad38)*%
X23320000Y-37950000D03*
%TO.P,U12,39,IO1*%
%TO.N,unconnected-(U12-IO1-Pad39)*%
X22050000Y-37950000D03*
%TO.P,U12,40,GND*%
%TO.N,GND1*%
X20780000Y-37950000D03*
D39*
%TO.P,U12,41,GND*%
X27800000Y-49600000D03*
X29200000Y-49600000D03*
X27100000Y-48900000D03*
X28500000Y-48900000D03*
X29900000Y-48900000D03*
X27800000Y-48200000D03*
D40*
X28500000Y-48200000D03*
D39*
X29200000Y-48200000D03*
X27100000Y-47500000D03*
X28500000Y-47500000D03*
X29900000Y-47500000D03*
X27800000Y-46800000D03*
X29200000Y-46800000D03*
%TD*%
D18*
%TO.P,R23,1*%
%TO.N,BATT ENABLE*%
X74150001Y-59100000D03*
%TO.P,R23,2*%
%TO.N,GND*%
X71049999Y-59100000D03*
%TD*%
D14*
%TO.P,U10,1,VIN*%
%TO.N,STEPDOWN ACCU*%
X82375000Y-64699999D03*
%TO.P,U10,2,GND*%
%TO.N,GND*%
X82375000Y-63750000D03*
%TO.P,U10,3,EN*%
%TO.N,ACCU EN*%
X82375000Y-62800001D03*
%TO.P,U10,4,NC*%
%TO.N,unconnected-(U10-NC-Pad4)*%
X80100000Y-62800001D03*
%TO.P,U10,5,VOUT*%
%TO.N,+3V3*%
X80100000Y-64699999D03*
%TD*%
D18*
%TO.P,R21,2*%
%TO.N,GND1*%
X65149999Y-44890000D03*
%TO.P,R21,1*%
%TO.N,RPM*%
X68250001Y-44890000D03*
%TD*%
D41*
%TO.N,GND1*%
X23450000Y-51850000D03*
X26430000Y-51810000D03*
D42*
X40185333Y-52631333D03*
X35765985Y-52631333D03*
X76200000Y-28702000D03*
X76200000Y-26162000D03*
%TO.N,IO0*%
X26924000Y-57404000D03*
X43688000Y-71628000D03*
X25273000Y-53721000D03*
%TO.N,GND1*%
X34750000Y-70780000D03*
%TO.N,RPM*%
X51308000Y-56642000D03*
X51308000Y-53340000D03*
X56896000Y-52324000D03*
X67564000Y-48006000D03*
%TO.N,GND1*%
X64516000Y-49530000D03*
X67310000Y-49530000D03*
X62000000Y-43000000D03*
X64000000Y-45000000D03*
%TO.N,+3V3*%
X71000000Y-22000000D03*
X78000000Y-26000000D03*
X78500000Y-64900000D03*
X79000000Y-60500000D03*
%TO.N,BATT ENABLE*%
X76000000Y-55500000D03*
X59100000Y-53100000D03*
X76300000Y-60800000D03*
%TO.N,KEY.PIN*%
X73800000Y-22300000D03*
X72500000Y-28900000D03*
X69800000Y-37900000D03*
X67000000Y-44600000D03*
%TO.N,ACCU EN*%
X68050000Y-57250000D03*
%TO.N,BATT ENABLE*%
X74100000Y-60800000D03*
%TO.N,Net-(R2-Pad2)*%
X59200000Y-46200000D03*
X72700000Y-50600000D03*
%TO.N,STEPDOWN ACCU*%
X82900000Y-65600000D03*
%TO.N,ACCU EN*%
X79000000Y-63400000D03*
X65200000Y-57900000D03*
X54100000Y-55200000D03*
X47100000Y-55200000D03*
X36788328Y-53754358D03*
%TO.N,toams*%
X66000000Y-69200000D03*
%TO.N,+3V3*%
X76274999Y-44574999D03*
D41*
%TO.N,Net-(Q7-G)*%
X55725000Y-28545000D03*
X59075000Y-28545000D03*
X57399999Y-27020000D03*
X59075000Y-25495000D03*
X55725000Y-25495000D03*
D42*
%TO.N,GND*%
X59400000Y-69400000D03*
%TO.N,+3V3*%
X22200000Y-57600000D03*
%TO.N,St.Out*%
X46925001Y-39574999D03*
X41500000Y-45000000D03*
%TO.N,T.UDARA*%
X48300000Y-35200000D03*
X51800000Y-35200000D03*
%TO.N,Net-(Q3-C)*%
X62500000Y-56414760D03*
X78900000Y-51774999D03*
%TO.N,GND*%
X65400000Y-40800000D03*
%TO.N,Net-(Q2-G)*%
X65100000Y-39000000D03*
%TO.N,TPS*%
X40200000Y-48700000D03*
%TO.N,SENSOR PRESSURE*%
X33900000Y-50800000D03*
%TO.N,T.UDARA*%
X34800000Y-48200000D03*
%TO.N,GND1*%
X20780000Y-56680000D03*
D41*
%TO.N,Net-(Q4-G)*%
X32800000Y-82300000D03*
X36005000Y-82325000D03*
X34480000Y-83999999D03*
X36005000Y-85675000D03*
X32955000Y-85675000D03*
%TO.N,Net-(Q1-G)*%
X50627500Y-82325000D03*
X47577500Y-82325000D03*
X50627500Y-85675000D03*
X47577500Y-85675000D03*
X49102500Y-83999999D03*
%TD*%
D10*
%TO.N,INJEC.PIN*%
X25860000Y-63860000D02*
X25860000Y-55450000D01*
X32060000Y-70060000D02*
X25860000Y-63860000D01*
X41275001Y-72475001D02*
X38860000Y-70060000D01*
X38860000Y-70060000D02*
X32060000Y-70060000D01*
X46200000Y-72475001D02*
X41275001Y-72475001D01*
D43*
%TO.N,GND1*%
X26566000Y-85367787D02*
X26566000Y-86782000D01*
X33020000Y-78913787D02*
X26566000Y-85367787D01*
X34750000Y-70790000D02*
X33020000Y-72520000D01*
X34750000Y-70780000D02*
X34750000Y-70790000D01*
X33020000Y-72520000D02*
X33020000Y-78913787D01*
%TO.N,GND*%
X84800000Y-63403619D02*
X84800000Y-65100000D01*
X81525000Y-59388737D02*
X81525000Y-60128619D01*
X81525000Y-60128619D02*
X84800000Y-63403619D01*
X82113737Y-58800000D02*
X81525000Y-59388737D01*
X82537500Y-58800000D02*
X82113737Y-58800000D01*
X84800000Y-65100000D02*
X84800000Y-62230000D01*
X84800000Y-62230000D02*
X84800000Y-65200000D01*
X84800000Y-21800000D02*
X84800000Y-62230000D01*
%TO.N,BATT ENABLE*%
X81849999Y-57850001D02*
X82537500Y-57850001D01*
X81026000Y-58674000D02*
X81849999Y-57850001D01*
X78426000Y-58674000D02*
X81026000Y-58674000D01*
X76300000Y-60800000D02*
X78426000Y-58674000D01*
%TO.N,IO0*%
X27432000Y-57912000D02*
X26924000Y-57404000D01*
X32766000Y-69342000D02*
X27432000Y-64008000D01*
X41402000Y-69342000D02*
X32766000Y-69342000D01*
X27432000Y-64008000D02*
X27432000Y-57912000D01*
X43688000Y-71628000D02*
X41402000Y-69342000D01*
X25146000Y-45212000D02*
X25146000Y-53594000D01*
X25400000Y-44958000D02*
X25146000Y-45212000D01*
X37290000Y-38392000D02*
X30724000Y-44958000D01*
X37290000Y-37950000D02*
X37290000Y-38392000D01*
X30724000Y-44958000D02*
X25400000Y-44958000D01*
%TO.N,en*%
X26566000Y-69598000D02*
X24182000Y-67214000D01*
X26566000Y-73732000D02*
X26566000Y-69598000D01*
%TO.N,GND1*%
X26566000Y-86782000D02*
X20066000Y-86782000D01*
X21416000Y-79582000D02*
X20066000Y-78232000D01*
X21416000Y-85432000D02*
X21416000Y-79582000D01*
X20066000Y-86782000D02*
X21416000Y-85432000D01*
%TO.N,en*%
X22606000Y-71192000D02*
X20066000Y-73732000D01*
X22606000Y-68790000D02*
X22606000Y-71192000D01*
X24182000Y-67214000D02*
X22606000Y-68790000D01*
%TO.N,IO0*%
X24906000Y-82282000D02*
X26566000Y-82282000D01*
X24638000Y-82296000D02*
X24892000Y-82296000D01*
X24182000Y-81840000D02*
X24638000Y-82296000D01*
X24892000Y-82296000D02*
X24906000Y-82282000D01*
X24182000Y-70104000D02*
X24182000Y-81840000D01*
%TO.N,+3V3*%
X21082000Y-58718000D02*
X22200000Y-57600000D01*
X21082000Y-67214000D02*
X21082000Y-70104000D01*
%TO.N,en*%
X23320000Y-66352000D02*
X23320000Y-55450000D01*
X24182000Y-67214000D02*
X23320000Y-66352000D01*
%TO.N,RPM*%
X56388000Y-52832000D02*
X56896000Y-52324000D01*
X51308000Y-53340000D02*
X51816000Y-52832000D01*
X51816000Y-52832000D02*
X56388000Y-52832000D01*
X34862000Y-57658000D02*
X32875000Y-59645000D01*
X51308000Y-56642000D02*
X50292000Y-57658000D01*
X50292000Y-57658000D02*
X34862000Y-57658000D01*
X69850000Y-45720000D02*
X67564000Y-48006000D01*
X69850000Y-44900000D02*
X69850000Y-45720000D01*
X69850000Y-44900000D02*
X71049999Y-44900000D01*
X69400000Y-44900000D02*
X69850000Y-44900000D01*
%TO.N,+3V3*%
X71550001Y-22550001D02*
X71000000Y-22000000D01*
X71550001Y-22700000D02*
X71550001Y-22550001D01*
X80957057Y-26240000D02*
X78240000Y-26240000D01*
X81800000Y-27082943D02*
X80957057Y-26240000D01*
X81800000Y-31460000D02*
X81800000Y-27082943D01*
X78240000Y-26240000D02*
X78000000Y-26000000D01*
X83000000Y-32660000D02*
X81800000Y-31460000D01*
X78700001Y-64699999D02*
X78500000Y-64900000D01*
X80100000Y-64699999D02*
X78700001Y-64699999D01*
X79512499Y-60500000D02*
X79000000Y-60500000D01*
X80262500Y-59749999D02*
X79512499Y-60500000D01*
%TO.N,BATT ENABLE*%
X79700000Y-55500000D02*
X82050001Y-57850001D01*
X76000000Y-55500000D02*
X79700000Y-55500000D01*
X82050001Y-57850001D02*
X82537500Y-57850001D01*
%TO.N,GND*%
X72800000Y-60850001D02*
X72800000Y-61300000D01*
X71049999Y-59100000D02*
X72800000Y-60850001D01*
X72800000Y-61300000D02*
X72800000Y-68600000D01*
X72800000Y-57900000D02*
X72800000Y-61300000D01*
%TO.N,BATT ENABLE*%
X77900000Y-59200000D02*
X76300000Y-60800000D01*
%TO.N,Net-(Q3-C)*%
X54858904Y-56414760D02*
X49088664Y-62185000D01*
X62500000Y-56414760D02*
X54858904Y-56414760D01*
X49088664Y-62185000D02*
X38100000Y-62185000D01*
%TO.N,BATT ENABLE*%
X57145000Y-51145000D02*
X59100000Y-53100000D01*
X38540000Y-51145000D02*
X57145000Y-51145000D01*
%TO.N,ACCU EN*%
X76600000Y-63400000D02*
X79000000Y-63400000D01*
X75375000Y-62175000D02*
X76600000Y-63400000D01*
X75375000Y-57425000D02*
X75375000Y-62175000D01*
X74150001Y-56200000D02*
X75375000Y-57425000D01*
X79050001Y-63450001D02*
X79000000Y-63400000D01*
X81712501Y-62800001D02*
X81062501Y-63450001D01*
X81062501Y-63450001D02*
X79050001Y-63450001D01*
X82375000Y-62800001D02*
X81712501Y-62800001D01*
X77900000Y-63400000D02*
X79000000Y-63400000D01*
%TO.N,KEY.PIN*%
X73800000Y-22300000D02*
X72950000Y-22300000D01*
X72950000Y-22300000D02*
X72850000Y-22200000D01*
X69800000Y-31600000D02*
X72500000Y-28900000D01*
X69800000Y-37900000D02*
X69800000Y-31600000D01*
X66149999Y-45450001D02*
X67000000Y-44600000D01*
X66149999Y-52000001D02*
X66149999Y-45450001D01*
X65050000Y-53100000D02*
X66149999Y-52000001D01*
%TO.N,ACCU EN*%
X68000000Y-57200000D02*
X68000000Y-55400000D01*
X68050000Y-57250000D02*
X68000000Y-57200000D01*
%TO.N,BATT ENABLE*%
X74150001Y-60749999D02*
X74100000Y-60800000D01*
X74150001Y-59100000D02*
X74150001Y-60749999D01*
%TO.N,GND*%
X72749999Y-57900000D02*
X72800000Y-57900000D01*
X71049999Y-56200000D02*
X72749999Y-57900000D01*
X72800000Y-52250001D02*
X72800000Y-57900000D01*
D10*
%TO.N,Net-(R2-Pad2)*%
X46435000Y-46135000D02*
X46435000Y-45200000D01*
X58000000Y-47400000D02*
X47700000Y-47400000D01*
X59200000Y-46200000D02*
X58000000Y-47400000D01*
X47700000Y-47400000D02*
X46435000Y-46135000D01*
D43*
X74150001Y-52450001D02*
X74150001Y-53100000D01*
X72700000Y-50600000D02*
X72700000Y-51000000D01*
X72700000Y-51000000D02*
X74150001Y-52450001D01*
%TO.N,GND*%
X72800000Y-68600000D02*
X72300000Y-69100000D01*
X71049999Y-50500000D02*
X72800000Y-52250001D01*
X69200000Y-22849999D02*
X66200000Y-22849999D01*
%TO.N,KEY*%
X70099999Y-25950001D02*
X69200000Y-25950001D01*
X72850000Y-23200000D02*
X70099999Y-25950001D01*
%TO.N,Net-(Q7-G)*%
X58419997Y-26000002D02*
X57399999Y-27020000D01*
X66149999Y-26000002D02*
X58419997Y-26000002D01*
X66200000Y-25950001D02*
X66149999Y-26000002D01*
%TO.N,STEPDOWN ACCU*%
X82375000Y-65075000D02*
X82900000Y-65600000D01*
X82375000Y-64699999D02*
X82375000Y-65075000D01*
%TO.N,BATTERY*%
X82600000Y-40680000D02*
X83000000Y-40280000D01*
X82600000Y-47999999D02*
X82600000Y-40680000D01*
%TO.N,GND*%
X84800000Y-65100000D02*
X83450000Y-63750000D01*
X84800000Y-65200000D02*
X84800000Y-65100000D01*
X83450000Y-63750000D02*
X82375000Y-63750000D01*
X84800000Y-65200000D02*
X84800000Y-71800000D01*
X57900000Y-71000000D02*
X57900000Y-71300000D01*
X60200000Y-68700000D02*
X57900000Y-71000000D01*
X60200000Y-68150000D02*
X60200000Y-68700000D01*
X59400000Y-69400000D02*
X60200000Y-68600000D01*
X60200000Y-68600000D02*
X60200000Y-68150000D01*
X66750001Y-40800000D02*
X66800001Y-40850000D01*
X65400000Y-40800000D02*
X66750001Y-40800000D01*
%TO.N,Net-(Q3-C)*%
X78900000Y-51774999D02*
X78150000Y-51024999D01*
%TO.N,ACCU EN*%
X62600000Y-55200000D02*
X54100000Y-55200000D01*
X65200000Y-57900000D02*
X65200000Y-57800000D01*
X65200000Y-57800000D02*
X62600000Y-55200000D01*
X47100000Y-55200000D02*
X54100000Y-55200000D01*
X36788328Y-48036672D02*
X36788328Y-53754358D01*
X37490000Y-47335000D02*
X36788328Y-48036672D01*
X38540000Y-47335000D02*
X37490000Y-47335000D01*
D10*
%TO.N,SENSOR PRESSURE*%
X28850000Y-53200000D02*
X27130000Y-54920000D01*
X33900000Y-50800000D02*
X31500000Y-53200000D01*
X31500000Y-53200000D02*
X28850000Y-53200000D01*
X27130000Y-54920000D02*
X27130000Y-55450000D01*
D43*
%TO.N,T.UDARA*%
X31719239Y-54000000D02*
X29220000Y-54000000D01*
X29220000Y-54000000D02*
X28400000Y-54820000D01*
X28400000Y-54820000D02*
X28400000Y-55450000D01*
X34800000Y-50919239D02*
X31719239Y-54000000D01*
X34800000Y-48200000D02*
X34800000Y-50919239D01*
%TO.N,GND*%
X72300000Y-69100000D02*
X72712499Y-68687501D01*
X72300000Y-70700000D02*
X72300000Y-84300000D01*
X72300000Y-69100000D02*
X72300000Y-70700000D01*
X65540000Y-22900000D02*
X63700000Y-24740000D01*
%TO.N,Net-(D3-K)*%
X83199999Y-59749999D02*
X83550000Y-59399998D01*
X83550000Y-59399998D02*
X83550000Y-52950001D01*
X83550000Y-52950001D02*
X82600000Y-52000001D01*
X82537500Y-59749999D02*
X83199999Y-59749999D01*
%TO.N,+5V*%
X62500000Y-64725000D02*
X62500000Y-68149999D01*
X38100000Y-64725000D02*
X62500000Y-64725000D01*
X62500000Y-68149999D02*
X62500000Y-61850001D01*
%TO.N,toams*%
X64950000Y-68150000D02*
X66000000Y-69200000D01*
X64800000Y-68150000D02*
X64950000Y-68150000D01*
%TO.N,GND*%
X72300000Y-84300000D02*
X70400000Y-86200000D01*
X84800000Y-71800000D02*
X70400000Y-86200000D01*
X70400000Y-86200000D02*
X60700000Y-95900000D01*
%TO.N,KEY.PIN*%
X38905001Y-54050001D02*
X38540000Y-53685000D01*
X64099999Y-54050001D02*
X38905001Y-54050001D01*
X65050000Y-53100000D02*
X64099999Y-54050001D01*
%TO.N,+3V3*%
X76275000Y-44574999D02*
X77000000Y-43849999D01*
X76274999Y-44574999D02*
X76275000Y-44574999D01*
X76274999Y-44575000D02*
X76274999Y-44574999D01*
%TO.N,COIL*%
X75680000Y-47600000D02*
X77490000Y-45790000D01*
X74150001Y-47600000D02*
X75680000Y-47600000D01*
%TO.N,RPM*%
X69390000Y-44890000D02*
X68250001Y-44890000D01*
X69400000Y-44900000D02*
X69390000Y-44890000D01*
X69050001Y-44900000D02*
X69400000Y-44900000D01*
D10*
%TO.N,St.bt*%
X63600000Y-43500000D02*
X57225000Y-49875000D01*
X75550000Y-43500000D02*
X63600000Y-43500000D01*
X76500000Y-42550000D02*
X75550000Y-43500000D01*
X57225000Y-49875000D02*
X38540000Y-49875000D01*
D43*
%TO.N,COIL*%
X81700000Y-41580000D02*
X77490000Y-45790000D01*
X81700000Y-39040000D02*
X81700000Y-41580000D01*
X83000000Y-37740000D02*
X81700000Y-39040000D01*
D44*
%TO.N,Net-(Q1-G)*%
X53820000Y-79210000D02*
X53820000Y-77555001D01*
X47577500Y-85452500D02*
X53820000Y-79210000D01*
X47577500Y-85675000D02*
X47577500Y-85452500D01*
D43*
%TO.N,Net-(Q3-E)*%
X76550001Y-52900000D02*
X77200000Y-52900000D01*
X74150001Y-50500000D02*
X76550001Y-52900000D01*
%TO.N,Net-(Q3-B)*%
X76250000Y-49550000D02*
X76250000Y-51024999D01*
X72349999Y-48900000D02*
X75600000Y-48900000D01*
X71049999Y-47600000D02*
X72349999Y-48900000D01*
X75600000Y-48900000D02*
X76250000Y-49550000D01*
X71049999Y-47850001D02*
X70800000Y-48100000D01*
X71049999Y-47600000D02*
X71049999Y-47850001D01*
%TO.N,COIL*%
X77150001Y-46129999D02*
X77490000Y-45790000D01*
%TO.N,+3V3*%
X75849999Y-45000000D02*
X76274999Y-44575000D01*
X74750001Y-45000000D02*
X75849999Y-45000000D01*
%TO.N,Net-(Q4-G)*%
X41550001Y-77400000D02*
X38975001Y-77400000D01*
X38975001Y-77400000D02*
X38820000Y-77555001D01*
X41800000Y-77150001D02*
X41550001Y-77400000D01*
%TO.N,ACCU.SRC*%
X40225002Y-72475001D02*
X41800000Y-74049999D01*
X38820000Y-72475001D02*
X40225002Y-72475001D01*
%TO.N,Net-(Q1-G)*%
X55425000Y-75950001D02*
X53820000Y-77555001D01*
X56700000Y-75950001D02*
X55425000Y-75950001D01*
%TO.N,ACCU.SRC*%
X56325002Y-72475001D02*
X56700000Y-72849999D01*
X53820000Y-72475001D02*
X56325002Y-72475001D01*
D10*
%TO.N,RX*%
X25860000Y-37335000D02*
X25860000Y-37950000D01*
X37820000Y-25375000D02*
X25860000Y-37335000D01*
%TO.N,TX*%
X31627500Y-29027500D02*
X35279999Y-25375000D01*
X31627500Y-29027500D02*
X24590000Y-36065000D01*
X31460084Y-29194915D02*
X31627500Y-29027500D01*
X24590000Y-36065000D02*
X24590000Y-37950000D01*
D43*
%TO.N,+3V3*%
X22050000Y-57450000D02*
X22200000Y-57600000D01*
X22050000Y-55450000D02*
X22050000Y-57450000D01*
%TO.N,Net-(R14-Pad2)*%
X54250001Y-32400000D02*
X54400000Y-32549999D01*
X49465001Y-32400000D02*
X54250001Y-32400000D01*
X49565001Y-32500000D02*
X49465001Y-32400000D01*
%TO.N,St.Out*%
X46925001Y-39574999D02*
X46925001Y-32400000D01*
X40435000Y-46065000D02*
X38540000Y-46065000D01*
X41500000Y-45000000D02*
X40435000Y-46065000D01*
%TO.N,Net-(Q7-G)*%
X55159999Y-24780000D02*
X57399999Y-27020000D01*
X49465001Y-24780000D02*
X55159999Y-24780000D01*
D10*
%TO.N,T.UDARA*%
X50050001Y-35200000D02*
X50100000Y-35249999D01*
X48300000Y-35200000D02*
X50050001Y-35200000D01*
X48349999Y-35249999D02*
X48300000Y-35200000D01*
X50149999Y-35200000D02*
X50100000Y-35249999D01*
X51800000Y-35200000D02*
X50149999Y-35200000D01*
D43*
%TO.N,GND*%
X51400000Y-68725000D02*
X51400000Y-72595001D01*
X51400000Y-72595001D02*
X53820000Y-75015001D01*
X50975000Y-68300000D02*
X51400000Y-68725000D01*
%TO.N,Dinamo(-)*%
X63700001Y-29300001D02*
X63700000Y-29300000D01*
X65400000Y-27600000D02*
X80439999Y-27600000D01*
X63700000Y-29300000D02*
X65400000Y-27600000D01*
X80439999Y-27600000D02*
X80460000Y-27579999D01*
X64080000Y-28920000D02*
X63700000Y-29300000D01*
%TO.N,RPM*%
X32875000Y-59645000D02*
X30480000Y-59645000D01*
X36020000Y-56500000D02*
X32875000Y-59645000D01*
X36020000Y-55450000D02*
X36020000Y-56500000D01*
%TO.N,KEY*%
X79760000Y-23200000D02*
X80460000Y-22500000D01*
X72850000Y-23200000D02*
X79760000Y-23200000D01*
%TO.N,Net-(Q2-G)*%
X65150000Y-38950000D02*
X65100000Y-39000000D01*
X66800001Y-38950000D02*
X65150000Y-38950000D01*
D44*
%TO.N,ERROR_LAMP*%
X78300000Y-39900000D02*
X68675002Y-39900000D01*
X80460000Y-37740000D02*
X78300000Y-39900000D01*
D10*
%TO.N,EROR*%
X47875000Y-44100000D02*
X48975000Y-45200000D01*
X40000000Y-44100000D02*
X47875000Y-44100000D01*
X39305000Y-44795000D02*
X40000000Y-44100000D01*
X38540000Y-44795000D02*
X39305000Y-44795000D01*
%TO.N,TPS*%
X40100000Y-48800000D02*
X40200000Y-48700000D01*
X38735000Y-48800000D02*
X40100000Y-48800000D01*
X38540000Y-48605000D02*
X38735000Y-48800000D01*
%TO.N,Dinamo.bt*%
X76900000Y-41950000D02*
X74650000Y-41950000D01*
X74650000Y-41950000D02*
X73796016Y-42803984D01*
X77500000Y-42550000D02*
X76900000Y-41950000D01*
X77900000Y-42550000D02*
X78190001Y-42550000D01*
X77500000Y-42550000D02*
X77900000Y-42550000D01*
X78190001Y-42550000D02*
X80460000Y-40280001D01*
X77499999Y-42549999D02*
X77500000Y-42550000D01*
%TO.N,PUMP.PIN*%
X24590000Y-65865001D02*
X24590000Y-55450000D01*
X31200000Y-72475001D02*
X24590000Y-65865001D01*
D44*
%TO.N,GND1*%
X20780000Y-56680000D02*
X20780000Y-55450000D01*
D45*
%TO.N,FUEL.PUMP(-)*%
X32200000Y-90300000D02*
X32200000Y-95800000D01*
%TO.N,INJECTOR(-)*%
X46700000Y-90200000D02*
X46700000Y-95600000D01*
D44*
%TO.N,Net-(Q4-G)*%
X38820000Y-79810000D02*
X32955000Y-85675000D01*
X38820000Y-77555001D02*
X38820000Y-79810000D01*
D43*
%TO.N,GND*%
X83750000Y-20750000D02*
X84800000Y-21800000D01*
X63700000Y-24740000D02*
X67690000Y-20750000D01*
X67690000Y-20750000D02*
X83750000Y-20750000D01*
%TO.N,+3V3*%
X21082000Y-67214000D02*
X21082000Y-58718000D01*
%TD*%
%TA.AperFunction,Conductor*%
%TO.N,ACCU.SRC*%
G36*
X40191443Y-72244686D02*
G01*
X40212085Y-72261320D01*
X40782423Y-72831658D01*
X40815908Y-72892981D01*
X40810924Y-72962673D01*
X40769052Y-73018606D01*
X40759838Y-73024878D01*
X40725757Y-73045899D01*
X40658365Y-73064339D01*
X40591701Y-73043416D01*
X40572980Y-73028041D01*
X40415508Y-72870569D01*
X40409718Y-72864869D01*
X40407011Y-72862246D01*
X40401131Y-72856639D01*
X40401129Y-72856637D01*
X40330546Y-72807215D01*
X40283271Y-72774113D01*
X40281961Y-72773450D01*
X40220920Y-72742592D01*
X40220908Y-72742587D01*
X40084580Y-72696612D01*
X39988731Y-72692809D01*
X39940809Y-72690908D01*
X39940808Y-72690908D01*
X39940807Y-72690908D01*
X39940802Y-72690908D01*
X39871310Y-72698101D01*
X39779013Y-72721270D01*
X39748824Y-72725001D01*
X39135686Y-72725001D01*
X39140080Y-72720607D01*
X39192741Y-72629395D01*
X39220000Y-72527662D01*
X39220000Y-72422340D01*
X39192741Y-72320607D01*
X39140080Y-72229395D01*
X39135686Y-72225001D01*
X40124404Y-72225001D01*
X40191443Y-72244686D01*
G37*
%TD.AperFunction*%
%TD*%
%TA.AperFunction,Conductor*%
%TO.N,GND*%
G36*
X70293039Y-70079688D02*
G01*
X70338794Y-70132492D01*
X70350000Y-70184003D01*
X70350000Y-101451000D01*
X70330315Y-101518039D01*
X70277511Y-101563794D01*
X70226000Y-101575000D01*
X27574000Y-101575000D01*
X27506961Y-101555315D01*
X27461206Y-101502511D01*
X27450000Y-101451000D01*
X27450000Y-88056011D01*
X27469685Y-87988972D01*
X27497834Y-87958160D01*
X27585744Y-87889738D01*
X27754164Y-87706785D01*
X27758272Y-87700498D01*
X27890175Y-87498604D01*
X27990063Y-87270881D01*
X28051107Y-87029824D01*
X28051108Y-87029821D01*
X28071643Y-86782000D01*
X28051108Y-86534179D01*
X27990063Y-86293119D01*
X27890173Y-86065393D01*
X27754166Y-85857217D01*
X27733860Y-85835159D01*
X27585744Y-85674262D01*
X27497837Y-85605841D01*
X27457024Y-85549131D01*
X27450000Y-85507988D01*
X27450000Y-85455094D01*
X27469685Y-85388055D01*
X27486319Y-85367413D01*
X29192904Y-83660828D01*
X30867821Y-81985911D01*
X30929142Y-81952428D01*
X30998834Y-81957412D01*
X31054767Y-81999284D01*
X31079184Y-82064748D01*
X31079500Y-82073594D01*
X31079500Y-87000018D01*
X31090001Y-87102800D01*
X31145184Y-87269332D01*
X31145189Y-87269343D01*
X31176299Y-87319779D01*
X31194740Y-87387171D01*
X31173818Y-87453835D01*
X31120176Y-87498604D01*
X31111717Y-87501917D01*
X31049950Y-87523530D01*
X31049941Y-87523534D01*
X30746316Y-87669752D01*
X30460962Y-87849053D01*
X30197477Y-88059174D01*
X29959174Y-88297477D01*
X29749053Y-88560962D01*
X29569752Y-88846316D01*
X29423532Y-89149945D01*
X29312227Y-89468034D01*
X29312223Y-89468046D01*
X29237233Y-89796602D01*
X29237231Y-89796618D01*
X29199500Y-90131491D01*
X29199500Y-95968508D01*
X29237231Y-96303381D01*
X29237233Y-96303397D01*
X29312223Y-96631953D01*
X29312227Y-96631965D01*
X29423532Y-96950054D01*
X29569752Y-97253683D01*
X29581863Y-97272957D01*
X29749054Y-97539039D01*
X29959175Y-97802523D01*
X30197477Y-98040825D01*
X30460961Y-98250946D01*
X30746314Y-98430246D01*
X31049949Y-98576469D01*
X31288848Y-98660063D01*
X31368034Y-98687772D01*
X31368046Y-98687776D01*
X31696606Y-98762767D01*
X32031492Y-98800499D01*
X32031493Y-98800500D01*
X32031496Y-98800500D01*
X32368507Y-98800500D01*
X32368507Y-98800499D01*
X32703394Y-98762767D01*
X33031954Y-98687776D01*
X33350051Y-98576469D01*
X33653686Y-98430246D01*
X33939039Y-98250946D01*
X34202523Y-98040825D01*
X34440825Y-97802523D01*
X34650946Y-97539039D01*
X34830246Y-97253686D01*
X34931901Y-97042596D01*
X34978723Y-96990737D01*
X35046150Y-96972424D01*
X35112774Y-96993472D01*
X35146723Y-97027507D01*
X35146826Y-97027661D01*
X35146828Y-97027665D01*
X35310727Y-97272957D01*
X35330390Y-97295378D01*
X35505241Y-97494758D01*
X35727044Y-97689274D01*
X35739390Y-97697523D01*
X35972335Y-97853172D01*
X36236923Y-97983652D01*
X36516278Y-98078481D01*
X36805620Y-98136034D01*
X36833888Y-98137886D01*
X37099993Y-98155329D01*
X37100000Y-98155329D01*
X37100007Y-98155329D01*
X37342522Y-98139433D01*
X37394380Y-98136034D01*
X37683722Y-98078481D01*
X37963077Y-97983652D01*
X38227665Y-97853172D01*
X38472957Y-97689273D01*
X38694758Y-97494758D01*
X38889273Y-97272957D01*
X39053172Y-97027665D01*
X39183652Y-96763077D01*
X39278481Y-96483722D01*
X39336034Y-96194380D01*
X39339881Y-96135675D01*
X39355329Y-95900007D01*
X39355329Y-95899992D01*
X39336035Y-95605636D01*
X39336034Y-95605620D01*
X39278481Y-95316278D01*
X39183652Y-95036923D01*
X39053172Y-94772336D01*
X38889273Y-94527043D01*
X38782271Y-94405031D01*
X38694758Y-94305241D01*
X38472955Y-94110725D01*
X38227667Y-93946829D01*
X38227660Y-93946825D01*
X37963080Y-93816349D01*
X37683730Y-93721521D01*
X37683724Y-93721519D01*
X37683722Y-93721519D01*
X37394380Y-93663966D01*
X37394373Y-93663965D01*
X37394363Y-93663964D01*
X37100007Y-93644671D01*
X37099993Y-93644671D01*
X36805636Y-93663964D01*
X36805624Y-93663965D01*
X36805620Y-93663966D01*
X36805612Y-93663967D01*
X36805609Y-93663968D01*
X36516283Y-93721518D01*
X36516269Y-93721521D01*
X36236919Y-93816349D01*
X35972334Y-93946828D01*
X35727041Y-94110728D01*
X35505241Y-94305241D01*
X35417728Y-94405031D01*
X35358726Y-94442455D01*
X35288857Y-94442039D01*
X35230305Y-94403915D01*
X35201659Y-94340188D01*
X35200500Y-94323272D01*
X35200500Y-91199986D01*
X35660001Y-91199986D01*
X35670494Y-91302697D01*
X35725641Y-91469119D01*
X35725643Y-91469124D01*
X35817684Y-91618345D01*
X35941654Y-91742315D01*
X36090875Y-91834356D01*
X36090880Y-91834358D01*
X36257302Y-91889505D01*
X36257309Y-91889506D01*
X36360019Y-91899999D01*
X36509999Y-91899999D01*
X37010000Y-91899999D01*
X37159972Y-91899999D01*
X37159986Y-91899998D01*
X37262697Y-91889505D01*
X37429119Y-91834358D01*
X37429124Y-91834356D01*
X37578345Y-91742315D01*
X37702315Y-91618345D01*
X37794356Y-91469124D01*
X37794358Y-91469119D01*
X37849505Y-91302697D01*
X37849506Y-91302690D01*
X37859999Y-91199986D01*
X37860000Y-91199973D01*
X37860000Y-90550000D01*
X37010000Y-90550000D01*
X37010000Y-91899999D01*
X36509999Y-91899999D01*
X36510000Y-91899998D01*
X36510000Y-90550000D01*
X35660001Y-90550000D01*
X35660001Y-91199986D01*
X35200500Y-91199986D01*
X35200500Y-90131493D01*
X35200499Y-90131491D01*
X35191317Y-90050000D01*
X35162767Y-89796606D01*
X35087776Y-89468046D01*
X35063970Y-89400013D01*
X35660000Y-89400013D01*
X35660000Y-90050000D01*
X36510000Y-90050000D01*
X37010000Y-90050000D01*
X37859999Y-90050000D01*
X37859999Y-90031491D01*
X43699500Y-90031491D01*
X43699500Y-95768508D01*
X43737231Y-96103381D01*
X43737233Y-96103397D01*
X43812223Y-96431953D01*
X43812227Y-96431965D01*
X43923532Y-96750054D01*
X44069752Y-97053683D01*
X44199206Y-97259707D01*
X44214453Y-97295378D01*
X44215948Y-97301314D01*
X44215951Y-97301322D01*
X44310528Y-97509537D01*
X44310531Y-97509543D01*
X44440759Y-97697514D01*
X44440763Y-97697519D01*
X44440766Y-97697523D01*
X44602477Y-97859234D01*
X44602481Y-97859237D01*
X44602485Y-97859240D01*
X44790456Y-97989468D01*
X44790462Y-97989471D01*
X44790463Y-97989471D01*
X44790464Y-97989472D01*
X44998684Y-98084051D01*
X45004616Y-98085545D01*
X45040293Y-98100794D01*
X45246306Y-98230242D01*
X45246312Y-98230245D01*
X45246314Y-98230246D01*
X45549949Y-98376469D01*
X45703635Y-98430246D01*
X45868034Y-98487772D01*
X45868046Y-98487776D01*
X46196606Y-98562767D01*
X46531492Y-98600499D01*
X46531493Y-98600500D01*
X46531496Y-98600500D01*
X46868507Y-98600500D01*
X46868507Y-98600499D01*
X47203394Y-98562767D01*
X47531954Y-98487776D01*
X47850051Y-98376469D01*
X48153686Y-98230246D01*
X48439039Y-98050946D01*
X48702523Y-97840825D01*
X48940825Y-97602523D01*
X49150946Y-97339039D01*
X49293377Y-97112361D01*
X49345711Y-97066072D01*
X49414764Y-97055424D01*
X49478613Y-97083799D01*
X49501467Y-97109439D01*
X49597847Y-97253680D01*
X49610729Y-97272960D01*
X49805241Y-97494758D01*
X50027044Y-97689274D01*
X50039390Y-97697523D01*
X50272335Y-97853172D01*
X50536923Y-97983652D01*
X50816278Y-98078481D01*
X51105620Y-98136034D01*
X51133888Y-98137886D01*
X51399993Y-98155329D01*
X51400000Y-98155329D01*
X51400007Y-98155329D01*
X51642522Y-98139433D01*
X51694380Y-98136034D01*
X51983722Y-98078481D01*
X52263077Y-97983652D01*
X52527665Y-97853172D01*
X52772957Y-97689273D01*
X52994758Y-97494758D01*
X53189273Y-97272957D01*
X53353172Y-97027665D01*
X53483652Y-96763077D01*
X53578481Y-96483722D01*
X53636034Y-96194380D01*
X53639881Y-96135675D01*
X53655329Y-95900007D01*
X53655329Y-95899992D01*
X53636035Y-95605636D01*
X53636034Y-95605620D01*
X53578481Y-95316278D01*
X53483652Y-95036923D01*
X53393825Y-94854773D01*
X58450000Y-94854773D01*
X58450000Y-95650000D01*
X59781116Y-95650000D01*
X59750000Y-95806433D01*
X59750000Y-95993567D01*
X59781116Y-96150000D01*
X58450001Y-96150000D01*
X58450001Y-96945227D01*
X58460566Y-97079474D01*
X58516423Y-97301152D01*
X58610962Y-97509287D01*
X58610967Y-97509296D01*
X58741151Y-97697203D01*
X58902796Y-97858848D01*
X59090703Y-97989032D01*
X59090712Y-97989037D01*
X59298847Y-98083576D01*
X59520525Y-98139433D01*
X59654780Y-98149999D01*
X60449999Y-98149999D01*
X60450000Y-98149998D01*
X60450000Y-96818883D01*
X60606433Y-96850000D01*
X60793567Y-96850000D01*
X60950000Y-96818883D01*
X60950000Y-98149999D01*
X61745212Y-98149999D01*
X61745227Y-98149998D01*
X61879474Y-98139433D01*
X62101152Y-98083576D01*
X62309287Y-97989037D01*
X62309296Y-97989032D01*
X62497203Y-97858848D01*
X62658848Y-97697203D01*
X62789032Y-97509296D01*
X62789037Y-97509287D01*
X62883576Y-97301152D01*
X62939433Y-97079474D01*
X62949999Y-96945226D01*
X62950000Y-96945213D01*
X62950000Y-96150000D01*
X61618884Y-96150000D01*
X61650000Y-95993567D01*
X61650000Y-95899992D01*
X63444671Y-95899992D01*
X63444671Y-95900007D01*
X63463964Y-96194363D01*
X63463965Y-96194373D01*
X63463966Y-96194380D01*
X63463968Y-96194390D01*
X63521518Y-96483716D01*
X63521521Y-96483730D01*
X63616349Y-96763080D01*
X63746825Y-97027660D01*
X63746829Y-97027667D01*
X63910725Y-97272955D01*
X64105241Y-97494758D01*
X64327044Y-97689274D01*
X64339390Y-97697523D01*
X64572335Y-97853172D01*
X64836923Y-97983652D01*
X65116278Y-98078481D01*
X65405620Y-98136034D01*
X65433888Y-98137886D01*
X65699993Y-98155329D01*
X65700000Y-98155329D01*
X65700007Y-98155329D01*
X65942522Y-98139433D01*
X65994380Y-98136034D01*
X66283722Y-98078481D01*
X66563077Y-97983652D01*
X66827665Y-97853172D01*
X67072957Y-97689273D01*
X67294758Y-97494758D01*
X67489273Y-97272957D01*
X67653172Y-97027665D01*
X67783652Y-96763077D01*
X67878481Y-96483722D01*
X67936034Y-96194380D01*
X67939881Y-96135675D01*
X67955329Y-95900007D01*
X67955329Y-95899992D01*
X67936035Y-95605636D01*
X67936034Y-95605620D01*
X67878481Y-95316278D01*
X67783652Y-95036923D01*
X67653172Y-94772336D01*
X67489273Y-94527043D01*
X67382271Y-94405031D01*
X67294758Y-94305241D01*
X67072955Y-94110725D01*
X66827667Y-93946829D01*
X66827660Y-93946825D01*
X66563080Y-93816349D01*
X66283730Y-93721521D01*
X66283724Y-93721519D01*
X66283722Y-93721519D01*
X65994380Y-93663966D01*
X65994373Y-93663965D01*
X65994363Y-93663964D01*
X65700007Y-93644671D01*
X65699993Y-93644671D01*
X65405636Y-93663964D01*
X65405624Y-93663965D01*
X65405620Y-93663966D01*
X65405612Y-93663967D01*
X65405609Y-93663968D01*
X65116283Y-93721518D01*
X65116269Y-93721521D01*
X64836919Y-93816349D01*
X64572334Y-93946828D01*
X64327041Y-94110728D01*
X64105241Y-94305241D01*
X63910728Y-94527041D01*
X63746828Y-94772334D01*
X63616349Y-95036919D01*
X63521521Y-95316269D01*
X63521518Y-95316283D01*
X63463968Y-95605609D01*
X63463964Y-95605636D01*
X63444671Y-95899992D01*
X61650000Y-95899992D01*
X61650000Y-95806433D01*
X61618884Y-95650000D01*
X62949999Y-95650000D01*
X62949999Y-94854787D01*
X62949998Y-94854772D01*
X62939433Y-94720525D01*
X62883576Y-94498847D01*
X62789037Y-94290712D01*
X62789032Y-94290703D01*
X62658848Y-94102796D01*
X62497203Y-93941151D01*
X62309296Y-93810967D01*
X62309287Y-93810962D01*
X62101152Y-93716423D01*
X61879474Y-93660566D01*
X61745226Y-93650000D01*
X60950000Y-93650000D01*
X60950000Y-94981116D01*
X60793567Y-94950000D01*
X60606433Y-94950000D01*
X60450000Y-94981116D01*
X60450000Y-93650000D01*
X59654787Y-93650000D01*
X59654772Y-93650001D01*
X59520525Y-93660566D01*
X59298847Y-93716423D01*
X59090712Y-93810962D01*
X59090703Y-93810967D01*
X58902796Y-93941151D01*
X58741151Y-94102796D01*
X58610967Y-94290703D01*
X58610962Y-94290712D01*
X58516423Y-94498847D01*
X58460566Y-94720525D01*
X58450000Y-94854773D01*
X53393825Y-94854773D01*
X53353172Y-94772336D01*
X53189273Y-94527043D01*
X53082271Y-94405031D01*
X52994758Y-94305241D01*
X52772955Y-94110725D01*
X52527667Y-93946829D01*
X52527660Y-93946825D01*
X52263080Y-93816349D01*
X51983730Y-93721521D01*
X51983724Y-93721519D01*
X51983722Y-93721519D01*
X51694380Y-93663966D01*
X51694373Y-93663965D01*
X51694363Y-93663964D01*
X51400007Y-93644671D01*
X51399993Y-93644671D01*
X51105636Y-93663964D01*
X51105624Y-93663965D01*
X51105620Y-93663966D01*
X51105612Y-93663967D01*
X51105609Y-93663968D01*
X50816283Y-93721518D01*
X50816269Y-93721521D01*
X50536919Y-93816349D01*
X50272334Y-93946828D01*
X50027041Y-94110728D01*
X49906259Y-94216651D01*
X49842877Y-94246054D01*
X49773660Y-94236522D01*
X49720585Y-94191082D01*
X49700502Y-94124161D01*
X49700500Y-94123423D01*
X49700500Y-91199986D01*
X50282501Y-91199986D01*
X50292994Y-91302697D01*
X50348141Y-91469119D01*
X50348143Y-91469124D01*
X50440184Y-91618345D01*
X50564154Y-91742315D01*
X50713375Y-91834356D01*
X50713380Y-91834358D01*
X50879802Y-91889505D01*
X50879809Y-91889506D01*
X50982519Y-91899999D01*
X51132499Y-91899999D01*
X51632500Y-91899999D01*
X51782472Y-91899999D01*
X51782486Y-91899998D01*
X51885197Y-91889505D01*
X52051619Y-91834358D01*
X52051624Y-91834356D01*
X52200845Y-91742315D01*
X52324815Y-91618345D01*
X52416856Y-91469124D01*
X52416858Y-91469119D01*
X52472005Y-91302697D01*
X52472006Y-91302690D01*
X52482499Y-91199986D01*
X52482500Y-91199973D01*
X52482500Y-90550000D01*
X51632500Y-90550000D01*
X51632500Y-91899999D01*
X51132499Y-91899999D01*
X51132500Y-91899998D01*
X51132500Y-90550000D01*
X50282501Y-90550000D01*
X50282501Y-91199986D01*
X49700500Y-91199986D01*
X49700500Y-90031493D01*
X49700499Y-90031491D01*
X49674035Y-89796618D01*
X49662767Y-89696606D01*
X49595072Y-89400013D01*
X50282500Y-89400013D01*
X50282500Y-90050000D01*
X51132500Y-90050000D01*
X51632500Y-90050000D01*
X52482499Y-90050000D01*
X52482499Y-89400028D01*
X52482498Y-89400013D01*
X52472005Y-89297302D01*
X52416858Y-89130880D01*
X52416856Y-89130875D01*
X52324815Y-88981654D01*
X52200845Y-88857684D01*
X52051624Y-88765643D01*
X52051619Y-88765641D01*
X51885197Y-88710494D01*
X51885190Y-88710493D01*
X51782486Y-88700000D01*
X51632500Y-88700000D01*
X51632500Y-90050000D01*
X51132500Y-90050000D01*
X51132500Y-88700000D01*
X50982527Y-88700000D01*
X50982512Y-88700001D01*
X50879802Y-88710494D01*
X50713380Y-88765641D01*
X50713375Y-88765643D01*
X50564154Y-88857684D01*
X50440184Y-88981654D01*
X50348143Y-89130875D01*
X50348141Y-89130880D01*
X50292994Y-89297302D01*
X50292993Y-89297309D01*
X50282500Y-89400013D01*
X49595072Y-89400013D01*
X49587776Y-89368046D01*
X49476469Y-89049949D01*
X49330246Y-88746314D01*
X49150946Y-88460961D01*
X48940825Y-88197477D01*
X48702523Y-87959175D01*
X48702522Y-87959174D01*
X48702516Y-87959168D01*
X48655213Y-87921446D01*
X48615072Y-87864258D01*
X48612222Y-87794447D01*
X48647567Y-87734177D01*
X48709886Y-87702583D01*
X48732525Y-87700499D01*
X48752508Y-87700499D01*
X49452481Y-87700499D01*
X49452491Y-87700500D01*
X51802508Y-87700499D01*
X51802512Y-87700499D01*
X51840618Y-87696605D01*
X51840618Y-87696606D01*
X51840623Y-87696604D01*
X51905297Y-87689999D01*
X51906281Y-87689672D01*
X51906769Y-87689511D01*
X51906770Y-87689516D01*
X51906803Y-87689499D01*
X52071836Y-87634814D01*
X52185766Y-87564540D01*
X52221156Y-87542712D01*
X52345212Y-87418656D01*
X52349179Y-87412224D01*
X52437315Y-87269335D01*
X52492499Y-87102799D01*
X52503000Y-87000011D01*
X52503000Y-81639729D01*
X52522685Y-81572690D01*
X52539319Y-81552048D01*
X54402948Y-79688419D01*
X54402951Y-79688416D01*
X54485084Y-79565495D01*
X54541658Y-79428913D01*
X54559396Y-79339739D01*
X54570500Y-79283920D01*
X54570500Y-78681663D01*
X54590185Y-78614624D01*
X54623379Y-78580087D01*
X54659140Y-78555047D01*
X54820045Y-78394142D01*
X54820046Y-78394141D01*
X54820047Y-78394140D01*
X54950568Y-78207735D01*
X55046739Y-78001497D01*
X55105635Y-77781693D01*
X55125468Y-77555001D01*
X55105635Y-77328309D01*
X55094790Y-77287835D01*
X55096453Y-77217985D01*
X55126882Y-77168063D01*
X55391609Y-76903336D01*
X55452930Y-76869853D01*
X55522622Y-76874837D01*
X55566969Y-76903338D01*
X55606344Y-76942713D01*
X55755666Y-77034815D01*
X55922203Y-77090000D01*
X56024991Y-77100501D01*
X57375008Y-77100500D01*
X57477797Y-77090000D01*
X57644334Y-77034815D01*
X57793656Y-76942713D01*
X57917712Y-76818657D01*
X58009814Y-76669335D01*
X58064999Y-76502798D01*
X58075500Y-76400010D01*
X58075499Y-75499993D01*
X58064999Y-75397204D01*
X58009814Y-75230667D01*
X57917712Y-75081345D01*
X57793656Y-74957289D01*
X57644334Y-74865187D01*
X57477797Y-74810002D01*
X57477795Y-74810001D01*
X57375010Y-74799501D01*
X56024998Y-74799501D01*
X56024981Y-74799502D01*
X55922203Y-74810001D01*
X55922200Y-74810002D01*
X55755668Y-74865186D01*
X55755663Y-74865188D01*
X55606342Y-74957290D01*
X55482289Y-75081343D01*
X55390187Y-75230664D01*
X55387136Y-75237210D01*
X55385727Y-75236553D01*
X55350762Y-75287048D01*
X55297025Y-75312212D01*
X55232167Y-75325113D01*
X55162576Y-75318886D01*
X55109600Y-75278982D01*
X55098872Y-75265001D01*
X54135686Y-75265001D01*
X54140080Y-75260607D01*
X54192741Y-75169395D01*
X54220000Y-75067662D01*
X54220000Y-74962340D01*
X54192741Y-74860607D01*
X54140080Y-74769395D01*
X54135686Y-74765001D01*
X55098872Y-74765001D01*
X55098872Y-74765000D01*
X55046269Y-74568683D01*
X55046265Y-74568674D01*
X54950134Y-74362518D01*
X54819657Y-74176180D01*
X54658820Y-74015343D01*
X54472482Y-73884866D01*
X54414133Y-73857658D01*
X54361694Y-73811485D01*
X54342542Y-73744292D01*
X54362758Y-73677411D01*
X54414129Y-73632896D01*
X54472734Y-73605569D01*
X54659139Y-73475048D01*
X54820047Y-73314140D01*
X54899327Y-73200915D01*
X54915108Y-73178378D01*
X54969685Y-73134753D01*
X55016683Y-73125501D01*
X55200501Y-73125501D01*
X55267540Y-73145186D01*
X55313295Y-73197990D01*
X55324501Y-73249501D01*
X55324501Y-73300017D01*
X55335000Y-73402795D01*
X55335001Y-73402798D01*
X55390185Y-73569330D01*
X55390187Y-73569335D01*
X55412535Y-73605567D01*
X55482288Y-73718655D01*
X55606344Y-73842711D01*
X55755666Y-73934813D01*
X55922203Y-73989998D01*
X56024991Y-74000499D01*
X57375008Y-74000498D01*
X57477797Y-73989998D01*
X57644334Y-73934813D01*
X57793656Y-73842711D01*
X57917712Y-73718655D01*
X58009814Y-73569333D01*
X58064999Y-73402796D01*
X58075500Y-73300008D01*
X58075499Y-72399991D01*
X58070716Y-72353172D01*
X58064999Y-72297202D01*
X58064998Y-72297199D01*
X58043227Y-72231500D01*
X58009814Y-72130665D01*
X57917712Y-71981343D01*
X57793656Y-71857287D01*
X57690783Y-71793835D01*
X57644336Y-71765186D01*
X57644331Y-71765184D01*
X57642862Y-71764697D01*
X57477797Y-71710000D01*
X57477795Y-71709999D01*
X57375010Y-71699499D01*
X56024998Y-71699499D01*
X56024981Y-71699500D01*
X55922203Y-71709999D01*
X55922200Y-71710000D01*
X55755668Y-71765184D01*
X55755659Y-71765188D01*
X55689428Y-71806040D01*
X55624332Y-71824501D01*
X55016683Y-71824501D01*
X54949644Y-71804816D01*
X54915108Y-71771624D01*
X54820045Y-71635859D01*
X54659141Y-71474955D01*
X54472734Y-71344433D01*
X54472732Y-71344432D01*
X54266497Y-71248262D01*
X54266488Y-71248259D01*
X54046697Y-71189367D01*
X54046693Y-71189366D01*
X54046692Y-71189366D01*
X54046691Y-71189365D01*
X54046686Y-71189365D01*
X53820002Y-71169533D01*
X53819998Y-71169533D01*
X53593313Y-71189365D01*
X53593302Y-71189367D01*
X53373511Y-71248259D01*
X53373502Y-71248262D01*
X53167267Y-71344432D01*
X53167265Y-71344433D01*
X52980858Y-71474955D01*
X52819954Y-71635859D01*
X52689432Y-71822266D01*
X52689431Y-71822268D01*
X52593261Y-72028503D01*
X52593258Y-72028512D01*
X52534366Y-72248303D01*
X52534364Y-72248314D01*
X52514532Y-72474999D01*
X52514532Y-72475002D01*
X52534364Y-72701687D01*
X52534366Y-72701698D01*
X52593258Y-72921489D01*
X52593261Y-72921498D01*
X52689431Y-73127733D01*
X52689432Y-73127735D01*
X52819954Y-73314142D01*
X52980858Y-73475046D01*
X52993913Y-73484187D01*
X53167266Y-73605569D01*
X53225865Y-73632894D01*
X53278305Y-73679066D01*
X53297457Y-73746259D01*
X53277242Y-73813140D01*
X53225867Y-73857658D01*
X53167515Y-73884868D01*
X52981179Y-74015343D01*
X52820342Y-74176180D01*
X52689865Y-74362518D01*
X52593734Y-74568674D01*
X52593730Y-74568683D01*
X52541127Y-74765000D01*
X52541128Y-74765001D01*
X53504314Y-74765001D01*
X53499920Y-74769395D01*
X53447259Y-74860607D01*
X53420000Y-74962340D01*
X53420000Y-75067662D01*
X53447259Y-75169395D01*
X53499920Y-75260607D01*
X53504314Y-75265001D01*
X52541128Y-75265001D01*
X52593730Y-75461318D01*
X52593734Y-75461327D01*
X52689865Y-75667483D01*
X52820342Y-75853821D01*
X52981179Y-76014658D01*
X53167518Y-76145135D01*
X53167520Y-76145136D01*
X53225865Y-76172343D01*
X53278305Y-76218515D01*
X53297457Y-76285708D01*
X53277242Y-76352590D01*
X53225867Y-76397106D01*
X53225279Y-76397381D01*
X53167264Y-76424434D01*
X52980858Y-76554955D01*
X52819954Y-76715859D01*
X52689432Y-76902266D01*
X52689431Y-76902268D01*
X52593261Y-77108503D01*
X52593258Y-77108512D01*
X52534366Y-77328303D01*
X52534364Y-77328314D01*
X52514532Y-77554999D01*
X52514532Y-77555002D01*
X52534364Y-77781687D01*
X52534366Y-77781698D01*
X52593258Y-78001489D01*
X52593261Y-78001498D01*
X52689431Y-78207733D01*
X52689432Y-78207735D01*
X52819954Y-78394142D01*
X52980859Y-78555047D01*
X53016621Y-78580087D01*
X53060247Y-78634663D01*
X53069500Y-78681663D01*
X53069500Y-78847770D01*
X53049815Y-78914809D01*
X53033181Y-78935451D01*
X51705453Y-80263180D01*
X51644130Y-80296665D01*
X51617772Y-80299499D01*
X46402480Y-80299499D01*
X46299698Y-80310000D01*
X46133166Y-80365183D01*
X46133155Y-80365188D01*
X45983846Y-80457284D01*
X45983842Y-80457287D01*
X45859788Y-80581341D01*
X45859785Y-80581345D01*
X45767689Y-80730654D01*
X45767684Y-80730665D01*
X45712501Y-80897197D01*
X45702000Y-80999979D01*
X45702000Y-87000018D01*
X45712501Y-87102800D01*
X45752487Y-87223470D01*
X45754889Y-87293299D01*
X45719157Y-87353340D01*
X45675736Y-87379515D01*
X45549955Y-87423528D01*
X45549941Y-87423534D01*
X45246316Y-87569752D01*
X44960962Y-87749053D01*
X44697477Y-87959174D01*
X44459174Y-88197477D01*
X44249053Y-88460962D01*
X44069752Y-88746316D01*
X43923532Y-89049945D01*
X43812227Y-89368034D01*
X43812223Y-89368046D01*
X43737233Y-89696602D01*
X43737231Y-89696618D01*
X43699500Y-90031491D01*
X37859999Y-90031491D01*
X37859999Y-89400028D01*
X37859998Y-89400013D01*
X37849505Y-89297302D01*
X37794358Y-89130880D01*
X37794356Y-89130875D01*
X37702315Y-88981654D01*
X37578345Y-88857684D01*
X37429124Y-88765643D01*
X37429119Y-88765641D01*
X37262697Y-88710494D01*
X37262690Y-88710493D01*
X37159986Y-88700000D01*
X37010000Y-88700000D01*
X37010000Y-90050000D01*
X36510000Y-90050000D01*
X36510000Y-88700000D01*
X36360027Y-88700000D01*
X36360012Y-88700001D01*
X36257302Y-88710494D01*
X36090880Y-88765641D01*
X36090875Y-88765643D01*
X35941654Y-88857684D01*
X35817684Y-88981654D01*
X35725643Y-89130875D01*
X35725641Y-89130880D01*
X35670494Y-89297302D01*
X35670493Y-89297309D01*
X35660000Y-89400013D01*
X35063970Y-89400013D01*
X34976469Y-89149949D01*
X34830246Y-88846314D01*
X34650946Y-88560961D01*
X34440825Y-88297477D01*
X34202523Y-88059175D01*
X34198555Y-88056011D01*
X34029816Y-87921446D01*
X33989676Y-87864258D01*
X33986826Y-87794446D01*
X34022171Y-87734176D01*
X34084490Y-87702583D01*
X34107129Y-87700499D01*
X34130008Y-87700499D01*
X34829981Y-87700499D01*
X34829991Y-87700500D01*
X37180008Y-87700499D01*
X37180012Y-87700499D01*
X37218118Y-87696605D01*
X37218118Y-87696606D01*
X37218123Y-87696604D01*
X37282797Y-87689999D01*
X37283781Y-87689672D01*
X37284269Y-87689511D01*
X37284270Y-87689516D01*
X37284303Y-87689499D01*
X37449336Y-87634814D01*
X37563266Y-87564540D01*
X37598656Y-87542712D01*
X37722712Y-87418656D01*
X37726679Y-87412224D01*
X37814815Y-87269335D01*
X37869999Y-87102799D01*
X37880500Y-87000011D01*
X37880500Y-81862229D01*
X37900185Y-81795190D01*
X37916819Y-81774548D01*
X38642236Y-81049131D01*
X39402952Y-80288415D01*
X39430205Y-80247627D01*
X39485084Y-80165495D01*
X39508518Y-80108920D01*
X39541659Y-80028912D01*
X39570500Y-79883917D01*
X39570500Y-79736082D01*
X39570500Y-78681663D01*
X39590185Y-78614624D01*
X39623379Y-78580087D01*
X39659140Y-78555047D01*
X39820045Y-78394142D01*
X39820046Y-78394141D01*
X39820047Y-78394140D01*
X39950568Y-78207735D01*
X39990503Y-78122095D01*
X40036676Y-78069656D01*
X40102885Y-78050500D01*
X40562769Y-78050500D01*
X40629808Y-78070185D01*
X40650450Y-78086819D01*
X40706344Y-78142713D01*
X40855666Y-78234815D01*
X41022203Y-78290000D01*
X41124991Y-78300501D01*
X42475008Y-78300500D01*
X42577797Y-78290000D01*
X42744334Y-78234815D01*
X42893656Y-78142713D01*
X43017712Y-78018657D01*
X43109814Y-77869335D01*
X43164999Y-77702798D01*
X43175500Y-77600010D01*
X43175499Y-76699993D01*
X43173422Y-76679664D01*
X43164999Y-76597204D01*
X43164998Y-76597201D01*
X43133715Y-76502796D01*
X43109814Y-76430667D01*
X43017712Y-76281345D01*
X42893656Y-76157289D01*
X42744334Y-76065187D01*
X42577797Y-76010002D01*
X42577795Y-76010001D01*
X42475010Y-75999501D01*
X41124998Y-75999501D01*
X41124981Y-75999502D01*
X41022203Y-76010001D01*
X41022200Y-76010002D01*
X40855668Y-76065186D01*
X40855663Y-76065188D01*
X40706342Y-76157290D01*
X40582289Y-76281343D01*
X40490187Y-76430664D01*
X40490185Y-76430669D01*
X40435001Y-76597205D01*
X40435000Y-76597206D01*
X40430823Y-76638102D01*
X40404427Y-76702794D01*
X40347247Y-76742945D01*
X40307465Y-76749500D01*
X39905048Y-76749500D01*
X39838009Y-76729815D01*
X39817367Y-76713181D01*
X39659141Y-76554955D01*
X39472734Y-76424433D01*
X39472732Y-76424432D01*
X39414721Y-76397381D01*
X39414132Y-76397106D01*
X39361694Y-76350935D01*
X39342542Y-76283741D01*
X39362758Y-76216860D01*
X39414134Y-76172342D01*
X39472484Y-76145133D01*
X39658820Y-76014658D01*
X39819657Y-75853821D01*
X39950134Y-75667483D01*
X40046265Y-75461327D01*
X40046269Y-75461318D01*
X40098872Y-75265001D01*
X39135686Y-75265001D01*
X39140080Y-75260607D01*
X39192741Y-75169395D01*
X39220000Y-75067662D01*
X39220000Y-74962340D01*
X39192741Y-74860607D01*
X39140080Y-74769395D01*
X39135686Y-74765001D01*
X40098872Y-74765001D01*
X40098872Y-74765000D01*
X40046269Y-74568683D01*
X40046265Y-74568674D01*
X39950134Y-74362518D01*
X39819657Y-74176180D01*
X39658820Y-74015343D01*
X39472482Y-73884866D01*
X39414133Y-73857658D01*
X39361694Y-73811485D01*
X39342542Y-73744292D01*
X39362758Y-73677411D01*
X39414129Y-73632896D01*
X39472734Y-73605569D01*
X39659139Y-73475048D01*
X39820047Y-73314140D01*
X39868781Y-73244539D01*
X39923357Y-73200915D01*
X39992856Y-73193721D01*
X40055210Y-73225243D01*
X40058037Y-73227982D01*
X40388181Y-73558126D01*
X40421666Y-73619449D01*
X40424500Y-73645807D01*
X40424500Y-74500000D01*
X40424501Y-74500018D01*
X40435000Y-74602795D01*
X40435001Y-74602798D01*
X40490185Y-74769330D01*
X40490187Y-74769335D01*
X40508794Y-74799501D01*
X40582288Y-74918655D01*
X40706344Y-75042711D01*
X40855666Y-75134813D01*
X41022203Y-75189998D01*
X41124991Y-75200499D01*
X42475008Y-75200498D01*
X42577797Y-75189998D01*
X42744334Y-75134813D01*
X42893656Y-75042711D01*
X43017712Y-74918655D01*
X43109814Y-74769333D01*
X43164999Y-74602796D01*
X43175500Y-74500008D01*
X43175499Y-73599991D01*
X43172367Y-73569335D01*
X43164999Y-73497202D01*
X43164998Y-73497199D01*
X43157657Y-73475046D01*
X43109814Y-73330665D01*
X43069062Y-73264595D01*
X43050623Y-73197205D01*
X43071546Y-73130542D01*
X43125187Y-73085772D01*
X43174602Y-73075501D01*
X44775501Y-73075501D01*
X44842540Y-73095186D01*
X44888295Y-73147990D01*
X44899501Y-73199501D01*
X44899501Y-73322877D01*
X44905908Y-73382484D01*
X44956202Y-73517329D01*
X44956206Y-73517336D01*
X45042452Y-73632545D01*
X45042455Y-73632548D01*
X45157664Y-73718794D01*
X45157671Y-73718798D01*
X45202618Y-73735562D01*
X45292517Y-73769092D01*
X45327596Y-73772863D01*
X45392144Y-73799600D01*
X45431993Y-73856992D01*
X45434488Y-73926817D01*
X45398836Y-73986906D01*
X45385464Y-73997726D01*
X45360858Y-74014955D01*
X45199954Y-74175859D01*
X45069432Y-74362266D01*
X45069431Y-74362268D01*
X44973261Y-74568503D01*
X44973258Y-74568512D01*
X44914366Y-74788303D01*
X44914364Y-74788314D01*
X44894532Y-75014999D01*
X44894532Y-75015002D01*
X44914364Y-75241687D01*
X44914366Y-75241698D01*
X44973258Y-75461489D01*
X44973261Y-75461498D01*
X45069431Y-75667733D01*
X45069432Y-75667735D01*
X45199954Y-75854142D01*
X45360858Y-76015046D01*
X45360861Y-76015048D01*
X45547266Y-76145569D01*
X45605273Y-76172618D01*
X45657712Y-76218790D01*
X45676864Y-76285984D01*
X45656648Y-76352865D01*
X45605274Y-76397381D01*
X45547272Y-76424428D01*
X45547265Y-76424432D01*
X45360858Y-76554954D01*
X45199954Y-76715858D01*
X45069432Y-76902265D01*
X45069431Y-76902267D01*
X44973261Y-77108502D01*
X44973258Y-77108511D01*
X44914366Y-77328302D01*
X44914364Y-77328313D01*
X44894532Y-77554998D01*
X44894532Y-77555001D01*
X44914364Y-77781686D01*
X44914366Y-77781697D01*
X44973258Y-78001488D01*
X44973261Y-78001497D01*
X45069431Y-78207732D01*
X45069432Y-78207734D01*
X45199954Y-78394141D01*
X45360858Y-78555045D01*
X45360861Y-78555047D01*
X45547266Y-78685568D01*
X45753504Y-78781739D01*
X45973308Y-78840635D01*
X46135230Y-78854801D01*
X46199998Y-78860468D01*
X46200000Y-78860468D01*
X46200002Y-78860468D01*
X46256673Y-78855509D01*
X46426692Y-78840635D01*
X46646496Y-78781739D01*
X46852734Y-78685568D01*
X47039139Y-78555047D01*
X47200047Y-78394139D01*
X47330568Y-78207734D01*
X47426739Y-78001496D01*
X47485635Y-77781692D01*
X47505468Y-77555000D01*
X47485635Y-77328308D01*
X47426739Y-77108504D01*
X47330568Y-76902266D01*
X47219011Y-76742945D01*
X47200045Y-76715858D01*
X47039141Y-76554954D01*
X46861641Y-76430669D01*
X46852734Y-76424432D01*
X46794724Y-76397381D01*
X46742286Y-76351209D01*
X46723135Y-76284015D01*
X46743351Y-76217134D01*
X46794726Y-76172618D01*
X46852734Y-76145569D01*
X47039139Y-76015048D01*
X47200047Y-75854140D01*
X47330568Y-75667735D01*
X47426739Y-75461497D01*
X47485635Y-75241693D01*
X47505468Y-75015001D01*
X47504681Y-75006011D01*
X47491960Y-74860607D01*
X47485635Y-74788309D01*
X47426739Y-74568505D01*
X47330568Y-74362267D01*
X47200047Y-74175862D01*
X47200045Y-74175859D01*
X47039143Y-74014957D01*
X47018493Y-74000498D01*
X47014535Y-73997726D01*
X46970912Y-73943150D01*
X46963719Y-73873651D01*
X46995241Y-73811297D01*
X47055471Y-73775883D01*
X47072404Y-73772862D01*
X47107483Y-73769092D01*
X47242331Y-73718797D01*
X47357546Y-73632547D01*
X47443796Y-73517332D01*
X47494091Y-73382484D01*
X47500500Y-73322874D01*
X47500499Y-71627129D01*
X47494091Y-71567518D01*
X47493885Y-71566967D01*
X47443797Y-71432672D01*
X47443793Y-71432665D01*
X47357547Y-71317456D01*
X47357544Y-71317453D01*
X47242335Y-71231207D01*
X47242328Y-71231203D01*
X47107482Y-71180909D01*
X47107483Y-71180909D01*
X47047883Y-71174502D01*
X47047881Y-71174501D01*
X47047873Y-71174501D01*
X47047864Y-71174501D01*
X45352129Y-71174501D01*
X45352123Y-71174502D01*
X45292516Y-71180909D01*
X45157671Y-71231203D01*
X45157664Y-71231207D01*
X45042455Y-71317453D01*
X45042452Y-71317456D01*
X44956206Y-71432665D01*
X44956202Y-71432672D01*
X44905908Y-71567518D01*
X44902368Y-71600452D01*
X44899501Y-71627124D01*
X44899500Y-71627136D01*
X44899500Y-71750501D01*
X44879815Y-71817540D01*
X44827011Y-71863295D01*
X44775500Y-71874501D01*
X44604547Y-71874501D01*
X44537508Y-71854816D01*
X44491753Y-71802012D01*
X44481327Y-71736617D01*
X44493565Y-71628002D01*
X44493565Y-71627996D01*
X44473369Y-71448750D01*
X44473368Y-71448745D01*
X44459746Y-71409815D01*
X44413789Y-71278478D01*
X44317816Y-71125738D01*
X44190262Y-70998184D01*
X44128307Y-70959255D01*
X44037521Y-70902210D01*
X43867255Y-70842632D01*
X43867246Y-70842630D01*
X43860012Y-70841815D01*
X43795600Y-70814744D01*
X43786223Y-70806277D01*
X43251630Y-70271684D01*
X43218145Y-70210361D01*
X43223129Y-70140669D01*
X43265001Y-70084736D01*
X43330465Y-70060319D01*
X43339311Y-70060003D01*
X70226000Y-70060003D01*
X70293039Y-70079688D01*
G37*
%TD.AperFunction*%
%TA.AperFunction,Conductor*%
G36*
X38626942Y-70680185D02*
G01*
X38647584Y-70696819D01*
X38908617Y-70957852D01*
X38942102Y-71019175D01*
X38937118Y-71088867D01*
X38895246Y-71144800D01*
X38829782Y-71169217D01*
X38820936Y-71169533D01*
X38819998Y-71169533D01*
X38593313Y-71189365D01*
X38593302Y-71189367D01*
X38373511Y-71248259D01*
X38373502Y-71248262D01*
X38167267Y-71344432D01*
X38167265Y-71344433D01*
X37980858Y-71474955D01*
X37819954Y-71635859D01*
X37689432Y-71822266D01*
X37689431Y-71822268D01*
X37593261Y-72028503D01*
X37593258Y-72028512D01*
X37534366Y-72248303D01*
X37534364Y-72248314D01*
X37514532Y-72474999D01*
X37514532Y-72475002D01*
X37534364Y-72701687D01*
X37534366Y-72701698D01*
X37593258Y-72921489D01*
X37593261Y-72921498D01*
X37689431Y-73127733D01*
X37689432Y-73127735D01*
X37819954Y-73314142D01*
X37980858Y-73475046D01*
X37993913Y-73484187D01*
X38167266Y-73605569D01*
X38225865Y-73632894D01*
X38278305Y-73679066D01*
X38297457Y-73746259D01*
X38277242Y-73813140D01*
X38225867Y-73857658D01*
X38167515Y-73884868D01*
X37981179Y-74015343D01*
X37820342Y-74176180D01*
X37689865Y-74362518D01*
X37593734Y-74568674D01*
X37593730Y-74568683D01*
X37541127Y-74765000D01*
X37541128Y-74765001D01*
X38504314Y-74765001D01*
X38499920Y-74769395D01*
X38447259Y-74860607D01*
X38420000Y-74962340D01*
X38420000Y-75067662D01*
X38447259Y-75169395D01*
X38499920Y-75260607D01*
X38504314Y-75265001D01*
X37541128Y-75265001D01*
X37593730Y-75461318D01*
X37593734Y-75461327D01*
X37689865Y-75667483D01*
X37820342Y-75853821D01*
X37981179Y-76014658D01*
X38167518Y-76145135D01*
X38167520Y-76145136D01*
X38225865Y-76172343D01*
X38278305Y-76218515D01*
X38297457Y-76285708D01*
X38277242Y-76352590D01*
X38225867Y-76397106D01*
X38225279Y-76397381D01*
X38167264Y-76424434D01*
X37980858Y-76554955D01*
X37819954Y-76715859D01*
X37689432Y-76902266D01*
X37689431Y-76902268D01*
X37593261Y-77108503D01*
X37593258Y-77108512D01*
X37534366Y-77328303D01*
X37534364Y-77328314D01*
X37514532Y-77554999D01*
X37514532Y-77555002D01*
X37534364Y-77781687D01*
X37534366Y-77781698D01*
X37593258Y-78001489D01*
X37593261Y-78001498D01*
X37689431Y-78207733D01*
X37689432Y-78207735D01*
X37819954Y-78394142D01*
X37980859Y-78555047D01*
X38016621Y-78580087D01*
X38060247Y-78634663D01*
X38069500Y-78681663D01*
X38069500Y-79447769D01*
X38049815Y-79514808D01*
X38033181Y-79535450D01*
X37302537Y-80266093D01*
X37241214Y-80299578D01*
X37202259Y-80301771D01*
X37180013Y-80299499D01*
X37180012Y-80299499D01*
X32853596Y-80299499D01*
X32786557Y-80279814D01*
X32740802Y-80227010D01*
X32730858Y-80157852D01*
X32759883Y-80094296D01*
X32765915Y-80087818D01*
X33525271Y-79328462D01*
X33525276Y-79328457D01*
X33596465Y-79221914D01*
X33645501Y-79103531D01*
X33670500Y-78977856D01*
X33670500Y-72840807D01*
X33690185Y-72773768D01*
X33706814Y-72753130D01*
X34859494Y-71600450D01*
X34920815Y-71566967D01*
X34925955Y-71566121D01*
X34929251Y-71565369D01*
X34929253Y-71565368D01*
X34929255Y-71565368D01*
X35099522Y-71505789D01*
X35252262Y-71409816D01*
X35379816Y-71282262D01*
X35475789Y-71129522D01*
X35535368Y-70959255D01*
X35535526Y-70957852D01*
X35556345Y-70773081D01*
X35558835Y-70773361D01*
X35575250Y-70717461D01*
X35628054Y-70671706D01*
X35679565Y-70660500D01*
X38559903Y-70660500D01*
X38626942Y-70680185D01*
G37*
%TD.AperFunction*%
%TD*%
%TA.AperFunction,Conductor*%
%TO.N,GND1*%
G36*
X69822117Y-46770340D02*
G01*
X69878050Y-46812212D01*
X69902467Y-46877676D01*
X69902141Y-46899123D01*
X69899499Y-46924978D01*
X69899499Y-48275001D01*
X69899500Y-48275018D01*
X69909999Y-48377796D01*
X69910000Y-48377799D01*
X69965184Y-48544331D01*
X69965186Y-48544336D01*
X69975298Y-48560730D01*
X70057287Y-48693656D01*
X70181343Y-48817712D01*
X70330665Y-48909814D01*
X70398505Y-48932294D01*
X70455949Y-48972065D01*
X70482773Y-49036581D01*
X70470458Y-49105357D01*
X70422916Y-49156557D01*
X70398507Y-49167704D01*
X70330671Y-49190183D01*
X70330662Y-49190187D01*
X70181341Y-49282289D01*
X70057288Y-49406342D01*
X69965186Y-49555663D01*
X69965184Y-49555668D01*
X69945758Y-49614292D01*
X69910000Y-49722203D01*
X69910000Y-49722204D01*
X69909999Y-49722204D01*
X69899499Y-49824983D01*
X69899499Y-51175001D01*
X69899500Y-51175018D01*
X69909999Y-51277796D01*
X69910000Y-51277799D01*
X69928595Y-51333913D01*
X69965185Y-51444334D01*
X70054730Y-51589511D01*
X70057288Y-51593657D01*
X70176303Y-51712672D01*
X70209788Y-51773995D01*
X70204804Y-51843687D01*
X70176304Y-51888034D01*
X70057681Y-52006657D01*
X69965642Y-52155875D01*
X69965640Y-52155880D01*
X69910493Y-52322302D01*
X69910492Y-52322309D01*
X69899999Y-52425013D01*
X69899999Y-52850000D01*
X71175999Y-52850000D01*
X71243038Y-52869685D01*
X71288793Y-52922489D01*
X71299999Y-52974000D01*
X71299999Y-54474999D01*
X71499971Y-54474999D01*
X71499985Y-54474998D01*
X71602696Y-54464505D01*
X71769118Y-54409358D01*
X71769123Y-54409356D01*
X71918344Y-54317315D01*
X71937819Y-54297841D01*
X71999142Y-54264356D01*
X72068834Y-54269340D01*
X72124767Y-54311212D01*
X72149184Y-54376676D01*
X72149500Y-54385522D01*
X72149500Y-54913771D01*
X72129815Y-54980810D01*
X72077011Y-55026565D01*
X72007853Y-55036509D01*
X71944297Y-55007484D01*
X71937819Y-55001452D01*
X71918656Y-54982289D01*
X71918655Y-54982288D01*
X71807571Y-54913771D01*
X71769335Y-54890187D01*
X71769330Y-54890185D01*
X71749497Y-54883613D01*
X71602796Y-54835001D01*
X71602794Y-54835000D01*
X71500009Y-54824500D01*
X70599997Y-54824500D01*
X70599979Y-54824501D01*
X70497202Y-54835000D01*
X70497199Y-54835001D01*
X70330667Y-54890185D01*
X70330662Y-54890187D01*
X70181341Y-54982289D01*
X70057288Y-55106342D01*
X69965186Y-55255663D01*
X69965184Y-55255668D01*
X69950498Y-55299988D01*
X69910000Y-55422203D01*
X69910000Y-55422204D01*
X69909999Y-55422204D01*
X69899499Y-55524983D01*
X69899499Y-56875001D01*
X69899500Y-56875018D01*
X69909999Y-56977796D01*
X69910000Y-56977799D01*
X69965184Y-57144331D01*
X69965186Y-57144336D01*
X69999598Y-57200126D01*
X70057287Y-57293656D01*
X70181343Y-57417712D01*
X70330665Y-57509814D01*
X70398505Y-57532294D01*
X70455949Y-57572065D01*
X70482773Y-57636581D01*
X70470458Y-57705357D01*
X70422916Y-57756557D01*
X70398507Y-57767704D01*
X70330671Y-57790183D01*
X70330662Y-57790187D01*
X70181341Y-57882289D01*
X70057288Y-58006342D01*
X69965186Y-58155663D01*
X69965184Y-58155668D01*
X69952645Y-58193509D01*
X69910000Y-58322203D01*
X69910000Y-58322204D01*
X69909999Y-58322204D01*
X69899499Y-58424983D01*
X69899499Y-59775001D01*
X69899500Y-59775018D01*
X69909999Y-59877796D01*
X69910000Y-59877799D01*
X69954126Y-60010960D01*
X69965185Y-60044334D01*
X70057287Y-60193656D01*
X70181343Y-60317712D01*
X70330665Y-60409814D01*
X70497202Y-60464999D01*
X70599990Y-60475500D01*
X71454190Y-60475499D01*
X71521229Y-60495183D01*
X71541871Y-60511818D01*
X72113181Y-61083127D01*
X72146666Y-61144450D01*
X72149500Y-61170808D01*
X72149500Y-66761001D01*
X72129815Y-66828040D01*
X72077011Y-66873795D01*
X72024696Y-66884998D01*
X65768614Y-66844429D01*
X65701704Y-66824311D01*
X65691731Y-66817079D01*
X65649300Y-66782972D01*
X65478695Y-66698360D01*
X65478693Y-66698359D01*
X65404308Y-66679860D01*
X65293892Y-66652400D01*
X65272506Y-66650950D01*
X65251123Y-66649500D01*
X65251120Y-66649500D01*
X64348877Y-66649500D01*
X64348874Y-66649501D01*
X64306113Y-66652399D01*
X64306112Y-66652399D01*
X64121305Y-66698359D01*
X63950705Y-66782969D01*
X63950701Y-66782972D01*
X63923782Y-66804609D01*
X63859197Y-66831265D01*
X63845294Y-66831956D01*
X63449908Y-66829393D01*
X63382998Y-66809275D01*
X63373025Y-66802043D01*
X63363316Y-66794239D01*
X63349296Y-66782969D01*
X63316430Y-66766669D01*
X63219405Y-66718549D01*
X63168092Y-66671128D01*
X63150500Y-66607461D01*
X63150500Y-63474500D01*
X63170185Y-63407461D01*
X63222989Y-63361706D01*
X63274500Y-63350500D01*
X63958028Y-63350500D01*
X63958036Y-63350500D01*
X64077418Y-63339887D01*
X64273049Y-63283910D01*
X64453407Y-63189699D01*
X64611109Y-63061110D01*
X64739698Y-62903408D01*
X64833909Y-62723050D01*
X64889886Y-62527419D01*
X64900500Y-62408038D01*
X64900499Y-61291965D01*
X64889886Y-61172583D01*
X64842013Y-61005273D01*
X64833910Y-60976955D01*
X64833909Y-60976954D01*
X64833909Y-60976952D01*
X64739698Y-60796594D01*
X64668832Y-60709684D01*
X64611109Y-60638891D01*
X64484041Y-60535282D01*
X64453407Y-60510303D01*
X64273049Y-60416092D01*
X64273048Y-60416091D01*
X64273045Y-60416090D01*
X64155829Y-60382551D01*
X64077418Y-60360115D01*
X64077415Y-60360114D01*
X64077413Y-60360114D01*
X64011102Y-60354218D01*
X63958037Y-60349501D01*
X63958032Y-60349501D01*
X61041971Y-60349501D01*
X61041965Y-60349501D01*
X61041964Y-60349502D01*
X61030316Y-60350537D01*
X60922584Y-60360114D01*
X60726954Y-60416090D01*
X60636772Y-60463197D01*
X60546593Y-60510303D01*
X60546591Y-60510304D01*
X60546590Y-60510305D01*
X60388890Y-60638891D01*
X60260304Y-60796591D01*
X60260302Y-60796594D01*
X60232655Y-60849522D01*
X60166089Y-60976955D01*
X60122351Y-61129815D01*
X60110995Y-61169506D01*
X60110114Y-61172584D01*
X60110113Y-61172587D01*
X60105383Y-61225790D01*
X60099500Y-61291964D01*
X60099501Y-62408037D01*
X60105316Y-62473450D01*
X60110113Y-62527416D01*
X60166089Y-62723046D01*
X60166090Y-62723049D01*
X60166091Y-62723050D01*
X60260302Y-62903408D01*
X60260304Y-62903410D01*
X60388890Y-63061110D01*
X60482803Y-63137685D01*
X60546593Y-63189699D01*
X60726951Y-63283910D01*
X60922582Y-63339887D01*
X61041963Y-63350501D01*
X61725500Y-63350500D01*
X61792539Y-63370184D01*
X61838294Y-63422988D01*
X61849500Y-63474500D01*
X61849500Y-63950500D01*
X61829815Y-64017539D01*
X61777011Y-64063294D01*
X61725500Y-64074500D01*
X39524499Y-64074500D01*
X39457460Y-64054815D01*
X39411705Y-64002011D01*
X39400499Y-63950500D01*
X39400499Y-63877129D01*
X39400498Y-63877123D01*
X39400497Y-63877116D01*
X39394091Y-63817517D01*
X39380448Y-63780939D01*
X39343797Y-63682671D01*
X39343793Y-63682664D01*
X39257547Y-63567455D01*
X39257544Y-63567452D01*
X39142335Y-63481206D01*
X39142328Y-63481202D01*
X39007482Y-63430908D01*
X39007483Y-63430908D01*
X38972404Y-63427137D01*
X38907853Y-63400399D01*
X38868005Y-63343006D01*
X38865512Y-63273181D01*
X38901165Y-63213092D01*
X38914539Y-63202272D01*
X38939140Y-63185046D01*
X39100045Y-63024141D01*
X39100047Y-63024139D01*
X39195108Y-62888377D01*
X39249685Y-62844752D01*
X39296683Y-62835500D01*
X49152735Y-62835500D01*
X49237279Y-62818682D01*
X49278408Y-62810501D01*
X49396791Y-62761465D01*
X49396796Y-62761461D01*
X49396799Y-62761460D01*
X49411755Y-62751467D01*
X49411757Y-62751466D01*
X49480283Y-62705678D01*
X49503333Y-62690277D01*
X51497296Y-60696312D01*
X51558617Y-60662829D01*
X51628308Y-60667813D01*
X51684242Y-60709684D01*
X51705865Y-60756401D01*
X51715039Y-60796594D01*
X51762344Y-61003852D01*
X51762346Y-61003861D01*
X51762348Y-61003866D01*
X51855690Y-61241698D01*
X51983436Y-61462961D01*
X52112098Y-61624298D01*
X52142737Y-61662718D01*
X52277566Y-61787820D01*
X52330023Y-61836493D01*
X52541122Y-61980418D01*
X52541127Y-61980420D01*
X52541128Y-61980421D01*
X52541129Y-61980422D01*
X52663382Y-62039295D01*
X52771309Y-62091270D01*
X52771310Y-62091270D01*
X52771313Y-62091272D01*
X53015455Y-62166580D01*
X53015456Y-62166580D01*
X53015459Y-62166581D01*
X53268086Y-62204658D01*
X53268091Y-62204658D01*
X53268094Y-62204659D01*
X53268095Y-62204659D01*
X53523587Y-62204659D01*
X53523588Y-62204659D01*
X53523595Y-62204658D01*
X53776222Y-62166581D01*
X53776223Y-62166580D01*
X53776227Y-62166580D01*
X54020369Y-62091272D01*
X54204908Y-62002403D01*
X54250553Y-61980422D01*
X54250553Y-61980421D01*
X54250561Y-61980418D01*
X54461659Y-61836493D01*
X54648948Y-61662714D01*
X54808246Y-61462961D01*
X54935992Y-61241698D01*
X55029334Y-61003866D01*
X55086187Y-60754779D01*
X55086188Y-60754769D01*
X55105280Y-60500004D01*
X55105280Y-60499995D01*
X55086188Y-60245230D01*
X55086187Y-60245225D01*
X55086187Y-60245221D01*
X55029334Y-59996134D01*
X54935992Y-59758302D01*
X54808246Y-59537039D01*
X54648948Y-59337286D01*
X54648947Y-59337285D01*
X54648944Y-59337281D01*
X54499384Y-59198511D01*
X54461659Y-59163507D01*
X54250561Y-59019582D01*
X54250560Y-59019581D01*
X54250553Y-59019577D01*
X54020371Y-58908729D01*
X54020373Y-58908729D01*
X53776228Y-58833420D01*
X53776222Y-58833418D01*
X53657570Y-58815535D01*
X53594213Y-58786079D01*
X53556839Y-58727045D01*
X53557314Y-58657177D01*
X53588368Y-58605241D01*
X55092031Y-57101579D01*
X55153354Y-57068094D01*
X55179712Y-57065260D01*
X61994932Y-57065260D01*
X62060904Y-57084266D01*
X62150477Y-57140549D01*
X62150481Y-57140550D01*
X62320737Y-57200126D01*
X62320743Y-57200127D01*
X62320745Y-57200128D01*
X62320746Y-57200128D01*
X62320750Y-57200129D01*
X62499996Y-57220325D01*
X62500000Y-57220325D01*
X62500004Y-57220325D01*
X62679249Y-57200129D01*
X62679252Y-57200128D01*
X62679255Y-57200128D01*
X62849522Y-57140549D01*
X63002262Y-57044576D01*
X63129816Y-56917022D01*
X63150220Y-56884549D01*
X63202552Y-56838259D01*
X63271605Y-56827609D01*
X63335454Y-56855983D01*
X63342894Y-56862840D01*
X64365579Y-57885525D01*
X64399064Y-57946848D01*
X64401118Y-57959322D01*
X64414630Y-58079250D01*
X64414631Y-58079254D01*
X64474211Y-58249523D01*
X64559569Y-58385368D01*
X64570184Y-58402262D01*
X64697738Y-58529816D01*
X64850478Y-58625789D01*
X64940180Y-58657177D01*
X65020745Y-58685368D01*
X65020750Y-58685369D01*
X65199996Y-58705565D01*
X65200000Y-58705565D01*
X65200004Y-58705565D01*
X65379249Y-58685369D01*
X65379252Y-58685368D01*
X65379255Y-58685368D01*
X65549522Y-58625789D01*
X65702262Y-58529816D01*
X65829816Y-58402262D01*
X65925789Y-58249522D01*
X65985368Y-58079255D01*
X65987744Y-58058171D01*
X66005565Y-57900003D01*
X66005565Y-57899996D01*
X65985369Y-57720750D01*
X65985368Y-57720745D01*
X65925789Y-57550478D01*
X65829816Y-57397738D01*
X65702262Y-57270184D01*
X65670144Y-57250003D01*
X65549521Y-57174210D01*
X65510633Y-57160603D01*
X65491068Y-57153757D01*
X65444343Y-57124397D01*
X65303102Y-56983156D01*
X65269617Y-56921833D01*
X65274601Y-56852141D01*
X65316473Y-56796208D01*
X65378183Y-56772117D01*
X65452696Y-56764506D01*
X65619119Y-56709358D01*
X65619124Y-56709356D01*
X65768345Y-56617315D01*
X65892315Y-56493345D01*
X65984356Y-56344124D01*
X65984358Y-56344119D01*
X66039505Y-56177697D01*
X66039506Y-56177690D01*
X66049999Y-56074986D01*
X66050000Y-56074973D01*
X66050000Y-55650000D01*
X64774000Y-55650000D01*
X64706961Y-55630315D01*
X64661206Y-55577511D01*
X64650000Y-55526000D01*
X64650000Y-55274000D01*
X64669685Y-55206961D01*
X64722489Y-55161206D01*
X64774000Y-55150000D01*
X66049999Y-55150000D01*
X66049999Y-54725028D01*
X66049998Y-54725013D01*
X66049995Y-54724983D01*
X66849500Y-54724983D01*
X66849500Y-56075001D01*
X66849501Y-56075018D01*
X66860000Y-56177796D01*
X66860001Y-56177799D01*
X66898886Y-56295145D01*
X66915186Y-56344334D01*
X67007288Y-56493656D01*
X67131344Y-56617712D01*
X67280666Y-56709814D01*
X67280667Y-56709814D01*
X67286813Y-56713605D01*
X67285706Y-56715399D01*
X67330337Y-56754687D01*
X67349500Y-56820908D01*
X67349500Y-56824507D01*
X67330494Y-56890478D01*
X67324209Y-56900479D01*
X67264633Y-57070737D01*
X67264630Y-57070750D01*
X67244435Y-57249996D01*
X67244435Y-57250003D01*
X67264630Y-57429249D01*
X67264631Y-57429254D01*
X67324211Y-57599523D01*
X67409338Y-57735001D01*
X67420184Y-57752262D01*
X67547738Y-57879816D01*
X67605654Y-57916207D01*
X67685756Y-57966539D01*
X67700478Y-57975789D01*
X67836828Y-58023500D01*
X67870745Y-58035368D01*
X67870750Y-58035369D01*
X68049996Y-58055565D01*
X68050000Y-58055565D01*
X68050004Y-58055565D01*
X68229249Y-58035369D01*
X68229252Y-58035368D01*
X68229255Y-58035368D01*
X68399522Y-57975789D01*
X68552262Y-57879816D01*
X68679816Y-57752262D01*
X68775789Y-57599522D01*
X68835368Y-57429255D01*
X68835369Y-57429249D01*
X68855565Y-57250003D01*
X68855565Y-57249996D01*
X68835369Y-57070750D01*
X68835368Y-57070745D01*
X68828950Y-57052403D01*
X68775789Y-56900478D01*
X68765781Y-56884551D01*
X68740203Y-56843843D01*
X68721203Y-56776606D01*
X68741571Y-56709771D01*
X68780098Y-56672334D01*
X68868656Y-56617712D01*
X68992712Y-56493656D01*
X69084814Y-56344334D01*
X69139999Y-56177797D01*
X69150500Y-56075009D01*
X69150499Y-54724992D01*
X69150137Y-54721453D01*
X69139999Y-54622203D01*
X69139998Y-54622200D01*
X69130162Y-54592517D01*
X69084814Y-54455666D01*
X69058146Y-54412430D01*
X69039707Y-54345041D01*
X69060629Y-54278377D01*
X69076005Y-54259654D01*
X69142317Y-54193342D01*
X69234356Y-54044124D01*
X69234358Y-54044119D01*
X69289505Y-53877697D01*
X69289506Y-53877690D01*
X69299999Y-53774986D01*
X69900000Y-53774986D01*
X69910493Y-53877697D01*
X69965640Y-54044119D01*
X69965642Y-54044124D01*
X70057683Y-54193345D01*
X70181653Y-54317315D01*
X70330874Y-54409356D01*
X70330879Y-54409358D01*
X70497301Y-54464505D01*
X70497308Y-54464506D01*
X70600018Y-54474999D01*
X70799998Y-54474999D01*
X70799999Y-54474998D01*
X70799999Y-53350000D01*
X69900000Y-53350000D01*
X69900000Y-53774986D01*
X69299999Y-53774986D01*
X69300000Y-53774973D01*
X69300000Y-53350000D01*
X67000001Y-53350000D01*
X67000001Y-53774986D01*
X67010494Y-53877697D01*
X67065641Y-54044119D01*
X67065645Y-54044128D01*
X67091945Y-54086767D01*
X67110385Y-54154160D01*
X67089462Y-54220823D01*
X67074088Y-54239544D01*
X67007287Y-54306345D01*
X66915187Y-54455663D01*
X66915185Y-54455668D01*
X66893898Y-54519909D01*
X66860001Y-54622203D01*
X66860001Y-54622204D01*
X66860000Y-54622204D01*
X66849500Y-54724983D01*
X66049995Y-54724983D01*
X66039505Y-54622302D01*
X65984358Y-54455880D01*
X65984355Y-54455873D01*
X65958055Y-54413235D01*
X65939614Y-54345842D01*
X65960536Y-54279179D01*
X65975912Y-54260456D01*
X66001548Y-54234820D01*
X66042712Y-54193656D01*
X66134814Y-54044334D01*
X66189999Y-53877797D01*
X66200500Y-53775009D01*
X66200499Y-52920807D01*
X66220183Y-52853769D01*
X66236818Y-52833127D01*
X66428072Y-52641874D01*
X66644933Y-52425013D01*
X67000000Y-52425013D01*
X67000000Y-52850000D01*
X67900000Y-52850000D01*
X68400000Y-52850000D01*
X69299999Y-52850000D01*
X69299999Y-52425028D01*
X69299998Y-52425013D01*
X69289505Y-52322302D01*
X69234358Y-52155880D01*
X69234356Y-52155875D01*
X69142315Y-52006654D01*
X69018345Y-51882684D01*
X68869124Y-51790643D01*
X68869119Y-51790641D01*
X68702697Y-51735494D01*
X68702690Y-51735493D01*
X68599986Y-51725000D01*
X68400000Y-51725000D01*
X68400000Y-52850000D01*
X67900000Y-52850000D01*
X67900000Y-51725000D01*
X67700029Y-51725000D01*
X67700012Y-51725001D01*
X67597302Y-51735494D01*
X67430880Y-51790641D01*
X67430875Y-51790643D01*
X67281654Y-51882684D01*
X67157684Y-52006654D01*
X67065643Y-52155875D01*
X67065641Y-52155880D01*
X67010494Y-52322302D01*
X67010493Y-52322309D01*
X67000000Y-52425013D01*
X66644933Y-52425013D01*
X66655276Y-52414670D01*
X66726465Y-52308127D01*
X66755188Y-52238780D01*
X66775500Y-52189745D01*
X66779971Y-52167267D01*
X66800499Y-52064072D01*
X66800499Y-48673939D01*
X66820184Y-48606900D01*
X66872988Y-48561145D01*
X66942146Y-48551201D01*
X67005702Y-48580226D01*
X67012180Y-48586258D01*
X67061738Y-48635816D01*
X67214478Y-48731789D01*
X67384745Y-48791368D01*
X67384750Y-48791369D01*
X67563996Y-48811565D01*
X67564000Y-48811565D01*
X67564004Y-48811565D01*
X67743249Y-48791369D01*
X67743252Y-48791368D01*
X67743255Y-48791368D01*
X67913522Y-48731789D01*
X68066262Y-48635816D01*
X68193816Y-48508262D01*
X68289789Y-48355522D01*
X68349368Y-48185255D01*
X68350182Y-48178025D01*
X68377245Y-48113611D01*
X68385712Y-48104232D01*
X69691104Y-46798839D01*
X69752425Y-46765356D01*
X69822117Y-46770340D01*
G37*
%TD.AperFunction*%
%TA.AperFunction,Conductor*%
G36*
X37415130Y-58328185D02*
G01*
X37460885Y-58380989D01*
X37470829Y-58450147D01*
X37441804Y-58513703D01*
X37419214Y-58534075D01*
X37260858Y-58644955D01*
X37099954Y-58805859D01*
X36969432Y-58992266D01*
X36969431Y-58992268D01*
X36873261Y-59198503D01*
X36873258Y-59198512D01*
X36814366Y-59418303D01*
X36814364Y-59418314D01*
X36794532Y-59644999D01*
X36794532Y-59645002D01*
X36814364Y-59871687D01*
X36814366Y-59871698D01*
X36873258Y-60091489D01*
X36873261Y-60091498D01*
X36969431Y-60297733D01*
X36969432Y-60297735D01*
X37099954Y-60484142D01*
X37260858Y-60645046D01*
X37260861Y-60645048D01*
X37447266Y-60775569D01*
X37505273Y-60802618D01*
X37557712Y-60848790D01*
X37576864Y-60915984D01*
X37556648Y-60982865D01*
X37505274Y-61027381D01*
X37447272Y-61054428D01*
X37447265Y-61054432D01*
X37260858Y-61184954D01*
X37099954Y-61345858D01*
X36969432Y-61532265D01*
X36969431Y-61532267D01*
X36873261Y-61738502D01*
X36873258Y-61738511D01*
X36814366Y-61958302D01*
X36814364Y-61958313D01*
X36794532Y-62184998D01*
X36794532Y-62185001D01*
X36814364Y-62411686D01*
X36814366Y-62411697D01*
X36873258Y-62631488D01*
X36873261Y-62631497D01*
X36969431Y-62837732D01*
X36969432Y-62837734D01*
X37099954Y-63024141D01*
X37260858Y-63185045D01*
X37285462Y-63202273D01*
X37329087Y-63256849D01*
X37336281Y-63326348D01*
X37304758Y-63388703D01*
X37244529Y-63424117D01*
X37227593Y-63427138D01*
X37192516Y-63430908D01*
X37057671Y-63481202D01*
X37057664Y-63481206D01*
X36942455Y-63567452D01*
X36942452Y-63567455D01*
X36856206Y-63682664D01*
X36856202Y-63682671D01*
X36805908Y-63817517D01*
X36799501Y-63877116D01*
X36799501Y-63877123D01*
X36799500Y-63877135D01*
X36799500Y-65572870D01*
X36799501Y-65572876D01*
X36805908Y-65632483D01*
X36856202Y-65767328D01*
X36856206Y-65767335D01*
X36942452Y-65882544D01*
X36942455Y-65882547D01*
X37057664Y-65968793D01*
X37057671Y-65968797D01*
X37192517Y-66019091D01*
X37192516Y-66019091D01*
X37199444Y-66019835D01*
X37252127Y-66025500D01*
X38947872Y-66025499D01*
X39007483Y-66019091D01*
X39142331Y-65968796D01*
X39257546Y-65882546D01*
X39343796Y-65767331D01*
X39394091Y-65632483D01*
X39400500Y-65572873D01*
X39400500Y-65499500D01*
X39420185Y-65432461D01*
X39472989Y-65386706D01*
X39524500Y-65375500D01*
X61725500Y-65375500D01*
X61792539Y-65395185D01*
X61838294Y-65447989D01*
X61849500Y-65499500D01*
X61849500Y-66607461D01*
X61829815Y-66674500D01*
X61780595Y-66718549D01*
X61650705Y-66782968D01*
X61650704Y-66782969D01*
X61648488Y-66784749D01*
X61642184Y-66789817D01*
X61577598Y-66816471D01*
X61563699Y-66817161D01*
X61131201Y-66814357D01*
X61064291Y-66794239D01*
X61054317Y-66787006D01*
X61049295Y-66782969D01*
X61049292Y-66782967D01*
X60878697Y-66698360D01*
X60693892Y-66652400D01*
X60672506Y-66650950D01*
X60651123Y-66649500D01*
X60651120Y-66649500D01*
X59748877Y-66649500D01*
X59748874Y-66649501D01*
X59706113Y-66652399D01*
X59706112Y-66652399D01*
X59521305Y-66698359D01*
X59395001Y-66761001D01*
X59350704Y-66782970D01*
X59350702Y-66782970D01*
X59344682Y-66785957D01*
X59344122Y-66784828D01*
X59283769Y-66802376D01*
X59283294Y-66802373D01*
X31013560Y-66619053D01*
X30946650Y-66598935D01*
X30926683Y-66582737D01*
X30570941Y-66226995D01*
X30537456Y-66165672D01*
X30542440Y-66095980D01*
X30584312Y-66040047D01*
X30647814Y-66015786D01*
X30706692Y-66010635D01*
X30926496Y-65951739D01*
X31132734Y-65855568D01*
X31319139Y-65725047D01*
X31480047Y-65564139D01*
X31610568Y-65377734D01*
X31706739Y-65171496D01*
X31765635Y-64951692D01*
X31785468Y-64725000D01*
X31765635Y-64498308D01*
X31720916Y-64331415D01*
X31706741Y-64278511D01*
X31706738Y-64278502D01*
X31683522Y-64228716D01*
X31610568Y-64072266D01*
X31480047Y-63885861D01*
X31480045Y-63885858D01*
X31319141Y-63724954D01*
X31132734Y-63594432D01*
X31132732Y-63594431D01*
X31115211Y-63586261D01*
X31074132Y-63567105D01*
X31021694Y-63520934D01*
X31002542Y-63453740D01*
X31022758Y-63386859D01*
X31074134Y-63342341D01*
X31132484Y-63315132D01*
X31318820Y-63184657D01*
X31479657Y-63023820D01*
X31610134Y-62837482D01*
X31706265Y-62631326D01*
X31706269Y-62631317D01*
X31758872Y-62435000D01*
X30795686Y-62435000D01*
X30800080Y-62430606D01*
X30852741Y-62339394D01*
X30880000Y-62237661D01*
X30880000Y-62132339D01*
X30852741Y-62030606D01*
X30800080Y-61939394D01*
X30795686Y-61935000D01*
X31758872Y-61935000D01*
X31758872Y-61934999D01*
X31706269Y-61738682D01*
X31706265Y-61738673D01*
X31610134Y-61532517D01*
X31479657Y-61346179D01*
X31318820Y-61185342D01*
X31132482Y-61054865D01*
X31074133Y-61027657D01*
X31021694Y-60981484D01*
X31002542Y-60914291D01*
X31022758Y-60847410D01*
X31074129Y-60802895D01*
X31132734Y-60775568D01*
X31319139Y-60645047D01*
X31480047Y-60484139D01*
X31566889Y-60360115D01*
X31575108Y-60348377D01*
X31629685Y-60304752D01*
X31676683Y-60295500D01*
X32939071Y-60295500D01*
X33035576Y-60276303D01*
X33064744Y-60270501D01*
X33183127Y-60221465D01*
X33185836Y-60219654D01*
X33186772Y-60219030D01*
X33224747Y-60193656D01*
X33289669Y-60150277D01*
X35095127Y-58344819D01*
X35156450Y-58311334D01*
X35182808Y-58308500D01*
X37348091Y-58308500D01*
X37415130Y-58328185D01*
G37*
%TD.AperFunction*%
%TA.AperFunction,Conductor*%
G36*
X23187410Y-20620185D02*
G01*
X23233165Y-20672989D01*
X23243109Y-20742147D01*
X23214084Y-20805703D01*
X23155306Y-20843477D01*
X23146729Y-20845666D01*
X23054962Y-20865628D01*
X22786833Y-20965635D01*
X22535690Y-21102770D01*
X22535682Y-21102775D01*
X22306612Y-21274254D01*
X22306594Y-21274270D01*
X22104270Y-21476594D01*
X22104254Y-21476612D01*
X21932775Y-21705682D01*
X21932770Y-21705690D01*
X21795635Y-21956833D01*
X21695628Y-22224962D01*
X21634804Y-22504566D01*
X21614390Y-22789998D01*
X21614390Y-22790001D01*
X21634804Y-23075433D01*
X21695628Y-23355037D01*
X21695630Y-23355043D01*
X21695631Y-23355046D01*
X21794268Y-23619500D01*
X21795635Y-23623166D01*
X21932770Y-23874309D01*
X21932775Y-23874317D01*
X22104254Y-24103387D01*
X22104270Y-24103405D01*
X22306594Y-24305729D01*
X22306612Y-24305745D01*
X22535682Y-24477224D01*
X22535690Y-24477229D01*
X22786833Y-24614364D01*
X22786832Y-24614364D01*
X22786836Y-24614365D01*
X22786839Y-24614367D01*
X23054954Y-24714369D01*
X23054960Y-24714370D01*
X23054962Y-24714371D01*
X23334566Y-24775195D01*
X23334568Y-24775195D01*
X23334572Y-24775196D01*
X23588220Y-24793337D01*
X23619999Y-24795610D01*
X23620000Y-24795610D01*
X23620001Y-24795610D01*
X23648595Y-24793564D01*
X23905428Y-24775196D01*
X24031233Y-24747829D01*
X24185037Y-24714371D01*
X24185037Y-24714370D01*
X24185046Y-24714369D01*
X24453161Y-24614367D01*
X24704315Y-24477226D01*
X24933395Y-24305739D01*
X25135739Y-24103395D01*
X25307226Y-23874315D01*
X25444367Y-23623161D01*
X25544369Y-23355046D01*
X25556342Y-23300008D01*
X25605195Y-23075433D01*
X25605195Y-23075432D01*
X25605196Y-23075428D01*
X25625610Y-22790000D01*
X25605196Y-22504572D01*
X25602578Y-22492539D01*
X25544371Y-22224962D01*
X25544370Y-22224960D01*
X25544369Y-22224954D01*
X25444367Y-21956839D01*
X25411083Y-21895885D01*
X25307229Y-21705690D01*
X25307224Y-21705682D01*
X25135745Y-21476612D01*
X25135729Y-21476594D01*
X24933405Y-21274270D01*
X24933387Y-21274254D01*
X24704317Y-21102775D01*
X24704309Y-21102770D01*
X24453166Y-20965635D01*
X24453167Y-20965635D01*
X24345915Y-20925632D01*
X24185046Y-20865631D01*
X24185043Y-20865630D01*
X24185037Y-20865628D01*
X24093271Y-20845666D01*
X24031948Y-20812181D01*
X23998463Y-20750858D01*
X24003447Y-20681166D01*
X24045319Y-20625233D01*
X24110783Y-20600816D01*
X24119629Y-20600500D01*
X61360297Y-20600500D01*
X61427336Y-20620185D01*
X61473091Y-20672989D01*
X61483035Y-20742147D01*
X61469129Y-20783927D01*
X61385635Y-20936833D01*
X61285628Y-21204962D01*
X61224804Y-21484566D01*
X61204390Y-21769998D01*
X61204390Y-21770001D01*
X61224804Y-22055433D01*
X61285628Y-22335037D01*
X61285630Y-22335043D01*
X61285631Y-22335046D01*
X61385633Y-22603161D01*
X61385635Y-22603166D01*
X61522770Y-22854309D01*
X61522775Y-22854317D01*
X61694254Y-23083387D01*
X61694270Y-23083405D01*
X61896594Y-23285729D01*
X61896612Y-23285745D01*
X62125682Y-23457224D01*
X62125690Y-23457229D01*
X62366784Y-23588877D01*
X62416189Y-23638282D01*
X62431041Y-23706555D01*
X62406624Y-23772020D01*
X62384275Y-23794969D01*
X62381348Y-23797283D01*
X62257289Y-23921342D01*
X62165187Y-24070663D01*
X62165185Y-24070668D01*
X62146430Y-24127267D01*
X62110001Y-24237203D01*
X62110001Y-24237204D01*
X62110000Y-24237204D01*
X62099501Y-24339982D01*
X62099500Y-24339995D01*
X62099500Y-25140001D01*
X62099501Y-25140019D01*
X62106947Y-25212901D01*
X62094177Y-25281593D01*
X62046296Y-25332478D01*
X61983589Y-25349502D01*
X61224499Y-25349502D01*
X61157460Y-25329817D01*
X61111705Y-25277013D01*
X61100499Y-25225502D01*
X61100499Y-24319998D01*
X61100498Y-24319981D01*
X61089999Y-24217203D01*
X61073514Y-24167455D01*
X61068846Y-24153368D01*
X61060937Y-24129500D01*
X61034815Y-24050666D01*
X61034814Y-24050663D01*
X60955048Y-23921344D01*
X60942712Y-23901344D01*
X60818656Y-23777288D01*
X60818655Y-23777287D01*
X60813168Y-23773903D01*
X60813168Y-23773902D01*
X60813166Y-23773902D01*
X60703981Y-23706555D01*
X60669339Y-23685187D01*
X60669336Y-23685185D01*
X60669335Y-23685185D01*
X60599910Y-23662180D01*
X60502800Y-23630001D01*
X60400018Y-23619500D01*
X60400011Y-23619500D01*
X54399987Y-23619500D01*
X54399979Y-23619500D01*
X54297197Y-23630001D01*
X54130665Y-23685184D01*
X54130654Y-23685189D01*
X53981345Y-23777285D01*
X53981341Y-23777288D01*
X53857287Y-23901342D01*
X53857284Y-23901346D01*
X53765183Y-24050663D01*
X53762129Y-24057214D01*
X53759321Y-24055904D01*
X53727490Y-24101918D01*
X53662985Y-24128767D01*
X53649519Y-24129500D01*
X50661684Y-24129500D01*
X50594645Y-24109815D01*
X50560109Y-24076623D01*
X50465046Y-23940858D01*
X50304142Y-23779954D01*
X50117735Y-23649432D01*
X50117733Y-23649431D01*
X49911498Y-23553261D01*
X49911489Y-23553258D01*
X49691698Y-23494366D01*
X49691694Y-23494365D01*
X49691693Y-23494365D01*
X49691692Y-23494364D01*
X49691687Y-23494364D01*
X49465003Y-23474532D01*
X49464999Y-23474532D01*
X49238314Y-23494364D01*
X49238303Y-23494366D01*
X49018512Y-23553258D01*
X49018503Y-23553261D01*
X48812268Y-23649431D01*
X48812266Y-23649432D01*
X48625859Y-23779954D01*
X48464955Y-23940858D01*
X48334433Y-24127265D01*
X48334432Y-24127267D01*
X48333733Y-24128767D01*
X48315007Y-24168926D01*
X48307383Y-24185275D01*
X48261210Y-24237714D01*
X48194017Y-24256866D01*
X48127136Y-24236650D01*
X48082619Y-24185275D01*
X48082107Y-24184176D01*
X48055569Y-24127266D01*
X47925048Y-23940861D01*
X47925046Y-23940858D01*
X47764142Y-23779954D01*
X47577735Y-23649432D01*
X47577733Y-23649431D01*
X47371498Y-23553261D01*
X47371489Y-23553258D01*
X47151698Y-23494366D01*
X47151694Y-23494365D01*
X47151693Y-23494365D01*
X47151692Y-23494364D01*
X47151687Y-23494364D01*
X46925003Y-23474532D01*
X46924999Y-23474532D01*
X46698314Y-23494364D01*
X46698303Y-23494366D01*
X46478512Y-23553258D01*
X46478503Y-23553261D01*
X46272268Y-23649431D01*
X46272266Y-23649432D01*
X46085859Y-23779954D01*
X45924955Y-23940858D01*
X45794433Y-24127265D01*
X45794432Y-24127267D01*
X45698262Y-24333502D01*
X45698259Y-24333511D01*
X45639367Y-24553302D01*
X45639365Y-24553313D01*
X45619533Y-24779998D01*
X45619533Y-24780001D01*
X45639365Y-25006686D01*
X45639367Y-25006697D01*
X45698259Y-25226488D01*
X45698262Y-25226497D01*
X45794432Y-25432732D01*
X45794433Y-25432734D01*
X45924955Y-25619141D01*
X46085859Y-25780045D01*
X46085862Y-25780047D01*
X46272267Y-25910568D01*
X46478505Y-26006739D01*
X46698309Y-26065635D01*
X46845334Y-26078498D01*
X46924999Y-26085468D01*
X46925001Y-26085468D01*
X46925003Y-26085468D01*
X47004668Y-26078498D01*
X47151693Y-26065635D01*
X47371497Y-26006739D01*
X47577735Y-25910568D01*
X47764140Y-25780047D01*
X47925048Y-25619139D01*
X48055569Y-25432734D01*
X48082619Y-25374724D01*
X48128791Y-25322285D01*
X48195984Y-25303133D01*
X48262866Y-25323348D01*
X48307382Y-25374724D01*
X48321518Y-25405038D01*
X48334430Y-25432728D01*
X48334433Y-25432734D01*
X48464955Y-25619141D01*
X48625859Y-25780045D01*
X48625862Y-25780047D01*
X48812267Y-25910568D01*
X49018505Y-26006739D01*
X49238309Y-26065635D01*
X49385334Y-26078498D01*
X49464999Y-26085468D01*
X49465001Y-26085468D01*
X49465003Y-26085468D01*
X49544668Y-26078498D01*
X49691693Y-26065635D01*
X49911497Y-26006739D01*
X50117735Y-25910568D01*
X50304140Y-25780047D01*
X50465048Y-25619139D01*
X50544321Y-25505925D01*
X50560109Y-25483377D01*
X50614686Y-25439752D01*
X50661684Y-25430500D01*
X53575499Y-25430500D01*
X53642538Y-25450185D01*
X53688293Y-25502989D01*
X53699499Y-25554500D01*
X53699499Y-29720019D01*
X53710000Y-29822801D01*
X53765183Y-29989333D01*
X53765188Y-29989344D01*
X53857284Y-30138653D01*
X53857287Y-30138657D01*
X53981341Y-30262711D01*
X53981345Y-30262714D01*
X54130654Y-30354810D01*
X54130657Y-30354811D01*
X54130663Y-30354815D01*
X54297199Y-30409999D01*
X54399987Y-30420500D01*
X54399991Y-30420500D01*
X54399992Y-30420500D01*
X60400006Y-30420500D01*
X60400011Y-30420500D01*
X60502799Y-30409999D01*
X60669335Y-30354815D01*
X60818656Y-30262712D01*
X60942711Y-30138657D01*
X61034814Y-29989336D01*
X61089521Y-29824238D01*
X61090519Y-29821350D01*
X61093740Y-29812384D01*
X61094272Y-29809901D01*
X61096819Y-29802213D01*
X61094334Y-29795184D01*
X61094794Y-29775859D01*
X61100499Y-29720016D01*
X61100500Y-29720009D01*
X61100499Y-27369992D01*
X61100499Y-27369991D01*
X61100499Y-26774502D01*
X61120184Y-26707463D01*
X61172988Y-26661708D01*
X61224499Y-26650502D01*
X64809363Y-26650502D01*
X64876402Y-26670187D01*
X64914901Y-26709405D01*
X64915307Y-26710063D01*
X64982287Y-26818656D01*
X65042156Y-26878525D01*
X65075641Y-26939848D01*
X65070657Y-27009540D01*
X65028785Y-27065473D01*
X65023368Y-27069307D01*
X64985327Y-27094725D01*
X63916871Y-28163181D01*
X63855548Y-28196666D01*
X63829190Y-28199500D01*
X62799998Y-28199500D01*
X62799980Y-28199501D01*
X62697203Y-28210000D01*
X62697200Y-28210001D01*
X62530668Y-28265185D01*
X62530663Y-28265187D01*
X62381342Y-28357289D01*
X62257289Y-28481342D01*
X62165187Y-28630663D01*
X62165186Y-28630666D01*
X62110001Y-28797203D01*
X62110001Y-28797204D01*
X62110000Y-28797204D01*
X62099500Y-28899983D01*
X62099500Y-29700001D01*
X62099501Y-29700019D01*
X62110000Y-29802796D01*
X62110001Y-29802799D01*
X62165185Y-29969331D01*
X62165186Y-29969334D01*
X62257288Y-30118656D01*
X62381344Y-30242712D01*
X62530666Y-30334814D01*
X62697203Y-30389999D01*
X62799991Y-30400500D01*
X64600008Y-30400499D01*
X64702797Y-30389999D01*
X64869334Y-30334814D01*
X65018656Y-30242712D01*
X65142712Y-30118656D01*
X65234814Y-29969334D01*
X65289999Y-29802797D01*
X65300500Y-29700009D01*
X65300499Y-28899992D01*
X65289999Y-28797203D01*
X65272428Y-28744177D01*
X65270026Y-28674349D01*
X65302453Y-28617492D01*
X65633127Y-28286819D01*
X65694450Y-28253334D01*
X65720808Y-28250500D01*
X71738339Y-28250500D01*
X71805378Y-28270185D01*
X71851133Y-28322989D01*
X71861077Y-28392147D01*
X71843332Y-28440473D01*
X71774211Y-28550476D01*
X71714632Y-28720744D01*
X71714630Y-28720752D01*
X71713815Y-28727988D01*
X71686743Y-28792400D01*
X71678277Y-28801775D01*
X69294726Y-31185326D01*
X69294723Y-31185331D01*
X69238531Y-31269431D01*
X69237980Y-31270255D01*
X69237978Y-31270257D01*
X69223539Y-31291865D01*
X69223533Y-31291875D01*
X69174499Y-31410255D01*
X69174497Y-31410261D01*
X69149500Y-31535928D01*
X69149500Y-37394931D01*
X69130494Y-37460903D01*
X69074211Y-37550477D01*
X69074209Y-37550481D01*
X69014633Y-37720737D01*
X69014630Y-37720750D01*
X68994435Y-37899996D01*
X68994435Y-37900003D01*
X69014630Y-38079249D01*
X69014631Y-38079254D01*
X69074211Y-38249523D01*
X69094764Y-38282232D01*
X69170184Y-38402262D01*
X69297738Y-38529816D01*
X69313314Y-38539603D01*
X69427579Y-38611401D01*
X69450478Y-38625789D01*
X69601380Y-38678592D01*
X69620745Y-38685368D01*
X69620750Y-38685369D01*
X69799996Y-38705565D01*
X69800000Y-38705565D01*
X69800004Y-38705565D01*
X69979249Y-38685369D01*
X69979252Y-38685368D01*
X69979255Y-38685368D01*
X70149522Y-38625789D01*
X70302262Y-38529816D01*
X70429816Y-38402262D01*
X70525789Y-38249522D01*
X70585368Y-38079255D01*
X70591874Y-38021513D01*
X70605565Y-37900003D01*
X70605565Y-37899996D01*
X70585369Y-37720750D01*
X70585366Y-37720737D01*
X70525790Y-37550481D01*
X70525789Y-37550478D01*
X70504008Y-37515814D01*
X70469506Y-37460903D01*
X70450500Y-37394931D01*
X70450500Y-31920807D01*
X70470185Y-31853768D01*
X70486814Y-31833131D01*
X72598224Y-29721720D01*
X72659545Y-29688237D01*
X72672019Y-29686183D01*
X72679255Y-29685368D01*
X72849522Y-29625789D01*
X73002262Y-29529816D01*
X73129816Y-29402262D01*
X73225789Y-29249522D01*
X73285368Y-29079255D01*
X73285369Y-29079249D01*
X73305565Y-28900003D01*
X73305565Y-28899996D01*
X73285369Y-28720750D01*
X73285368Y-28720745D01*
X73225788Y-28550475D01*
X73156668Y-28440473D01*
X73137667Y-28373236D01*
X73158034Y-28306401D01*
X73211302Y-28261186D01*
X73261661Y-28250500D01*
X79216283Y-28250500D01*
X79283322Y-28270185D01*
X79317858Y-28303377D01*
X79413853Y-28440473D01*
X79421505Y-28451400D01*
X79588599Y-28618494D01*
X79588601Y-28618495D01*
X79588603Y-28618497D01*
X79774158Y-28748424D01*
X79817783Y-28803001D01*
X79824977Y-28872499D01*
X79793454Y-28934854D01*
X79774159Y-28951574D01*
X79588594Y-29081508D01*
X79421505Y-29248597D01*
X79285965Y-29442169D01*
X79285964Y-29442171D01*
X79186098Y-29656335D01*
X79186094Y-29656344D01*
X79124938Y-29884586D01*
X79124936Y-29884596D01*
X79104341Y-30119999D01*
X79104341Y-30120000D01*
X79124936Y-30355403D01*
X79124938Y-30355413D01*
X79186094Y-30583655D01*
X79186096Y-30583659D01*
X79186097Y-30583663D01*
X79285965Y-30797830D01*
X79285967Y-30797834D01*
X79421501Y-30991395D01*
X79421506Y-30991402D01*
X79588597Y-31158493D01*
X79588603Y-31158498D01*
X79774158Y-31288425D01*
X79817783Y-31343002D01*
X79824977Y-31412500D01*
X79793454Y-31474855D01*
X79774158Y-31491575D01*
X79588597Y-31621505D01*
X79421505Y-31788597D01*
X79285965Y-31982169D01*
X79285964Y-31982171D01*
X79186098Y-32196335D01*
X79186094Y-32196344D01*
X79124938Y-32424586D01*
X79124936Y-32424596D01*
X79104341Y-32659999D01*
X79104341Y-32660000D01*
X79124936Y-32895403D01*
X79124938Y-32895413D01*
X79186094Y-33123655D01*
X79186096Y-33123659D01*
X79186097Y-33123663D01*
X79244016Y-33247870D01*
X79285965Y-33337830D01*
X79285967Y-33337834D01*
X79342559Y-33418655D01*
X79421501Y-33531396D01*
X79421506Y-33531402D01*
X79588597Y-33698493D01*
X79588603Y-33698498D01*
X79774158Y-33828425D01*
X79817783Y-33883002D01*
X79824977Y-33952500D01*
X79793454Y-34014855D01*
X79774158Y-34031575D01*
X79588597Y-34161505D01*
X79421505Y-34328597D01*
X79285965Y-34522169D01*
X79285964Y-34522171D01*
X79186098Y-34736335D01*
X79186094Y-34736344D01*
X79124938Y-34964586D01*
X79124936Y-34964596D01*
X79104341Y-35199999D01*
X79104341Y-35200000D01*
X79124936Y-35435403D01*
X79124938Y-35435413D01*
X79186094Y-35663655D01*
X79186096Y-35663659D01*
X79186097Y-35663663D01*
X79201309Y-35696285D01*
X79285965Y-35877830D01*
X79285967Y-35877834D01*
X79394281Y-36032521D01*
X79421501Y-36071396D01*
X79421506Y-36071402D01*
X79588597Y-36238493D01*
X79588603Y-36238498D01*
X79774158Y-36368425D01*
X79817783Y-36423002D01*
X79824977Y-36492500D01*
X79793454Y-36554855D01*
X79774158Y-36571575D01*
X79588597Y-36701505D01*
X79421505Y-36868597D01*
X79285965Y-37062169D01*
X79285964Y-37062171D01*
X79186098Y-37276335D01*
X79186094Y-37276344D01*
X79124938Y-37504586D01*
X79124936Y-37504596D01*
X79104341Y-37739999D01*
X79104341Y-37740001D01*
X79122977Y-37953013D01*
X79109210Y-38021513D01*
X79087130Y-38051501D01*
X78025451Y-39113181D01*
X77964128Y-39146666D01*
X77937770Y-39149500D01*
X69544830Y-39149500D01*
X69510235Y-39144576D01*
X69365075Y-39102402D01*
X69365069Y-39102401D01*
X69328203Y-39099500D01*
X69328196Y-39099500D01*
X68162001Y-39099500D01*
X68094962Y-39079815D01*
X68049207Y-39027011D01*
X68038001Y-38975500D01*
X68038001Y-38734313D01*
X68038000Y-38734298D01*
X68036251Y-38712077D01*
X68035099Y-38697431D01*
X68033524Y-38692011D01*
X67989246Y-38539606D01*
X67989245Y-38539603D01*
X67989245Y-38539602D01*
X67905582Y-38398135D01*
X67905580Y-38398133D01*
X67905577Y-38398129D01*
X67789371Y-38281923D01*
X67789363Y-38281917D01*
X67647897Y-38198255D01*
X67647894Y-38198254D01*
X67490074Y-38152402D01*
X67490068Y-38152401D01*
X67453202Y-38149500D01*
X67453195Y-38149500D01*
X66146807Y-38149500D01*
X66146799Y-38149500D01*
X66109933Y-38152401D01*
X66109927Y-38152402D01*
X65952107Y-38198254D01*
X65952104Y-38198255D01*
X65810106Y-38282232D01*
X65746985Y-38299500D01*
X65525494Y-38299500D01*
X65459523Y-38280494D01*
X65449525Y-38274212D01*
X65279254Y-38214631D01*
X65279249Y-38214630D01*
X65100004Y-38194435D01*
X65099996Y-38194435D01*
X64920750Y-38214630D01*
X64920745Y-38214631D01*
X64750476Y-38274211D01*
X64597737Y-38370184D01*
X64470184Y-38497737D01*
X64374211Y-38650476D01*
X64314631Y-38820745D01*
X64314630Y-38820750D01*
X64294435Y-38999996D01*
X64294435Y-39000003D01*
X64314630Y-39179249D01*
X64314631Y-39179254D01*
X64374211Y-39349523D01*
X64462169Y-39489506D01*
X64470184Y-39502262D01*
X64597738Y-39629816D01*
X64688080Y-39686582D01*
X64712210Y-39701744D01*
X64750478Y-39725789D01*
X64904387Y-39779644D01*
X64920745Y-39785368D01*
X64920750Y-39785369D01*
X65023732Y-39796971D01*
X65100000Y-39805565D01*
X65100001Y-39805564D01*
X65103420Y-39805950D01*
X65167834Y-39833016D01*
X65207389Y-39890611D01*
X65209527Y-39960448D01*
X65173569Y-40020354D01*
X65130493Y-40046211D01*
X65050479Y-40074209D01*
X64897737Y-40170184D01*
X64770184Y-40297737D01*
X64674211Y-40450476D01*
X64614631Y-40620745D01*
X64614630Y-40620750D01*
X64594435Y-40799996D01*
X64594435Y-40800003D01*
X64614630Y-40979249D01*
X64614631Y-40979254D01*
X64674211Y-41149523D01*
X64740904Y-41255663D01*
X64770184Y-41302262D01*
X64897738Y-41429816D01*
X64982163Y-41482864D01*
X65049266Y-41525028D01*
X65050478Y-41525789D01*
X65130829Y-41553905D01*
X65220745Y-41585368D01*
X65220750Y-41585369D01*
X65399996Y-41605565D01*
X65400000Y-41605565D01*
X65400004Y-41605565D01*
X65579249Y-41585369D01*
X65579251Y-41585368D01*
X65579255Y-41585368D01*
X65579258Y-41585366D01*
X65579262Y-41585366D01*
X65712210Y-41538845D01*
X65741671Y-41528535D01*
X65811449Y-41524973D01*
X65845744Y-41538843D01*
X65952103Y-41601744D01*
X65990041Y-41612766D01*
X66109927Y-41647597D01*
X66109930Y-41647597D01*
X66109932Y-41647598D01*
X66146807Y-41650500D01*
X66146815Y-41650500D01*
X67453187Y-41650500D01*
X67453195Y-41650500D01*
X67490070Y-41647598D01*
X67490072Y-41647597D01*
X67490074Y-41647597D01*
X67537721Y-41633754D01*
X67647899Y-41601744D01*
X67789366Y-41518081D01*
X67905582Y-41401865D01*
X67989245Y-41260398D01*
X68035099Y-41102569D01*
X68038001Y-41065694D01*
X68038001Y-40824500D01*
X68057686Y-40757461D01*
X68110490Y-40711706D01*
X68162001Y-40700500D01*
X69328188Y-40700500D01*
X69328196Y-40700500D01*
X69365071Y-40697598D01*
X69365073Y-40697597D01*
X69365075Y-40697597D01*
X69510235Y-40655424D01*
X69544830Y-40650500D01*
X70287155Y-40650500D01*
X70354194Y-40670185D01*
X70399949Y-40722989D01*
X70409893Y-40792147D01*
X70380868Y-40855703D01*
X70336388Y-40885378D01*
X70337420Y-40887592D01*
X70330874Y-40890643D01*
X70181653Y-40982684D01*
X70057683Y-41106654D01*
X69965642Y-41255875D01*
X69965640Y-41255880D01*
X69910493Y-41422302D01*
X69910492Y-41422309D01*
X69899999Y-41525013D01*
X69899999Y-41950000D01*
X72199998Y-41950000D01*
X72199998Y-41525028D01*
X72199997Y-41525013D01*
X72189504Y-41422302D01*
X72134357Y-41255880D01*
X72134355Y-41255875D01*
X72042314Y-41106654D01*
X71918344Y-40982684D01*
X71769123Y-40890643D01*
X71762578Y-40887592D01*
X71763700Y-40885184D01*
X71716399Y-40852439D01*
X71689572Y-40787924D01*
X71701883Y-40719148D01*
X71749423Y-40667945D01*
X71812843Y-40650500D01*
X73385568Y-40650500D01*
X73452607Y-40670185D01*
X73498362Y-40722989D01*
X73508306Y-40792147D01*
X73479281Y-40855703D01*
X73436016Y-40884576D01*
X73437210Y-40887136D01*
X73430664Y-40890187D01*
X73281343Y-40982289D01*
X73157290Y-41106342D01*
X73065188Y-41255663D01*
X73065186Y-41255668D01*
X73044368Y-41318493D01*
X73010002Y-41422203D01*
X73010002Y-41422204D01*
X73010001Y-41422204D01*
X72999501Y-41524983D01*
X72999501Y-41524996D01*
X72999502Y-42775500D01*
X72979817Y-42842539D01*
X72927014Y-42888294D01*
X72875502Y-42899500D01*
X72323999Y-42899500D01*
X72256960Y-42879815D01*
X72211205Y-42827011D01*
X72199999Y-42775500D01*
X72199999Y-42450000D01*
X69900000Y-42450000D01*
X69900000Y-42775500D01*
X69880315Y-42842539D01*
X69827511Y-42888294D01*
X69776000Y-42899500D01*
X63520940Y-42899500D01*
X63480019Y-42910464D01*
X63480019Y-42910465D01*
X63442751Y-42920451D01*
X63368214Y-42940423D01*
X63368209Y-42940426D01*
X63231290Y-43019475D01*
X63231282Y-43019481D01*
X63119478Y-43131286D01*
X60188328Y-46062435D01*
X60127005Y-46095920D01*
X60057313Y-46090936D01*
X60001380Y-46049064D01*
X59983605Y-46015708D01*
X59981956Y-46010996D01*
X59925789Y-45850478D01*
X59829816Y-45697738D01*
X59702262Y-45570184D01*
X59697379Y-45567116D01*
X59549523Y-45474211D01*
X59379254Y-45414631D01*
X59379249Y-45414630D01*
X59200004Y-45394435D01*
X59199996Y-45394435D01*
X59020750Y-45414630D01*
X59020745Y-45414631D01*
X58850476Y-45474211D01*
X58697737Y-45570184D01*
X58570184Y-45697737D01*
X58474210Y-45850478D01*
X58414630Y-46020750D01*
X58404837Y-46107668D01*
X58377770Y-46172082D01*
X58369298Y-46181465D01*
X57787584Y-46763181D01*
X57726261Y-46796666D01*
X57699903Y-46799500D01*
X48000097Y-46799500D01*
X47933058Y-46779815D01*
X47912416Y-46763181D01*
X47794062Y-46644827D01*
X47760577Y-46583504D01*
X47765561Y-46513812D01*
X47807433Y-46457879D01*
X47872897Y-46433462D01*
X47925076Y-46440964D01*
X48067517Y-46494091D01*
X48067516Y-46494091D01*
X48074444Y-46494835D01*
X48127127Y-46500500D01*
X49822872Y-46500499D01*
X49882483Y-46494091D01*
X50017331Y-46443796D01*
X50132546Y-46357546D01*
X50218796Y-46242331D01*
X50269091Y-46107483D01*
X50275500Y-46047873D01*
X50275499Y-44352128D01*
X50269091Y-44292517D01*
X50261133Y-44271181D01*
X50218797Y-44157671D01*
X50218793Y-44157664D01*
X50132547Y-44042455D01*
X50132544Y-44042452D01*
X50017335Y-43956206D01*
X50017328Y-43956202D01*
X49882482Y-43905908D01*
X49882483Y-43905908D01*
X49822883Y-43899501D01*
X49822881Y-43899500D01*
X49822873Y-43899500D01*
X49822865Y-43899500D01*
X48575097Y-43899500D01*
X48508058Y-43879815D01*
X48487416Y-43863181D01*
X48362590Y-43738355D01*
X48362588Y-43738352D01*
X48243717Y-43619481D01*
X48243716Y-43619480D01*
X48149351Y-43564999D01*
X48149350Y-43564998D01*
X48106783Y-43540422D01*
X48050881Y-43525443D01*
X47954057Y-43499499D01*
X47795943Y-43499499D01*
X47788347Y-43499499D01*
X47788331Y-43499500D01*
X39914499Y-43499500D01*
X39847460Y-43479815D01*
X39801705Y-43427011D01*
X39790499Y-43375500D01*
X39790499Y-43027129D01*
X39790498Y-43027123D01*
X39790497Y-43027116D01*
X39784091Y-42967517D01*
X39771340Y-42933332D01*
X39766357Y-42863642D01*
X39771340Y-42846669D01*
X39784091Y-42812483D01*
X39790500Y-42752873D01*
X39790499Y-41757128D01*
X39784091Y-41697517D01*
X39771340Y-41663332D01*
X39766357Y-41593642D01*
X39771340Y-41576669D01*
X39784091Y-41542483D01*
X39790500Y-41482873D01*
X39790499Y-40487128D01*
X39784091Y-40427517D01*
X39771340Y-40393332D01*
X39766357Y-40323642D01*
X39771340Y-40306669D01*
X39784091Y-40272483D01*
X39790500Y-40212873D01*
X39790499Y-39217128D01*
X39784091Y-39157517D01*
X39779264Y-39144576D01*
X39733797Y-39022671D01*
X39733793Y-39022664D01*
X39647547Y-38907455D01*
X39647544Y-38907452D01*
X39532335Y-38821206D01*
X39532328Y-38821202D01*
X39397482Y-38770908D01*
X39397483Y-38770908D01*
X39337883Y-38764501D01*
X39337881Y-38764500D01*
X39337873Y-38764500D01*
X39337865Y-38764500D01*
X38364500Y-38764500D01*
X38297461Y-38744815D01*
X38251706Y-38692011D01*
X38240500Y-38640500D01*
X38240499Y-37152129D01*
X38240498Y-37152123D01*
X38239909Y-37146647D01*
X38234091Y-37092517D01*
X38213688Y-37037815D01*
X38183797Y-36957671D01*
X38183793Y-36957664D01*
X38097547Y-36842455D01*
X38097544Y-36842452D01*
X37982335Y-36756206D01*
X37982328Y-36756202D01*
X37847482Y-36705908D01*
X37847483Y-36705908D01*
X37787883Y-36699501D01*
X37787881Y-36699500D01*
X37787873Y-36699500D01*
X37787864Y-36699500D01*
X36792129Y-36699500D01*
X36792123Y-36699501D01*
X36732518Y-36705908D01*
X36698331Y-36718659D01*
X36628639Y-36723642D01*
X36611669Y-36718659D01*
X36594140Y-36712121D01*
X36577483Y-36705909D01*
X36577482Y-36705908D01*
X36517883Y-36699501D01*
X36517881Y-36699500D01*
X36517873Y-36699500D01*
X36517864Y-36699500D01*
X35522129Y-36699500D01*
X35522123Y-36699501D01*
X35462518Y-36705908D01*
X35428331Y-36718659D01*
X35358639Y-36723642D01*
X35341669Y-36718659D01*
X35324140Y-36712121D01*
X35307483Y-36705909D01*
X35307482Y-36705908D01*
X35247883Y-36699501D01*
X35247881Y-36699500D01*
X35247873Y-36699500D01*
X35247864Y-36699500D01*
X34252129Y-36699500D01*
X34252123Y-36699501D01*
X34192518Y-36705908D01*
X34158331Y-36718659D01*
X34088639Y-36723642D01*
X34071669Y-36718659D01*
X34054140Y-36712121D01*
X34037483Y-36705909D01*
X34037482Y-36705908D01*
X33977883Y-36699501D01*
X33977881Y-36699500D01*
X33977873Y-36699500D01*
X33977864Y-36699500D01*
X32982129Y-36699500D01*
X32982123Y-36699501D01*
X32922518Y-36705908D01*
X32888331Y-36718659D01*
X32818639Y-36723642D01*
X32801669Y-36718659D01*
X32784140Y-36712121D01*
X32767483Y-36705909D01*
X32767482Y-36705908D01*
X32707883Y-36699501D01*
X32707881Y-36699500D01*
X32707873Y-36699500D01*
X32707864Y-36699500D01*
X31712129Y-36699500D01*
X31712123Y-36699501D01*
X31652518Y-36705908D01*
X31618331Y-36718659D01*
X31548639Y-36723642D01*
X31531669Y-36718659D01*
X31514140Y-36712121D01*
X31497483Y-36705909D01*
X31497482Y-36705908D01*
X31437883Y-36699501D01*
X31437881Y-36699500D01*
X31437873Y-36699500D01*
X31437864Y-36699500D01*
X30442129Y-36699500D01*
X30442123Y-36699501D01*
X30382518Y-36705908D01*
X30348331Y-36718659D01*
X30278639Y-36723642D01*
X30261669Y-36718659D01*
X30244140Y-36712121D01*
X30227483Y-36705909D01*
X30227482Y-36705908D01*
X30167883Y-36699501D01*
X30167881Y-36699500D01*
X30167873Y-36699500D01*
X30167864Y-36699500D01*
X29172129Y-36699500D01*
X29172123Y-36699501D01*
X29112518Y-36705908D01*
X29078331Y-36718659D01*
X29008639Y-36723642D01*
X28991669Y-36718659D01*
X28974140Y-36712121D01*
X28957483Y-36705909D01*
X28957482Y-36705908D01*
X28897883Y-36699501D01*
X28897881Y-36699500D01*
X28897873Y-36699500D01*
X28897864Y-36699500D01*
X27902129Y-36699500D01*
X27902123Y-36699501D01*
X27842518Y-36705908D01*
X27808331Y-36718659D01*
X27738639Y-36723642D01*
X27721669Y-36718659D01*
X27704140Y-36712121D01*
X27687483Y-36705909D01*
X27687482Y-36705908D01*
X27629910Y-36699719D01*
X27565359Y-36672981D01*
X27525511Y-36615589D01*
X27523017Y-36545764D01*
X27555482Y-36488751D01*
X32492098Y-31552135D01*
X45624501Y-31552135D01*
X45624501Y-33247870D01*
X45624502Y-33247876D01*
X45630909Y-33307483D01*
X45681203Y-33442328D01*
X45681207Y-33442335D01*
X45767453Y-33557544D01*
X45767456Y-33557547D01*
X45882665Y-33643793D01*
X45882672Y-33643797D01*
X45887099Y-33645448D01*
X46017518Y-33694091D01*
X46077128Y-33700500D01*
X46150501Y-33700499D01*
X46217539Y-33720183D01*
X46263295Y-33772986D01*
X46274501Y-33824499D01*
X46274501Y-39069930D01*
X46255495Y-39135902D01*
X46199212Y-39225476D01*
X46199210Y-39225480D01*
X46139634Y-39395736D01*
X46139631Y-39395749D01*
X46119436Y-39574995D01*
X46119436Y-39575002D01*
X46139631Y-39754248D01*
X46139632Y-39754253D01*
X46199212Y-39924522D01*
X46279564Y-40052401D01*
X46295185Y-40077261D01*
X46422739Y-40204815D01*
X46575479Y-40300788D01*
X46648820Y-40326451D01*
X46745746Y-40360367D01*
X46745751Y-40360368D01*
X46924997Y-40380564D01*
X46925001Y-40380564D01*
X46925005Y-40380564D01*
X47104250Y-40360368D01*
X47104253Y-40360367D01*
X47104256Y-40360367D01*
X47274523Y-40300788D01*
X47427263Y-40204815D01*
X47554817Y-40077261D01*
X47650790Y-39924521D01*
X47710369Y-39754254D01*
X47711119Y-39747597D01*
X47730566Y-39575002D01*
X47730566Y-39574995D01*
X47710370Y-39395749D01*
X47710367Y-39395736D01*
X47650791Y-39225480D01*
X47650790Y-39225477D01*
X47623058Y-39181341D01*
X47594507Y-39135902D01*
X47575501Y-39069930D01*
X47575501Y-38799987D01*
X48725001Y-38799987D01*
X48735494Y-38902698D01*
X48790641Y-39069120D01*
X48790643Y-39069125D01*
X48882684Y-39218346D01*
X49006654Y-39342316D01*
X49155875Y-39434357D01*
X49155880Y-39434359D01*
X49322302Y-39489506D01*
X49322309Y-39489507D01*
X49425019Y-39500000D01*
X49849999Y-39500000D01*
X50350000Y-39500000D01*
X50774972Y-39500000D01*
X50774986Y-39499999D01*
X50877697Y-39489506D01*
X51044119Y-39434359D01*
X51044124Y-39434357D01*
X51193345Y-39342316D01*
X51317315Y-39218346D01*
X51409356Y-39069125D01*
X51409358Y-39069120D01*
X51464505Y-38902698D01*
X51464506Y-38902691D01*
X51474999Y-38799987D01*
X51475000Y-38799974D01*
X51475000Y-38600001D01*
X50350000Y-38600001D01*
X50350000Y-39500000D01*
X49849999Y-39500000D01*
X49850000Y-39499999D01*
X49850000Y-38600001D01*
X48725001Y-38600001D01*
X48725001Y-38799987D01*
X47575501Y-38799987D01*
X47575501Y-37900014D01*
X48725000Y-37900014D01*
X48725000Y-38100001D01*
X49850000Y-38100001D01*
X50350000Y-38100001D01*
X51474999Y-38100001D01*
X51474999Y-37900029D01*
X51474998Y-37900014D01*
X51464505Y-37797303D01*
X51409358Y-37630881D01*
X51409356Y-37630876D01*
X51317315Y-37481655D01*
X51193345Y-37357685D01*
X51044124Y-37265644D01*
X51044119Y-37265642D01*
X50877697Y-37210495D01*
X50877690Y-37210494D01*
X50774986Y-37200001D01*
X50350000Y-37200001D01*
X50350000Y-38100001D01*
X49850000Y-38100001D01*
X49850000Y-37200001D01*
X49425028Y-37200001D01*
X49425012Y-37200002D01*
X49322302Y-37210495D01*
X49155880Y-37265642D01*
X49155875Y-37265644D01*
X49006654Y-37357685D01*
X48882684Y-37481655D01*
X48790643Y-37630876D01*
X48790641Y-37630881D01*
X48735494Y-37797303D01*
X48735493Y-37797310D01*
X48725000Y-37900014D01*
X47575501Y-37900014D01*
X47575501Y-35906941D01*
X47595186Y-35839902D01*
X47647990Y-35794147D01*
X47717148Y-35784203D01*
X47780704Y-35813228D01*
X47787182Y-35819260D01*
X47797738Y-35829816D01*
X47874152Y-35877830D01*
X47945106Y-35922414D01*
X47950478Y-35925789D01*
X48033261Y-35954756D01*
X48120745Y-35985368D01*
X48120750Y-35985369D01*
X48299996Y-36005565D01*
X48300000Y-36005565D01*
X48300004Y-36005565D01*
X48479249Y-35985369D01*
X48479251Y-35985368D01*
X48479255Y-35985368D01*
X48479258Y-35985366D01*
X48479262Y-35985366D01*
X48648989Y-35925976D01*
X48718768Y-35922414D01*
X48779395Y-35957142D01*
X48795483Y-35977921D01*
X48882288Y-36118655D01*
X49006344Y-36242711D01*
X49155666Y-36334813D01*
X49322203Y-36389998D01*
X49424991Y-36400499D01*
X50775008Y-36400498D01*
X50877797Y-36389998D01*
X51044334Y-36334813D01*
X51193656Y-36242711D01*
X51317712Y-36118655D01*
X51329226Y-36099987D01*
X53025001Y-36099987D01*
X53035494Y-36202698D01*
X53090641Y-36369120D01*
X53090643Y-36369125D01*
X53182684Y-36518346D01*
X53306654Y-36642316D01*
X53455875Y-36734357D01*
X53455880Y-36734359D01*
X53622302Y-36789506D01*
X53622309Y-36789507D01*
X53725019Y-36800000D01*
X54149999Y-36800000D01*
X54650000Y-36800000D01*
X55074972Y-36800000D01*
X55074986Y-36799999D01*
X55177697Y-36789506D01*
X55344119Y-36734359D01*
X55344124Y-36734357D01*
X55493345Y-36642316D01*
X55617315Y-36518346D01*
X55709356Y-36369125D01*
X55709358Y-36369120D01*
X55764505Y-36202698D01*
X55764506Y-36202691D01*
X55774999Y-36099987D01*
X55775000Y-36099974D01*
X55775000Y-35900001D01*
X54650000Y-35900001D01*
X54650000Y-36800000D01*
X54149999Y-36800000D01*
X54150000Y-36799999D01*
X54150000Y-35900001D01*
X53025001Y-35900001D01*
X53025001Y-36099987D01*
X51329226Y-36099987D01*
X51386765Y-36006700D01*
X51438713Y-35959976D01*
X51507675Y-35948753D01*
X51533259Y-35954756D01*
X51620737Y-35985366D01*
X51620743Y-35985367D01*
X51620745Y-35985368D01*
X51620746Y-35985368D01*
X51620750Y-35985369D01*
X51799996Y-36005565D01*
X51800000Y-36005565D01*
X51800004Y-36005565D01*
X51979249Y-35985369D01*
X51979252Y-35985368D01*
X51979255Y-35985368D01*
X52149522Y-35925789D01*
X52302262Y-35829816D01*
X52429816Y-35702262D01*
X52525789Y-35549522D01*
X52585368Y-35379255D01*
X52605562Y-35200029D01*
X52605564Y-35200014D01*
X53025000Y-35200014D01*
X53025000Y-35400001D01*
X54150000Y-35400001D01*
X54650000Y-35400001D01*
X55774999Y-35400001D01*
X55774999Y-35200029D01*
X55774998Y-35200014D01*
X55764505Y-35097303D01*
X55709358Y-34930881D01*
X55709356Y-34930876D01*
X55617315Y-34781655D01*
X55493345Y-34657685D01*
X55344124Y-34565644D01*
X55344119Y-34565642D01*
X55177697Y-34510495D01*
X55177690Y-34510494D01*
X55074986Y-34500001D01*
X54650000Y-34500001D01*
X54650000Y-35400001D01*
X54150000Y-35400001D01*
X54150000Y-34500001D01*
X53725028Y-34500001D01*
X53725012Y-34500002D01*
X53622302Y-34510495D01*
X53455880Y-34565642D01*
X53455875Y-34565644D01*
X53306654Y-34657685D01*
X53182684Y-34781655D01*
X53090643Y-34930876D01*
X53090641Y-34930881D01*
X53035494Y-35097303D01*
X53035493Y-35097310D01*
X53025000Y-35200014D01*
X52605564Y-35200014D01*
X52605565Y-35200003D01*
X52605565Y-35199996D01*
X52585369Y-35020750D01*
X52585368Y-35020745D01*
X52525788Y-34850476D01*
X52429815Y-34697737D01*
X52302262Y-34570184D01*
X52149523Y-34474211D01*
X51979254Y-34414631D01*
X51979249Y-34414630D01*
X51800004Y-34394435D01*
X51799996Y-34394435D01*
X51620750Y-34414630D01*
X51620742Y-34414632D01*
X51482527Y-34462996D01*
X51412749Y-34466557D01*
X51352121Y-34431828D01*
X51336040Y-34411058D01*
X51317712Y-34381343D01*
X51193656Y-34257287D01*
X51044334Y-34165185D01*
X50877797Y-34110000D01*
X50877795Y-34109999D01*
X50775010Y-34099499D01*
X49424998Y-34099499D01*
X49424981Y-34099500D01*
X49322203Y-34109999D01*
X49322200Y-34110000D01*
X49155668Y-34165184D01*
X49155663Y-34165186D01*
X49006342Y-34257288D01*
X48882288Y-34381342D01*
X48882285Y-34381346D01*
X48841631Y-34447257D01*
X48789683Y-34493982D01*
X48720721Y-34505203D01*
X48670121Y-34487154D01*
X48649523Y-34474211D01*
X48479254Y-34414631D01*
X48479249Y-34414630D01*
X48300004Y-34394435D01*
X48299996Y-34394435D01*
X48120750Y-34414630D01*
X48120745Y-34414631D01*
X47950476Y-34474211D01*
X47797737Y-34570184D01*
X47787182Y-34580740D01*
X47725859Y-34614225D01*
X47656167Y-34609241D01*
X47600234Y-34567369D01*
X47575817Y-34501905D01*
X47575501Y-34493059D01*
X47575501Y-33824499D01*
X47595186Y-33757460D01*
X47647990Y-33711705D01*
X47699501Y-33700499D01*
X47772872Y-33700499D01*
X47772873Y-33700499D01*
X47832484Y-33694091D01*
X47967332Y-33643796D01*
X48082547Y-33557546D01*
X48168797Y-33442331D01*
X48219092Y-33307483D01*
X48222863Y-33272401D01*
X48249600Y-33207855D01*
X48306991Y-33168006D01*
X48376817Y-33165511D01*
X48436906Y-33201163D01*
X48447727Y-33214536D01*
X48464957Y-33239143D01*
X48625859Y-33400045D01*
X48625862Y-33400047D01*
X48812267Y-33530568D01*
X49018505Y-33626739D01*
X49238309Y-33685635D01*
X49385334Y-33698498D01*
X49464999Y-33705468D01*
X49465001Y-33705468D01*
X49465003Y-33705468D01*
X49544668Y-33698498D01*
X49691693Y-33685635D01*
X49911497Y-33626739D01*
X50117735Y-33530568D01*
X50304140Y-33400047D01*
X50465048Y-33239139D01*
X50537619Y-33135496D01*
X50560109Y-33103377D01*
X50614686Y-33059752D01*
X50661684Y-33050500D01*
X52928131Y-33050500D01*
X52995170Y-33070185D01*
X53040925Y-33122989D01*
X53045835Y-33135491D01*
X53067597Y-33201163D01*
X53090185Y-33269330D01*
X53090187Y-33269335D01*
X53110469Y-33302217D01*
X53182288Y-33418655D01*
X53306344Y-33542711D01*
X53455666Y-33634813D01*
X53622203Y-33689998D01*
X53724991Y-33700499D01*
X55075008Y-33700498D01*
X55177797Y-33689998D01*
X55344334Y-33634813D01*
X55493656Y-33542711D01*
X55617712Y-33418655D01*
X55709814Y-33269333D01*
X55764999Y-33102796D01*
X55775500Y-33000008D01*
X55775499Y-32099991D01*
X55764999Y-31997202D01*
X55709814Y-31830665D01*
X55617712Y-31681343D01*
X55493656Y-31557287D01*
X55391271Y-31494136D01*
X55344336Y-31465186D01*
X55344331Y-31465184D01*
X55342862Y-31464697D01*
X55177797Y-31410000D01*
X55177795Y-31409999D01*
X55075010Y-31399499D01*
X53724998Y-31399499D01*
X53724981Y-31399500D01*
X53622203Y-31409999D01*
X53622200Y-31410000D01*
X53455668Y-31465184D01*
X53455663Y-31465186D01*
X53306342Y-31557288D01*
X53182289Y-31681341D01*
X53182288Y-31681343D01*
X53178230Y-31687923D01*
X53176580Y-31690598D01*
X53124632Y-31737322D01*
X53071042Y-31749500D01*
X50661684Y-31749500D01*
X50594645Y-31729815D01*
X50560109Y-31696623D01*
X50465046Y-31560858D01*
X50304142Y-31399954D01*
X50117735Y-31269432D01*
X50117733Y-31269431D01*
X49911498Y-31173261D01*
X49911489Y-31173258D01*
X49691698Y-31114366D01*
X49691694Y-31114365D01*
X49691693Y-31114365D01*
X49691692Y-31114364D01*
X49691687Y-31114364D01*
X49465003Y-31094532D01*
X49464999Y-31094532D01*
X49238314Y-31114364D01*
X49238303Y-31114366D01*
X49018512Y-31173258D01*
X49018503Y-31173261D01*
X48812268Y-31269431D01*
X48812266Y-31269432D01*
X48625859Y-31399954D01*
X48464955Y-31560858D01*
X48447726Y-31585464D01*
X48393148Y-31629088D01*
X48323649Y-31636280D01*
X48261295Y-31604757D01*
X48225883Y-31544526D01*
X48222862Y-31527591D01*
X48219092Y-31492516D01*
X48168798Y-31357671D01*
X48168794Y-31357664D01*
X48082548Y-31242455D01*
X48082545Y-31242452D01*
X47967336Y-31156206D01*
X47967329Y-31156202D01*
X47832483Y-31105908D01*
X47832484Y-31105908D01*
X47772884Y-31099501D01*
X47772882Y-31099500D01*
X47772874Y-31099500D01*
X47772865Y-31099500D01*
X46077130Y-31099500D01*
X46077124Y-31099501D01*
X46017517Y-31105908D01*
X45882672Y-31156202D01*
X45882665Y-31156206D01*
X45767456Y-31242452D01*
X45767453Y-31242455D01*
X45681207Y-31357664D01*
X45681203Y-31357671D01*
X45630909Y-31492517D01*
X45624502Y-31552116D01*
X45624501Y-31552135D01*
X32492098Y-31552135D01*
X37336470Y-26707763D01*
X37397791Y-26674280D01*
X37456238Y-26675670D01*
X37584592Y-26710063D01*
X37761034Y-26725500D01*
X37819999Y-26730659D01*
X37820000Y-26730659D01*
X37820001Y-26730659D01*
X37878966Y-26725500D01*
X38055408Y-26710063D01*
X38283663Y-26648903D01*
X38497830Y-26549035D01*
X38691401Y-26413495D01*
X38858495Y-26246401D01*
X38994035Y-26052830D01*
X39093903Y-25838663D01*
X39155063Y-25610408D01*
X39175659Y-25375000D01*
X39155063Y-25139592D01*
X39093903Y-24911337D01*
X38994035Y-24697171D01*
X38985599Y-24685122D01*
X38858494Y-24503597D01*
X38691402Y-24336506D01*
X38691395Y-24336501D01*
X38678013Y-24327131D01*
X38614518Y-24282671D01*
X38497834Y-24200967D01*
X38497830Y-24200965D01*
X38428410Y-24168594D01*
X38283663Y-24101097D01*
X38283659Y-24101096D01*
X38283655Y-24101094D01*
X38055413Y-24039938D01*
X38055403Y-24039936D01*
X37820001Y-24019341D01*
X37819999Y-24019341D01*
X37584596Y-24039936D01*
X37584586Y-24039938D01*
X37356344Y-24101094D01*
X37356335Y-24101098D01*
X37142171Y-24200964D01*
X37142169Y-24200965D01*
X36948597Y-24336505D01*
X36781508Y-24503594D01*
X36651574Y-24689160D01*
X36596997Y-24732784D01*
X36527498Y-24739977D01*
X36465144Y-24708455D01*
X36448424Y-24689159D01*
X36318493Y-24503597D01*
X36151401Y-24336506D01*
X36151394Y-24336501D01*
X36138012Y-24327131D01*
X36074517Y-24282671D01*
X35957833Y-24200967D01*
X35957829Y-24200965D01*
X35888409Y-24168594D01*
X35743662Y-24101097D01*
X35743658Y-24101096D01*
X35743654Y-24101094D01*
X35515412Y-24039938D01*
X35515402Y-24039936D01*
X35280000Y-24019341D01*
X35279998Y-24019341D01*
X35044595Y-24039936D01*
X35044585Y-24039938D01*
X34816343Y-24101094D01*
X34816334Y-24101098D01*
X34602170Y-24200964D01*
X34602168Y-24200965D01*
X34408596Y-24336505D01*
X34241504Y-24503597D01*
X34111269Y-24689594D01*
X34056692Y-24733219D01*
X33987194Y-24740413D01*
X33924839Y-24708890D01*
X33908119Y-24689594D01*
X33778113Y-24503926D01*
X33778108Y-24503920D01*
X33611082Y-24336894D01*
X33417578Y-24201399D01*
X33203492Y-24101570D01*
X33203486Y-24101567D01*
X32990000Y-24044364D01*
X32990000Y-24941988D01*
X32932993Y-24909075D01*
X32805826Y-24875000D01*
X32674174Y-24875000D01*
X32547007Y-24909075D01*
X32490000Y-24941988D01*
X32490000Y-24044364D01*
X32489999Y-24044364D01*
X32276513Y-24101567D01*
X32276507Y-24101570D01*
X32062422Y-24201399D01*
X32062420Y-24201400D01*
X31868926Y-24336886D01*
X31746865Y-24458947D01*
X31685542Y-24492431D01*
X31615850Y-24487447D01*
X31559917Y-24445575D01*
X31543002Y-24414598D01*
X31493797Y-24282671D01*
X31493793Y-24282664D01*
X31407547Y-24167455D01*
X31407544Y-24167452D01*
X31292335Y-24081206D01*
X31292328Y-24081202D01*
X31157482Y-24030908D01*
X31157483Y-24030908D01*
X31097883Y-24024501D01*
X31097881Y-24024500D01*
X31097873Y-24024500D01*
X31097864Y-24024500D01*
X29302129Y-24024500D01*
X29302123Y-24024501D01*
X29242516Y-24030908D01*
X29107671Y-24081202D01*
X29107664Y-24081206D01*
X28992455Y-24167452D01*
X28992452Y-24167455D01*
X28906206Y-24282664D01*
X28906202Y-24282671D01*
X28855908Y-24417517D01*
X28849501Y-24477116D01*
X28849500Y-24477135D01*
X28849500Y-26272870D01*
X28849501Y-26272876D01*
X28855908Y-26332483D01*
X28906202Y-26467328D01*
X28906206Y-26467335D01*
X28992452Y-26582544D01*
X28992455Y-26582547D01*
X29107664Y-26668793D01*
X29107671Y-26668797D01*
X29242517Y-26719091D01*
X29242516Y-26719091D01*
X29249444Y-26719835D01*
X29302127Y-26725500D01*
X31097872Y-26725499D01*
X31157483Y-26719091D01*
X31292331Y-26668796D01*
X31407546Y-26582546D01*
X31493796Y-26467331D01*
X31543002Y-26335401D01*
X31584872Y-26279468D01*
X31650337Y-26255050D01*
X31718610Y-26269901D01*
X31746865Y-26291053D01*
X31868917Y-26413105D01*
X32062421Y-26548600D01*
X32276507Y-26648429D01*
X32276516Y-26648433D01*
X32490000Y-26705634D01*
X32490000Y-25808012D01*
X32547007Y-25840925D01*
X32674174Y-25875000D01*
X32805826Y-25875000D01*
X32932993Y-25840925D01*
X32990000Y-25808012D01*
X32990000Y-26764401D01*
X32970315Y-26831440D01*
X32953681Y-26852082D01*
X31258785Y-28546980D01*
X30979566Y-28826198D01*
X24109481Y-35696282D01*
X24109479Y-35696285D01*
X24091209Y-35727930D01*
X24072938Y-35759577D01*
X24030423Y-35833215D01*
X23989499Y-35985943D01*
X23989499Y-35985945D01*
X23989499Y-36154046D01*
X23989500Y-36154059D01*
X23989500Y-36579906D01*
X23969815Y-36646945D01*
X23917011Y-36692700D01*
X23852247Y-36703195D01*
X23817873Y-36699500D01*
X23817865Y-36699500D01*
X22822129Y-36699500D01*
X22822123Y-36699501D01*
X22762518Y-36705908D01*
X22728331Y-36718659D01*
X22658639Y-36723642D01*
X22641669Y-36718659D01*
X22624140Y-36712121D01*
X22607483Y-36705909D01*
X22607482Y-36705908D01*
X22547883Y-36699501D01*
X22547881Y-36699500D01*
X22547873Y-36699500D01*
X22547864Y-36699500D01*
X21552129Y-36699500D01*
X21552123Y-36699501D01*
X21492520Y-36705908D01*
X21492517Y-36705908D01*
X21492517Y-36705909D01*
X21457620Y-36718925D01*
X21457617Y-36718926D01*
X21387925Y-36723909D01*
X21370952Y-36718925D01*
X21337379Y-36706403D01*
X21337372Y-36706401D01*
X21277844Y-36700000D01*
X21030000Y-36700000D01*
X21030000Y-39200000D01*
X21277828Y-39200000D01*
X21277844Y-39199999D01*
X21337372Y-39193598D01*
X21337375Y-39193597D01*
X21370949Y-39181075D01*
X21440640Y-39176089D01*
X21457619Y-39181075D01*
X21492511Y-39194089D01*
X21492512Y-39194089D01*
X21492517Y-39194091D01*
X21552127Y-39200500D01*
X22547872Y-39200499D01*
X22607483Y-39194091D01*
X22641667Y-39181340D01*
X22711358Y-39176357D01*
X22728327Y-39181338D01*
X22762517Y-39194091D01*
X22822127Y-39200500D01*
X23817872Y-39200499D01*
X23877483Y-39194091D01*
X23911667Y-39181340D01*
X23981358Y-39176357D01*
X23998327Y-39181338D01*
X24032517Y-39194091D01*
X24092127Y-39200500D01*
X25087872Y-39200499D01*
X25147483Y-39194091D01*
X25181667Y-39181340D01*
X25251358Y-39176357D01*
X25268327Y-39181338D01*
X25302517Y-39194091D01*
X25362127Y-39200500D01*
X26357872Y-39200499D01*
X26417483Y-39194091D01*
X26451667Y-39181340D01*
X26521358Y-39176357D01*
X26538327Y-39181338D01*
X26572517Y-39194091D01*
X26632127Y-39200500D01*
X27627872Y-39200499D01*
X27687483Y-39194091D01*
X27721667Y-39181340D01*
X27791358Y-39176357D01*
X27808327Y-39181338D01*
X27842517Y-39194091D01*
X27902127Y-39200500D01*
X28897872Y-39200499D01*
X28957483Y-39194091D01*
X28991667Y-39181340D01*
X29061358Y-39176357D01*
X29078327Y-39181338D01*
X29112517Y-39194091D01*
X29172127Y-39200500D01*
X30167872Y-39200499D01*
X30227483Y-39194091D01*
X30261667Y-39181340D01*
X30331358Y-39176357D01*
X30348327Y-39181338D01*
X30382517Y-39194091D01*
X30442127Y-39200500D01*
X31437872Y-39200499D01*
X31497483Y-39194091D01*
X31531667Y-39181340D01*
X31601358Y-39176357D01*
X31618327Y-39181338D01*
X31652517Y-39194091D01*
X31712127Y-39200500D01*
X32707872Y-39200499D01*
X32767483Y-39194091D01*
X32801667Y-39181340D01*
X32871358Y-39176357D01*
X32888327Y-39181338D01*
X32922517Y-39194091D01*
X32982127Y-39200500D01*
X33977872Y-39200499D01*
X34037483Y-39194091D01*
X34071667Y-39181340D01*
X34141358Y-39176357D01*
X34158327Y-39181338D01*
X34192517Y-39194091D01*
X34252127Y-39200500D01*
X35247872Y-39200499D01*
X35248548Y-39200426D01*
X35249856Y-39200286D01*
X35250312Y-39200368D01*
X35251195Y-39200321D01*
X35251206Y-39200529D01*
X35318616Y-39212689D01*
X35369755Y-39260298D01*
X35387036Y-39327997D01*
X35364973Y-39394292D01*
X35350796Y-39411256D01*
X30490873Y-44271181D01*
X30429550Y-44304666D01*
X30403192Y-44307500D01*
X25335929Y-44307500D01*
X25210261Y-44332497D01*
X25210255Y-44332499D01*
X25091870Y-44381535D01*
X24985331Y-44452722D01*
X24985324Y-44452728D01*
X24640726Y-44797326D01*
X24613293Y-44838383D01*
X24591437Y-44871095D01*
X24583398Y-44883126D01*
X24583396Y-44883128D01*
X24569539Y-44903865D01*
X24569533Y-44903875D01*
X24520499Y-45022255D01*
X24520497Y-45022261D01*
X24495500Y-45147928D01*
X24495500Y-53498190D01*
X24488542Y-53539143D01*
X24487631Y-53541745D01*
X24487631Y-53541746D01*
X24467435Y-53720996D01*
X24467435Y-53721003D01*
X24487630Y-53900249D01*
X24487631Y-53900254D01*
X24534622Y-54034545D01*
X24538183Y-54104324D01*
X24503454Y-54164952D01*
X24441461Y-54197179D01*
X24417580Y-54199500D01*
X24092130Y-54199500D01*
X24092123Y-54199501D01*
X24032518Y-54205908D01*
X23998331Y-54218659D01*
X23928639Y-54223642D01*
X23911669Y-54218659D01*
X23894140Y-54212121D01*
X23877483Y-54205909D01*
X23877482Y-54205908D01*
X23817883Y-54199501D01*
X23817881Y-54199500D01*
X23817873Y-54199500D01*
X23817864Y-54199500D01*
X22822129Y-54199500D01*
X22822123Y-54199501D01*
X22762518Y-54205908D01*
X22728331Y-54218659D01*
X22658639Y-54223642D01*
X22641669Y-54218659D01*
X22624140Y-54212121D01*
X22607483Y-54205909D01*
X22607482Y-54205908D01*
X22547883Y-54199501D01*
X22547881Y-54199500D01*
X22547873Y-54199500D01*
X22547864Y-54199500D01*
X21552129Y-54199500D01*
X21552123Y-54199501D01*
X21492520Y-54205908D01*
X21492517Y-54205908D01*
X21492517Y-54205909D01*
X21457620Y-54218925D01*
X21457617Y-54218926D01*
X21387925Y-54223909D01*
X21370952Y-54218925D01*
X21337379Y-54206403D01*
X21337372Y-54206401D01*
X21277844Y-54200000D01*
X21030000Y-54200000D01*
X21030000Y-56700000D01*
X21275500Y-56700000D01*
X21342539Y-56719685D01*
X21388294Y-56772489D01*
X21399500Y-56824000D01*
X21399500Y-57429191D01*
X21379815Y-57496230D01*
X21363181Y-57516872D01*
X20576727Y-58303325D01*
X20576726Y-58303326D01*
X20505534Y-58409874D01*
X20456499Y-58528255D01*
X20456497Y-58528261D01*
X20431500Y-58653928D01*
X20431500Y-65793091D01*
X20411815Y-65860130D01*
X20367731Y-65898641D01*
X20368813Y-65900395D01*
X20362667Y-65904185D01*
X20362666Y-65904186D01*
X20285570Y-65951739D01*
X20213342Y-65996289D01*
X20089289Y-66120342D01*
X19997187Y-66269663D01*
X19997186Y-66269666D01*
X19952154Y-66405565D01*
X19942001Y-66436204D01*
X19940583Y-66442827D01*
X19939082Y-66442505D01*
X19915708Y-66499766D01*
X19858521Y-66539908D01*
X19817955Y-66546453D01*
X19723696Y-66545842D01*
X19656786Y-66525724D01*
X19611374Y-66472624D01*
X19600500Y-66421845D01*
X19600500Y-56362184D01*
X19620185Y-56295145D01*
X19672989Y-56249390D01*
X19742147Y-56239446D01*
X19805703Y-56268471D01*
X19840682Y-56318851D01*
X19886645Y-56442086D01*
X19886649Y-56442093D01*
X19972809Y-56557187D01*
X19972812Y-56557190D01*
X20087906Y-56643350D01*
X20087913Y-56643354D01*
X20222620Y-56693596D01*
X20222627Y-56693598D01*
X20282155Y-56699999D01*
X20282172Y-56700000D01*
X20530000Y-56700000D01*
X20530000Y-54200000D01*
X20282155Y-54200000D01*
X20222627Y-54206401D01*
X20222620Y-54206403D01*
X20087913Y-54256645D01*
X20087906Y-54256649D01*
X19972812Y-54342809D01*
X19972809Y-54342812D01*
X19886649Y-54457906D01*
X19886645Y-54457913D01*
X19840682Y-54581148D01*
X19798811Y-54637082D01*
X19733346Y-54661499D01*
X19665073Y-54646647D01*
X19615668Y-54597242D01*
X19600500Y-54537815D01*
X19600500Y-38862184D01*
X19620185Y-38795145D01*
X19672989Y-38749390D01*
X19742147Y-38739446D01*
X19805703Y-38768471D01*
X19840682Y-38818851D01*
X19886645Y-38942086D01*
X19886649Y-38942093D01*
X19972809Y-39057187D01*
X19972812Y-39057190D01*
X20087906Y-39143350D01*
X20087913Y-39143354D01*
X20222620Y-39193596D01*
X20222627Y-39193598D01*
X20282155Y-39199999D01*
X20282172Y-39200000D01*
X20530000Y-39200000D01*
X20530000Y-36700000D01*
X20282155Y-36700000D01*
X20222627Y-36706401D01*
X20222620Y-36706403D01*
X20087913Y-36756645D01*
X20087906Y-36756649D01*
X19972812Y-36842809D01*
X19972809Y-36842812D01*
X19886649Y-36957906D01*
X19886645Y-36957913D01*
X19840682Y-37081148D01*
X19798811Y-37137082D01*
X19733346Y-37161499D01*
X19665073Y-37146647D01*
X19615668Y-37097242D01*
X19600500Y-37037815D01*
X19600500Y-20724500D01*
X19620185Y-20657461D01*
X19672989Y-20611706D01*
X19724500Y-20600500D01*
X23120371Y-20600500D01*
X23187410Y-20620185D01*
G37*
%TD.AperFunction*%
%TA.AperFunction,Conductor*%
G36*
X34158327Y-56681338D02*
G01*
X34192517Y-56694091D01*
X34252127Y-56700500D01*
X34600192Y-56700499D01*
X34667230Y-56720183D01*
X34712985Y-56772987D01*
X34722929Y-56842146D01*
X34693904Y-56905701D01*
X34687872Y-56912180D01*
X32641873Y-58958181D01*
X32580550Y-58991666D01*
X32554192Y-58994500D01*
X31676683Y-58994500D01*
X31609644Y-58974815D01*
X31575108Y-58941623D01*
X31480045Y-58805858D01*
X31319141Y-58644954D01*
X31132734Y-58514432D01*
X31132732Y-58514431D01*
X30926497Y-58418261D01*
X30926488Y-58418258D01*
X30706697Y-58359366D01*
X30706693Y-58359365D01*
X30706692Y-58359365D01*
X30706691Y-58359364D01*
X30706686Y-58359364D01*
X30480002Y-58339532D01*
X30479998Y-58339532D01*
X30253313Y-58359364D01*
X30253302Y-58359366D01*
X30033511Y-58418258D01*
X30033502Y-58418261D01*
X29827267Y-58514431D01*
X29827265Y-58514432D01*
X29640858Y-58644954D01*
X29479954Y-58805858D01*
X29349432Y-58992265D01*
X29349431Y-58992267D01*
X29253261Y-59198502D01*
X29253258Y-59198511D01*
X29194366Y-59418302D01*
X29194364Y-59418313D01*
X29174532Y-59644998D01*
X29174532Y-59645001D01*
X29194364Y-59871686D01*
X29194366Y-59871697D01*
X29253258Y-60091488D01*
X29253261Y-60091497D01*
X29349431Y-60297732D01*
X29349432Y-60297734D01*
X29479954Y-60484141D01*
X29640858Y-60645045D01*
X29687693Y-60677839D01*
X29827266Y-60775568D01*
X29885865Y-60802893D01*
X29938305Y-60849065D01*
X29957457Y-60916258D01*
X29937242Y-60983139D01*
X29885867Y-61027657D01*
X29827515Y-61054867D01*
X29641179Y-61185342D01*
X29480342Y-61346179D01*
X29349865Y-61532517D01*
X29253734Y-61738673D01*
X29253730Y-61738682D01*
X29201127Y-61934999D01*
X29201128Y-61935000D01*
X30164314Y-61935000D01*
X30159920Y-61939394D01*
X30107259Y-62030606D01*
X30080000Y-62132339D01*
X30080000Y-62237661D01*
X30107259Y-62339394D01*
X30159920Y-62430606D01*
X30164314Y-62435000D01*
X29201128Y-62435000D01*
X29253730Y-62631317D01*
X29253734Y-62631326D01*
X29349865Y-62837482D01*
X29480342Y-63023820D01*
X29641179Y-63184657D01*
X29827518Y-63315134D01*
X29827520Y-63315135D01*
X29885865Y-63342342D01*
X29938305Y-63388514D01*
X29957457Y-63455707D01*
X29937242Y-63522589D01*
X29885867Y-63567105D01*
X29844789Y-63586261D01*
X29827264Y-63594433D01*
X29640858Y-63724954D01*
X29479954Y-63885858D01*
X29349432Y-64072265D01*
X29349431Y-64072267D01*
X29253261Y-64278502D01*
X29253258Y-64278511D01*
X29194366Y-64498302D01*
X29194364Y-64498312D01*
X29189213Y-64557186D01*
X29163759Y-64622255D01*
X29107168Y-64663232D01*
X29037406Y-64667109D01*
X28978004Y-64634058D01*
X28118819Y-63774873D01*
X28085334Y-63713550D01*
X28082500Y-63687192D01*
X28082500Y-57847928D01*
X28057502Y-57722261D01*
X28057501Y-57722260D01*
X28057501Y-57722256D01*
X28008465Y-57603873D01*
X27994689Y-57583255D01*
X27994687Y-57583252D01*
X27994687Y-57583251D01*
X27937276Y-57497329D01*
X27937273Y-57497326D01*
X27745722Y-57305776D01*
X27712237Y-57244453D01*
X27710182Y-57231973D01*
X27709368Y-57224745D01*
X27649789Y-57054478D01*
X27553816Y-56901738D01*
X27553813Y-56901735D01*
X27552591Y-56900203D01*
X27552108Y-56899020D01*
X27550111Y-56895842D01*
X27550667Y-56895492D01*
X27526179Y-56835518D01*
X27538931Y-56766822D01*
X27586799Y-56715925D01*
X27636280Y-56699595D01*
X27687483Y-56694091D01*
X27721667Y-56681340D01*
X27791358Y-56676357D01*
X27808327Y-56681338D01*
X27842517Y-56694091D01*
X27902127Y-56700500D01*
X28897872Y-56700499D01*
X28957483Y-56694091D01*
X28991667Y-56681340D01*
X29061358Y-56676357D01*
X29078327Y-56681338D01*
X29112517Y-56694091D01*
X29172127Y-56700500D01*
X30167872Y-56700499D01*
X30227483Y-56694091D01*
X30261667Y-56681340D01*
X30331358Y-56676357D01*
X30348327Y-56681338D01*
X30382517Y-56694091D01*
X30442127Y-56700500D01*
X31437872Y-56700499D01*
X31497483Y-56694091D01*
X31531667Y-56681340D01*
X31601358Y-56676357D01*
X31618327Y-56681338D01*
X31652517Y-56694091D01*
X31712127Y-56700500D01*
X32707872Y-56700499D01*
X32767483Y-56694091D01*
X32801667Y-56681340D01*
X32871358Y-56676357D01*
X32888327Y-56681338D01*
X32922517Y-56694091D01*
X32982127Y-56700500D01*
X33977872Y-56700499D01*
X34037483Y-56694091D01*
X34071667Y-56681340D01*
X34141358Y-56676357D01*
X34158327Y-56681338D01*
G37*
%TD.AperFunction*%
%TA.AperFunction,Conductor*%
G36*
X37208834Y-39495624D02*
G01*
X37264767Y-39537496D01*
X37289184Y-39602960D01*
X37289500Y-39611806D01*
X37289500Y-40212870D01*
X37289501Y-40212876D01*
X37295908Y-40272481D01*
X37308659Y-40306669D01*
X37313642Y-40376361D01*
X37308659Y-40393331D01*
X37295908Y-40427518D01*
X37293440Y-40450478D01*
X37289501Y-40487123D01*
X37289500Y-40487135D01*
X37289500Y-41482870D01*
X37289501Y-41482876D01*
X37295908Y-41542481D01*
X37308659Y-41576669D01*
X37313642Y-41646361D01*
X37308659Y-41663331D01*
X37295908Y-41697518D01*
X37292436Y-41729815D01*
X37289501Y-41757123D01*
X37289500Y-41757135D01*
X37289500Y-42752870D01*
X37289501Y-42752876D01*
X37295908Y-42812481D01*
X37308659Y-42846669D01*
X37313642Y-42916361D01*
X37308659Y-42933331D01*
X37295908Y-42967518D01*
X37290322Y-43019480D01*
X37289501Y-43027123D01*
X37289500Y-43027135D01*
X37289500Y-44022870D01*
X37289501Y-44022876D01*
X37295908Y-44082481D01*
X37308659Y-44116669D01*
X37313642Y-44186361D01*
X37308659Y-44203331D01*
X37295908Y-44237518D01*
X37289501Y-44297116D01*
X37289500Y-44297135D01*
X37289500Y-45292870D01*
X37289501Y-45292876D01*
X37295908Y-45352481D01*
X37308659Y-45386669D01*
X37313642Y-45456361D01*
X37308659Y-45473331D01*
X37295908Y-45507518D01*
X37289501Y-45567116D01*
X37289500Y-45567128D01*
X37289500Y-46562870D01*
X37289501Y-46562876D01*
X37295128Y-46615221D01*
X37282721Y-46683980D01*
X37235110Y-46735117D01*
X37219292Y-46743034D01*
X37181877Y-46758532D01*
X37075326Y-46829726D01*
X36283052Y-47622000D01*
X36232356Y-47697874D01*
X36211863Y-47728543D01*
X36162827Y-47846927D01*
X36162825Y-47846933D01*
X36137828Y-47972600D01*
X36137828Y-53249289D01*
X36118822Y-53315261D01*
X36062539Y-53404835D01*
X36062537Y-53404839D01*
X36002961Y-53575095D01*
X36002958Y-53575108D01*
X35982763Y-53754354D01*
X35982763Y-53754361D01*
X36002958Y-53933607D01*
X36002960Y-53933615D01*
X36038277Y-54034546D01*
X36041838Y-54104325D01*
X36007109Y-54164952D01*
X35945115Y-54197179D01*
X35921235Y-54199500D01*
X35522129Y-54199500D01*
X35522123Y-54199501D01*
X35462518Y-54205908D01*
X35428331Y-54218659D01*
X35358639Y-54223642D01*
X35341669Y-54218659D01*
X35324140Y-54212121D01*
X35307483Y-54205909D01*
X35307482Y-54205908D01*
X35247883Y-54199501D01*
X35247881Y-54199500D01*
X35247873Y-54199500D01*
X35247864Y-54199500D01*
X34252129Y-54199500D01*
X34252123Y-54199501D01*
X34192518Y-54205908D01*
X34158331Y-54218659D01*
X34088639Y-54223642D01*
X34071669Y-54218659D01*
X34054140Y-54212121D01*
X34037483Y-54205909D01*
X34037482Y-54205908D01*
X33977883Y-54199501D01*
X33977881Y-54199500D01*
X33977873Y-54199500D01*
X33977864Y-54199500D01*
X32982129Y-54199500D01*
X32982123Y-54199501D01*
X32922518Y-54205908D01*
X32888331Y-54218659D01*
X32818639Y-54223642D01*
X32801669Y-54218659D01*
X32784140Y-54212121D01*
X32767483Y-54205909D01*
X32767482Y-54205908D01*
X32767483Y-54205908D01*
X32723408Y-54201170D01*
X32658857Y-54174432D01*
X32619009Y-54117039D01*
X32616516Y-54047214D01*
X32648981Y-53990202D01*
X35305277Y-51333908D01*
X35376465Y-51227366D01*
X35425501Y-51108983D01*
X35434435Y-51064069D01*
X35450500Y-50983308D01*
X35450500Y-48705067D01*
X35469507Y-48639094D01*
X35525788Y-48549524D01*
X35525789Y-48549522D01*
X35585368Y-48379255D01*
X35585532Y-48377799D01*
X35605565Y-48200003D01*
X35605565Y-48199996D01*
X35585369Y-48020750D01*
X35585368Y-48020745D01*
X35568521Y-47972600D01*
X35525789Y-47850478D01*
X35523558Y-47846928D01*
X35471686Y-47764374D01*
X35429816Y-47697738D01*
X35302262Y-47570184D01*
X35280715Y-47556645D01*
X35149523Y-47474211D01*
X34979254Y-47414631D01*
X34979249Y-47414630D01*
X34800004Y-47394435D01*
X34799996Y-47394435D01*
X34620750Y-47414630D01*
X34620745Y-47414631D01*
X34450476Y-47474211D01*
X34297737Y-47570184D01*
X34170184Y-47697737D01*
X34074211Y-47850476D01*
X34014631Y-48020745D01*
X34014630Y-48020750D01*
X33994435Y-48199996D01*
X33994435Y-48200003D01*
X34014630Y-48379249D01*
X34014631Y-48379254D01*
X34074211Y-48549524D01*
X34130493Y-48639094D01*
X34149500Y-48705067D01*
X34149500Y-49883790D01*
X34129815Y-49950829D01*
X34077011Y-49996584D01*
X34011617Y-50007010D01*
X33900004Y-49994435D01*
X33899996Y-49994435D01*
X33720750Y-50014630D01*
X33720745Y-50014631D01*
X33550476Y-50074211D01*
X33397737Y-50170184D01*
X33270184Y-50297737D01*
X33174210Y-50450478D01*
X33114630Y-50620750D01*
X33104837Y-50707667D01*
X33077770Y-50772081D01*
X33069298Y-50781464D01*
X31287584Y-52563181D01*
X31226261Y-52596666D01*
X31199903Y-52599500D01*
X28770940Y-52599500D01*
X28730019Y-52610464D01*
X28730019Y-52610465D01*
X28692751Y-52620451D01*
X28618214Y-52640423D01*
X28618209Y-52640426D01*
X28481290Y-52719475D01*
X28481282Y-52719481D01*
X28369478Y-52831286D01*
X27037582Y-54163181D01*
X26976259Y-54196666D01*
X26949901Y-54199500D01*
X26632130Y-54199500D01*
X26632123Y-54199501D01*
X26572518Y-54205908D01*
X26538331Y-54218659D01*
X26468639Y-54223642D01*
X26451669Y-54218659D01*
X26434140Y-54212121D01*
X26417483Y-54205909D01*
X26417482Y-54205908D01*
X26357883Y-54199501D01*
X26357881Y-54199500D01*
X26357873Y-54199500D01*
X26357865Y-54199500D01*
X26128420Y-54199500D01*
X26061381Y-54179815D01*
X26015626Y-54127011D01*
X26005682Y-54057853D01*
X26011378Y-54034545D01*
X26046695Y-53933615D01*
X26058368Y-53900255D01*
X26058369Y-53900249D01*
X26078565Y-53721003D01*
X26078565Y-53720996D01*
X26058369Y-53541750D01*
X26058368Y-53541745D01*
X26010614Y-53405272D01*
X25998789Y-53371478D01*
X25985293Y-53350000D01*
X25940841Y-53279255D01*
X25902816Y-53218738D01*
X25832819Y-53148741D01*
X25799334Y-53087418D01*
X25796500Y-53061060D01*
X25796500Y-50197844D01*
X26050000Y-50197844D01*
X26056401Y-50257372D01*
X26056403Y-50257379D01*
X26106645Y-50392086D01*
X26106649Y-50392093D01*
X26192809Y-50507187D01*
X26192812Y-50507190D01*
X26307906Y-50593350D01*
X26307913Y-50593354D01*
X26442620Y-50643596D01*
X26442627Y-50643598D01*
X26502155Y-50649999D01*
X26502172Y-50650000D01*
X28250000Y-50650000D01*
X28250000Y-49503554D01*
X28750000Y-49503554D01*
X28750000Y-50650000D01*
X30497828Y-50650000D01*
X30497844Y-50649999D01*
X30557372Y-50643598D01*
X30557379Y-50643596D01*
X30692086Y-50593354D01*
X30692093Y-50593350D01*
X30807187Y-50507190D01*
X30807190Y-50507187D01*
X30893350Y-50392093D01*
X30893354Y-50392086D01*
X30943596Y-50257379D01*
X30943598Y-50257372D01*
X30949999Y-50197844D01*
X30950000Y-50197827D01*
X30950000Y-48450000D01*
X29803553Y-48450000D01*
X29914280Y-48560726D01*
X29914282Y-48560730D01*
X30165871Y-48812318D01*
X30199356Y-48873641D01*
X30194372Y-48943332D01*
X30165871Y-48987680D01*
X29936560Y-49216990D01*
X29936548Y-49217006D01*
X29517006Y-49636548D01*
X29516999Y-49636551D01*
X29287680Y-49865871D01*
X29226357Y-49899356D01*
X29156665Y-49894372D01*
X29112318Y-49865871D01*
X28860740Y-49614292D01*
X28860725Y-49614280D01*
X28826554Y-49580109D01*
X29100000Y-49580109D01*
X29100000Y-49619891D01*
X29115224Y-49656645D01*
X29143355Y-49684776D01*
X29180109Y-49700000D01*
X29219891Y-49700000D01*
X29256645Y-49684776D01*
X29284776Y-49656645D01*
X29300000Y-49619891D01*
X29300000Y-49580109D01*
X29284776Y-49543355D01*
X29256645Y-49515224D01*
X29219891Y-49500000D01*
X29180109Y-49500000D01*
X29143355Y-49515224D01*
X29115224Y-49543355D01*
X29100000Y-49580109D01*
X28826554Y-49580109D01*
X28750000Y-49503554D01*
X28250000Y-49503554D01*
X28250000Y-49503553D01*
X28117007Y-49636548D01*
X28116998Y-49636552D01*
X27887680Y-49865871D01*
X27826357Y-49899356D01*
X27756665Y-49894372D01*
X27712318Y-49865871D01*
X27460736Y-49614288D01*
X27460726Y-49614280D01*
X27426555Y-49580109D01*
X27700000Y-49580109D01*
X27700000Y-49619891D01*
X27715224Y-49656645D01*
X27743355Y-49684776D01*
X27780109Y-49700000D01*
X27819891Y-49700000D01*
X27856645Y-49684776D01*
X27884776Y-49656645D01*
X27900000Y-49619891D01*
X27900000Y-49580109D01*
X27884776Y-49543355D01*
X27856645Y-49515224D01*
X27819891Y-49500000D01*
X27780109Y-49500000D01*
X27743355Y-49515224D01*
X27715224Y-49543355D01*
X27700000Y-49580109D01*
X27426555Y-49580109D01*
X27044573Y-49198127D01*
X27044571Y-49198124D01*
X26834127Y-48987680D01*
X26800642Y-48926357D01*
X26803949Y-48880109D01*
X27000000Y-48880109D01*
X27000000Y-48919891D01*
X27015224Y-48956645D01*
X27043355Y-48984776D01*
X27080109Y-49000000D01*
X27119891Y-49000000D01*
X27156645Y-48984776D01*
X27184776Y-48956645D01*
X27200000Y-48919891D01*
X27200000Y-48900000D01*
X27453553Y-48900000D01*
X27510841Y-48957287D01*
X27800000Y-49246446D01*
X28146446Y-48900000D01*
X28126555Y-48880109D01*
X28400000Y-48880109D01*
X28400000Y-48919891D01*
X28415224Y-48956645D01*
X28443355Y-48984776D01*
X28480109Y-49000000D01*
X28519891Y-49000000D01*
X28556645Y-48984776D01*
X28584776Y-48956645D01*
X28600000Y-48919891D01*
X28600000Y-48900000D01*
X28853553Y-48900000D01*
X28910841Y-48957287D01*
X29200000Y-49246446D01*
X29546446Y-48900000D01*
X29526555Y-48880109D01*
X29800000Y-48880109D01*
X29800000Y-48919891D01*
X29815224Y-48956645D01*
X29843355Y-48984776D01*
X29880109Y-49000000D01*
X29919891Y-49000000D01*
X29956645Y-48984776D01*
X29984776Y-48956645D01*
X30000000Y-48919891D01*
X30000000Y-48880109D01*
X29984776Y-48843355D01*
X29956645Y-48815224D01*
X29919891Y-48800000D01*
X29880109Y-48800000D01*
X29843355Y-48815224D01*
X29815224Y-48843355D01*
X29800000Y-48880109D01*
X29526555Y-48880109D01*
X29265760Y-48619314D01*
X29200000Y-48553553D01*
X29134240Y-48619314D01*
X29134239Y-48619314D01*
X28853553Y-48900000D01*
X28600000Y-48900000D01*
X28600000Y-48880109D01*
X28584776Y-48843355D01*
X28556645Y-48815224D01*
X28519891Y-48800000D01*
X28480109Y-48800000D01*
X28443355Y-48815224D01*
X28415224Y-48843355D01*
X28400000Y-48880109D01*
X28126555Y-48880109D01*
X27865760Y-48619314D01*
X27800000Y-48553553D01*
X27734240Y-48619314D01*
X27734239Y-48619314D01*
X27453553Y-48900000D01*
X27200000Y-48900000D01*
X27200000Y-48880109D01*
X27184776Y-48843355D01*
X27156645Y-48815224D01*
X27119891Y-48800000D01*
X27080109Y-48800000D01*
X27043355Y-48815224D01*
X27015224Y-48843355D01*
X27000000Y-48880109D01*
X26803949Y-48880109D01*
X26805626Y-48856665D01*
X26834127Y-48812318D01*
X27027132Y-48619314D01*
X27196446Y-48450000D01*
X26050000Y-48450000D01*
X26050000Y-50197844D01*
X25796500Y-50197844D01*
X25796500Y-48180109D01*
X27700000Y-48180109D01*
X27700000Y-48219891D01*
X27715224Y-48256645D01*
X27743355Y-48284776D01*
X27780109Y-48300000D01*
X27819891Y-48300000D01*
X27856645Y-48284776D01*
X27884776Y-48256645D01*
X27900000Y-48219891D01*
X27900000Y-48180109D01*
X29100000Y-48180109D01*
X29100000Y-48219891D01*
X29115224Y-48256645D01*
X29143355Y-48284776D01*
X29180109Y-48300000D01*
X29219891Y-48300000D01*
X29256645Y-48284776D01*
X29284776Y-48256645D01*
X29300000Y-48219891D01*
X29300000Y-48180109D01*
X29284776Y-48143355D01*
X29256645Y-48115224D01*
X29219891Y-48100000D01*
X29180109Y-48100000D01*
X29143355Y-48115224D01*
X29115224Y-48143355D01*
X29100000Y-48180109D01*
X27900000Y-48180109D01*
X27884776Y-48143355D01*
X27856645Y-48115224D01*
X27819891Y-48100000D01*
X27780109Y-48100000D01*
X27743355Y-48115224D01*
X27715224Y-48143355D01*
X27700000Y-48180109D01*
X25796500Y-48180109D01*
X25796500Y-45732500D01*
X25816185Y-45665461D01*
X25868989Y-45619706D01*
X25920500Y-45608500D01*
X26200044Y-45608500D01*
X26267083Y-45628185D01*
X26312838Y-45680989D01*
X26322782Y-45750147D01*
X26293757Y-45813703D01*
X26274356Y-45831766D01*
X26192809Y-45892812D01*
X26106649Y-46007906D01*
X26106645Y-46007913D01*
X26056403Y-46142620D01*
X26056401Y-46142627D01*
X26050000Y-46202155D01*
X26050000Y-47950000D01*
X27196445Y-47950000D01*
X28403555Y-47950000D01*
X28596445Y-47950000D01*
X28538929Y-47892484D01*
X28538928Y-47892482D01*
X28500000Y-47853553D01*
X28461072Y-47892482D01*
X28461071Y-47892484D01*
X28403555Y-47950000D01*
X27196445Y-47950000D01*
X27138929Y-47892484D01*
X27138929Y-47892483D01*
X27044573Y-47798127D01*
X27044571Y-47798124D01*
X26834127Y-47587680D01*
X26800642Y-47526357D01*
X26803949Y-47480109D01*
X27000000Y-47480109D01*
X27000000Y-47519891D01*
X27015224Y-47556645D01*
X27043355Y-47584776D01*
X27080109Y-47600000D01*
X27119891Y-47600000D01*
X27156645Y-47584776D01*
X27184776Y-47556645D01*
X27200000Y-47519891D01*
X27200000Y-47499999D01*
X27453553Y-47499999D01*
X27800000Y-47846446D01*
X28146446Y-47500000D01*
X28126555Y-47480109D01*
X28400000Y-47480109D01*
X28400000Y-47519891D01*
X28415224Y-47556645D01*
X28443355Y-47584776D01*
X28480109Y-47600000D01*
X28519891Y-47600000D01*
X28556645Y-47584776D01*
X28584776Y-47556645D01*
X28600000Y-47519891D01*
X28600000Y-47499999D01*
X28853553Y-47499999D01*
X29200000Y-47846446D01*
X29546446Y-47500000D01*
X29526555Y-47480109D01*
X29800000Y-47480109D01*
X29800000Y-47519891D01*
X29815224Y-47556645D01*
X29843355Y-47584776D01*
X29880109Y-47600000D01*
X29919891Y-47600000D01*
X29956645Y-47584776D01*
X29984776Y-47556645D01*
X30000000Y-47519891D01*
X30000000Y-47480109D01*
X29984776Y-47443355D01*
X29956645Y-47415224D01*
X29919891Y-47400000D01*
X29880109Y-47400000D01*
X29843355Y-47415224D01*
X29815224Y-47443355D01*
X29800000Y-47480109D01*
X29526555Y-47480109D01*
X29261404Y-47214958D01*
X29200000Y-47153553D01*
X29138596Y-47214958D01*
X29138595Y-47214958D01*
X28853553Y-47499999D01*
X28600000Y-47499999D01*
X28600000Y-47480109D01*
X28584776Y-47443355D01*
X28556645Y-47415224D01*
X28519891Y-47400000D01*
X28480109Y-47400000D01*
X28443355Y-47415224D01*
X28415224Y-47443355D01*
X28400000Y-47480109D01*
X28126555Y-47480109D01*
X27861404Y-47214958D01*
X27800000Y-47153553D01*
X27738596Y-47214958D01*
X27738595Y-47214958D01*
X27453553Y-47499999D01*
X27200000Y-47499999D01*
X27200000Y-47480109D01*
X27184776Y-47443355D01*
X27156645Y-47415224D01*
X27119891Y-47400000D01*
X27080109Y-47400000D01*
X27043355Y-47415224D01*
X27015224Y-47443355D01*
X27000000Y-47480109D01*
X26803949Y-47480109D01*
X26805626Y-47456665D01*
X26834127Y-47412318D01*
X27027132Y-47219314D01*
X27466337Y-46780109D01*
X27700000Y-46780109D01*
X27700000Y-46819891D01*
X27715224Y-46856645D01*
X27743355Y-46884776D01*
X27780109Y-46900000D01*
X27819891Y-46900000D01*
X27856645Y-46884776D01*
X27884776Y-46856645D01*
X27900000Y-46819891D01*
X27900000Y-46780109D01*
X27884776Y-46743355D01*
X27856645Y-46715224D01*
X27819891Y-46700000D01*
X27780109Y-46700000D01*
X27743355Y-46715224D01*
X27715224Y-46743355D01*
X27700000Y-46780109D01*
X27466337Y-46780109D01*
X27519314Y-46727132D01*
X27712318Y-46534127D01*
X27773641Y-46500642D01*
X27843332Y-46505626D01*
X27887680Y-46534127D01*
X28098121Y-46744568D01*
X28098127Y-46744573D01*
X28500000Y-47146446D01*
X28866337Y-46780109D01*
X29100000Y-46780109D01*
X29100000Y-46819891D01*
X29115224Y-46856645D01*
X29143355Y-46884776D01*
X29180109Y-46900000D01*
X29219891Y-46900000D01*
X29256645Y-46884776D01*
X29284776Y-46856645D01*
X29300000Y-46819891D01*
X29300000Y-46780109D01*
X29284776Y-46743355D01*
X29256645Y-46715224D01*
X29219891Y-46700000D01*
X29180109Y-46700000D01*
X29143355Y-46715224D01*
X29115224Y-46743355D01*
X29100000Y-46780109D01*
X28866337Y-46780109D01*
X28919314Y-46727132D01*
X29112318Y-46534127D01*
X29173641Y-46500642D01*
X29243332Y-46505626D01*
X29287680Y-46534127D01*
X29498121Y-46744568D01*
X29498127Y-46744573D01*
X29914280Y-47160726D01*
X29914282Y-47160730D01*
X30165871Y-47412318D01*
X30199356Y-47473641D01*
X30194372Y-47543332D01*
X30165871Y-47587680D01*
X29936560Y-47816990D01*
X29936548Y-47817006D01*
X29861071Y-47892483D01*
X29861071Y-47892484D01*
X29803555Y-47950000D01*
X30950000Y-47950000D01*
X30950000Y-46202172D01*
X30949999Y-46202155D01*
X30943598Y-46142627D01*
X30943596Y-46142620D01*
X30893354Y-46007913D01*
X30893350Y-46007906D01*
X30807190Y-45892812D01*
X30807187Y-45892809D01*
X30724970Y-45831261D01*
X30683099Y-45775327D01*
X30678115Y-45705636D01*
X30711601Y-45644313D01*
X30772924Y-45610829D01*
X30787143Y-45608590D01*
X30788054Y-45608500D01*
X30788069Y-45608500D01*
X30913744Y-45583501D01*
X31032127Y-45534465D01*
X31045543Y-45525501D01*
X31138669Y-45463277D01*
X37077821Y-39524123D01*
X37139142Y-39490640D01*
X37208834Y-39495624D01*
G37*
%TD.AperFunction*%
%TA.AperFunction,Conductor*%
G36*
X41361525Y-51815185D02*
G01*
X41407280Y-51867989D01*
X41417224Y-51937147D01*
X41388199Y-52000703D01*
X41359583Y-52025039D01*
X41306654Y-52057685D01*
X41182684Y-52181655D01*
X41090643Y-52330876D01*
X41090641Y-52330881D01*
X41035494Y-52497303D01*
X41035493Y-52497310D01*
X41025000Y-52600014D01*
X41025000Y-52800001D01*
X43774999Y-52800001D01*
X43774999Y-52600029D01*
X43774998Y-52600014D01*
X43764505Y-52497303D01*
X43709358Y-52330881D01*
X43709356Y-52330876D01*
X43617315Y-52181655D01*
X43493345Y-52057685D01*
X43440417Y-52025039D01*
X43393693Y-51973091D01*
X43382470Y-51904128D01*
X43410314Y-51840046D01*
X43468382Y-51801190D01*
X43505514Y-51795500D01*
X45326542Y-51795500D01*
X45393581Y-51815185D01*
X45439336Y-51867989D01*
X45449280Y-51937147D01*
X45428117Y-51990623D01*
X45304432Y-52167265D01*
X45304431Y-52167267D01*
X45208261Y-52373502D01*
X45208258Y-52373511D01*
X45149366Y-52593302D01*
X45149364Y-52593313D01*
X45129532Y-52819998D01*
X45129532Y-52820001D01*
X45149364Y-53046686D01*
X45149366Y-53046697D01*
X45202074Y-53243408D01*
X45200411Y-53313258D01*
X45161248Y-53371120D01*
X45097020Y-53398624D01*
X45082299Y-53399501D01*
X43899000Y-53399501D01*
X43831961Y-53379816D01*
X43786206Y-53327012D01*
X43781811Y-53306812D01*
X43775000Y-53300001D01*
X41025001Y-53300001D01*
X41014816Y-53310185D01*
X41005316Y-53342540D01*
X40952512Y-53388295D01*
X40901001Y-53399501D01*
X39914499Y-53399501D01*
X39847460Y-53379816D01*
X39801705Y-53327012D01*
X39790499Y-53275501D01*
X39790499Y-53187129D01*
X39790498Y-53187123D01*
X39786808Y-53152798D01*
X39784091Y-53127517D01*
X39771340Y-53093332D01*
X39766357Y-53023642D01*
X39771338Y-53006672D01*
X39784091Y-52972483D01*
X39790500Y-52912873D01*
X39790499Y-51919499D01*
X39810183Y-51852461D01*
X39862987Y-51806706D01*
X39914499Y-51795500D01*
X41294486Y-51795500D01*
X41361525Y-51815185D01*
G37*
%TD.AperFunction*%
%TA.AperFunction,Conductor*%
G36*
X63919333Y-44132415D02*
G01*
X63975266Y-44174287D01*
X63999683Y-44239751D01*
X63999999Y-44248597D01*
X63999999Y-44640000D01*
X65275999Y-44640000D01*
X65343038Y-44659685D01*
X65388793Y-44712489D01*
X65399999Y-44764000D01*
X65399999Y-46264999D01*
X65410183Y-46275183D01*
X65442538Y-46284684D01*
X65488293Y-46337488D01*
X65499499Y-46388999D01*
X65499499Y-51600500D01*
X65479814Y-51667539D01*
X65427010Y-51713294D01*
X65375499Y-51724500D01*
X64599998Y-51724500D01*
X64599980Y-51724501D01*
X64497203Y-51735000D01*
X64497200Y-51735001D01*
X64330668Y-51790185D01*
X64330663Y-51790187D01*
X64181342Y-51882289D01*
X64057289Y-52006342D01*
X63965187Y-52155663D01*
X63965185Y-52155668D01*
X63942120Y-52225275D01*
X63910001Y-52322203D01*
X63910001Y-52322204D01*
X63910000Y-52322204D01*
X63899500Y-52424983D01*
X63899500Y-53275501D01*
X63879815Y-53342540D01*
X63827011Y-53388295D01*
X63775500Y-53399501D01*
X60010576Y-53399501D01*
X59943537Y-53379816D01*
X59897782Y-53327012D01*
X59887356Y-53261618D01*
X59905565Y-53100003D01*
X59905565Y-53099996D01*
X59885369Y-52920750D01*
X59885368Y-52920745D01*
X59860613Y-52850000D01*
X59825789Y-52750478D01*
X59729816Y-52597738D01*
X59602262Y-52470184D01*
X59498228Y-52404815D01*
X59449521Y-52374210D01*
X59279255Y-52314632D01*
X59279246Y-52314630D01*
X59272012Y-52313815D01*
X59207600Y-52286744D01*
X59198223Y-52278277D01*
X57559674Y-50639727D01*
X57559671Y-50639724D01*
X57513073Y-50608589D01*
X57468268Y-50554977D01*
X57459561Y-50485652D01*
X57489715Y-50422625D01*
X57519961Y-50398102D01*
X57593716Y-50355520D01*
X57705520Y-50243716D01*
X57705520Y-50243714D01*
X57715724Y-50233511D01*
X57715727Y-50233506D01*
X62384248Y-45564986D01*
X64000000Y-45564986D01*
X64010493Y-45667697D01*
X64065640Y-45834119D01*
X64065642Y-45834124D01*
X64157683Y-45983345D01*
X64281653Y-46107315D01*
X64430874Y-46199356D01*
X64430879Y-46199358D01*
X64597301Y-46254505D01*
X64597308Y-46254506D01*
X64700018Y-46264999D01*
X64899998Y-46264999D01*
X64899999Y-46264998D01*
X64899999Y-45140000D01*
X64000000Y-45140000D01*
X64000000Y-45564986D01*
X62384248Y-45564986D01*
X63788320Y-44160914D01*
X63849641Y-44127431D01*
X63919333Y-44132415D01*
G37*
%TD.AperFunction*%
%TA.AperFunction,Conductor*%
G36*
X79507989Y-23870185D02*
G01*
X79553744Y-23922989D01*
X79563688Y-23992147D01*
X79534663Y-24055703D01*
X79528631Y-24062181D01*
X79421891Y-24168920D01*
X79421886Y-24168926D01*
X79286400Y-24362420D01*
X79286399Y-24362422D01*
X79186570Y-24576507D01*
X79186567Y-24576513D01*
X79129364Y-24789999D01*
X79129364Y-24790000D01*
X80026988Y-24790000D01*
X79994075Y-24847007D01*
X79960000Y-24974174D01*
X79960000Y-25105826D01*
X79994075Y-25232993D01*
X80026988Y-25290000D01*
X79129364Y-25290000D01*
X79167790Y-25433406D01*
X79166127Y-25503256D01*
X79126965Y-25561119D01*
X79062736Y-25588623D01*
X79048015Y-25589500D01*
X78756006Y-25589500D01*
X78688967Y-25569815D01*
X78651013Y-25531473D01*
X78629816Y-25497738D01*
X78502262Y-25370184D01*
X78465376Y-25347007D01*
X78349523Y-25274211D01*
X78179254Y-25214631D01*
X78179249Y-25214630D01*
X78000004Y-25194435D01*
X77999996Y-25194435D01*
X77820750Y-25214630D01*
X77820745Y-25214631D01*
X77650476Y-25274211D01*
X77497737Y-25370184D01*
X77370184Y-25497737D01*
X77274211Y-25650476D01*
X77214631Y-25820745D01*
X77214630Y-25820750D01*
X77194435Y-25999996D01*
X77194435Y-26000003D01*
X77214630Y-26179249D01*
X77214631Y-26179254D01*
X77274211Y-26349523D01*
X77348232Y-26467326D01*
X77370184Y-26502262D01*
X77497738Y-26629816D01*
X77560632Y-26669335D01*
X77642070Y-26720506D01*
X77688361Y-26772841D01*
X77699009Y-26841895D01*
X77670634Y-26905743D01*
X77612244Y-26944115D01*
X77576098Y-26949500D01*
X70559182Y-26949500D01*
X70492143Y-26929815D01*
X70446388Y-26877011D01*
X70436444Y-26807853D01*
X70453643Y-26760404D01*
X70509288Y-26670187D01*
X70509814Y-26669335D01*
X70564999Y-26502798D01*
X70571649Y-26437695D01*
X70598044Y-26373006D01*
X70607317Y-26362627D01*
X72983127Y-23986818D01*
X73044450Y-23953333D01*
X73070808Y-23950499D01*
X73088150Y-23950499D01*
X73088162Y-23950499D01*
X73123627Y-23947709D01*
X73275390Y-23903618D01*
X73336009Y-23867767D01*
X73399130Y-23850500D01*
X79440950Y-23850500D01*
X79507989Y-23870185D01*
G37*
%TD.AperFunction*%
%TD*%
M02*
